<?xml version="1.0" encoding="utf-8"?>
<svg version="1.1" xmlns:xlink="http://www.w3.org/1999/xlink" width="106px" height="86px" xmlns="http://www.w3.org/2000/svg">
  <g transform="matrix(1 0 0 1 -626 -336 )">
    <path d="M 105.880898876405 60.4174712257543  C 105.837938402319 57.9524052987663  103.830388479366 55.9704925803808  101.355056179775 55.9494253259698  C 101.115292985462 55.9476003305187  100.901773472976 55.7979519447032  100.819101123596 55.5737931034483  C 100.029233391034 53.5043821897349  98.9099098759284 51.5751629103675  97.5041198889572 49.860229846444  C 97.3677750297897 49.6639570676875  97.3677750297896 49.404088832097  97.5041198889572 49.2078160533405  C 98.7629690011965 47.0347398381344  98.0168186126292 44.2568097298357  95.8367041586201 43  L 94 42.1103448275862  L 94 6.01011498114225  C 94.3479401136763 2.73449508559409  91.6817706463765 0.0790804983836208  88.392883933901 0  L 6.35205988632374 0  C 3.06317317384823 0.0790804983836208  0.397003706548455 2.73449508559408  1 6.01011498114224  L 1 56.1075862068965  C 0.407877441456103 58.6471516095898  2.47224634286479 60.7031931416697  5.02209741704705 60  L 32.1573033707865 60  L 30.1722846054249 68.0289655172414  L 27.5322097765976 68.0289655172414  C 23.5521049777441 68.0316612292578  20.0944729991099 70.7555256561754  19.1752808988764 74.6124137931034  L 14.2921348314607 74.6124137931034  C 13.1960269122013 74.6126780483097  12.3075965626281 75.4977388321614  12.3075965626281 76.5894252680496  C 12.3075965626281 77.6811117039377  13.1960269122013 78.5661724877894  14.2921348314607 78  L 64.8505617977528 78  C 64.8169300438215 79.0387877272248  64.8639122988274 79.5133996623069  64.9895131473841 79.9701149811422  C 65.2902462494886 81.141945363363  66.0571220337376 82.1412867419504  67.1134831460674 82.7379310344828  L 71.3018726979459 85.1498850188577  C 71.9935980318263 85.5453797415955  72.7772841839512 85.753489567646  73.5748865926874 85.753489567646  C 75.210345046663 85.753489567646  76.7208791286699 84.8822256996974  77.5348314606742 83.4694253259698  C 77.6662774270635 83.2633161832433  77.9080235243881 83.1545808991723  78.1501873046875 83.1926436395474  C 80.3307532085628 83.5682766780689  82.5598835343269 83.5682766780689  84.7404494382023 83.1926436395474  C 84.987782301368 83.1527163997418  85.2337527739213 83.2712542643487  85.3558052822156 83.4891953636853  C 86.1792845795045 84.8934663567998  87.6930526015757 85.7528335546952  89.3258426966292 85.7429884671336  C 90.1261495509907 85.750708313013  90.9140798037298 85.5459904362217  91.6086142709796 85.1498850188577  L 95.7970037065485 82.7379310344828  C 96.8473140877556 82.1344004616463  97.6119805502189 81.1379381784356  97.9209738215415 79.9701149811422  C 98.2403190222226 78.8090151747165  98.0757048118192 77.5686965997137  97.4644194368855 76.5301149811422  C 97.3246321292203 76.3276807402707  97.3246321292203 76.0603652753543  97.4644194368855 75.8579310344827  C 98.8658461317052 74.1472722723966  99.9848485524974 72.2252800824778  100.779400787834 70.1641379310345  C 100.857049785055 69.9361870915283  101.073704801263 69.7843411404168  101.315355844013 69.7885057085129  C 103.832318308797 69.7776769854955  105.87002629522 67.7481887710416  105.880898876405 65.2413793103448  L 105.880898876405 60.4174712257543  Z M 4.36704123727177 12  L 4.36704123727177 6.01011498114224  C 4.36704123727177 4.91824170653907  5.2557643395083 4.03310351225281  6.35205988632374 4  L 88.392883933901 4  C 89.4891794807164 4.03310351225281  90.3779025829529 4.91824170653907  90.3779025829529 6.01011498114224  L 90.3779025829529 12  L 4.36704123727177 12  Z M 58.9153558440133 56  L 5.02209741704705 56  C 4.66031987867475 56.76  4.36704123727178 56.4679043954069  5 56.1075862068965  L 5 16  L 90 16  L 90 40.1333332947198  C 88.449649690226 39.6232789538064  86.4128352112688 40.4250964961738  85.3558052822156 42.1103448275862  C 85.2293334849706 42.309919558979  84.9929934551942 42.4119204662699  84.7602996642381 42.3673563604526  C 82.5780843076188 42.0113739916997  80.3522527710328 42.0113739916997  78.1700374144136 42.3673563604526  C 77.9367112723058 42.4179949354811  77.6969857939724 42.3145329180062  77.5745317964361 42.1103448275862  C 76.764482459131 40.702356370472  75.2597686815346 39.8338471918685  73.6304429583217 39.8338471918685  C 72.8262246075056 39.8338471918685  72.0364021429658 40.0463446219964  71.3415730337079 40.4496551724138  L 67.1531834818294 42.8616091567888  C 66.0995412479396 43.4519607502084  65.3326729928854 44.4441542624131  65.0292134831461 45.6096551724138  C 64.7117849482544 46.7751994943688  64.8687060822846 48.0184005156167  65.4659176417661 49.0694253259698  C 65.6148811151856 49.2615927241685  65.6148811151856 49.5296717208746  65.4659176417661 49.7218391190733  C 64.0601276244288 51.4367721397277  62.9408040702373 53.3659913796598  62.1509362908181 55.4354022602371  C 62.068263941438 55.659561101492  61.8547444289517 55.8092094873075  61.6149812346383 55.8110344827586  C 60.6427353542358 55.8124177630341  59.6965488471831 56.1242312920484  58.9153558440133 56  Z M 56.9700374144136 65.2413793103448  C 56.982740931337 66.2542355382501  57.3317298477375 67.2344143150874  57.9625468552493 68  L 34.1423221361482 68  L 36.1273407852001 60  L 56.9700374144136 60  L 56.9700374144136 65.2413793103448  Z M 27.5322097765976 71.9829884671336  L 27.5520598863237 72  L 62.885393258427 72  C 63.3391111640464 72.8944538308853  63.8564866513863 73.773086767321  64.4337078651685 74  L 23.3636704507549 74  C 24.1285176052789 73.0092809724147  25.750111436824 71.9864143143824  27.5322097765976 71.9829884671336  Z M 101.950561797753 60.4965517241379  L 101.950561797753 65.2413793103448  C 101.950561797753 65.5689412998996  101.683944851023 65.8344827586207  101.355056179775 65.8344827586207  C 99.4625019239651 65.8391659467724  97.7672708698466 67.0014084421466  97.0872659563729 68.7604598087285  C 96.4527623872101 70.4273040148402  95.5547899410421 71.9824053819971  94.4273407852001 73.3668965517241  C 93.2374399851866 74.8307683893227  93.0719009512343 76.8720318069375  94.0104868526159 78.5071263981681  C 94.0751074878318 78.6449645776728  94.0751074878318 78.8042307860125  94.0104868526159 78.9420689655173  C 93.9755112543463 79.1008569173734  93.874498713375 79.2373924071283  93.7325842696629 79.3177011880388  L 89.6037452795822 81.6505746740302  C 89.5152128357132 81.6996202701218  89.415581151229 81.7253604979855  89.3142747412612 81.7253604979855  C 89.0951520487611 81.7253604979855  88.8937315546662 81.605508820941  88.7898876404494 81.4133332947198  C 87.8291202876848 79.7823375510953  85.9584914481601 78.9097543566499  84.085393258427 79.2188505360991  C 82.3379299011574 79.5153273452101  80.5527068417324 79.5153273452101  78.8052434844628 79.2188505360991  C 76.9277246031184 78.9135116024452  75.0558998568483 79.7945187966192  74.1007491024403 81.4331034482759  C 73.9296612799436 81.7082329393738  73.5732780750679 81.8034622246933  73.2868913469979 81.6505746740302  L 69.0985019114291 79.2386206896552  C 68.9565874234306 79.1583119333197  68.8555748374813 79.0217764399132  68.8205992121664 78.8629884671336  C 68.7559786131557 78.7251503201411  68.7559786131557 78.5658841626175  68.8205992121665 78.428046015625  C 69.7478749151394 76.7904570254464  69.5828844385424 74.7559578279988  68.4037452795822 73.2878160533405  C 67.2661369239961 71.9068499868503  66.3611122508899 70.3511453211533  65.7239699986833 68.6813793103448  C 65.0427915670351 66.969406356778  63.3845217257224 65.8422612415291  61.5355805631145 65.8344827586207  C 61.2066918918669 65.8344827586207  60.9400749451369 65.5689412998996  60.9400749451369 65.2413793103448  L 60.9400749451369 60.4174712257543  C 60.9398384997401 60.4107660034205  60.9397202497189 60.4040571639282  60.9397202497189 60.397347807562  C 60.9397202497189 60.080704572318  61.1974499475334 59.8240145128422  61.5153756416606 59.8240145128422  C 61.5221121720592 59.8240145128422  61.5288481834917 59.8241322858627  61.5355805631145 59.8243677774785  C 63.4226312390333 59.8171223279206  65.1107549731296 58.6543443434819  65.783520560481 56.8983908432112  C 66.4161325402322 55.2264815346914  67.3215674742323 53.6700716062228  68.4632958413799 52.291953984375  C 69.6424349488512 50.8238122337473  69.8074254240411 48.7893130995007  68.8801497739642 47.1517241379311  C 68.81476049003 47.007148895929  68.81476049003 46.8415867748684  68.8801497739642 46.6970115328664  C 68.912827263589 46.5421012746156  69.0153442474497 46.4108254501001  69.1580524732268 46.3411494639009  L 73.3464419087956 43.9291953636854  C 73.4438457149672 43.9022247618548  73.5467909116129 43.9022247618548  73.6441947177844 43.9291953636853  C 73.846019838547 43.9317327413201  74.0328169036015 44.0359171541978  74.1404494382022 44.2059770501078  C 75.0995937184027 45.8402265342537  76.9682524501023 46.7197435420485  78.8449438202247 46.4202298464439  C 80.5924071774943 46.123753037333  82.3776302369193 46.123753037333  84.1250935941889 46.420229846444  C 86.0141407483664 46.6743055838166  87.8662093682686 45.7480821032601  88.7898876404495 44.0873563604526  C 88.8935527399549 43.913172199766  89.0817810302721 43.8063656761413  89.2850858203738 43.8063656761413  C 89.3904658093808 43.8063656761413  89.4938239833945 43.8351755184845  89.583895169856 43.8896551724138  L 93.7722846054249 46.3016091567888  C 93.914992831202 46.3712851429881  94.0175098150627 46.5025609675035  94.0501873046875 46.6574712257543  C 94.1155766235503 46.8020465006784  94.1155766235503 46.9676086717354  94.0501873046875 47.1121839466595  C 93.115022980044 48.7411699720618  93.2805948898027 50.7749861938205  94.4670412372718 52.2326436395474  C 95.5949099924498 53.6241173476873  96.4928212571799 55.1857866427644  97.1269662921348 56.8588505360991  C 97.7675282526765 58.647661726102  99.4487298039995 59.8582751660402  101.355056179775 59.9034482758621  C 101.361788559399 59.9032127842463  101.36852457083 59.9030950112258  101.375261101229 59.9030950112258  C 101.693186795356 59.9030950112258  101.950916493171 60.1597850707016  101.950916493171 60.4764283059456  C 101.950916493171 60.4831376623117  101.95079824315 60.4898465018042  101.950561797753 60.4965517241379  Z " fill-rule="nonzero" fill="#39bbdb" stroke="none" transform="matrix(1 0 0 1 626 336 )" />
  </g>
</svg>