<?xml version="1.0" encoding="utf-8"?>
<svg version="1.1" xmlns:xlink="http://www.w3.org/1999/xlink" width="18px" height="19px" xmlns="http://www.w3.org/2000/svg">
  <g transform="matrix(1 0 0 1 -698 -390 )">
    <path d="M 17.941935483871 9.46041670532226  C 17.941935483871 4.49790808809792  14.0078182364272 0.47499999999999  9.15483867187501 0.47499999999999  C 4.30185910732285 0.47499999999999  0.367741859879035 4.49790808809792  0.367741859879035 9.46041670532226  C 0.367741859879035 14.4229253225466  4.30185910732285 18.4458334106445  9.15483867187501 18.4458334106445  C 14.0078182364272 18.4458334106445  17.941935483871 14.4229253225466  17.941935483871 9.46041670532226  Z M 9.15483867187501 14.4479167053222  L 9.15483867187501 14.4875  C 6.43973571344339 14.4875  4.23870979082661 12.2367981451019  4.23870979082661 9.46041670532226  C 4.23870979082661 6.68403526554261  6.43973571344339 4.43333341064452  9.15483878528224 4.43333341064452  C 11.8699418571211 4.43333341064452  14.0709677797379 6.68403526554261  14.0709677797379 9.46041670532226  C 14.0497075053891 12.2213275369717  11.8548962939092 14.4480023612248  9.15483867187501 14.4479167053222  Z " fill-rule="nonzero" fill="#39bbdb" stroke="none" transform="matrix(1 0 0 1 698 390 )" />
  </g>
</svg>