<?xml version="1.0" encoding="utf-8"?>
<svg version="1.1" xmlns:xlink="http://www.w3.org/1999/xlink" width="30px" height="32px" xmlns="http://www.w3.org/2000/svg">
  <g transform="matrix(1 0 0 1 -798 -31 )">
    <path d="M 30 30.9389070680628  L 29.9338727678571 31.8464332460733  L 0.105809771825397 31.8464332460733  L 0.105809771825397 30.9389070680628  C 0.105809771825397 29.0540903141361  0.502635168650794 27.3089005235602  1.29628596230159 25.5637107329843  C 2.02380952380952 23.9581151832461  3.14815848214286 22.4921465968586  4.53704737103175 21.2356020942408  C 6.32276165674603 19.5602094240838  8.57142857142857 18.4432918848168  10.952380952381 17.8150196335079  C 10.1587301587302 17.3961714659686  9.43120659722222 16.8376963350785  8.76984126984127 16.1396269633508  C 7.11641245039683 14.3944044502618  6.19047619047619 12.020942408377  6.19047619047619 9.50785340314136  C 6.19047619047619 6.99476439790576  7.11641245039683 4.62130235602094  8.76984126984127 2.87607984293194  C 10.4232700892857 1.13085732984293  12.6719680059524 0.153566753926701  15.0529203869048 0.153566753926701  C 17.4338727678571 0.153566753926701  19.6825396825397 1.13089005235602  21.3359685019841 2.87607984293194  C 22.9893973214286 4.62126963350785  23.9153335813492 6.99476439790576  23.9153335813492 9.50785340314136  C 23.9153335813492 12.020942408377  22.9894283234127 14.3944044502618  21.3359685019841 16.1396269633508  C 20.6746031746032 16.8376963350785  19.9470796130952 17.3961714659686  19.1534288194444 17.8150196335079  C 21.5343812003968 18.4432918848168  23.7169208829365 19.6300065445026  25.5687934027778 21.2356020942408  C 26.9576822916667 22.4921465968586  28.015873015873 23.9581151832461  28.8095238095238 25.5637107329843  C 29.6031746031746 27.2391034031414  30 29.0540903141361  30 30.9389070680628  Z M 15.0529203869048 19.1413612565445  C 8.10847594246032 19.1413612565445  2.35450768849206 23.9581151832461  1.89152405753968 30  L 28.2142857142857 30  C 27.6851748511905 23.9581151832461  21.9973648313492 19.1413612565445  15.0529203869048 19.1413612565445  Z M 22.1957775297619 9.50785340314136  C 22.1957775297619 5.31937172774869  18.9550161210317 1.89878926701571  15.0529203869048 1.89878926701571  C 11.0846664186508 1.89878926701571  7.91006324404762 5.31937172774869  7.91006324404762 9.43805628272251  C 7.91006324404762 13.6265379581152  11.1507936507937 16.9773232984293  15.0529203869048 16.9773232984293  C 18.9550471230159 16.9773232984293  22.1957775297619 13.696335078534  22.1957775297619 9.50785340314136  Z " fill-rule="nonzero" fill="#39bbdb" stroke="none" transform="matrix(1 0 0 1 798 31 )" />
  </g>
</svg>