<?xml version="1.0" encoding="utf-8"?>
<svg version="1.1" xmlns:xlink="http://www.w3.org/1999/xlink" width="14px" height="13px" xmlns="http://www.w3.org/2000/svg">
  <g transform="matrix(1 0 0 1 -144 -5 )">
    <path d="M 13.740234375 10.5399305555556  C 13.9134114583333 10.8258101851852  14 11.1643518518518  14 11.5555555555556  C 14 11.9467592592593  13.9134114583333 12.2853009259259  13.740234375 12.5711805555556  C 13.5670572916667 12.8570601851852  13.3619791666667 13  13.125 13  L 0.875 13  C 0.638020833333333 13  0.432942708333333 12.8570601851852  0.259765625 12.5711805555556  C 0.0865885416666667 12.2853009259259  0 11.9467592592593  0 11.5555555555556  C 0 11.1643518518518  0.0865885416666667 10.8258101851852  0.259765625 10.5399305555556  L 6.384765625 0.428819444444445  C 6.55794270833333 0.142939814814813  6.76302083333333 0  7 0  C 7.23697916666667 0  7.44205729166667 0.142939814814813  7.615234375 0.428819444444445  L 13.740234375 10.5399305555556  Z " fill-rule="nonzero" fill="#61d2e8" stroke="none" transform="matrix(1 0 0 1 144 5 )" />
  </g>
</svg>