<?xml version="1.0" encoding="utf-8"?>
<svg version="1.1" xmlns:xlink="http://www.w3.org/1999/xlink" width="20px" height="22px" xmlns="http://www.w3.org/2000/svg">
  <g transform="matrix(1 0 0 1 -23 -131 )">
    <path d="M 9.07023346212636 22  L 9.07235621178668 21.9978517773437  L 9.07023346212636 21.9978517773437  C 7.70317945397418 21.9978517773437  6.39768535580842 21.5789473710937  5.29173017153533 20.7862513417969  C 4.18152948794158 19.9914070898437  3.37063720703125 18.8915144902344  2.94396352751359 17.6047261113281  L 2.93334975798234 17.5725026855469  L 2.88664913807744 17.4264232011719  L 0.180136952275815 8.706766921875  C -0.172240319293478 7.6691729296875  0.369062117866848 6.52631579101562  1.39222987432065 6.15682061328125  L 1.39859812330163 6.154672390625  C 2.19250836447011 5.8775510234375  3.05434676460598 6.1503759453125  3.57654441236413 6.7733619765625  L 3.23690365998641 4.34156821484375  C 3.14774796195652 3.828141796875  3.26874498980978 3.28464017578125  3.56805339249321 2.8485499453125  C 3.87373006538723 2.406015046875  4.32587680451766 2.11170783398437  4.84382893172554 2.01933404492187  C 5.3660265794837 1.92481203320312  5.89459247622283 2.04726100390625  6.3340027173913 2.36519870898437  C 6.6863799889606 2.61868958398437  6.94323331351902 2.96670247070312  7.07696683933424 3.36842105273437  L 7.08121233865489 1.97636950585937  C 7.08121233865489 0.8872180625  7.97276929772418 0  9.07023346212636 0  C 10.1592066066576 0  11.048640794837 0.87862512890625  11.0571318147079 1.95918368164062  L 11.1802515922215 4.68743285742188  L 11.3415809485394 3.76154672265625  C 11.4095091075068 3.24597208203125  11.6706079101562 2.7798066484375  12.0781768002717 2.4489795859375  C 12.4984822308084 2.10741138867188  13.0185571076766 1.95488721484375  13.5450002759851 2.01503759960938  L 13.553491295856 2.01718582226563  C 14.0778116932745 2.08592911914063  14.5448177224864 2.356605796875  14.8717219344429 2.77765842578125  C 15.1965033967391 3.1987110546875  15.3429734629755 3.7250268515625  15.2814135742187 4.25563909375  L 15.2771680748981 4.27926960742188  L 14.1393715820313 11.8023630527344  C 14.1308805621603 11.8668098828125  14.1223895422894 11.9377014023438  14.1117757727582 12.0128893671875  C 14.0799344429348 12.2448979511719  14.0013925356658 12.8227712207031  14.0289883449389 13.0655209394531  C 14.0629524244225 13.0375939804687  14.1075302734375 12.9903329746094  14.1521081012228 12.9151450097656  L 15.6911052352242 10.0902255566406  L 15.7144555451766 10.0558539296875  C 16.0986741465693 9.51450055273437  16.7482370711617 9.15359828710938  17.4529915930706 9.0912996796875  C 18.1195365574049 9.03114929492187  18.7563629415761 9.24812029882812  19.2000186820652 9.68421052929688  C 19.6564109417459 10.1353383398437  19.9090187457541 10.6809881835937  19.9260007642663 11.2610096757812  C 19.9429828040082 11.7959183847656  19.7667941576087 12.3523093632812  19.4038031377378 12.9129967871094  C 19.306156419837 13.0784103183594  18.4039856912364 14.6143931269531  17.3595903957201 16.2212674550781  C 15.3493417331861 19.312567140625  14.5257129330842 20.062298609375  14.0820572138247 20.33512353125  C 13.3603206309443 20.8657357734375  12.5664103897758 21.2760472675781  11.7194312797215 21.5596133242187  C 10.8639611497962 21.8453276035156  9.9724041907269 21.9935553320312  9.07023346212636 22  Z M 4.17940673828125 17.0075187949219  L 4.24096662703804 17.1944146171875  C 4.93086188009511 19.2459720878906  6.86681413468071 20.6208378105469  9.06811071246603 20.6229860332031  C 10.6028623259171 20.6122448984375  12.0696858016304 20.1224489726563  13.3093745117188 19.20515575  L 13.3369703209918 19.1836734589844  L 13.3666888799253 19.16648765625  C 13.5407547554348 19.0633727324219  14.2582458389946 18.4919441523437  16.2281621518342 15.4629430742188  C 17.3107670261549 13.7980666054688  18.2362880647079 12.212674546875  18.2447790845788 12.1976369453125  L 18.263883873981 12.1675617636719  C 18.7860815217391 11.3684210449219  18.5504557574728 10.9602577949219  18.2532701044497 10.6659505820313  C 18.0940634977921 10.5091299628906  17.8457012143342 10.4339419980469  17.5739886209239 10.4575725117188  C 17.2768029679008 10.4833512480469  16.9987221042799 10.625134265625  16.8395154976223 10.829215890625  L 15.3344824431046 13.5939849589844  L 15.330236943784 13.6004296484375  C 14.9757369225543 14.2126745449219  14.3962248853601 14.5413533847656  13.8188356190557 14.4575725078125  C 13.3412158203125 14.3888292109375  13.0588894573709 14.0515574804688  12.9654882600204 13.9419978457031  L 12.9548744904891 13.9312567109375  C 12.5727786599864 13.4865735683594  12.6364612984035 12.7776584375  12.7659493248981 11.8216970996094  C 12.7765630944293 11.7486573574219  12.7850541143003 11.6799140605469  12.7935451341712 11.6176154746094  L 12.7956678838315 11.6004296503906  L 13.9334643766984 4.0859291171875  C 13.9674284561821 3.74221267578125  13.7233116720448 3.4285714375  13.3857936693275 3.38131041015625  C 13.0546439368207 3.3447905390625  12.7277397248641 3.60902254882813  12.6874073963995 3.94844254492188  L 12.6831618758492 3.98496241601563  L 11.5920659816576 10.2556390878906  L 11.5729611922554 10.3114930273438  C 11.432859375 10.7046186972656  11.0910958941916 10.9344790585937  10.7196138332201 10.8807733632813  C 10.4372874702785 10.839957046875  10.0976467179008 10.6100966640625  10.0636826384171 10.0966702460937  L 10.0636826384171 10.0816326445312  L 9.69856884765625 1.99355530859375  L 9.69856884765625 1.97636950585937  C 9.69856884765625 1.64339422070312  9.41624248471467 1.37486574414063  9.07023346212636 1.37486574414063  C 8.72210168987772 1.37486574414063  8.43977532693614 1.64554244335938  8.43977532693614 1.97636950585937  L 8.43977532693614 1.97851772851563  L 8.41430226732337 10.09881846875  C 8.42491603685462 10.5026852734375  8.14046692425272 10.8421052480469  7.75624832286005 10.878625140625  C 7.36778422214674 10.9151450117187  7.03663448963995 10.6401718671875  6.97507462211277 10.2363050410156  L 5.81392781929348 3.90118151757813  C 5.75236793053668 3.5596133203125  5.40848167883832 3.31471535742187  5.07945471722147 3.37271749804688  L 5.07733194633152 3.37271749804688  C 4.91812533967391 3.40064445703125  4.7780235436481 3.49301824609375  4.68249959663723 3.6326530625  C 4.58485287873641 3.7744361015625  4.54664329993206 3.94629430078125  4.57423910920516 4.10741138671875  L 4.57848460852581 4.13533834570312  L 5.62075715438179 11.6133190078125  L 5.62075715438179 11.6605800136719  C 5.62075715438179 12.1783028984375  5.3023439622962 12.4210526171875  5.02850859799592 12.4747583339844  C 4.75891875424592 12.5263158066406  4.37894567340353 12.4210526386719  4.20063427734375 11.9527389824219  L 4.19851152768342 11.9484425371094  L 2.65102337381114 7.86036519726562  C 2.53214911684783 7.52738991210937  2.16278980553669 7.34049408984375  1.84437661345109 7.450053703125  C 1.52171790081522 7.56820622851562  1.35189752462636 7.93125671679687  1.4644035326087 8.25993555664062  L 1.47077178158968 8.28141782617188  L 4.17940673828125 17.0075187949219  Z " fill-rule="nonzero" fill="#ffffff" stroke="none" transform="matrix(1 0 0 1 23 131 )" />
  </g>
</svg>