<?xml version="1.0" encoding="utf-8"?>
<svg version="1.1" xmlns:xlink="http://www.w3.org/1999/xlink" width="10px" height="10px" xmlns="http://www.w3.org/2000/svg">
  <g transform="matrix(1 0 0 1 -181 -137 )">
    <path d="M 9.53 8.78  L 5.72 5  L 9.53 1.19  C 9.72 1  9.72 0.69  9.53 0.470000000000001  L 9.5 0.44  C 9.31 0.25  9 0.25  8.81 0.44  L 5 4.28  L 1.19 0.470000000000001  C 1 0.28  0.69 0.28  0.5 0.470000000000001  L 0.470000000000001 0.5  C 0.28 0.69  0.28 1  0.470000000000001 1.22  L 4.28 5  L 0.470000000000001 8.81  C 0.28 9  0.28 9.31  0.470000000000001 9.53  L 0.5 9.56  C 0.69 9.75  1 9.75  1.19 9.56  L 5 5.72  L 8.81 9.53  C 9 9.72  9.31 9.72  9.5 9.53  L 9.53 9.5  C 9.72 9.31  9.72 9  9.53 8.78  Z " fill-rule="nonzero" fill="#141f34" stroke="none" transform="matrix(1 0 0 1 181 137 )" />
  </g>
</svg>