<?xml version="1.0" encoding="utf-8"?>
<svg version="1.1" xmlns:xlink="http://www.w3.org/1999/xlink" width="20px" height="20px" xmlns="http://www.w3.org/2000/svg">
  <g transform="matrix(1 0 0 1 -176 -132 )">
    <path d="M 20 10  C 20 15.52  15.52 20  10 20  C 4.48 20  0 15.52  0 10  C 0 4.48  4.48 0  10 0  C 15.52 0  20 4.48  20 10  Z M 19.05 10  C 19.05 5.01  14.98 0.95  10 0.95  C 5.02 0.95  0.95 5.02  0.95 10  C 0.95 14.98  5.01 19.05  10 19.05  C 14.99 19.05  19.05 14.99  19.05 10  Z " fill-rule="nonzero" fill="#141f34" stroke="none" transform="matrix(1 0 0 1 176 132 )" />
  </g>
</svg>