<?xml version="1.0" encoding="utf-8"?>
<svg version="1.1" xmlns:xlink="http://www.w3.org/1999/xlink" width="35px" height="35px" xmlns="http://www.w3.org/2000/svg">
  <g transform="matrix(1 0 0 1 -110 -171 )">
    <path d="M 34.8860465116279 2.46356589134039  C 34.8860465116279 1.18012403087527  33.8333333332009 0.135658914596202  32.5394728680846 0.135658914596203  L 9.74747286808458 0.135658914596203  C 8.4536124029683 0.135658914596203  7.40089922454124 1.18012403087527  7.40089922493868 2.46356589134039  L 7.40089922493868 7.32232558139535  L 2.50393798436364 7.32232558139535  C 1.20986046511628 7.32232558139535  0.157364340820313 8.36679069767442  0.15736434121775 9.65044961227062  L 0.15736434121775 32.5362170541311  C 0.15736434121775 33.8198759687273  1.20986046511628 34.8643410850064  2.50393798436364 34.8643410854038  L 25.2957209302326 34.8643410854038  C 26.5893643412177 34.8643410854038  27.6422945737759 33.8198759691247  27.6422945737759 32.5362170541311  L 27.6422945737759 27.6774573644736  L 32.5394728680846 27.6774573644736  C 33.8333333332009 27.6774573644736  34.8860465116279 26.6332093023256  34.8860465116279 25.3493333332009  L 34.8860465116279 2.46356589134039  Z M 25 10  L 25 32  L 3 32  L 3 10  L 25 10  Z M 32 3  L 32 25.0908217052939  L 27 25.0908217052939  L 27 9.65044961227062  C 27.6422945737759 8.36679069767442  26.5893643412177 7.32232558139535  25.2957209302326 8  L 10.0083720930233 8  L 10.0083720930233 3  L 32 3  Z " fill-rule="nonzero" fill="#027db4" stroke="none" transform="matrix(1 0 0 1 110 171 )" />
  </g>
</svg>