<?xml version="1.0" encoding="utf-8"?>
<svg version="1.1" xmlns:xlink="http://www.w3.org/1999/xlink" width="35px" height="35px" xmlns="http://www.w3.org/2000/svg">
  <g transform="matrix(1 0 0 1 -158 -238 )">
    <path d="M 15.5555555403646 31.1111111263021  L 19.4444444596354 31.1111111263021  L 19.4444444596354 35  L 15.5555555403646 35  L 15.5555555403646 31.1111111263021  Z M 0 4.22333333333334  C 0 3.14944631138372  0.870557437685797 2.27888887369792  1.94444445963542 2.27888887369792  C 2.57963658647406 2.2786065063149  3.17492381466205 2.58859145257157  3.53888887369792 3.10916666666667  L 12.8313888736979 16.3858333333333  C 13.2992082874606 17.0549501150363  13.2992082874606 17.9450498849637  12.8313888736979 18.6141666666667  L 3.53694445963542 31.8908333333333  C 3.17303244853865 32.4102610871567  2.57866553118779 32.7195690231919  1.94444384812853 32.7195690231919  C 0.871159005520096 32.7195690231919  0.000851202453090612 31.8499511717385  0 30.7766666666667  L 0 4.22333333333334  Z M 31.4630555403646 3.10916666666667  C 31.8266269238887 2.58915444736491  32.4210504301297 2.2792413316032  33.0555555403646 2.27888887369792  C 34.0419999096893 2.27913472113561  34.8719613625388 3.01799266402293  34.9863888736979 3.99777779296875  L 35 4.22333333333334  L 35 30.7766666666667  C 34.9982778539726 31.8493333833308  34.1282261454294 32.7179893616999  33.0555580463298 32.7179893616999  C 32.5076589863371 32.7179893616999  31.9851865691634 32.486834876767  31.6166666666667 32.0813888736979  L 31.4611111263021 31.8908333333333  L 22.1686111263021 18.6141666666667  C 21.7564181535508 18.0246926861635  21.7033151771462 17.2558215972136  22.0305555403646 16.6152777929688  L 22.1686111263021 16.3858333333333  L 31.4630555403646 3.10916666666667  Z M 15.5555555403646 23.3333333333333  L 19.4444444596354 23.3333333333333  L 19.4444444596354 27.2222222070312  L 15.5555555403646 27.2222222070312  L 15.5555555403646 23.3333333333333  Z M 3.11305554036458 8.70916666666667  L 3.11111112630208 8.70916666666667  L 3.11111112630208 26.8333333333333  L 9.47722220703125 17.5  L 3.11305554036458 8.70916666666667  Z M 15.5555555403646 15.5555555403646  L 19.4444444596354 15.5555555403646  L 19.4444444596354 19.4444444596354  L 15.5555555403646 19.4444444596354  L 15.5555555403646 15.5555555403646  Z M 15.5555555403646 7.77777779296875  L 19.4444444596354 7.77777779296875  L 19.4444444596354 11.6666666666667  L 15.5555555403646 11.6666666666667  L 15.5555555403646 7.77777779296875  Z M 15.5555555403646 0  L 19.4444444596354 0  L 19.4444444596354 3.88888887369792  L 15.5555555403646 3.88888887369792  L 15.5555555403646 0  Z " fill-rule="nonzero" fill="#027db4" stroke="none" transform="matrix(1 0 0 1 158 238 )" />
  </g>
</svg>