<?xml version="1.0" encoding="utf-8"?>
<svg version="1.1" xmlns:xlink="http://www.w3.org/1999/xlink" width="35px" height="35px" xmlns="http://www.w3.org/2000/svg">
  <g transform="matrix(1 0 0 1 -18 -171 )">
    <path d="M 34.8484563253012 17.5  L 28.4045557228916 11.062688253012  L 26.5464984939759 12.9207454819277  L 29.8013930722892 16.1822289156626  L 18.8177710843374 16.1822289156626  L 18.8177710843374 5.19860692771084  L 22.0792545180723 8.4535015060241  L 23.937311746988 6.59544427710843  L 17.5 0.151543674698795  L 11.062688253012 6.59544427710843  L 12.9207454819277 8.4535015060241  L 16.1822289156626 5.19860692771084  L 16.1822289156626 16.1822289156626  L 5.19860692771084 16.1822289156626  L 8.4535015060241 12.9207454819277  L 6.59544427710843 11.062688253012  L 0.151543674698795 17.5  L 6.59544427710843 23.937311746988  L 8.4535015060241 22.0792545180723  L 5.19860692771084 18.8177710843374  L 16.1822289156626 18.8177710843374  L 16.1822289156626 29.8013930722892  L 12.9207454819277 26.5464984939759  L 11.062688253012 28.4045557228916  L 17.5 34.8484563253012  L 23.937311746988 28.4045557228916  L 22.0792545180723 26.5464984939759  L 18.8177710843374 29.8013930722892  L 18.8177710843374 18.8177710843374  L 29.8013930722892 18.8177710843374  L 26.5464984939759 22.0792545180723  L 28.4045557228916 23.937311746988  L 34.8484563253012 17.5  Z " fill-rule="nonzero" fill="#027db4" stroke="none" transform="matrix(1 0 0 1 18 171 )" />
  </g>
</svg>