<?xml version="1.0" encoding="utf-8"?>
<svg version="1.1" xmlns:xlink="http://www.w3.org/1999/xlink" width="35px" height="35px" xmlns="http://www.w3.org/2000/svg">
  <g transform="matrix(1 0 0 1 -65 -238 )">
    <path d="M 34.2720868215729 34.2085333332009  C 35.0654201547738 33.4145054262241  35.0608620152389 32.1258108524482  34.2636217052939 31.3265736435433  L 29.3173891471543 26.382511627907  C 31.4726077518055 23.6171100773869  32.7702015501226 20.1521426355264  32.7702015505201 16.3832992249387  C 32.7702015505201 7.38735503889217  25.4497426359239 0.0695007754587576  16.4529302325581 0.0695007750613192  C 7.45503255813953 0.0695007750613192  0.135658914596201 7.38735503849473  0.135658914596201 16.3832992249387  C 0.135658914596201 25.3781581395349  7.45503255813953 32.6966635661564  16.4529302325581 32.696663565759  C 20.2176496122706 32.696663565759  23.6791875970317 31.4034108524482  26.4421581395349 29.2529674418605  L 31.3894759691247 34.1992  C 32.1880620156364 34.9971348837209  33.4787100777843 35.0010418604651  34.2720868215729 34.2085333332009  Z M 16.4529302325581 29.5894449611078  C 9.1691534883721 29.5894449611078  3.24357209302326 23.6651224807526  3.24357209302326 16.3830821704102  C 3.24357209302326 9.10104186046512  9.16919689935729 3.17676279069768  16.4529302325581 3.17676279069768  C 23.736663565759 3.17676279069768  29.6620713179619 9.10108527145031  29.6620713179619 16.3830821704102  C 29.6620713179619 23.66507906937  23.7367069767442 29.5894449611078  16.4529302325581 29.5894449611078  Z M 23.4460713179619 16.3839503877294  C 23.4460713179619 15.5254573644736  22.7761984498774 14.8295813953488  21.9511317830782 15  L 10.9540775192474 15  C 10.1287937983171 14.8295813953488  9.45983255813954 15.5255007750613  9.45983255813954 16.3839503877294  C 9.45983255813954 17.2422263568541  10.1279689923805 17.9374511627907  10.9540775192474 18  L 21.951175193666 18  C 22.7762418604651 17.9374511627907  23.4460713175645 17.2419658913404  23.4460713179619 16.3839503877294  Z " fill-rule="nonzero" fill="#027db4" stroke="none" transform="matrix(1 0 0 1 65 238 )" />
  </g>
</svg>