<?xml version="1.0" encoding="utf-8"?>
<svg version="1.1" xmlns:xlink="http://www.w3.org/1999/xlink" width="35px" height="35px" xmlns="http://www.w3.org/2000/svg">
  <g transform="matrix(1 0 0 1 -158 -171 )">
    <path d="M 34.8643410854038 3.02964341098519  C 34.8643410854038 1.43776744186047  33.5620155040085 0.135658914993642  31.9701395348837 0.135658914596203  L 3.02964341098519 0.135658914596203  C 1.43776744186047 0.135658914596203  0.135658914596203 1.43776744186047  0.135658914596203 3.02964341098519  L 0.135658914596203 31.9703565890148  C 0.135658914596203 33.5620155040085  1.43776744186047 34.8643410854038  3.02964341098519 34.8643410854038  L 31.9701395348837 34.8643410854038  C 33.5620155040085 34.8643410854038  34.8643410854038 33.5620155040085  34.8643410854038 31.9703565890148  L 34.8643410854038 3.02964341098519  Z M 32 4.47674418604651  L 32 30.5232558139535  C 31.9701395348837 31.3914728680846  31.3914728680846 31.9703565890148  30.5232558139535 32  L 4.47674418604651 32  C 3.6083100773869 31.9703565890148  3.02964341098519 31.3914728680846  3 30.5232558139535  L 3 4.47674418604651  C 3.02964341098519 3.60852713191543  3.60831007778434 3.02964341098519  4.47674418604651 3  L 30.5232558139535 3  C 31.3914728680846 3.02964341098519  31.9701395348837 3.60852713191542  32 4.47674418604651  Z M 11.7118139534884 5.92384496110783  C 11.7118139534884 5.05541085244822  11.1329302325581 4.47674418604651  10.2647131784271 4.47674418604651  L 5.92362790697674 4.47674418604651  C 5.77885271331077 4.47674418604651  5.48951937971248 4.47674418604651  5.34474418604651 4.62151937971248  C 5.05541085284566 4.76607751924736  4.76586046511628 5.05541085244822  4.62130232558139 5.34474418604651  C 4.47674418604651 5.48951937971248  4.47674418604651 5.77906976744186  4.47674418604651 5.92384496110783  L 4.47674418604651 10.2649302325581  C 4.47674418604651 11.1329302325581  5.05541085284566 11.7120310076195  5.92362790697674 11.7120310076195  C 6.79184496110783 11.7120310076195  7.37072868203806 11.1329302325581  7.37072868203806 10.2649302325581  L 7.37072868203806 9.39649612389853  L 9.25193798436364 11.2777054262241  C 9.5412713175645 11.5672558139535  9.83082170529388 11.7120310076195  10.2647131784271 11.7120310076195  C 10.6990387598224 11.7120310076195  10.9883720930233 11.5672558139535  11.2777054262241 11.2777054262241  C 11.8563720930233 10.699038759425  11.8563720930233 9.83082170529388  11.2777054262241 9.25193798436365  L 9.39649612389853 7.37072868203806  L 10.2647131784271 7.37072868203806  C 11.1329302325581 7.37072868203806  11.7118139534884 6.79184496110783  11.7118139534884 5.92384496110783  Z M 11.7118139534884 29.0761550388922  C 11.7118139534884 28.2079379847611  11.1329302325581 27.6290542634334  10.2647131784271 27.6290542634334  L 9.39649612389853 27.6290542634334  L 11.2777054262241 25.7480620156364  C 11.8563720930233 25.1691782947061  11.8563720930233 24.3011782947061  11.2777054262241 23.7220775192474  C 10.699038759425 23.1434108524482  9.83082170529388 23.1434108524482  9.25193798436365 23.7220775192474  L 7.37072868203806 25.6035038761015  L 7.37072868203806 24.7350697674419  C 7.37072868203806 23.8668527133108  6.79184496110783 23.2881860465116  5.92362790697675 23.2881860465116  C 5.05541085284566 23.2881860465116  4.47674418604651 23.8668527133108  4.47674418604651 24.7350697674419  L 4.47674418604651 29.0761550388922  C 4.47674418604651 29.2209302325581  4.47674418604651 29.5102635661564  4.62130232558139 29.6550387598224  C 4.76586046511628 29.9443720930233  5.05541085284566 30.2339224807526  5.34474418604651 30.3786976744186  C 5.48951937971248 30.5232558139535  5.77885271331078 30.5232558139535  5.92362790697675 30.5232558139535  L 10.2647131784271 30.5232558139535  C 11.1329302325581 30.5232558139535  11.7118139534884 29.9443720930233  11.7118139534884 29.0761550388922  Z M 30.3786976744186 5.34474418604651  C 30.2337054262241 5.05541085284566  29.9443720930233 4.76607751924736  29.6550387598224 4.62151937971248  C 29.510263565759 4.47674418604651  29.2209302325581 4.47674418604651  29.0761550388922 4.47674418604651  L 24.7350697674419 4.47674418604651  C 23.8670697674419 4.47674418604651  23.2881860465116 5.05541085284566  23.2881860465116 5.92384496110783  C 23.2881860465116 6.79184496110783  23.8670697674419 7.37072868203806  24.7350697674419 7.37072868203806  L 25.6032868215729 7.37072868203806  L 23.7220775192474 9.25193798436364  C 23.1431937983171 9.83082170529388  23.1431937983171 10.699038759425  23.7220775192474 11.2777054262241  C 24.0116279069767 11.5672558139535  24.3009612401776 11.7120310076195  24.7350697674419 11.7120310076195  C 25.1691782947061 11.7120310076195  25.458511627907 11.5672558139535  25.7480620156364 11.2777054262241  L 27.6290542634334 9.39649612389853  L 27.6290542634334 10.2649302325581  C 27.6290542634334 11.1329302325581  28.2081550384947 11.7120310076195  29.0761550388922 11.7120310076195  C 29.9443720930233 11.7120310076195  30.5232558139535 11.1329302325581  30.5232558139535 10.2649302325581  L 30.5232558139535 5.92384496110783  C 30.5232558139535 5.77906976744186  30.5232558139535 5.48951937971248  30.3786976744186 5.34474418604651  Z M 30.5232558139535 24.7350697674419  C 30.5232558139535 23.8668527133108  29.9443720930233 23.2881860465116  29.0761550388922 23.2881860465116  C 28.2081550388922 23.2881860465116  27.6290542638308 23.8668527133108  27.6290542634334 24.7350697674419  L 27.6290542634334 25.6035038761015  L 25.7480620156364 23.7220775192474  C 25.1691782947061 23.1434108524482  24.300961240575 23.1434108524482  23.7220775192474 23.7220775192474  C 23.1431937983171 24.3011782943087  23.1431937983171 25.1691782943087  23.7220775192474 25.7480620156364  L 25.6032868215729 27.6290542634334  L 24.7350697674419 27.6290542634334  C 23.8670697674419 27.6290542634334  23.2881860465116 28.2079379843637  23.2881860465116 29.0761550388922  C 23.2881860465116 29.9443720934207  23.8670697674419 30.5232558139535  24.7350697674419 30.5232558139535  L 29.0761550388922 30.5232558139535  C 29.2209302325581 30.5232558139535  29.5102635661564 30.5232558139535  29.6550387598224 30.3786976744186  C 29.9443720930233 30.2339224807526  30.2337054266215 29.9443720930233  30.3786976744186 29.6550387598224  C 30.5232558139535 29.5102635661564  30.5232558139535 29.2209302325581  30.5232558139535 29.0761550388922  L 30.5232558139535 24.7350697674419  Z " fill-rule="nonzero" fill="#027db4" stroke="none" transform="matrix(1 0 0 1 158 171 )" />
  </g>
</svg>