<?xml version="1.0" encoding="utf-8"?>
<svg version="1.1" xmlns:xlink="http://www.w3.org/1999/xlink" width="35px" height="35px" xmlns="http://www.w3.org/2000/svg">
  <g transform="matrix(1 0 0 1 -111 -238 )">
    <path d="M 3.88888887369792 15.5555555403646  L 3.88888887369792 19.4444444596354  L 0 19.4444444596354  L 0 15.5555555403646  L 3.88888887369792 15.5555555403646  Z M 30.7766666666667 0  C 31.8505536886163 0  32.7211111263021 0.870557437685797  32.7211111263021 1.94444445963541  C 32.7213934936851 2.57963658647406  32.4114085474284 3.17492381466205  31.8908333333333 3.53888887369792  L 18.6141666666667 12.8313888736979  C 17.9450498849637 13.2992082874606  17.0549501150364 13.2992082874606  16.3858333333333 12.8313888736979  L 3.10916666666667 3.53694445963542  C 2.58973891284325 3.17303244853865  2.28043097680814 2.57866553118779  2.28043097680814 1.94444384812853  C 2.28043097680814 0.871159005520096  3.15004882826146 0.000851202453090612  4.22333333333333 0  L 30.7766666666667 0  Z M 31.8908333333333 31.4630555403646  C 32.4108455526351 31.8266269238887  32.7207586683968 32.4210504301297  32.7211111263021 33.0555555403646  C 32.7208652788644 34.0419999096893  31.9820073359771 34.8719613625388  31.0022222070312 34.9863888736979  L 30.7766666666667 35  L 4.22333333333333 35  C 3.15066661666923 34.9982778539726  2.28201063830009 34.1282261454294  2.28201063830009 33.0555580463298  C 2.28201063830009 32.5076589863371  2.51316512323296 31.9851865691634  2.91861112630208 31.6166666666667  L 3.10916666666667 31.4611111263021  L 16.3858333333333 22.1686111263021  C 16.9753073138365 21.7564181535508  17.7441784027864 21.7033151771462  18.3847222070313 22.0305555403646  L 18.6141666666667 22.1686111263021  L 31.8908333333333 31.4630555403646  Z M 11.6666666666667 15.5555555403646  L 11.6666666666667 19.4444444596354  L 7.77777779296875 19.4444444596354  L 7.77777779296875 15.5555555403646  L 11.6666666666667 15.5555555403646  Z M 26.2908333333333 3.115  L 26.2908333333333 3.11111112630208  L 8.16666666666667 3.11111112630208  L 17.5 9.47722220703125  L 26.2908333333333 3.115  Z M 19.4444444596354 15.5555555403646  L 19.4444444596354 19.4444444596354  L 15.5555555403646 19.4444444596354  L 15.5555555403646 15.5555555403646  L 19.4444444596354 15.5555555403646  Z M 27.2222222070312 15.5555555403646  L 27.2222222070312 19.4444444596354  L 23.3333333333333 19.4444444596354  L 23.3333333333333 15.5555555403646  L 27.2222222070312 15.5555555403646  Z M 35 15.5555555403646  L 35 19.4444444596354  L 31.1111111263021 19.4444444596354  L 31.1111111263021 15.5555555403646  L 35 15.5555555403646  Z " fill-rule="nonzero" fill="#027db4" stroke="none" transform="matrix(1 0 0 1 111 238 )" />
  </g>
</svg>