<?xml version="1.0" encoding="utf-8"?>
<svg version="1.1" xmlns:xlink="http://www.w3.org/1999/xlink" width="10px" height="10px" xmlns="http://www.w3.org/2000/svg">
  <g transform="matrix(1 0 0 1 -74 -188 )">
    <path d="M 4.97718793777024 9.99332017161938  C 4.9754058791895 9.99332017161938  4.97362382073979 9.99331920834237  4.97184176320043 9.99331728178879  C 2.24277139034782 9.99036692794922  0.0319861260784269 7.77719032756962  0.0319861260784269 5.04811835992757  C 0.0319861260784269 2.31695881449457  2.24602839233724 0.102916548235757  4.97718793777024 0.102916548235757  C 7.70834748320324 0.102916548235757  9.92238974946205 2.31695881449457  9.92238974946205 5.04811835992757  C 9.92238974946205 7.77927790536056  7.70834748320324 9.99332017161938  4.97718793777024 9.99332017161938  Z M 4.97184176320043 1.45014702316811  L 4.97184176320043 1.43945470770474  C 2.98473865958923 1.43945470770474  1.37387331627155 3.05032005102242  1.37387331627155 5.03742315463362  C 1.37387331627155 7.02452625824483  2.98473865958923 8.6353916015625  4.97184176320043 8.6353916015625  C 6.95894486681164 8.6353916015625  8.56981021012931 7.02452625824483  8.56981021012931 5.03742315463362  C 8.56981021012931 7.43606878591954  8.56981021012931 2.63877752334771  8.56981021012931 5.03742315463363  C 8.56099162906543 3.05571774897574  6.95356463790057 1.45306765253005  4.97184176320043 1.45014702316811  Z " fill-rule="nonzero" fill="#027db4" stroke="none" transform="matrix(1 0 0 1 74 188 )" />
  </g>
</svg>