<?xml version="1.0" encoding="utf-8"?>
<svg version="1.1" xmlns:xlink="http://www.w3.org/1999/xlink" width="22px" height="22px" xmlns="http://www.w3.org/2000/svg">
  <g transform="matrix(1 0 0 1 -66 -185 )">
    <path d="M 19.3963806010585 2.48881326537093  L 19.3798764774446 2.48881326537094  C 17.8089048461583 0.900337160400651  15.6753906839627 0.00754168148679623  13.4503795327349 0.00754168148679623  C 8.82604781015721 0.00754168148679623  5.07728626156552 3.78678096624589  5.07728626156552 8.44870888169005  C 5.07728626156552 9.84522585846683  5.42097457402291 11.2199258345071  6.07755090410786 12.4496124047256  L 0.730214056199596 17.8404235359502  C 0.277653523848661 18.2973981094681  0.0234688376468141 18.9167478445724  0.0234688376468141 19.5624881907393  C 0.0234688376468141 20.9085877315683  1.10589788647861 21.9998170165695  2.4411417858493 21.9998170165695  C 3.08302254285238 21.9998170165695  3.69855657440134 21.742489117095  4.15206951549899 21.2845528455285  L 9.49390497731855 15.8992878271087  C 10.7181386260488 16.5668026969657  12.0880359427931 16.9163469015232  13.4798571940764 16.9163469015232  C 18.1072272482938 16.9163469015232  21.8584518513345 13.1346245374822  21.8584518513345 8.46963358851511  C 21.8584518513345 6.22545740970821  20.9725880504116 4.0735325929494  19.3963806010585 2.48881326537093  Z M 8.30560790385584 15.0951030424289  L 3.16732334614415 20.2918006097561  C 2.76225369416656 20.6862382016949  2.12002987753203 20.6862382016949  1.71496022555444 20.2918006097561  C 1.52177746270896 20.0990823162739  1.41307720364021 19.836475799397  1.41307720364021 19.5624881907393  C 1.41307720364021 19.2885005820817  1.52177746270895 19.0258940652048  1.71496022555444 18.8331757717226  L 6.85324481791835 13.6475704300051  C 6.85881374389156 13.6612427604097  6.86841617421812 13.6728593639267  6.88075167905746 13.6808470369665  C 7.08262956619187 13.9444754445712  7.30131296731502 14.1945786167031  7.53541534148185 14.4295707983994  C 7.76986529933236 14.6658539669991  8.01785251366913 14.8880791891547  8.27810100806451 15.0951030424289  L 8.30560790385584 15.0951030424289  Z M 18.4061330456149 13.442364640498  L 18.3951302734375 13.442364640498  C 16.1010300522711 15.7753710403167  12.5061801477785 16.1859920398053  9.75246960370463 14.4295707983994  C 9.30663450652349 14.1476227335667  8.89331972474071 13.8165148624403  8.52016154548891 13.442364640498  C 8.15023073353297 13.0630761962213  7.82192047267269 12.6447033015675  7.54091672757056 12.1944917047764  C 6.84702872617167 11.075117223766  6.47910893476297 9.78170118949998  6.47910893476297 8.46172370317602  C 6.47910893476297 4.57167873062992  9.60718197232813 1.41817420495448  13.4658556144505 1.41817420495448  C 17.3245292565728 1.41817420495448  20.452602294138 4.57167873062992  20.452602294138 8.46172370317602  C 20.452602294138 10.3298378517365  19.7164624861284 12.1214348014638  18.4061330456149 13.442364640498  Z " fill-rule="nonzero" fill="#027db4" stroke="none" transform="matrix(1 0 0 1 66 185 )" />
  </g>
</svg>