<?xml version="1.0" encoding="utf-8"?>
<svg version="1.1" xmlns:xlink="http://www.w3.org/1999/xlink" width="28px" height="34px" xmlns="http://www.w3.org/2000/svg">
  <g transform="matrix(1 0 0 1 -68 -171 )">
    <path d="M 28 7.09130967927632  C 27.9757002622721 7.04672083390738  27.9720052091563 7.00223011342101  27.9653432076035 6.95813952919408  C 27.9533858503585 6.89817385432524  27.9328994979357 6.84024426509625  27.9045126990446 6.78612811883224  C 27.9063281206467 6.77324509067409  27.9063281206467 6.76016985176012  27.9045126990446 6.74728682360197  C 27.8778216903996 6.69053707562875  27.8402375134543 6.63962674744472  27.7939118282245 6.59747040912829  L 21.4011798716162 0.205303974095395  C 21.3562095413153 0.162217642568457  21.3060507226554 0.124937251624369  21.2518686455016 0.0943288548519737  L 21.2131583598726 0.0943288548519737  C 21.161202047821 0.0542073825612686  21.1033750070373 0.0223884854141092  21.0417269456608 0  L 3.30687287022293 0  C 1.51408125421956 0  0.0607364948248406 1.45826209128741  0 3.25711954358553  L 0 30.3405956578947  L 2 28.9367605078125  L 2 3.25711954358553  C 1.45430782245223 2.23051435616771  2.28372944626962 1.39828641858553  3.30687287022293 2  L 20.1845699791003 2  L 20.1845699791003 4.53333334498355  C 20.1876142381149 6.33398853322163  21.6416531203094 7.7929470802159  23.4362364102309 7.79600162006579  L 26.5607118033439 7.79600162006579  L 26.5607118033439 30.6624235176809  C 26.5607163195071 31.6899301491172  25.7321840484808 32.5237473127748  24.7081467555732 32  L 4.74468453921178 32  L 3.35664326731688 34  L 24.7302669088376 34  C 24.7302684804777 33.9250917927654  24.73027004759 33.9250917927666  24.7302716192302 33.9250917927666  C 26.5230632352335 33.9250917927666  27.9764079946283 32.4668297014792  27.9764079946283 30.6679722491811  C 27.9764079946283 30.6661226710076  27.9764064244968 30.6642730931705  28 30.6624235176809  L 28 7.09130967927632  Z M 25.5984839868631 6.39216646998355  L 23.458356598328 6.40326396792763  C 22.4352131743747 6.40326396792763  21.6057915505573 5.57103603034545  21.6057915505573 4.54443084292763  L 21.6057915505573 2.38596492393092  L 25.5984839868631 6.39216646998355  Z " fill-rule="nonzero" fill="#027db4" stroke="none" transform="matrix(1 0 0 1 68 171 )" />
  </g>
</svg>