<?xml version="1.0" encoding="utf-8"?>
<svg version="1.1" xmlns:xlink="http://www.w3.org/1999/xlink" width="22px" height="23px" xmlns="http://www.w3.org/2000/svg">
  <g transform="matrix(1 0 0 1 -71 -175 )">
    <path d="M 14.6305689963206 1.45085510197996  C 14.6097249144485 1.45085510197996  14.5888911056702 1.4499468547419  14.5681290872713 1.44813304210401  L 0.813796195376014 1.44813304210401  C 0.450425839306331 1.41638826029074  0.171881140629509 1.11755104017829  0.171881140629509 0.759453230856393  C 0.171881140629509 0.401355421534496  0.450425839306331 0.102518201422045  0.813796195376014 0  L 14.5681290872713 0  C 14.5888911056702 0.0689596069708864  14.6097249144485 0.068051359732825  14.6305689963206 0.068051359732825  C 15.0195735012926 0.068051359732825  15.3349239601163 0.377602521430371  15.3349239601163 0.759453230856393  C 15.3349239601163 1.14130394028242  15.0195735012926 1.45085510197996  14.6305689963206 1.45085510197996  Z M 2.22805220083842 5.02491272364027  L 0.813796195376017 5.02491272364027  C 0.427854723926989 5.02491272364027  0.114987344385163 4.7177989773794  0.114987344385163 4.33895497226861  C 0.114987344385163 3.96011096715782  0.427854723926989 3.65299722089695  0.813796195376017 3.65299722089695  L 2.22805220083842 3.65299722089695  C 2.61399367228744 3.65299722089695  2.92686105182927 3.96011096715782  2.92686105182927 4.33895497226861  C 2.92686105182927 4.7177989773794  2.61399367228744 5.02491272364027  2.22805220083842 5.02491272364027  Z M 21.8222742089932 7.92662287616293  C 21.8222742089932 8.30540698773377  21.5095020480663 8.61249591956337  21.1236216018801 9  L 5.74428083714431 9  C 5.74422875585233 8.61258062181934  5.74417667456537 8.61258062753459  5.74412459327208 8.61258062753459  C 5.35818312182305 8.61258062753459  5.04531574228123 8.30546688127372  5.04531574228123 7.92662287616293  C 5.04531574228123 7.54777887105214  5.35818312182305 7.24066512479127  5.74412459327208 7.24066512479127  L 21.1236216018801 7.24066514193702  C 21.5095020480663 7.24074983276249  21.8222742089932 7.54783876459209  21.8222742089932 7.92662287616293  Z M 14.5681290872713 5.02491272364027  L 5.74428083714431 5.02491272364027  C 5.35833936569528 5.02491272364027  5.04547198615345 4.7177989773794  5.04547198615345 4.33895497226861  C 5.04547198615345 3.96011096715782  5.35833936569528 3.65299722089695  5.74428083714431 3.65299722089695  L 14.5681290872713 3.65299722089695  C 14.9540705587204 3.65299722089695  15.2669379382622 3.96011096715782  15.2669379382622 4.33895497226861  C 15.2669379382622 4.7177989773794  14.9540705587204 5.02491272364027  14.5681290872713 5.02491272364027  Z M 2.92670480795149 7.92662287616293  C 2.92670480795149 8.30540698773377  2.61393264702464 8.61249591956337  2.22805220083842 8.61258061038884  L 0.813796195376017 8.61258061038884  C 0.427915749187619 8.61249591956638  0.11514358825739 8.30540698773589  0.11514358825739 7.92662287616293  C 0.11514358825739 7.54783876458996  0.427915749187619 7.24074983275948  0.813796195376017 7.24066514193702  L 2.22805220083842 7.24066514193702  C 2.61393264702464 7.24074983276249  2.92670480795149 7.54783876459209  2.92670480795149 7.92662287616293  Z M 21.1858147114247 12.1920823860926  C 21.1650527739959 12.1920823860926  21.1443011505077 12.1911741317526  21.1236216018801 12.1893603262166  L 16.7976620680894 12.1893603262166  C 16.7769825194618 12.1911741317526  16.7562308959736 12.1920823860926  16.7354689585448 12.1920823860926  C 16.3495274870958 12.1920823860926  16.0366601075539 11.8849686398317  16.0366601075539 11.5061246347209  C 16.0366601075539 11.1272806296101  16.3495274870958 10.8201668833492  16.7354689585448 10.8201668833492  C 16.7562308959736 10.8201668833492  16.7769825194618 10.8210751376892  16.7976620680894 10.8228889432252  L 21.1236216018801 10.8228889432252  C 21.1443011505077 10.8210751376892  21.1650527739959 10.8201668833492  21.1858147114247 10.8201668833492  C 21.5717561828737 10.8201668833492  21.8846235624156 11.1272806296101  21.8846235624156 11.5061246347209  C 21.8846235624156 11.8849686398317  21.5717561828737 12.1920823860926  21.1858147114247 12.1920823860926  Z M 21.1858147114247 15.7743061873807  C 21.1650527739958 15.7743061873807  21.1443011505077 15.7733979330408  21.1236216018801 15.7715841275048  L 18.5335919874238 15.7715841275048  C 18.5129124387962 15.7733979330408  18.492160815308 15.7743061873807  18.4713988778792 15.7743061873807  C 18.0854574064301 15.7743061873807  17.7725900268883 15.4671924411199  17.7725900268883 15.0883484360091  C 17.7725900268883 14.7095044308983  18.0854574064301 14.4023906846374  18.4713988778792 14.4023906846374  C 18.492160815308 14.4023906846374  18.5129124387962 14.4032989389773  18.5335919874238 14.4051127445134  L 21.1236216018801 14.4051127445134  C 21.1443011505077 14.4032989389773  21.1650527739958 14.4023906846374  21.1858147114247 14.4023906846374  C 21.5717561828737 14.4023906846374  21.8846235624156 14.7095044308983  21.8846235624156 15.0883484360091  C 21.8846235624156 15.4671924411199  21.5717561828737 15.7743061873807  21.1858147114247 15.7743061873807  Z M 21.1236216018801 19.3538079287929  L 19.0105567454268 19.3538079287929  C 18.6246153156301 19.3538079287929  18.3117479360882 19.0466941825321  18.3117479360882 18.6678501774213  C 18.3117479360882 18.2890061723105  18.6246153156301 17.9818924260496  19.0105567870791 17.9818924260496  L 21.1236216018801 17.9818924260496  C 21.5095630316769 17.9818924260496  21.8224304112187 18.2890061723105  21.8224304112187 18.6678501774213  C 21.8224304112187 19.0466941825321  21.5095630316769 19.3538079287929  21.1236215602278 19.3538079287929  Z M 21.765536460366 22.2527960214397  C 21.765536460366 22.6108937565625  21.4869918736116 22.909730940526  21.1236216018801 22.9414758155415  L 18.5335919874238 22.9414758155415  C 18.1702217156923 22.909730940526  17.8916771289378 22.6108937565625  17.8916771289378 22.2527960214397  C 17.8916771289378 21.8946982863168  18.1702217156923 21.5958611023533  18.5335919874238 21.5641162273378  L 21.1236216018801 21.5641162273378  C 21.4869918736116 21.5958611023533  21.765536460366 21.8946982863168  21.765536460366 22.2527960214397  Z " fill-rule="nonzero" fill="#027db4" stroke="none" transform="matrix(1 0 0 1 71 175 )" />
  </g>
</svg>