<?xml version="1.0" encoding="utf-8"?>
<svg version="1.1" xmlns:xlink="http://www.w3.org/1999/xlink" width="21px" height="20px" xmlns="http://www.w3.org/2000/svg">
  <g transform="matrix(1 0 0 1 -22 -348 )">
    <path d="M 20 10  C 20 4.47715250169207  15.5228474983079 0  10 0  C 4.47715250169207 0  0 4.47715250169207  0 10  C 0 15.5228474983079  4.47715250169207 20  10 20  C 13.52 20  7.84 16  14 16  C 14.0336176614905 16.00057478759  14.0672396222061 16.0008621971352  14.1008621971352 16.0008621971352  C 17.3593422211368 16.0008621971352  20.0008621971352 13.3593422211368  20.0008621971352 10.1008621971352  C 20.0008621971352 10.0672396222061  20.0005747875899 10.0336176614905  20 10  Z M 5 8  C 5 8.82842712474619  4.32842712474619 9.5  3.5 9.5  C 2.67157287525381 9.5  2 8.82842712474619  2 8  C 2 7.17157287525381  2.67157287525381 6.5  3.5 6.5  C 4.32842712474619 6.5  5 7.17157287525381  5 8  Z M 8.5 4.5  C 8.5 5.32842712474619  7.82842712474619 6  7 6  C 6.17157287525381 6  5.5 5.32842712474619  5.5 4.5  C 5.5 3.67157287525381  6.17157287525381 3  7 3  C 7.82842712474619 3  8.5 3.67157287525381  8.5 4.5  Z M 14.5 4.5  C 14.5 5.32842712474619  13.8284271247462 6  13 6  C 12.1715728752538 6  11.5 5.32842712474619  11.5 4.5  C 11.5 3.67157287525381  12.1715728752538 3  13 3  C 13.8284271247462 3  14.5 3.67157287525381  14.5 4.5  Z M 18 8  C 18 8.82842712474619  17.3284271247462 9.5  16.5 9.5  C 15.6715728752538 9.5  15 8.82842712474619  15 8  C 15 7.17157287525381  15.6715728752538 6.5  16.5 6.5  C 17.3284271247462 6.5  18 7.17157287525381  18 8  Z " fill-rule="nonzero" fill="#ffffff" stroke="none" transform="matrix(1 0 0 1 22 348 )" />
  </g>
</svg>