<?xml version="1.0" encoding="utf-8"?>
<svg version="1.1" xmlns:xlink="http://www.w3.org/1999/xlink" width="35px" height="35px" xmlns="http://www.w3.org/2000/svg">
  <g transform="matrix(1 0 0 1 -66 -386 )">
    <path d="M 35 29.0744850852273  C 34.9005681818182 32.2865988991477  32.2865988991477 34.9005681818182  29.0744850852273 35  L 5.92551491477273 35  C 2.71340110085227 34.9005681818182  0.0994318181818182 32.2865988991477  0 29.0744850852273  L 0 5.92551491477273  C 0.0994318181818182 2.71340110085227  2.71340110085227 0.0994318181818182  5.92551491477273 0  L 29.0744850852273 0  C 32.2865988991477 0.0994318181818182  34.9005681818182 2.71340110085227  35 5.92551491477273  L 35 29.0744850852273  Z M 29.0744850852273 3  L 5.92551491477273 3  C 4.99722567471591 2.42986505681818  4.11942915482955 2.79496626420455  3.45913973721591 3.45913973721591  C 2.79496626420455 4.11942915482955  2.42986505681818 4.99722567471591  3 5.92551491477273  L 3 29.0744850852273  C 2.42986505681818 30.0027743252841  2.79496626420455 30.8805708451705  3.45913973721591 31.5408602627841  C 4.12331321022727 32.2050337357955  4.99722567471591 32.5701349431818  5.92551491477273 32  L 29.0744850852273 32  C 30.0027743252841 32.5701349431818  30.8805708451705 32.2050337357955  31.5408602627841 31.5408602627841  C 32.2050337357955 30.8766867897727  32.5701349431818 30.0027743252841  32 29.0744850852273  L 32 5.92551491477273  C 32.5701349431818 4.99722567471591  32.2050337357955 4.11942915482955  31.5408602627841 3.45913973721591  C 30.8805708451705 2.79496626420455  30.0027743252841 2.42986505681818  29.0744850852273 3  Z " fill-rule="nonzero" fill="#027db4" stroke="none" transform="matrix(1 0 0 1 66 386 )" />
  </g>
</svg>