<?xml version="1.0" encoding="utf-8"?>
<svg version="1.1" xmlns:xlink="http://www.w3.org/1999/xlink" width="19px" height="23px" xmlns="http://www.w3.org/2000/svg">
  <g transform="matrix(1 0 0 1 -74 -392 )">
    <path d="M 19 21.7406647245763  C 18.9352559840426 22.3726165254237  18.40625 22.8827462923729  17.7509142287234 22.8827462923729  C 17.0955784574468 22.8827462923729  16.5665724734043 22.3726165254237  16.5665724734043 21.7406647245763  L 16.5665724734043 1.25933527542373  C 16.5665724734043 0.627383474576271  17.0955784574468 0.117253707627119  17.7509142287234 0.117253707627119  C 18.40625 0.117253707627119  18.9352559840426 0.627383474576271  19 1.25933527542373  L 19 21.7406647245763  Z M 2.43342752659574 21.7406647245763  C 2.43342752659574 22.3726165254237  1.90442154255319 22.8827462923729  1.2490857712766 22.8827462923729  C 0.593749999999999 22.8827462923729  0.0647440159574468 22.3726165254237  0 21.7406647245763  L 0 1.25933527542373  C 0.0647440159574468 0.627383474576271  0.593749999999999 0.117253707627119  1.2490857712766 0.117253707627119  C 1.90442154255319 0.117253707627119  2.43342752659574 0.627383474576271  2.43342752659574 1.25933527542373  L 2.43342752659574 21.7406647245763  Z M 10.6843417553191 21.7406647245763  C 10.6843417553191 22.3726165254237  10.1553357712766 22.8827462923729  9.5 22.8827462923729  C 8.8446642287234 22.8827462923729  8.31565824468085 22.3726165254237  8.31565824468085 21.7406647245763  L 8.31565824468085 1.25933527542373  C 8.31565824468085 0.627383474576271  8.8446642287234 0.117253707627119  9.5 0.117253707627119  C 10.1553357712766 0.117253707627119  10.6843417553191 0.627383474576271  10.6843417553191 1.25933527542373  L 10.6843417553191 21.7406647245763  Z " fill-rule="nonzero" fill="#027db4" stroke="none" transform="matrix(1 0 0 1 74 392 )" />
  </g>
</svg>