<?xml version="1.0" encoding="utf-8"?>
<svg version="1.1" xmlns:xlink="http://www.w3.org/1999/xlink" width="23px" height="14px" xmlns="http://www.w3.org/2000/svg">
  <g transform="matrix(1 0 0 1 -72 -397 )">
    <path d="M 14.9262447033898 1.24433876811594  C 14.9262447033898 1.90217391304348  14.4161149364407 2.43319746376812  13.7841631355932 2.43319746376812  L 9.21583686440678 2.43319746376812  C 8.58388506355932 2.43319746376812  8.07375529661017 1.90217391304348  8.07375529661017 1.24433876811594  C 8.07375529661017 0.586503623188406  8.58388506355932 0.0554800724637681  9.21583686440678 0.0554800724637681  L 13.7841631355932 0.0554800724637681  C 14.4161149364407 0.0554800724637681  14.9262447033898 0.586503623188406  14.9262447033898 1.24433876811594  Z M 6.96974311440678 12.6217164855072  C 6.96974311440678 13.2795516304348  6.45961334745763 13.8105751811594  5.82766154661017 13.8105751811594  L 1.25933527542373 13.8105751811594  C 0.627383474576271 13.8105751811594  0.117253707627119 13.2795516304348  0.117253707627119 12.6217164855072  C 0.117253707627119 11.9638813405797  0.627383474576271 11.4328577898551  1.25933527542373 11.4328577898551  L 5.82766154661017 11.4328577898551  C 6.45961334745763 11.4328577898551  6.96974311440678 11.9638813405797  6.96974311440678 12.6217164855072  Z M 22.8827462923729 7.10144927536232  C 22.8827462923729 7.75928442028986  22.3726165254237 8.29030797101449  21.7406647245763 8.29030797101449  L 17.1723384533898 8.29030797101449  C 16.5403866525424 8.29030797101449  16.0302568855932 7.75928442028986  16.0302568855932 7.10144927536232  C 16.0302568855932 6.44361413043478  16.5403866525424 5.91259057971014  17.1723384533898 5.91259057971014  L 21.7406647245763 5.91259057971014  C 22.3726165254237 5.91259057971014  22.8827462923729 6.44361413043478  22.8827462923729 7.10144927536232  Z " fill-rule="nonzero" fill="#027db4" stroke="none" transform="matrix(1 0 0 1 72 397 )" />
  </g>
</svg>