<?xml version="1.0" encoding="utf-8"?>
<svg version="1.1" xmlns:xlink="http://www.w3.org/1999/xlink" width="35px" height="35px" xmlns="http://www.w3.org/2000/svg">
  <g transform="matrix(1 0 0 1 -18 -573 )">
    <path d="M 9.53258764093572 33.692784765625  C 8.97499408513849 34.25304484375  8.20170021195845 34.906361875  7.23245962801847 34.906361875  C 6.54386399147727 34.906361875  5.89477568470348 34.5906958984375  5.24775412264737 33.9394174609375  L 1.17027431973544 29.8383580078125  C -0.849765175559304 27.807295078125  0.667728665438565 26.281649453125  1.39686502352628 25.5483866015625  C 6.31779002241655 20.8204321484375  8.65277506325462 18.579751328125  9.76545816317472 17.51351421875  L 5.25248385342685 14.589216875  C 3.69703277033026 13.741471640625  2.88371487149325 12.2247  3.07497158536044 10.5223741796875  C 3.30728567782315 8.455255703125  4.99473249955611 6.6536371875  7.27304008345171 6.0395335546875  L 28.4956568159624 0.3216103515625  C 30.8119216031161 -0.30400546875  32.8584715631658 0.2113251171875  33.9727047507546 1.6721746875  C 34.8810945379084 2.862807421875  35.1029952448065 4.5630146875  34.5978661110618 6.4587294140625  L 28.9114374112216 27.801099296875  C 28.1797176125266 30.549755703125  25.7584444746538 31.8017868359375  23.8184529529918 31.8017868359375  C 22.2302513594194 31.8017868359375  20.9123210227273 31.0167191015625  20.3650613847212 29.7485389453125  L 18.0529698985707 25.288123125  C 16.9003025457209 26.4290695703125  14.5112632224343 28.786831015625  9.53258764093572 33.692784765625  Z M 2.2860575949929 27.8266819140625  C 2.29019116210938 27.8266819140625  2.33645523348722 27.984015234375  2.67528803045099 28.32478421875  L 6.75280756724965 32.425843671875  C 7.08746702436967 32.76241546875  7.23090954034979 32.765533359375  7.23245962801847 32.765533359375  C 7.25428005704013 32.765533359375  7.46060041947798 32.7488246875  8.03484744540128 32.1707766015625  C 10.5885932839134 29.6549623046875  17.2292386530096 23.1086007421875  17.5550348122337 22.775666484375  C 17.7826986416903 22.5321116015625  18.1095679265803 22.408755234375  18.4442671564276 22.4443311328125  C 18.7981635631214 22.4824652734375  19.1099692382813 22.6962403515625  19.2747552212802 23.0134652734375  L 22.2717857388583 28.7956649609375  C 22.2858159956499 28.8233262109375  22.2988526333896 28.85158703125  22.3107366000089 28.880327578125  C 22.610101801092 29.60475640625  23.5403517899947 29.6611981640625  23.8184132579457 29.6611981640625  C 24.971597306685 29.6611981640625  26.4137331709428 28.905910234375  26.8549113325639 27.246995  L 32.5418964621804 5.9046651171875  C 32.8719056562944 4.66594496093751  32.7804506392045 3.62585015625  32.2841848421964 2.975131328125  C 31.7909794477983 2.3291293359375  30.9864851518111 2.19374109375  30.3982078690962 2.19374109375  C 29.982427273837 2.19374109375  29.5277355513139 2.2595764453125  29.0464538962624 2.3892085546875  L 7.82439351584695 8.10717171875  C 6.16031721080433 8.55562765625  5.30232506214489 9.764528046875  5.19008296897195 10.763330859375  C 5.09652139559659 11.5969656640625  5.48734165261009 12.2921343359375  6.29080259565873 12.720164140625  C 6.31782971746271 12.7342745703125  6.34378371360085 12.7499439453125  6.36926074773615 12.7661729296875  L 12.0562458773526 16.4509146875  C 12.3399910000888 16.634909921875  12.5203175936612 16.943260859375  12.5421777954102 17.2824708984375  C 12.5634815285423 17.62116125  12.4242123135653 17.950418046875  12.165944263805 18.16942953125  C 11.9647908602628 18.3570623046875  5.39592636940696 24.6661048046875  2.88427134011008 27.079228671875  C 2.38172568581321 27.5851656640625  2.29802110706676 27.7702001953125  2.28609736772017 27.8271615625  Z " fill-rule="nonzero" fill="#027db4" stroke="none" transform="matrix(1 0 0 1 18 573 )" />
  </g>
</svg>