<?xml version="1.0" encoding="utf-8"?>
<svg version="1.1" xmlns:xlink="http://www.w3.org/1999/xlink" width="25px" height="17px" xmlns="http://www.w3.org/2000/svg">
  <g transform="matrix(1 0 0 1 -18 -440 )">
    <path d="M 2.17347358930229 8.5  C 3.76382012395575 6.54767827804338  7.92773652633818 1.99461028743004  12.5000687461324 1.99461028743004  C 17.072400990099 1.99461028743004  21.2363173683091 6.54767827804338  22.8266639271349 8.5  C 21.2363173924814 10.4523217219566  17.072400990099 15.00538971257  12.5000687461324 15.00538971257  C 7.92773650216584 15.00538971257  3.76382012395575 10.4523217219566  2.17347358930229 8.5  Z M 24.6026540261448 7.70004147038246  C 22.9813668974319 5.59195687674907  18.1738861386139 0.0422885654734137  12.5000687461324 0.0422885654734137  C 6.82625137782333 0.0422885654734137  2.01877061900526 5.59195687674907  0.397483490292389 7.70004147038246  C 0.0325177420897844 8.16773580614338  0.0325177420897844 8.83226419385662  0.397483490292389 9.29995852961754  C 2.01877061900526 11.4080431232509  6.82625137782333 16.9577114345266  12.5000687461324 16.9577114345266  C 18.1738861144415 16.9577114345266  22.9813668732596 11.4080430984725  24.6026540261448 9.29995852961754  C 24.9676197743474 8.83226419385662  24.9676197743474 8.16773580614338  24.6026540261448 7.70004147038246  Z M 10.6436331025681 8.5  C 10.6436331025681 7.42164179104478  11.4749037215733 6.54767827804338  12.5000687461324 6.54767827804338  C 13.5252337706915 6.54767827804338  14.3565043896968 7.42164179104478  14.3565043896968 8.5  C 14.3565043896968 9.57835820895522  13.5252337706915 10.4523217219566  12.5000687461324 10.4523217219566  C 11.4749037215733 10.4523217219566  10.6436331025681 9.57835820895522  10.6436331025681 8.5  Z M 12.5000687461324 4.59676617741371  C 10.9984185730585 4.59676617741371  9.64459569345606 5.54755391645289  9.07047580832302 7.00650911555504  C 8.49566831683168 8.46546433943563  8.81332509862314 10.1436152460354  9.87493125386757 11.2600331564832  C 10.922559413721 12.373444310451  12.5312806628753 12.7097582535191  13.9205858166383 12.1058043172808  C 15.3080995706993 11.5024875539296  16.2129400332611 10.078772813666  16.2129400332611 8.5  C 16.2129400332611 6.34398838036381  14.5510863532642 4.59676617741371  12.5007563283184 4.59676617741371  Z " fill-rule="nonzero" fill="#ffffff" stroke="none" transform="matrix(1 0 0 1 18 440 )" />
  </g>
</svg>