<?xml version="1.0" encoding="utf-8"?>
<svg version="1.1" xmlns:xlink="http://www.w3.org/1999/xlink" width="35px" height="39px" xmlns="http://www.w3.org/2000/svg">
  <g transform="matrix(1 0 0 1 -64 -571 )">
    <path d="M 8.47020348837209 30.9635447668651  L 9.24262468204942 29.9507409474206  L 7.89960142623546 32.7140873015873  C 7.85067660083896 32.8146512660761  7.82522922540131 32.9252834620421  7.82522922540131 33.0374196592707  C 7.82522922540131 33.3680853940799  8.04418064531852 33.6575520324024  8.35911950399709 33.743253968254  L 10.7331770076308 34.3880952380952  C 10.9774851799974 34.4542597716479  11.2381172224096 34.3857385198156  11.4199502634448 34.2075396825397  C 12.2355729923692 33.4087828621032  12.8358636900436 32.7570498511905  13.2199479923692 32.2540736607143  L 13.9932038063227 31.2412698412698  L 12.6493459302326 34.0046161954365  C 12.600424119034 34.1051776573554  12.5749783754034 34.2158064025735  12.5749783754034 34.3279390031775  C 12.5749783754034 34.6586184359914  12.7939475853266 34.9480934805311  13.1089037518169 35.0337828621032  L 16.4664618913517 35.9460317460318  C 16.7107700637183 36.0121962795844  16.9714021061305 35.9436750277521  17.1532351471657 35.7654761904762  C 17.9688578760901 34.965873015873  18.5691485737645 34.314986359127  18.952398255814 33.8120101686508  L 19.7256540697674 32.7992063492064  L 18.3817961936773 35.562552703373  C 18.3326900937713 35.6632669261495  18.307144565785 35.7741064629651  18.307144565785 35.8864587844123  C 18.307144565785 36.21757478632  18.5266811059714 36.50731750326  18.8421886355378 36.5926060267857  L 21.7079567132994 37.371574280754  C 21.952264885666 37.4377388143066  22.2128969280782 37.3692175624743  22.3947299691134 37.1910187251984  C 23.2103924418605 36.3914155505952  23.8106831395349 35.7396825396825  24.1939328215843 35.2367063492064  L 24.9671886355378 34.2239025297619  L 23.623291015625 36.9880952380952  C 23.5746679129172 37.0884080255361  23.5493838408637 37.1986942905536  23.5493838408637 37.3104699823672  C 23.5493838408637 37.6412954697268  23.7685427771241 37.9308601165607  24.0836834574855 38.0164155505952  L 27.5184241006541 38.9569971478175  L 27.6710403797238 38.9484126984127  C 28.1984011627907 38.9200396825397  28.8258368913517 38.7454892113095  29.4134095657704 38.4325396825397  C 30.5970203488372 37.7997488839286  31.3278695039971 36.6914682539682  31.4872819767442 35.2788628472222  C 31.5720555505087 34.5325396825397  31.6772177053052 33.7251984126984  31.8213288063227 32.7183996775794  C 31.8866279069767 32.2661241319444  31.9383346202762 31.9119047619048  32.0689328215843 31.0323412698413  C 32.5081020621366 28.0772352430556  32.6505439226017 26.9603701636905  32.7497445039971 25.6448939732143  L 32.7870639534884 25.1462301587302  L 32.8998171784157 25.028425719246  L 33.389898255814 24.9742590525794  C 33.7591324384279 24.9393033307269  34.1062274370766 24.7801131193533  34.3759424963663 24.5220238095238  C 34.8024334574855 24.1093253968254  34.9643895348837 23.4988622271825  34.8168604651163 22.8213758680556  L 33.3245991551599 15.9060980902778  C 33.2042151162791 15.3541139632936  32.8769247365552 14.7797619047619  32.4046886355378 14.3008463541667  C 31.9417525890262 13.8322885664683  31.3745287518169 13.4892330109127  30.8191485737645 13.3378968253968  L 26.3178427053052 12.1144314236111  L 26.2279421784157 11.9562034970238  L 28.329833984375 4.00660032242063  C 28.6605025890262 2.7547619047619  27.8626453488372 1.43755270337301  26.5425145348837 1.07902095734127  L 23.3824831940407 0.220092385912695  C 22.0632267441861 -0.138439360119051  20.7227470930233 0.597566344246029  20.3912438680959 1.84940476190476  L 18.2910610465116 9.79989459325397  L 18.1350665425145 9.89097842261904  L 13.4412415970204 8.61592571924603  C 12.8850665425145 8.46462983630952  12.2237293332122 8.47494729662698  11.5929153797238 8.64603174603174  C 10.9468397983285 8.82142857142857  10.3804505813954 9.1533203125  10.0048317132994 9.57029079861111  L 5.30262082122093 14.8012431795635  C 4.84135401526163 15.3136904761905  4.68027230196221 15.9232669890873  4.84477198401163 16.497619047619  C 5.01010628633721 17.0711247519841  5.47471157340116 17.5130425347222  6.1521847747093 17.7279761904762  L 6.69309820130814 17.899947296627  L 6.77791151889535 18.0564019097222  L 6.63376067405523 18.6126984126984  C 5.79437113917151 21.830859375  4.5319086119186 24.130806671627  3.22703942587209 24.6939546130952  C 1.3379757903343 25.5081876240079  0.328164743822673 26.6861111111111  0.110249364098836 28.1210844494048  C -0.0898210392441871 29.4382936507937  0.479072038517441 30.8259920634921  1.60421965843023 31.8104631696429  L 2.48005427870639 32.146626984127  L 5.44760628633721 32.9530815972222  C 6.03288046760483 33.1120599206322  6.65733287775857 32.9422906869727  7.08568768168605 32.5077380952381  C 7.69273482921512 31.8921161954365  8.15400163517442 31.3779761904762  8.47024323219477 30.9644314236111  Z M 30.3841921784157 14.9809523809524  C 30.9463288063227 15.1339812748016  31.5745991551599 15.7547619047619  31.6865177598111 16.2706349206349  L 33.060064271439 22.6296161954365  C 33.066602639246 22.6598572964372  33.0699005168727 22.6907261302482  33.0699005168727 22.721685538205  C 33.0699005168727 22.9591169573015  32.8800928201131 23.1515931522923  32.6459531604047 23.1515931522923  C 32.6088533243966 23.1515931522923  32.5719139819122 23.1466548403162  32.5360817132994 23.1369047619048  L 7.12209302325581 16.2327907986111  C 6.9367392932062 16.1824380841365  6.80784913665102 16.012113188713  6.80784913665102 15.8175259052013  C 6.80784913665102 15.7103177494797  6.84735050824553 15.6069779880184  6.91860465116279 15.5277777777778  L 11.2427325581395 10.7172619047619  C 11.59375 10.3269314236111  12.4441883175872 10.106798735119  13.0062852016715 10.2598276289683  L 18.6234386355378 11.7859654017857  C 18.6950811145031 11.8054538437692  18.7689357870303 11.815324463004  18.8431111606765 11.815324463004  C 19.2268375862089 11.815324463004  19.5627276103353 11.5539785268205  19.6620639534884 11.1781218998016  L 21.9792877906977 2.40654761904762  C 22.0786110461888 2.03067245428557  22.4145098244973 1.76930745614722  22.7982505199537 1.76930745614722  C 22.8724224495945 1.76930745614722  22.9462737229096 1.77917715883969  23.0179131086483 1.79866381448413  L 26.0804131086483 2.63095238095238  C 26.4510771239883 2.7316720178132  26.708818546571 3.07229318257415  26.708818546571 3.46142887193491  C 26.708818546571 3.53664358153894  26.6990856778605 3.61153312672377  26.6798691860465 3.6841796875  L 24.361810728561 12.455753968254  C 24.2410026407284 12.9141794205081  24.5092756519005 13.385179944153  24.9612270621366 13.5081349206349  L 30.3841921784157 14.981798735119  Z M 11.1350665425145 26.7729631696429  C 10.7707085053057 26.5996012202664  10.3363704048626 26.7098849382806  10.0955668604651 27.0369047619048  C 8.75763081395349 28.8562034970238  7.5282351471657 30.2241536458333  6.40734011627907 31.1398282490079  L 6.17245412427326 31.3323939732143  L 6.05970089934593 31.3564949156746  L 2.55803165879361 30.3849206349206  L 2.44186046511628 30.2559523809524  C 1.92379973655523 29.685066344246  1.67202261991279 29.0049603174603  1.76697061228198 28.3781746031746  C 1.89752906976744 27.5183996775794  2.6436398528343 26.7927114335317  3.88154069767442 26.2587828621032  C 5.142333984375 25.7154234871032  6.25897642623547 24.3603701636905  7.17721770530523 22.2323939732143  C 7.57568927143896 21.3072885664683  7.92758107739826 20.2686507936508  8.22601744186047 19.1457806299603  L 8.38034270530524 18.5654234871032  L 8.53550258902616 18.4742590525794  L 31.0370639534884 24.5882409474206  L 31.1303427053052 24.7214812748016  L 31.0989450853924 25.2141400049603  C 31.0200933412064 26.4470765128968  29.8932764807413 34.4594711061508  29.8220555505087 35.0845238095238  C 29.7288165425145 35.9073412698413  29.3727118913517 36.4945901537698  28.7249273255814 36.8737568204365  C 28.4600907078879 37.0271624668379  28.1731230732121 37.1374051655777  27.8745287518169 37.2004495287698  L 27.6752532249273 37.2297092013889  L 25.2757994186046 36.5779761904762  L 25.7226392169331 35.7603174603175  C 26.0515988372093 35.156746031746  26.6230752634448 33.9934523809524  27.4353197674419 32.2695901537698  C 27.4892366486425 32.1550682033893  27.5172190889653 32.0297700281543  27.5172190889653 31.9028660431675  C 27.5172190889653 31.574814815613  27.3313125253006 31.2759601802493  27.0393520621366 31.1346695188492  L 26.9147154342296 31.0744574652778  C 26.5498396637929 30.8981939899636  26.1129986117673 31.0076028100377  25.8710029069767 31.3358599950397  C 24.5339014807413 33.1517330109127  23.3062147983285 34.5162171378968  22.187863372093 35.428425719246  L 21.9529773800872 35.6201853918651  L 21.8402241551599 35.644246031746  L 19.7519247365552 35.0767857142857  L 20.1936773255814 34.2599733382936  C 20.3355191638987 33.9981433818806  20.4740115008859 33.7344618012748  20.6091195039971 33.4689949156746  C 20.888916015625 32.9247488839286  21.3204941860465 32.0262431795635  21.9046886355378 30.7761377728175  C 22.1043193392719 30.3498739213734  21.9270456231929 29.8401408034729  21.5078863099564 29.6351717509921  L 21.3874625272529 29.5767330109127  C 21.021894585726 29.397694004614  20.582472966643 29.5065589742608  20.3394974109738 29.8363622271825  C 19.0041049691134 31.6505425347222  17.7772529069767 33.0132936507936  16.6589014807413 33.9263888888889  L 16.4240552325581 34.1181082589286  L 16.3113020076308 34.1422092013889  L 14.2390988372093 33.5790209573413  L 14.6808514262355 32.7622488839286  C 14.8226436744151 32.5003782013604  14.961135669587 32.2366838362653  15.0962936046512 31.9712301587302  C 15.3743811319041 31.4287171378968  15.8102118913517 30.5224733382937  16.4037063953488 29.253425719246  C 16.4567033689745 29.1401865933891  16.4841977694054 29.0164112082778  16.4841977694054 28.8910664509648  C 16.4841977694054 28.5621414053785  16.2960039968885 28.2630965401129  16.0018168604651 28.1245504712302  L 15.8695494186047 28.0626457093254  C 15.5054911034149 27.8917154702377  15.0731226031194 28.0029333837659  14.8334279614826 28.3291666666667  C 13.4963662790698 30.1450396825397  12.2678052325581 31.5121031746032  11.1460755813953 32.4277777777778  L 10.9111895893895 32.6194971478175  L 10.7984363644622 32.6435980902778  L 9.50119799236919 32.2910714285714  L 9.94211596111919 31.4751457093254  C 10.0828488372093 31.2128968253968  10.2219124727471 30.9498015873016  10.3575581395349 30.684126984127  C 10.6348110465116 30.1407273065476  11.0706020621366 29.2345238095238  11.6641363099564 27.9654761904762  C 11.7172415713304 27.8518684926792  11.7447900004683 27.7277144076302  11.7447900004683 27.6019895792723  C 11.7447900004683 27.2731262077906  11.5574169591284 26.973870984346  11.263916015625 26.8339812748016  L 11.1350665425145 26.7729631696429  Z " fill-rule="nonzero" fill="#027db4" stroke="none" transform="matrix(1 0 0 1 64 571 )" />
  </g>
</svg>