<?xml version="1.0" encoding="utf-8"?>
<svg version="1.1" xmlns:xlink="http://www.w3.org/1999/xlink" width="35px" height="31px" xmlns="http://www.w3.org/2000/svg">
  <g transform="matrix(1 0 0 1 -18 -623 )">
    <path d="M 25.7528372093023 4.30867426061931  C 25.8882790697674 4.30867426061931  26.0241550388922 4.17049501130484  26.0241550388922 4.00932238410596  L 26.0241550388922 0.461991699645592  C 26.0241550388922 0.277825695364239  25.8882790697674 0.1396464456488  25.7074728680846 0.139646446049773  L 0.452341085403796 0.139646446049773  C 0.271534883720929 0.139646446049773  0.13565891499364 0.277825695364239  0.135658914596202 0.461991699645592  L 0.135658914596202 4.00932238410596  C 0.135658914596202 4.19348838838731  0.271534883720929 4.33166763810275  0.452341085403796 4.33166763810275  L 11 4.33166763810275  L 11 30.6360914791624  C 11.0563100773869 30.7285029583247  11.1242480617505 30.797483090775  11.2145426355264 30.7974830903741  L 14.9904186046512 30.7974830903741  C 15.0809302325581 30.7974830903741  15.1486511627907 30.7285029579237  15.1486511627907 30.6360914791624  L 15.1486511627907 4.30867426061931  L 25.7528372093023 4.30867426061931  Z M 34.8643410854038 30.5211245917451  L 28.4660155040085 14.5818963354072  L 26.2503255813953 14.5818963354072  L 20.235751937852 30.5211245917451  L 22.4290852714503 30.5211245917451  L 24.1475038761015 25.683974922871  L 30.6817054262241 25.683974922871  L 32.5129922481945 30.5211245917451  L 34.8643410854038 30.5211245917451  Z M 24.7580775192474 24.0023925827815  L 24.7580775192474 23.9796181897118  L 26.4762790697674 19.3038601324503  C 26.8381085272643 18.2901806622517  27.1094263564567 17.2767201764668  27.313023255814 16.2630407062681  C 27.5613333332009 17.1155475496689  27.9233798448288 18.2209815449865  28.4206511627907 19.5802186314802  L 30.0485581395349 24.0023925827815  L 24.7580775192474 24.0023925827815  Z " fill-rule="nonzero" fill="#027db4" stroke="none" transform="matrix(1 0 0 1 18 623 )" />
  </g>
</svg>