<?xml version="1.0" encoding="utf-8"?>
<svg version="1.1" xmlns:xlink="http://www.w3.org/1999/xlink" width="35px" height="35px" xmlns="http://www.w3.org/2000/svg">
  <g transform="matrix(1 0 0 1 -156 -573 )">
    <path d="M 34.8376989072086 2.96335793711656  L 34.8376989072086 0  L 20.2272454946319 0  L 20.2272454946319 2.96293855444785  L 27.6058641679448 2.96293855444785  C 27.4813075153374 3.03633052147239  27.3642997507669 3.13153038726994  27.2397430981595 3.2560870398773  L 22.5694976993865 7.64660419861963  C 21.6913103911043 8.22577166411043  22.2767685966258 9.69151409125767  23.4405555023006 9.69151409125767  L 27 9.69151409125767  L 27 24.8995878067485  L 23.4405555023006 24.8995878067485  C 22.2767685966258 24.8995878067485  21.6913103911043 26.0721817484663  22.5694976993865 26.9516272047546  L 27.2397430981595 31.6277439608896  C 27.3642997507669 31.7523006134969  27.4959859087423 31.8550493673313  27.6205425613497 31.920892446319  L 20.2272454946319 31.920892446319  L 20.2272454946319 34.8452477952454  L 34.8376989072086 34.8452477952454  L 34.8376989072086 31.920892446319  L 28.6157376342025 31.920892446319  C 28.7402942868098 31.8550493673313  28.8719804447853 31.7523006134969  28.9965370973926 31.6277439608896  L 33.6667824961656 26.6584787193252  C 34.5449698044479 26.0721817484663  33.9595115989264 24.606439321319  32.7885951878834 24.606439321319  L 29 24.606439321319  L 29 9.39836560582822  L 32.7885951878834 9.39836560582822  C 33.9599309815951 9.39836560582822  34.5453891871166 8.22577166411043  33.6667824961656 7.35345571319018  L 28.9965370973926 2.96335793711656  L 34.8376989072086 2.96335793711656  Z M 17 1.50055118865031  C 17.5570360429448 0.620686349693252  16.9770298121166 0.0398413535276074  16.0984231211656 0  L 1.48335649923313 0  C 0.639558569785276 0.0398413535276074  0.068359375 0.585458205521472  0 1.4212878642638  L 0 33.4604462231595  C 0.0687787576687124 34.2962758819018  0.639977952453988 34.8418927338957  1.48335649923313 34.8418927338957  L 16.0980037384969 34.8418927338957  C 16.9766104294479 34.8418927338957  17.5570360429448 34.2610477377301  17 33.381182898773  L 17 1.50055118865031  Z M 2.9683905291411 11.549798696319  C 2.96880991180982 10.7525522430982  3.61382045628834 10.1067029332822  4.40980876150307 10.1067029332822  L 8.83890912576687 10.1067029332822  C 9.6348974309816 10.1067029332822  10.2803273581288 10.7529716257669  10.2803273581288 11.549798696319  L 10.2803273581288 11.5938338765337  C 10.2803273581288 12.3906609470859  9.6348974309816 13.0369296395706  8.83890912576687 13.0369296395706  L 4.40980876150307 13.0369296395706  C 3.61382045628834 13.0369296395706  2.9683905291411 12.3906609470859  2.9683905291411 11.5938338765337  L 2.9683905291411 11.549798696319  Z M 2.9683905291411 17.4630943251534  C 2.96880991180982 16.6658478719325  3.61382045628834 16.0199985621166  4.40980876150307 16.0199985621166  L 7.38029620398773 16.0199985621166  C 8.17628450920245 16.0199985621166  8.82171443634969 16.6662672546012  8.82171443634969 17.4630943251534  C 8.82171443634969 18.2599213957055  8.17628450920245 18.9061900881902  7.38029620398773 18.9061900881902  L 4.40980876150307 18.9061900881902  C 3.61382045628834 18.9061900881902  2.9683905291411 18.2599213957055  2.9683905291411 17.4630943251534  Z M 2.9683905291411 23.2795125575153  C 2.96880991180982 22.4826854869632  3.61382045628834 21.8364167944785  4.40980876150307 21.8364167944785  L 8.83890912576687 21.8364167944785  C 9.6348974309816 21.8364167944785  10.2803273581288 22.4826854869632  10.2803273581288 23.2795125575153  L 10.2803273581288 23.3235477377301  C 10.2803273581288 24.1203748082822  9.6348974309816 24.7666435007669  8.83890912576687 24.7666435007669  L 4.40980876150307 24.7666435007669  C 3.61382045628834 24.7666435007669  2.9683905291411 24.1203748082822  2.9683905291411 23.3235477377301  L 2.9683905291411 23.2795125575153  Z M 13.2160060391104 29.1840011503068  C 13.2155866564417 29.9812476035276  12.5705761119632 30.6270969133436  11.7745878067485 30.6270969133436  L 4.41022814417178 30.6270969133436  C 3.61423983895706 30.6270969133436  2.96880991180982 29.9808282208589  2.96880991180982 29.1840011503068  L 2.96880991180982 29.139965970092  C 2.96880991180982 28.3431388995399  3.61423983895706 27.6968702070552  4.41022814417178 27.6968702070552  L 11.7745878067485 27.6968702070552  C 12.5705761119632 27.6968702070552  13.2160060391104 28.3431388995399  13.2160060391104 29.139965970092  L 13.2160060391104 29.1840011503068  Z M 13.2160060391104 5.73338046395706  C 13.2155866564417 6.53020753450921  12.5705761119632 7.17647622699387  11.7745878067485 7.17647622699387  L 4.41022814417178 7.17647622699387  C 3.61423983895706 7.17647622699387  2.96880991180982 6.53020753450921  2.96880991180982 5.73338046395706  L 2.96880991180982 5.68934528374233  C 2.96880991180982 4.89251821319019  3.61423983895706 4.24624952070552  4.41022814417178 4.24624952070552  L 11.7745878067485 4.24624952070552  C 12.5705761119632 4.24624952070552  13.2160060391104 4.89251821319019  13.2160060391104 5.68934528374233  L 13.2160060391104 5.73338046395706  Z " fill-rule="nonzero" fill="#027db4" stroke="none" transform="matrix(1 0 0 1 156 573 )" />
  </g>
</svg>