<?xml version="1.0" encoding="utf-8"?>
<svg version="1.1" xmlns:xlink="http://www.w3.org/1999/xlink" width="35px" height="32px" xmlns="http://www.w3.org/2000/svg">
  <g transform="matrix(1 0 0 1 -110 -575 )">
    <path d="M 10.7325725215157 14.2989660661765  L 20.6019892734793 24.2434721691176  L 31.1591055053058 13.8503417279412  L 20.6391622242647 3.88714294117647  L 10.7325725215157 14.2989660661765  Z M 17.72108609939 27.0099888970588  L 17.9441237675468 26.8604474632353  L 8.16763935599097 17.0094047426471  L 3.83699132060495 21.4769554411765  L 9.85900832428142 27.5333839705882  C 10.2097700585078 27.8832857399141  10.6846138790422 28.0783443129298  11.1786478578292 28.0754716911765  L 15.1189799830799 28.0754716911765  C 16.0915418285127 28.0763276989941  17.0257044845692 27.6938166896634  17.72108609939 27.0099888970588  Z M 33.7054521954378 16.5233950735294  L 21.9402152824198 28.1502424264706  L 31.2334514068767 28.1502424264706  C 32.2599539265184 28.1502424264706  33.0920986354236 28.9871422479981  33.0920986354236 30.0195104963235  C 33.0920986354236 31.0518787446489  32.2599539265184 31.8887785661765  31.2334514068767 31.8887785661765  L 11.1600613824365 31.8887785661765  C 9.68172794221469 31.8874696869549  8.2644180474971 31.2957905527014  7.21972925718583 30.2438226470588  L 1.19771225350936 24.1873941176471  C -0.219108042750916 22.7336886029769  -0.219108042750916 20.4071490440819  1.19771225350936 18.9534435294118  L 17.9255372921541 1.28886033088235  C 19.3393709734196 -0.197477266052505  21.6815046364228 -0.255947547008881  23.166922439004 1.15801158088235  L 33.6682792812082 11.1212103676471  C 34.4128936620515 11.8275503469889  34.8349588228829 12.8114248072292  34.8349588228829 13.8408525245057  C 34.8349588228829 14.7970484368905  34.4706569260741 15.7168990291611  33.8169710477941 16.4112389705882  L 33.7054521954378 16.5233950735294  Z " fill-rule="nonzero" fill="#027db4" stroke="none" transform="matrix(1 0 0 1 110 575 )" />
  </g>
</svg>