<?xml version="1.0" encoding="utf-8"?>
<svg version="1.1" xmlns:xlink="http://www.w3.org/1999/xlink" width="35px" height="35px" xmlns="http://www.w3.org/2000/svg">
  <g transform="matrix(1 0 0 1 -66 -619 )">
    <path d="M 33.5070811564626 11.8917689125902  C 35.4923541633306 9.89031725352199  35.4923541633306 6.65189650233212  33.5070811564626 4.65044484326394  L 30.4848738435374 1.59104044029672  C 29.5312447414923 0.627324962891066  28.2346803541571 0.0854679655015395  26.8823151190476 0.0854679655015395  C 25.5299498839381 0.0854679655015395  24.233385496603 0.627324962891066  23.2797563945578 1.59104044029672  L 2.3214056122449 22.588679246573  C 1.56992779855174 23.31226427161  1.14980208149419 24.3160727800239  1.16070282312925 25.3619523125833  L 1.16070282312925 32.449205654121  L 1.00740244897959 32.449205654121  L 0.328500782312925 33.1095087683315  C 0.122307729080491 33.3167379720932  0.00646967833782282 33.5978010851259  0.00646967833782282 33.8908674324001  C 0.00646967833782282 34.5011465168533  0.498724981037099 34.9958754642897  1.10595267006803 34.9958754642897  C 1.39755369394014 34.9958754642897  1.67721149869746 34.8794553061533  1.88340455782313 34.6722260964687  L 2.51850608843537 34.0339331008785  L 9.87692391156463 34.0339331008785  C 10.9079395071515 34.0287105275049  11.8938951811317 33.6085645881202  12.6144305442177 32.8673976002461  L 33.5070811564626 11.8917689125902  Z M 11.5413279591837 26.7485888284962  L 11.6070281292517 26.660548422384  L 8.7600212244898 26.660548422384  L 8.7600212244898 23.7332046285851  C 8.7600212244898 23.1254124011379  8.26977183773855 22.6326994496291  7.66501857142857 22.6326994496291  L 5.47501326530612 22.6326994496291  L 22.2066538095238 5.88301063138823  L 29.2584708843537 13.0803144976584  L 12.6363306122449 29.8520134345195  L 12.6363306122449 27.871104091888  C 12.6364766235888 27.8637683069819  12.6365496347371 27.8564312379415  12.6365496347371 27.8490939854377  C 12.6365496347371 27.2413017579905  12.1463002479858 26.7485888064817  11.5415469816759 26.7485888064817  Z M 9.96452414965986 31.9209631490787  L 3.3507081292517 31.9209631490787  L 3.3507081292517 25.3179320753427  C 3.32481027605944 25.1501916320705  3.32481027605944 24.9794401663776  3.3507081292517 24.8116997231053  L 6.57001591836735 24.8116997231053  L 6.57001591836735 27.8490940074522  C 6.57001591836735 28.4568862348994  7.0602653051186 28.9495991864082  7.66501857142857 28.9495991864082  L 10.5120254761905 28.9495991864082  L 10.5120254761905 31.8109126585308  C 10.3373610632077 31.8795892158287  10.1520348291558 31.9168407109037  9.96452414965986 31.9209631490787  Z M 31.9740774489796 6.21316220558576  C 33.1102410476858 7.35613308556757  33.1102410476858 9.20809078890686  31.9740774489796 10.3510616688887  L 30.8133746598639 11.5396072539569  L 23.6520572789116 4.34230338768674  L 24.834660170068 3.15375780261854  C 25.3779265269089 2.59993406891646  26.1194437762404 2.28813262916909  26.8932651530612 2.28813262916909  C 27.6670865298821 2.28813262916909  28.4086037792136 2.59993406891646  28.9518701360544 3.15375780261854  L 31.9740774489796 6.21316220558576  Z " fill-rule="nonzero" fill="#027db4" stroke="none" transform="matrix(1 0 0 1 66 619 )" />
  </g>
</svg>