<?xml version="1.0" encoding="utf-8"?>
<svg version="1.1" xmlns:xlink="http://www.w3.org/1999/xlink" width="11px" height="8px" xmlns="http://www.w3.org/2000/svg">
  <g transform="matrix(1 0 0 1 -39 -486 )">
    <path d="M 4.98509114583333 1.49406934306569  C 4.99225260416667 1.49406934306569  4.9994140625 1.49178832116788  4.9994140625 1.49064781021898  L 4.9994140625 0.020529197080292  C 4.9994140625 0.0182481751824818  4.99583333333333 0.0171076642335766  4.988671875 0.0171076642335766  L 0.158268229166669 0.0171076642335766  C 0.151106770833333 0.0171076642335766  0.147526041666669 0.0182481751824818  0.147526041666669 0.020529197080292  L 0.147526041666669 1.49064781021898  C 0.147526041666669 1.49292883211679  0.151106770833339 1.49406934306569  0.158268229166669 1.49406934306569  L 4.98509114583333 1.49406934306569  Z M 10.8252604166667 2.24110401459854  C 10.8252604166667 2.23768248175182  10.8145182291667 2.23540145985401  10.8073567708333 2.23540145985401  L 3.3451171875 2.23540145985401  C 3.33437500000001 2.23540145985401  3.32721354166667 2.23768248175182  3.32721354166667 2.24110401459854  L 3.32721354166667 2.76573905109489  C 3.32721354166667 2.76916058394161  3.33437500000001 2.77144160583942  3.3451171875 2.77144160583942  L 10.8073567708333 2.77144160583942  C 10.8180989583333 2.77144160583942  10.8252604166667 2.76916058394161  10.8252604166667 2.76573905109489  L 10.8252604166667 2.24110401459854  Z M 10.8216796875 3.53672445255474  C 10.8252604166667 3.53330291970803  10.8145182291667 3.53102189781022  10.8073567708333 3.53102189781022  L 0.383854166666667 3.53102189781022  C 0.373111979166669 3.53102189781022  0.365950520833333 3.53330291970803  0.365950520833333 3.53672445255474  L 0.365950520833333 4.06135948905109  C 0.365950520833333 4.06478102189781  0.373111979166669 4.06706204379562  0.383854166666667 4  L 10.8037760416667 4  C 10.8145182291667 4.06706204379562  10.8216796875 4.06478102189781  10.8216796875 4.06135948905109  L 10.8216796875 3.53672445255474  Z M 10.8216796875 4.83348540145985  C 10.8252604166667 4.83006386861314  10.8145182291667 4.82778284671533  10.8073567708333 4.82778284671533  L 0.383854166666667 4.82778284671533  C 0.373111979166669 4.82778284671533  0.365950520833333 4.83006386861314  0.365950520833333 4.83348540145985  L 0.365950520833333 5.3581204379562  C 0.365950520833333 5.36154197080292  0.373111979166669 5.36382299270073  0.383854166666667 5.36382299270073  L 10.8037760416667 5.36382299270073  C 10.8145182291667 5.36382299270073  10.8216796875 5.36154197080292  10.8216796875 5.3581204379562  L 10.8216796875 4.83348540145985  Z M 10.8216796875 6.12910583941606  C 10.8252604166667 6.12568430656934  10.8145182291667 6.12340328467153  10.8073567708333 6  L 0.383854166666667 6  C 0.373111979166669 6.12340328467153  0.365950520833333 6.12568430656934  0.365950520833333 6.12910583941606  L 0.365950520833333 6.65374087591241  C 0.365950520833333 6.65716240875912  0.373111979166669 6.65944343065693  0.383854166666667 6.65944343065693  L 10.8037760416667 6.65944343065693  C 10.8145182291667 6.65944343065693  10.8216796875 6.65716240875912  10.8216796875 6.65374087591241  L 10.8216796875 6.12910583941606  Z M 10.8216796875 7.42586678832117  C 10.8252604166667 7.42244525547445  10.8145182291667 7.42016423357664  10.8073567708333 7.42016423357664  L 0.383854166666667 7.42016423357664  C 0.373111979166669 7.42016423357664  0.365950520833333 7.42244525547445  0.365950520833333 7.42586678832117  L 0.365950520833333 7.95050182481752  C 0.365950520833333 7.95392335766423  0.373111979166669 7.95620437956204  0.383854166666667 8  L 10.8037760416667 8  C 10.8145182291667 7.95620437956204  10.8216796875 7.95392335766423  10.8216796875 7.95050182481752  L 10.8216796875 7.42586678832117  Z " fill-rule="nonzero" fill="#027db4" stroke="none" transform="matrix(1 0 0 1 39 486 )" />
  </g>
</svg>