<?xml version="1.0" encoding="utf-8"?>
<svg version="1.1" xmlns:xlink="http://www.w3.org/1999/xlink" width="23px" height="21px" xmlns="http://www.w3.org/2000/svg">
  <g transform="matrix(1 0 0 1 -19 -531 )">
    <path d="M 1.365625 4.12060975609756  C 2.53797159090909 4.11830487804878  3.7101875 4.12009756097561  4.96643181818182 4.12009756097561  C 4.96643181818182 3.28278658536585  4.9565 2.53882317073171  4.96878409090909 1.79524390243902  C 4.98590340909091 0.76240243902439  5.62898863636364 0.117420731707317  6.68921022727273 0.113579268292683  C 9.88947727272727 0.101798780487805  13.089875 0.102310975609756  16.2901420454545 0.112939024390244  C 17.3714034090909 0.116524390243902  18.0122670454545 0.769189024390244  18.0313465909091 1.84761585365854  C 18.0440227272727 2.57070731707317  18.0338295454545 3.29418292682927  18.0338295454545 4.12009756097561  L 20.9042556818182 4.12009756097561  C 22.9355738636364 4.12009756097561  22.9355738636364 4.12009756097561  22.9355738636364 6.0857743902439  C 22.9355738636364 10.5869451219512  22.9362272727273 15.087987804878  22.9350511363636 19.5891585365854  C 22.9347897727273 20.7290487804878  22.7680397727273 20.8943597560976  21.6224829545455 20.8944878048781  C 14.8734204545455 20.895256097561  8.12448863636364 20.895256097561  1.37542613636364 20.8944878048781  C 0.220329545454545 20.8943597560976  0.0653409090909084 20.7408292682927  0.0650795454545449 19.5928719512195  C 0.0639034090909083 14.8571158536585  0.0639034090909083 10.1213597560976  0.0652102272727267 5.3854756097561  C 0.0654715909090904 4.32574390243903  0.275607954545454 4.12265853658537  1.365625 4.12060975609756  Z M 1.73911363636364 19  L 21.2650681818182 19  L 21.2650681818182 12.5811768292683  L 14.1214772727273 12.5811768292683  C 14.1214772727273 13.0566219512195  14.1154659090909 13.4809756097561  14.1229147727273 13.9050731707317  C 14.1329772727273 14.4818048780488  13.825875 14.8056402439024  13.2640738636364 14.8190853658537  C 12.0891136363636 14.8471280487805  10.9127159090909 14.8454634146341  9.737625 14.8206219512195  C 9.17334090909091 14.8087134146341  8.86610795454546 14.4912804878049  8.87695454545455 13.9123719512195  C 8.8851875 13.4708597560976  8.87852272727273 13.0289634146341  8.87852272727273 12.5801524390244  L 1.73911363636364 12.5801524390244  L 1.73911363636364 19  Z M 1.73048863636364 6  L 1.73048863636364 10.8641707317073  L 8.80782386363636 10.8641707317073  C 8.83827272727273 10.784012195122  8.86480113636364 10.7458536585366  8.86558522727273 10.7073109756098  C 8.87225 10.3450609756098  8.87251136363636 9.98281097560976  8.87839204545454 9.62056097560976  C 8.88976136363636 8.90425609756097  9.12721022727273 8.62446951219512  9.83210795454545 8.60961585365854  C 10.9415585877481 8.58660975893178  12.051380920695 8.58652437410771  13.1608352272727 8.60935975609756  C 13.8569772727273 8.62344512195122  14.1078863636364 8.91219512195122  14.1206931818182 9.62209756097561  C 14.1282727272727 10.0388963414634  14.1221306818182 10.4560792682927  14.1221306818182 10.8689085365854  L 21.26925 10.8689085365854  L 21.26925 6  L 1.73048863636364 6  Z M 6.63197159090909 1.73582926829268  L 6.63197159090909 4.06465243902439  L 16.3430681818182 4.06465243902439  L 16.3430681818182 1.73582926829268  L 6.63197159090909 1.73582926829268  Z M 10.5349147727273 13.1737865853659  L 12.4653465909091 13.1737865853659  L 12.4653465909091 10.2622134146341  L 10.5349147727273 10.2622134146341  L 10.5349147727273 13.1737865853659  Z " fill-rule="nonzero" fill="#ffffff" stroke="none" transform="matrix(1 0 0 1 19 531 )" />
  </g>
</svg>