<?xml version="1.0" encoding="utf-8"?>
<svg version="1.1" xmlns:xlink="http://www.w3.org/1999/xlink" width="35px" height="35px" xmlns="http://www.w3.org/2000/svg">
  <g transform="matrix(1 0 0 1 -18 -479 )">
    <path d="M 35 1.44580078125  C 34.92822265625 0.6630859375  34.26171875 0.0273437499999999  33.44140625 0  L 18.71337890625 0  C 18.2109375 0.02734375  17.7666015625 0.2666015625  17.49658203125 0.63232421875  C 17.2265625 0.27001953125  16.78564453125 0.03076171875  16.283203125 0  L 1.55859375 0  C 0.73828125 0.03076171875  0.07177734375 0.66650390625  0 1.45263671875  L 0 33.55419921875  C 0.07177734375 34.3369140625  0.73828125 34.97607421875  1.55859375 35  L 16.28662109375 35  C 16.7890625 34.97607421875  17.2333984375 34.73681640625  17.50341796875 34.37109375  C 17.7734375 34.7333984375  18.21435546875 34.97265625  18.716796875 35  L 33.44482421875 35  C 34.26513671875 34.97265625  34.931640625 34.3369140625  35 33.55078125  L 35 1.44580078125  Z M 14.42724609375 2.60107421875  L 14.42724609375 1.408203125  L 15.6748046875 1.408203125  L 15.6748046875 2.60107421875  L 14.42724609375 2.60107421875  Z M 12.263671875 2.60107421875  L 12.263671875 1.408203125  L 13.51123046875 1.408203125  L 13.51123046875 2.60107421875  L 12.263671875 2.60107421875  Z M 10.10009765625 1.408203125  L 10.0966796875 1.408203125  L 11.34765625 1.408203125  L 11.34765625 2.60107421875  L 10.10009765625 2.60107421875  L 10.10009765625 1.408203125  Z M 16.27978515625 4.07421875  L 16.27978515625 32.41943359375  C 16.27978515625 32.76806640625  15.98583984375 33.0517578125  15.6201171875 33  L 2.73779296875 33  C 2.3720703125 33.0517578125  2.078125 32.76806640625  2 32.41943359375  L 2 4.07421875  C 2.078125 3.7255859375  2.3720703125 3.44189453125  2.73779296875 4  L 15.6201171875 4  C 15.98583984375 3.44189453125  16.27978515625 3.7255859375  16.27978515625 4.07421875  Z M 31.06591796875 2.59765625  L 31.06591796875 1.40478515625  L 32.3134765625 1.40478515625  L 32.3134765625 2.59765625  L 31.06591796875 2.59765625  Z M 28.89892578125 2.59765625  L 28.89892578125 1.40478515625  L 30.146484375 1.40478515625  L 30.146484375 2.59765625  L 28.89892578125 2.59765625  Z M 26.7353515625 2.59765625  L 26.7353515625 1.40478515625  L 27.98291015625 1.40478515625  L 27.98291015625 2.59765625  L 26.7353515625 2.59765625  Z M 33 4.0673828125  L 33 32.41259765625  C 32.91845703125 32.76123046875  32.62451171875 33.044921875  32.2587890625 33  L 19.37646484375 33  C 19.0107421875 33.044921875  18.716796875 32.76123046875  18.716796875 32.41259765625  L 18.716796875 4.0673828125  C 18.716796875 3.71875  19.0107421875 3.43505859375  19.37646484375 4  L 32.2587890625 4  C 32.62451171875 3.43505859375  32.91845703125 3.71875  33 4.0673828125  Z " fill-rule="nonzero" fill="#027db4" stroke="none" transform="matrix(1 0 0 1 18 479 )" />
  </g>
</svg>