<?xml version="1.0" encoding="utf-8"?>
<svg version="1.1" xmlns:xlink="http://www.w3.org/1999/xlink" width="10px" height="8px" xmlns="http://www.w3.org/2000/svg">
  <g transform="matrix(1 0 0 1 -22 -486 )">
    <path d="M 4.59878177966102 1.4952098540146  C 4.60209216101695 1.4952098540146  4.60871292372881 1.49406934306569  4.60871292372881 1.49178832116788  L 4.60871292372881 0.0216697080291971  C 4.60871292372881 0.0193886861313869  4.60540254237288 0.0182481751824818  4.59878177966102 0.0182481751824818  L 0.136387711864407 0.0182481751824818  C 0.129766949152542 0.0182481751824818  0.12645656779661 0.0193886861313864  0.12645656779661 0.0216697080291971  L 0.12645656779661 1.49178832116788  C 0.12645656779661 1.49406934306569  0.129766949152542 1.4952098540146  0.136387711864407 1.4952098540146  L 4.59878177966102 1.4952098540146  Z M 9.99470338983051 2.24224452554745  C 9.99470338983051 2.23882299270073  9.98808262711864 2.23654197080292  9.97815148305085 2.23654197080292  L 3.07931673728814 2.23654197080292  C 3.06938559322034 2.23654197080292  3.06276483050847 2.23882299270073  3.06276483050847 2.24224452554745  L 3.06276483050847 2.7668795620438  C 3.06276483050847 2.77030109489051  3.06938559322034 2.77258211678832  3.07931673728814 2.77258211678832  L 9.97815148305085 2.77258211678832  C 9.98808262711864 2.77258211678832  9.99470338983051 2.77030109489051  9.99470338983051 2.7668795620438  L 9.99470338983051 2.24224452554745  Z M 9.99470338983051 3.53900547445255  C 9.99470338983051 3.53558394160584  9.98808262711864 3.53330291970803  9.97815148305085 3.53330291970803  L 0.344941737288136 3.53330291970803  C 0.335010593220339 3.53330291970803  0.328389830508475 3.53558394160584  0.328389830508475 3.53900547445255  L 0.328389830508475 4.0636405109489  C 0.328389830508475 4.06706204379562  0.335010593220339 4.06934306569343  0.344941737288136 4.06934306569343  L 9.97815148305085 4.06934306569343  C 9.98808262711864 4.06934306569343  9.99470338983051 4.06706204379562  9.99470338983051 4.0636405109489  L 9.99470338983051 3.53900547445255  Z M 9.99470338983051 4.83462591240876  C 9.99470338983051 4.83120437956204  9.98808262711864 4.82892335766423  9.97815148305085 4.82892335766423  L 0.344941737288136 4.82892335766423  C 0.335010593220339 4.82892335766423  0.328389830508475 4.83120437956204  0.328389830508475 4.83462591240876  L 0.328389830508475 5.35926094890511  C 0.328389830508475 5.36268248175182  0.335010593220339 5.36496350364964  0.344941737288136 5.36496350364964  L 9.97815148305085 5.36496350364964  C 9.98808262711864 5.36496350364964  9.99470338983051 5.36268248175182  9.99470338983051 5.35926094890511  L 9.99470338983051 4.83462591240876  Z M 9.99470338983051 6.13138686131387  C 9.99470338983051 6.12796532846715  9.98808262711864 6.12568430656934  9.97815148305085 6.12568430656934  L 0.344941737288136 6.12568430656934  C 0.335010593220339 6.12568430656934  0.328389830508475 6.12796532846715  0.328389830508475 6.13138686131387  L 0.328389830508475 6.65602189781022  C 0.328389830508475 6.65944343065693  0.335010593220339 6.66172445255474  0.344941737288136 6.66172445255474  L 9.97815148305085 6.66172445255474  C 9.98808262711864 6.66172445255474  9.99470338983051 6.65944343065693  9.99470338983051 6.65602189781022  L 9.99470338983051 6.13138686131387  Z M 9.99470338983051 7.42700729927007  C 9.99470338983051 7.42358576642336  9.98808262711864 7.42130474452555  9.97815148305085 7.42130474452555  L 0.344941737288136 7.42130474452555  C 0.335010593220339 7.42130474452555  0.328389830508475 7.42358576642336  0.328389830508475 7.42700729927007  L 0.328389830508475 7.95164233576642  C 0.328389830508475 7.95506386861314  0.335010593220339 7.95734489051095  0.344941737288136 7.95734489051095  L 9.97815148305085 7.95734489051095  C 9.98808262711864 7.95734489051095  9.99470338983051 7.95506386861314  9.99470338983051 7.95164233576642  L 9.99470338983051 7.42700729927007  Z " fill-rule="nonzero" fill="#027db4" stroke="none" transform="matrix(1 0 0 1 22 486 )" />
  </g>
</svg>