<?xml version="1.0" encoding="utf-8"?>
<svg version="1.1" xmlns:xlink="http://www.w3.org/1999/xlink" width="25px" height="8px" xmlns="http://www.w3.org/2000/svg">
  <g transform="matrix(1 0 0 1 -116 -484 )">
    <path d="M 4.61185079225352 4.32291666666667  C 4.61185079225352 4.32942708333333  4.60841219190141 4.3359375  4.6049735915493 4.3359375  L 0.169179137323943 4.3359375  C 0.162301936619718 4.3359375  0.158863336267604 4.33268229166667  0.158863336267604 4.326171875  L 0.158863336267604 0.126953125  C 0.158863336267604 0.120442708333334  0.162301936619717 0.117187499999999  0.169179137323943 0.117187499999999  L 4.60153499119718 0.117187499999999  C 4.60841219190141 0.117187499999999  4.61185079225352 0.120442708333333  4.61185079225352 0.126953125  L 4.61185079225352 4.32291666666667  Z M 24.8411366637324 4.31966145833333  C 24.8411366637324 4.32942708333333  24.8342594630282 4.3359375  24.8239436619718 4.3359375  L 6.28301056338028 4.3359375  C 6.27613336267606 4.3359375  6.26581756161972 4.32942708333333  6.26581756161972 4.31966145833333  L 6.26581756161972 2.822265625  C 6.26581756161972 2.81575520833333  6.27269476232394 2.80598958333333  6.28301056338028 2.80598958333333  L 24.8239436619718 2.80598958333333  C 24.8308208626761 2.80598958333333  24.8411366637324 2.8125  24.8411366637324 2.822265625  L 24.8411366637324 4.31966145833333  Z M 24.8411366637324 7.919921875  C 24.8411366637324 7.9296875  24.8342594630282 7.93619791666667  24.8239436619718 8  L 0.217319542253522 8  C 0.210442341549296 7.93619791666667  0.200126540492958 7.9296875  0.200126540492958 7.919921875  L 0.200126540492958 6.42252604166667  C 0.200126540492958 6.416015625  0.207003741197183 6.40625  0.217319542253522 6.40625  L 24.8239436619718 6.40625  C 24.8308208626761 6.40625  24.8411366637324 6.41276041666667  24.8411366637324 6.42252604166667  L 24.8411366637324 7.919921875  Z " fill-rule="nonzero" fill="#027db4" stroke="none" transform="matrix(1 0 0 1 116 484 )" />
  </g>
</svg>