<?xml version="1.0" encoding="utf-8"?>
<svg version="1.1" xmlns:xlink="http://www.w3.org/1999/xlink" width="11px" height="24px" xmlns="http://www.w3.org/2000/svg">
  <g transform="matrix(1 0 0 1 -85 -485 )">
    <path d="M 4.98509114583333 4.48220802919708  C 4.99225260416667 4.48220802919708  4.9994140625 4.47536496350365  4.9994140625 4.47194343065693  L 4.9994140625 0.0615875912408759  C 4.9994140625 0.0547445255474453  4.99583333333333 0.0513229927007299  4.988671875 0.0513229927007299  L 0.158268229166669 0.0513229927007299  C 0.151106770833333 0.0513229927007299  0.147526041666669 0.0547445255474453  0.147526041666669 0.0615875912408759  L 0.147526041666669 4.47194343065693  C 0.147526041666669 4.47878649635036  0.151106770833339 4.48220802919708  0.158268229166669 4.48220802919708  L 4.98509114583333 4.48220802919708  Z M 10.8252604166667 6.72331204379562  C 10.8252604166667 6.71304744525547  10.8145182291667 6.70620437956204  10.8073567708333 6.70620437956204  L 3.3451171875 6.70620437956204  C 3.33437500000001 6.70620437956204  3.32721354166667 6.71304744525547  3.32721354166667 6.72331204379562  L 3.32721354166667 8.29721715328467  C 3.32721354166667 8.30748175182482  3.33437500000001 8.31432481751825  3.3451171875 8.31432481751825  L 10.8073567708333 8.31432481751825  C 10.8180989583333 8.31432481751825  10.8252604166667 8.30748175182482  10.8252604166667 8.29721715328467  L 10.8252604166667 6.72331204379562  Z M 10.8216796875 10.6101733576642  C 10.8252604166667 10.5999087591241  10.8145182291667 10.5930656934307  10.8073567708333 11  L 0.383854166666667 11  C 0.373111979166669 10.5930656934307  0.365950520833333 10.5999087591241  0.365950520833333 10.6101733576642  L 0.365950520833333 12.1840784671533  C 0.365950520833333 12.1943430656934  0.373111979166669 12.2011861313869  0.383854166666667 12  L 10.8037760416667 12  C 10.8145182291667 12.2011861313869  10.8216796875 12.1943430656934  10.8216796875 12.1840784671533  L 10.8216796875 10.6101733576642  Z M 10.8216796875 14.5004562043796  C 10.8252604166667 14.4901916058394  10.8145182291667 14.483348540146  10.8073567708333 14.483348540146  L 0.383854166666667 14.483348540146  C 0.373111979166669 14.483348540146  0.365950520833333 14.4901916058394  0.365950520833333 14.5004562043796  L 0.365950520833333 16.0743613138686  C 0.365950520833333 16.0846259124088  0.373111979166669 16.0914689781022  0.383854166666667 16  L 10.8037760416667 16  C 10.8145182291667 16.0914689781022  10.8216796875 16.0846259124088  10.8216796875 16.0743613138686  L 10.8216796875 14.5004562043796  Z M 10.8216796875 18.3873175182482  C 10.8252604166667 18.377052919708  10.8145182291667 18.3702098540146  10.8073567708333 18  L 0.383854166666667 18  C 0.373111979166669 18.3702098540146  0.365950520833333 18.377052919708  0.365950520833333 18.3873175182482  L 0.365950520833333 19.9612226277372  C 0.365950520833333 19.9714872262774  0.373111979166669 19.9783302919708  0.383854166666667 20  L 10.8037760416667 20  C 10.8145182291667 19.9783302919708  10.8216796875 19.9714872262774  10.8216796875 19.9612226277372  L 10.8216796875 18.3873175182482  Z M 10.8216796875 22.2776003649635  C 10.8252604166667 22.2673357664234  10.8145182291667 22.2604927007299  10.8073567708333 22  L 0.383854166666667 22  C 0.373111979166669 22.2604927007299  0.365950520833333 22.2673357664234  0.365950520833333 22.2776003649635  L 0.365950520833333 23.8515054744526  C 0.365950520833333 23.8617700729927  0.373111979166669 23.8686131386861  0.383854166666667 23.8686131386861  L 10.8037760416667 23.8686131386861  C 10.8145182291667 23.8686131386861  10.8216796875 23.8617700729927  10.8216796875 23.8515054744526  L 10.8216796875 22.2776003649635  Z " fill-rule="nonzero" fill="#027db4" stroke="none" transform="matrix(1 0 0 1 85 485 )" />
  </g>
</svg>