<?xml version="1.0" encoding="utf-8"?>
<svg version="1.1" xmlns:xlink="http://www.w3.org/1999/xlink" width="35px" height="35px" xmlns="http://www.w3.org/2000/svg">
  <g transform="matrix(1 0 0 1 -111 -479 )">
    <path d="M 34.330078125 17.5  C 34.71630859375 17.24365234375  34.986328125 16.81982421875  35 16.31396484375  L 35 1.45263671875  C 34.986328125 0.65625  34.3505859375 0.013671875  33.564453125 0  L 1.43212890625 0  C 0.6494140625 0.01025390625  0.013671875 0.65625  0 1.45263671875  L 0 16.3173828125  C 0.013671875 16.8232421875  0.287109375 17.2470703125  0.67333984375 17.50341796875  C 0.28369140625 17.759765625  0.013671875 18.18359375  0 18.689453125  L 0 33.55419921875  C 0.013671875 34.3505859375  0.6494140625 34.9931640625  1.435546875 35  L 33.56787109375 35  C 34.35400390625 34.9931640625  34.98974609375 34.34716796875  35 33.55419921875  L 35 18.68603515625  C 34.98974609375 18.18017578125  34.71630859375 17.75634765625  34.330078125 17.5  Z M 31.29150390625 2.6181640625  L 31.29150390625 1.408203125  L 32.484375 1.408203125  L 32.484375 2.6181640625  L 31.29150390625 2.6181640625  Z M 29.2236328125 2.6181640625  L 29.2236328125 1.408203125  L 30.41650390625 1.408203125  L 30.41650390625 2.6181640625  L 29.2236328125 2.6181640625  Z M 27.15234375 2.6181640625  L 27.15234375 1.408203125  L 28.34521484375 1.408203125  L 28.34521484375 2.6181640625  L 27.15234375 2.6181640625  Z M 2 15.16552734375  L 2 4.1083984375  C 1.93115234375 3.75634765625  2.21484375 3.46923828125  2.5634765625 4  L 32.4365234375 4  C 32.78515625 3.46923828125  33.06884765625 3.75634765625  33 4.1083984375  L 33 15.16552734375  C 33.06884765625 15.517578125  32.78515625 15.8046875  32.4365234375 16  L 2.5634765625 16  C 2.21484375 15.8046875  1.93115234375 15.517578125  2 15.16552734375  Z M 31.29150390625 18.6416015625  L 32.484375 18.6416015625  L 32.484375 19.8515625  L 31.29150390625 19.8515625  L 31.29150390625 18.6416015625  Z M 29.2236328125 18.6416015625  L 30.41650390625 18.6416015625  L 30.41650390625 19.8515625  L 29.2236328125 19.8515625  L 29.2236328125 18.6416015625  Z M 27.15234375 18.6416015625  L 28.34521484375 18.6416015625  L 28.34521484375 19.8515625  L 27.15234375 19.8515625  L 27.15234375 18.6416015625  Z M 33 21.341796875  L 33 32.39892578125  C 33.0654296875 32.7509765625  32.78173828125 33.0380859375  32.43310546875 33  L 2.56005859375 33  C 2.21142578125 33.0380859375  1.927734375 32.7509765625  2 32.39892578125  L 2 21.341796875  C 1.927734375 20.98974609375  2.21142578125 20.70263671875  2.56005859375 20.70263671875  L 32.43310546875 20.70263671875  C 32.78173828125 20.70263671875  33.0654296875 20.98974609375  33 21.341796875  Z " fill-rule="nonzero" fill="#027db4" stroke="none" transform="matrix(1 0 0 1 111 479 )" />
  </g>
</svg>