<?xml version="1.0" encoding="utf-8"?>
<svg version="1.1" xmlns:xlink="http://www.w3.org/1999/xlink" width="10px" height="24px" xmlns="http://www.w3.org/2000/svg">
  <g transform="matrix(1 0 0 1 -68 -485 )">
    <path d="M 4.59878177966102 4.4856295620438  C 4.60209216101695 4.4856295620438  4.60871292372881 4.48220802919708  4.60871292372881 4.47536496350365  L 4.60871292372881 0.0650091240875912  C 4.60871292372881 0.0581660583941606  4.60540254237288 0.0547445255474453  4.59878177966102 0.0547445255474453  L 0.136387711864407 0.0547445255474453  C 0.129766949152542 0.0547445255474453  0.12645656779661 0.0581660583941593  0.12645656779661 0.0650091240875912  L 0.12645656779661 4.47536496350365  C 0.12645656779661 4.48220802919708  0.129766949152542 4.4856295620438  0.136387711864407 4.4856295620438  L 4.59878177966102 4.4856295620438  Z M 9.99470338983051 6.72673357664234  C 9.99470338983051 6.71646897810219  9.98808262711864 6.70962591240876  9.97815148305085 6.70962591240876  L 3.07931673728814 6.70962591240876  C 3.06938559322034 6.70962591240876  3.06276483050847 6.71646897810219  3.06276483050847 6.72673357664234  L 3.06276483050847 8.30063868613139  C 3.06276483050847 8.31090328467153  3.06938559322034 8.31774635036496  3.07931673728814 8.31774635036496  L 9.97815148305085 8.31774635036496  C 9.98808262711864 8.31774635036496  9.99470338983051 8.31090328467153  9.99470338983051 8.30063868613139  L 9.99470338983051 6.72673357664234  Z M 9.99470338983051 10.6170164233577  C 9.99470338983051 10.6067518248175  9.98808262711864 10.5999087591241  9.97815148305085 10.5999087591241  L 0.344941737288136 10.5999087591241  C 0.335010593220339 10.5999087591241  0.328389830508475 10.6067518248175  0.328389830508475 10.6170164233577  L 0.328389830508475 12.1909215328467  C 0.328389830508475 12.2011861313869  0.335010593220339 12.2080291970803  0.344941737288136 12.2080291970803  L 9.97815148305085 12.2080291970803  C 9.98808262711864 12.2080291970803  9.99470338983051 12.2011861313869  9.99470338983051 12.1909215328467  L 9.99470338983051 10.6170164233577  Z M 9.99470338983051 14.5038777372263  C 9.99470338983051 14.4936131386861  9.98808262711864 14.4867700729927  9.97815148305085 14.4867700729927  L 0.344941737288136 14.4867700729927  C 0.335010593220339 14.4867700729927  0.328389830508475 14.4936131386861  0.328389830508475 14.5038777372263  L 0.328389830508475 16.0777828467153  C 0.328389830508475 16.0880474452555  0.335010593220339 16.0948905109489  0.344941737288136 16.0948905109489  L 9.97815148305085 16.0948905109489  C 9.98808262711864 16.0948905109489  9.99470338983051 16.0880474452555  9.99470338983051 16.0777828467153  L 9.99470338983051 14.5038777372263  Z M 9.99470338983051 18.3941605839416  C 9.99470338983051 18.3838959854015  9.98808262711864 18.377052919708  9.97815148305085 18.377052919708  L 0.344941737288136 18.377052919708  C 0.335010593220339 18.377052919708  0.328389830508475 18.3838959854015  0.328389830508475 18.3941605839416  L 0.328389830508475 19.9680656934307  C 0.328389830508475 19.9783302919708  0.335010593220339 19.9851733576642  0.344941737288136 19.9851733576642  L 9.97815148305085 19.9851733576642  C 9.98808262711864 19.9851733576642  9.99470338983051 19.9783302919708  9.99470338983051 19.9680656934307  L 9.99470338983051 18.3941605839416  Z M 9.99470338983051 22.2810218978102  C 9.99470338983051 22.2707572992701  9.98808262711864 22.2639142335766  9.97815148305085 22.2639142335766  L 0.344941737288136 22.2639142335766  C 0.335010593220339 22.2639142335766  0.328389830508475 22.2707572992701  0.328389830508475 22.2810218978102  L 0.328389830508475 23.8549270072993  C 0.328389830508475 23.8651916058394  0.335010593220339 23.8720346715328  0.344941737288136 23.8720346715328  L 9.97815148305085 23.8720346715328  C 9.98808262711864 23.8720346715328  9.99470338983051 23.8651916058394  9.99470338983051 23.8549270072993  L 9.99470338983051 22.2810218978102  Z " fill-rule="nonzero" fill="#027db4" stroke="none" transform="matrix(1 0 0 1 68 485 )" />
  </g>
</svg>