<?xml version="1.0" encoding="utf-8"?>
<svg version="1.1" xmlns:xlink="http://www.w3.org/1999/xlink" width="25px" height="9px" xmlns="http://www.w3.org/2000/svg">
  <g transform="matrix(1 0 0 1 -116 -502 )">
    <path d="M 0.162301936619718 4.29121492346939  C 0.158863336267606 4.58179209183673  0.38237235915493 4.81497130102041  0.657460387323944 4.81497130102041  L 4.12013094190141 4.81497130102041  C 4.39178036971831 4.81497130102041  4.61528939260563 4.57820471938776  4.61528939260563 4.29121492346939  L 4.61528939260563 0.632095025510204  C 4.61528939260563 0.345105229591837  4.39178036971831 0.108338647959184  4.12013094190141 0.108338647959184  L 0.657460387323944 0.108338647959184  C 0.385810959507042 0.108338647959184  0.162301936619718 0.345105229591837  0.162301936619718 0.632095025510204  L 0.162301936619718 4.29121492346939  Z M 24.8376980633803 3.95400191326531  C 24.8411366637324 3.49123086734694  24.4800836267606 3.1109693877551  24.0399427816901 3.1109693877551  L 7.06701144366197 3.1109693877551  C 6.62687059859155 3.1109693877551  6.26925616197183 3.49123086734694  6.26925616197183 3.95400191326531  L 6.26925616197183 3.96835140306122  C 6.26925616197183 4.43112244897959  6.63030919894366 4.81138392857143  7.06701144366197 4.81138392857143  L 24.0399427816901 4.81138392857143  C 24.4800836267606 4.81138392857143  24.8376980633803 4.43112244897959  24.8376980633803 3.96835140306122  L 24.8376980633803 3.95400191326531  Z M 24.8411366637324 7.97544642857143  C 24.8411366637324 7.51267538265306  24.4800836267606 7.13241390306122  24.0399427816901 7  L 1.00132042253521 7  C 0.561179577464789 7.13241390306122  0.203565140845072 7.51267538265306  0.203565140845072 7.97544642857143  L 0.203565140845072 7.98979591836735  C 0.203565140845072 8.45256696428571  0.564618177816903 8.83282844387755  1.00132042253521 8.83282844387755  L 24.0433813820423 8.83282844387755  C 24.4835222271127 8.83282844387755  24.8411366637324 8.45256696428571  24.8411366637324 7.98979591836735  L 24.8411366637324 7.97544642857143  Z " fill-rule="nonzero" fill="#027db4" stroke="none" transform="matrix(1 0 0 1 116 502 )" />
  </g>
</svg>