<?xml version="1.0" encoding="utf-8"?>
<svg version="1.1" xmlns:xlink="http://www.w3.org/1999/xlink" width="23px" height="25px" xmlns="http://www.w3.org/2000/svg">
  <g transform="matrix(1 0 0 1 -18 -668 )">
    <path d="M 5.80908203125 5.82011620603015  L 11.275390625 2.79718907035176  L 17.19091796875 6.04585427135678  L 11.724609375 9.06878140703517  L 5.80908203125 5.82011620603015  Z M 11.39501953125 0.0687028894472362  C 11.35595703125 0.046619817839196  11.314453125 0.0368051193467337  11.2705078125 0.0368051193467337  C 11.22900390625 0.0368051193467337  11.18505859375 0.046619817839196  11.14599609375 0.0687028894472362  L 1.14111328125 5.59928548994975  C 0.962890625 5.69743247487437  0.96533203125 5.95261463567839  1.14111328125 6.05076162060301  L 11.60498046875 11.7972675879397  C 11.64404296875 11.8193506595477  11.685546875 11.8291653580402  11.72705078125 11.8291653580402  C 11.7685546875 11.8291653580402  11.8125 11.8193506595477  11.8515625 11.7972675879397  L 21.85888671875 6.26423131281407  C 22.037109375 6.16608432788945  22.03466796875 5.91090216708543  21.85888671875 5.8127551821608  L 11.39501953125 0.0687028894472362  Z M 14.830078125 14.5821882851759  L 20.47705078125 11.4586604899497  L 20.45751953125 17.8701122801508  L 14.810546875 20.9936400753769  L 14.830078125 14.5821882851759  Z M 23 7.73888976130653  C 22.9306640625 7.58921560929648  22.80615234375 7.4812539258794  22.671875 7.4812539258794  C 22.63037109375 7.4812539258794  22.5888671875 7.49106862437186  22.5498046875 7.5131516959799  L 12.52294921875 13.056002669598  C 12.4423828125 13.1001688128141  12.39111328125 13.1860474246231  12 13.2817407349246  L 12 24.7134108040201  C 12.35693359375 24.8630849560302  12.47900390625 24.9710466394472  12.61328125 24.9710466394472  C 12.65478515625 24.9710466394472  12.6962890625 24.9612319409548  12.7353515625 24.9391488693467  L 22.76220703125 19.3962978957286  C 22.8427734375 19.3521317525126  22.89404296875 19.2662531407035  23 19.170559830402  L 23 7.73888976130653  Z M 2.515625 17.6566425879397  L 2.53515625 11.2206540515075  L 8.658203125 14.5821882851759  L 8.638671875 21.0206304962312  L 2.515625 17.6566425879397  Z M 0.484375 7.29722832914573  C 0.44287109375 7.27514525753769  0.4013671875 7.26533055904523  0.3623046875 7.26533055904523  C 0.22802734375 7.26533055904523  0.10595703125 7.37329224246231  0 7.52296639447236  L 0 18.957090138191  C 0.0717773437500002 19.0503297738693  0.123046875 19.1386620603015  0.2060546875 19.1828282035176  L 10.69189453125 24.9416025439699  C 10.73095703125 24.9636856155779  10.77490234375 24.9735003140704  10.81396484375 24.9735003140704  C 10.9482421875 24.9735003140704  11.0703125 24.8655386306533  11 24.7158644786432  L 11 13.2817407349246  C 11.1044921875 13.1860474246231  11.05322265625 13.1001688128141  10.97021484375 13.056002669598  L 0.484375 7.29722832914573  Z " fill-rule="nonzero" fill="#ffffff" stroke="none" transform="matrix(1 0 0 1 18 668 )" />
  </g>
</svg>