<?xml version="1.0" encoding="utf-8"?>
<svg version="1.1" xmlns:xlink="http://www.w3.org/1999/xlink" width="15px" height="15px" xmlns="http://www.w3.org/2000/svg">
  <g transform="matrix(1 0 0 1 -153 -232 )">
    <path d="M 14.9659090909091 7.5  C 14.9659090909091 3.39204545454546  11.6079545454545 0.0340909090909081  7.5 0.0340909090909091  C 3.39204545454546 0.0340909090909091  0.0340909090909091 3.39204545454546  0.0340909090909091 7.5  C 0.0340909090909091 11.6079545454545  3.39204545454546 14.9659090909091  7.5 14.9659090909091  C 11.6079545454545 14.9659090909091  14.9659090909091 11.6079545454545  14.9659090909091 7.5  Z M 14.2159090909091 7.5  C 14.2159090909091 11.2329545454545  11.2329545454545 14.2159090909091  7.5 14.2159090909091  C 3.76704545454546 14.2159090909091  0.784090909090909 11.2329545454545  0.784090909090909 7.5  C 0.784090909090909 3.76704545454545  3.76704545454545 0.784090909090907  7.5 0.784090909090907  C 11.2329545454545 0.784090909090907  14.2159090909091 3.76704545454545  14.2159090909091 7.5  Z " fill-rule="nonzero" fill="#aaaaaa" stroke="none" transform="matrix(1 0 0 1 153 232 )" />
  </g>
</svg>