<?xml version="1.0" encoding="utf-8"?>
<svg version="1.1" xmlns:xlink="http://www.w3.org/1999/xlink" width="14px" height="14px" xmlns="http://www.w3.org/2000/svg">
  <g transform="matrix(1 0 0 1 -314 -589 )">
    <path d="M 321 590  C 324.36 590  327 592.64  327 596  C 327 599.36  324.36 602  321 602  C 317.64 602  315 599.36  315 596  C 315 592.64  317.64 590  321 590  Z " fill-rule="nonzero" fill="#ffffff" stroke="none" />
    <path d="M 321 590  C 324.36 590  327 592.64  327 596  C 327 599.36  324.36 602  321 602  C 317.64 602  315 599.36  315 596  C 315 592.64  317.64 590  321 590  Z " stroke-width="2" stroke="#91d5ff" fill="none" />
  </g>
</svg>