<?xml version="1.0" encoding="utf-8"?>
<svg version="1.1" xmlns:xlink="http://www.w3.org/1999/xlink" width="34px" height="37px" xmlns="http://www.w3.org/2000/svg">
  <g transform="matrix(1 0 0 1 -111 -297 )">
    <path d="M 6.24033748786879 0.189478571272696  C 5.52395114661751 0.270648733421315  5.00675374083916 0.899607117783752  5.07884680463898 1.60195530726257  C 5.12354959568724 2.27227936115981  5.69206120307618 2.79360201757628  6.37835868731262 2.79360201757628  C 6.40863871217352 2.79360201757628  6.43890952583636 2.79256831448345  6.46911592828028 2.79050279329609  C 14.3909088748956 2.10623875220676  22.3358166903685 3.82633213046611  29.2237743133734 7.71694600973289  C 29.426960745581 7.85009639645853  29.6655959997794 7.92196627230272  29.9101097171002 7.92364992034742  C 30.3506966764458 7.91904883401319  30.7572081518608 7.6907484273694  30.9836086956522 7.32076348747381  C 31.3197697223156 6.73360408267177  31.1533276112202 5.99308515316588  30.5964451208269 5.59823092593401  C 23.2631923155302 1.32743741661844  14.7385519454462 -0.56562650677878  6.24033748786879 0.189478571272696  Z M 29.2413726708075 34.5195530726257  C 33.9317313500849 30.8474362935624  35.2328370266059 24.3997500556205  32.3210828294837 19.2579143254626  L 26.3200476052989 11.1620111731844  C 25.6579646964567 10.268476237525  24.5985475103806 9.73957123050781  23.4708453828975 9.73957123050781  C 22.6548335631395 9.73957123050781  21.8641755426263 10.0170973128702  21.2341263077446 10.524674101999  C 20.8231472095853 10.8478865636876  20.4871950770552 11.2530536011429  20.2486190338703 11.7132215880325  C 19.0133552514252 10.3009270861469  16.856065457779 10.102729797427  15.3738778605396 11.2653631284916  C 14.8856534424499 11.6485247665538  14.5042800864385 12.1462443594468  14.2651822083657 12.7122905027933  C 12.9994684771267 11.9474103373041  11.3791511780289 12.0439478029426  10.2175631332492 12.9534450517196  C 9.80658405002169 13.2766575175913  9.4706319318054 13.681824554741  9.23205590062112 14.1419925377531  L 6.64509937888199 10.6969273743017  C 5.9845234593536 9.79072276525487  4.91728851422821 9.25280068236143  3.77995864597723 9.25280068236143  C 2.97101702390752 9.25280068236143  2.18676542947274 9.52554625516455  1.55917804008152 10.0251396648045  C -0.0379420463493007 11.2964269999152  -0.332400662962545 13.5718261237384  0.890440993788823 15.1927374301676  L 10.4463416149068 27.8533519553073  L 8.6865072326281 27.6294227053509  C 7.7263234846598 27.5113757275959  6.75884252829247 27.7854998053109  6.01155900621118 28.3873370711854  C 5.09496756972126 29.1133779098  4.56241986276697 30.2057790409221  4.56241986276697 31.3599181541186  C 4.56241986276697 33.2083965985874  5.9132582960234 34.7922545993206  7.77139338848991 35.1224394651274  L 19.4390952518439 36.6727187947364  C 22.8707703901572 37.4918089185166  26.4963681508778 36.695411052298  29.2413726708075 34.5195530726257  Z M 30.1916832298137 19.5335195530726  C 33.1101291545076 23.847757510427  32.1440667265352 29.6338407461199  27.9742919254658 32.8142458100559  C 25.7119997155325 34.5933216433029  22.7282550594046 35.2309855453407  19.914250531347 34.5367784119675  L 8.14095860588121 32.9692737430168  C 7.32815291794556 32.8438760542674  6.72941571810156 32.1582229939747  6.72941571810156 31.3528238197571  C 6.72941571810156 30.874846578517  6.9429203641497 30.4207618916733  7.31383642517469 30.1098696327252  C 7.64316780388676 29.844846084578  8.07048387545766 29.7262354480124  8.49292546583851 29.7825884678335  L 15.2858861146157 30.695530726257  L 2.57988198757764 13.883612649485  C 2.08218317297257 13.2167054936603  2.20600767004783 12.2849813866272  2.86145550029115 11.7648975656861  C 3.1204872583566 11.5619803607292  3.44237876955766 11.4514244344838  3.77415501220712 11.4514244344838  C 4.24160201227352 11.4514244344838  4.68081299354205 11.6704078838378  4.95565838509317 12.0405027932961  L 9.54882608695652 18.0521415404591  L 11.3086604692352 16.7257914204347  C 10.7899262532166 16.0807705981084  10.8748070293935 15.1517668815243  11.5022422360248 14.6070763366358  C 11.7612739940903 14.404159131679  12.0831655052914 14.2936032054335  12.4149417479408 14.2936032054335  C 12.8823887480072 14.2936032054335  13.3215997292757 14.5125866547875  13.5964451208269 14.8826815642458  L 14.7051407730008 16.3468342778893  L 16.4649751552795 15.0204841578649  C 15.9672763406744 14.3535770020402  16.0911008377497 13.4218528950071  16.746548667993 12.901769074066  C 17.0055804260585 12.6988518691091  17.3274719372595 12.5882959428637  17.659248179909 12.5882959428637  C 18.1266951799754 12.5882959428637  18.5659061612439 12.8072793922177  18.840751552795 13.177374301676  L 20.6005859350738 15.5889199120548  L 22.3604202761064 14.2625698324022  C 21.8627214615013 13.5956626765776  21.9865459585766 12.6639385695445  22.6419937888199 12.1438547486033  C 22.9049348480451 11.9360618757944  23.2326766830644 11.8227250382557  23.5706207280757 11.8227250382557  C 24.0362460242002 11.8227250382557  24.4746575526719 12.0374556052172  24.7537950310559 12.4022346368715  L 30.033298136646 19.2923650041463  L 30.1916832298137 19.5335195530726  Z " fill-rule="nonzero" fill="#027db4" stroke="none" transform="matrix(1 0 0 1 111 297 )" />
  </g>
</svg>