<?xml version="1.0" encoding="utf-8"?>
<svg version="1.1" xmlns:xlink="http://www.w3.org/1999/xlink" width="9px" height="12px" xmlns="http://www.w3.org/2000/svg">
  <g transform="matrix(1 0 0 1 -110 -293 )">
    <path d="M 6.94769318181818 11.6206896417026  C 7.1473697337131 11.7633407755997  7.38507471904573 11.8414828773961  7.62951137695312 11.8448275862069  C 8.31947898653932 11.8354602560355  8.87394625003479 11.2670415759616  8.87394625003479 10.5690804419379  C 8.87394625003479 10.5632948065071  8.87390734316908 10.557509237999  8.87382953213778 10.551724137931  C 8.87958657421198 10.1209754864731  8.67566058127149 9.7148814733755  8.328375 9.46551724137931  L 3.53860228604403 6.0862068830819  L 8.26019316850142 2.34482759967672  C 8.81308154304678 1.89989640373026  8.91855821564446 1.09210798054968  8.4988295587713 0.517241379310345  C 8.27105345797027 0.200861773996763  7.90744804493882 0.013720232029534  7.52051649795893 0.013720232029534  C 7.25861829034939 0.013720232029534  7.00378706594344 0.0996545457127216  6.79428409090909 0.258620689655172  L 0.623829558771307 5.17241379310345  C 0.130840126811907 5.60678957870877  0.0290891002780541 6.34193649214002  0.385193168501421 6.89655173760776  C 0.470466858679302 7.01098819402926  0.574191058050308 7.11007593038174  0.692011350319602 7.18965517241379  L 6.94769318181818 11.6206896417026  Z " fill-rule="nonzero" fill="#027db4" stroke="none" transform="matrix(1 0 0 1 110 293 )" />
  </g>
</svg>