<?xml version="1.0" encoding="utf-8"?>
<svg version="1.1" xmlns:xlink="http://www.w3.org/1999/xlink" width="22px" height="24px" xmlns="http://www.w3.org/2000/svg">
  <g transform="matrix(1 0 0 1 -1067 -13 )">
    <path d="M 10.3196296137153 0.42985074626866  C 10.653703671875 0.0268656716417937  11.1711111111111 -0.0179104302705198  11.5479629470486 0.2955223880597  L 11.6803703862847 0.429850746268656  L 20.9040740581597 11.5432835645989  C 21.0869731409232 11.7686659002875  21.1871586210794 12.0606937791454  21.1851851692708 12.3626865496735  C 21.1851851692708 12.9313432486007  20.8449999999999 13.4059701492537  20.3968518359375 13.5044775944496  L 20.2237037196181 13.5223880771922  L 14.0555555555556 13.5223880771922  L 14.0555555555556 22.4776119228078  C 14.0555555555556 23.0958411631918  13.5995492893602 23.5970149428638  13.0370370529514 23.5970149428638  L 8.96296294704858 23.5970149428638  C 8.40045071063984 23.5970149428638  7.94444444444444 23.0958411631918  7.94444444444444 22.4776119752798  L 7.94444444444444 13.5223880771922  L 1.77629628038192 13.5223880771922  C 1.57078745268324 13.5209421364376  1.37182500314643 13.4427894159818  1.21203705295133 13.3007462861474  L 1.09592594184033 13.1820895347481  C 0.773123515245225 12.7771107594342  0.723808290306857 12.1899450964319  0.973703719618079 11.7268656716418  L 1.09592594184033 11.5432835645989  L 10.3196296137153 0.42985074626866  Z " fill-rule="nonzero" fill="#39bbdb" stroke="none" transform="matrix(1 0 0 1 1067 13 )" />
  </g>
</svg>