<?xml version="1.0" encoding="utf-8"?>
<svg version="1.1" xmlns:xlink="http://www.w3.org/1999/xlink" width="15px" height="26px" xmlns="http://www.w3.org/2000/svg">
  <g transform="matrix(1 0 0 1 -36 -86 )">
    <path d="M 0.472179594494048 11.9864331894531  L 0.475155087425595 11.9864331894531  C 0.564755323690263 11.8834028729292  0.669310088191376 11.7972236079592  0.784606166294644 11.7313681367187  L 12.423240141369 0.42889919921875  C 12.6940098353795 0.1559633359375  13.0689217354911 0.00162461914062497  13.4601988467262 0  C 13.8321352539062 0  14.2040716610863 0.142966408203125  14.5001330217634 0.41427765234375  C 14.7760437157695 0.662084714294958  14.9359189706694 1.03172365007735  14.9359189706694 1.42183479108544  C 14.9359189706694 1.80453835590855  14.782032688118 2.1679397571557  14.5150104864211 2.41580729101563  L 3.60983510044643 13.0099426640625  L 14.5031085146949 23.5537148691406  C 14.777721885882 23.8059107746611  14.9362614458727 24.1777183258095  14.9362614458727 24.5695466944807  C 14.9362614458727 24.9539079916762  14.7836832481197 25.3193963426049  14.5179859793527 25.5714906992187  C 13.9585936337426 26.1319839726563  13.0302403506324 26.1319839726563  12.4544827938988 25.5844876523437  L 0.665586518787201 14.1747939277344  C 0.275074859805368 13.9199210776251  0.0429289138921423 13.4527772637587  0.0600740559895834 12.9563302578125  L 0.0600740559895834 12.9124655664063  C 0.0808250874462908 12.5566898994278  0.228840796029612 12.2240873846855  0.472179594494048 11.9864331894531  Z " fill-rule="nonzero" fill="#ffffff" stroke="none" transform="matrix(1 0 0 1 36 86 )" />
  </g>
</svg>