<?xml version="1.0" encoding="utf-8"?>
<svg version="1.1" xmlns:xlink="http://www.w3.org/1999/xlink" width="21px" height="22px" xmlns="http://www.w3.org/2000/svg">
  <g transform="matrix(1 0 0 1 -470 -78 )">
    <path d="M 8.71291390728477 2.83897058823529  C 8.71812913907285 0.0242647058823527  9.54735099337748 -0.13952205882353  10.3783112582781 0.333639705882353  L 10.6043046357616 0.477205882352942  L 10.826821192053 0.643014705882353  L 11.0423841059603 0.82297794117647  L 20.083857615894 8.88492647058824  C 20.6192880794702 9.44301470588235  20.8765728476821 10.1487132352941  20.8609271523179 11  C 20.8435430463576 11.8512867647059  20.5827814569536 12.5044117647059  20.078642384106 12.9553308823529  L 10.4443708609272 21.4681985294118  L 10.2531456953642 21.6016544117647  C 9.59254966887417 22.0262867647059  8.72334437086093 22.1880514705882  8.69205298013245 20.2064338235294  L 8.69900662251656 15.3332720588235  L 1.7523178807947 21.4681985294118  L 1.56109271523179 21.6016544117647  C 0.900496688741723 22.0262867647059  0.031291390728478 22.1880514705882  0 20.2064338235294  L 0 2.83897058823529  C 0.0260761589403974 0.0242647058823539  0.85703642384106 -0.139522058823528  1.6862582781457 0.333639705882354  L 1.91225165562914 0.477205882352943  L 2.13476821192053 0.643014705882354  L 2.35033112582782 0.822977941176471  L 8.71291390728477 6.496875  L 8.71291390728477 2.83897058823529  Z " fill-rule="nonzero" fill="#169bd5" stroke="none" transform="matrix(1 0 0 1 470 78 )" />
  </g>
</svg>