<?xml version="1.0" encoding="utf-8"?>
<svg version="1.1" xmlns:xlink="http://www.w3.org/1999/xlink" width="19px" height="22px" xmlns="http://www.w3.org/2000/svg">
  <g>
    <path d="M 4 19.8  C 3.80753968253968 21.0155  3.19117063492064 22  1.94146825396825 22  C 0.691765873015873 22  0.0753968253968254 21.0155  0 19.8  L 0 2.2  C 0.0753968253968254 0.9845  0.691765873015873 0  1.94146825396825 0  C 3.19117063492064 0  3.80753968253968 0.9845  4 2.2  L 4 19.8  Z M 18.8869047619048 19.8  C 18.8869047619048 21.0155  18.2705357142857 22  17.0208333333333 22  C 15.771130952381 22  15.1547619047619 21.0155  15 19.8  L 15 2.2  C 15.1547619047619 0.9845  15.771130952381 0  17.0208333333333 0  C 18.2705357142857 0  18.8869047619048 0.9845  18.8869047619048 2.2  L 18.8869047619048 19.8  Z " fill-rule="nonzero" fill="#169bd5" stroke="none" />
  </g>
</svg>