<?xml version="1.0" encoding="utf-8"?>
<svg version="1.1" xmlns:xlink="http://www.w3.org/1999/xlink" width="20px" height="22px" xmlns="http://www.w3.org/2000/svg">
  <g transform="matrix(1 0 0 1 -429 -78 )">
    <path d="M 0 19.430298013245  C 0.048657718120805 21.3971854304636  1.58221476510067 21.0220198675497  2.55704697986577 20.5685430463576  L 16.6174496644295 12.9013245033113  L 16.6023489932886 20.4355960264901  C 16.6023489932886 21.2988410596026  17.3439597315436 21.998178807947  18.260067114094 22  C 19.1778523489933 22  19.9228187919463 21.3043046357616  19.9244966442953 20.441059602649  L 19.9446308724832 11.087417218543  L 19.9664429530201 11.0728476821192  L 19.9429530201342 11.0600993377483  L 19.9614093959732 1.71009933774834  C 19.9664429530201 0.846854304635761  19.2231543624161 0.145695364238411  18.3053691275168 0.145695364238411  C 17.3892617449664 0.14387417218543  16.6442953020134 0.841390728476821  16.6409395973154 1.70281456953642  L 16.6258389261745 9.23526490066225  L 3.72818791946309 2.13807947019867  C 2.29026845637584 1.31672185430463  0.040268456375839 0.327814569536424  0 3.78807947019867  L 0 19.430298013245  Z " fill-rule="nonzero" fill="#169bd5" stroke="none" transform="matrix(1 0 0 1 429 78 )" />
  </g>
</svg>