<?xml version="1.0" encoding="utf-8"?>
<svg version="1.1" xmlns:xlink="http://www.w3.org/1999/xlink" width="36px" height="36px" xmlns="http://www.w3.org/2000/svg">
  <g transform="matrix(1 0 0 1 -1114 -13 )">
    <path d="M 17.1343166977612 4.38001171875  L 17.1343166977612 12.66001171875  C 17.1343166977612 15.0600234375  15.1641674440299 17.0400234375  12.7760960820896 17.0400234375  L 4.5372901119403 17.0400234375  C 2.14921875 17.0400234375  0.179069496268656 15.0600234375  0.179069496268656 12.66001171875  L 0.179069496268656 4.38001171875  C 0.179069496268657 1.98  2.14921875 0  4.5372901119403 0  L 12.7760960820896 0  C 15.1641674440299 0  17.1343166977612 1.98  17.1343166977612 4.38001171875  Z M 36 23.33998828125  L 36 31.61998828125  C 36 34.02  34.0298507462687 36  31.6417793843284 36  L 23.4029734141791 36  C 21.0149020522388 36  19.0447527985075 34.02  19.0447527985075 31.61998828125  L 19.0447527985075 23.33998828125  C 19.0447527985075 20.9399765625  21.0149020522388 18.9599765625  23.4029734141791 18.9599765625  L 31.6417793843284 18.9599765625  C 34.0298507462687 18.9599765625  36 20.9399765625  36 23.33998828125  Z M 17.1343166977612 23.33998828125  L 17.1343166977612 31.61998828125  C 17.1343166977612 34.02  15.1641674440299 36  12.7760960820896 36  L 4.5372901119403 36  C 2.14921875 36  0.179069496268657 34.02  0.179069496268657 31.61998828125  L 0.179069496268657 23.33998828125  C 0.179069496268657 20.9399765625  2.14921875 18.9599765625  4.5372901119403 18.9599765625  L 12.7760960820896 18.9599765625  C 15.1641674440299 18.9599765625  17.1343166977612 20.9399765625  17.1343166977612 23.33998828125  Z M 23.8208955223881 3.78  L 31.2238922574627 3.78  C 31.7612056902985 3.78  32.2388059701493 4.25998828125  32.2388059701493 4.79998828125  L 32.2388059701493 12.24  C 32.2388059701493 12.78  31.7612056902985 13.25998828125  31.2238922574627 13.25998828125  L 23.8208955223881 13.25998828125  C 23.2835820895522 13.25998828125  22.8059818097015 12.78  22.8059818097015 12.24  L 22.8059818097015 4.79998828125  C 22.8059818097015 4.25998828125  23.2835820895522 3.78  23.8208955223881 3.78  Z M 36 4.38001171875  C 36 1.98  34.0298507462687 0  31.6417793843284 0  L 23.4029734141791 0  C 21.0149020522388 0  19.0447527985075 1.98  19.0447527985075 4.38001171875  L 19.0447527985075 12.66001171875  C 19.0447527985075 15.0600234375  21.0149020522388 17.0400234375  23.4029734141791 17.0400234375  L 31.6417793843284 17.0400234375  C 34.0298507462687 17.0400234375  36 15.0600234375  36 12.66001171875  L 36 4.38001171875  Z " fill-rule="nonzero" fill="#39bbdb" stroke="none" transform="matrix(1 0 0 1 1114 13 )" />
  </g>
</svg>