<?xml version="1.0" encoding="utf-8"?>
<svg version="1.1" xmlns:xlink="http://www.w3.org/1999/xlink" width="17px" height="15px" xmlns="http://www.w3.org/2000/svg">
  <g transform="matrix(1 0 0 1 -1427 -289 )">
    <path d="M 16.9446511627907 1.05581395343159  C 16.9446511627907 0.505767441803688  16.433333333269 0.0581395348269437  15.8048868216411 0  L 4.73448682164108 0  C 4.10604031001317 0.058139534826944  3.59472248049146 0.505767441803688  3.5947224806845 1.05581395343159  L 3.5947224806845 3.13813953488372  L 1.21619844954806 3.13813953488372  C 0.587646511627907 3.13813953488372  0.0764341083984376 3.58576744186046  0.0764341085914788 4.13590697668741  L 0.0764341085914788 13.944093023199  C 0.0764341085914788 14.494232558026  0.587646511627907 14.9418604650027  1.21619844954806 15  L 12.2864930232558 15  C 12.9148341085915 14.9418604651731  13.4262573644054 14.4942325581963  13.4262573644054 13.944093023199  L 13.4262573644054 11.8617674419172  L 15.8048868216411 11.8617674419172  C 16.433333333269 11.8617674419172  16.9446511627907 11.4142325581395  16.9446511627907 10.8639999999432  L 16.9446511627907 1.05581395343159  Z M 12.1598759690566 4.24669767436183  L 12.1598759690566 13.8332093023256  L 1.34281550394032 13.8332093023256  L 1.34281550394032 4.24669767436183  L 12.1598759690566 4.24669767436183  Z M 15.6782697674419 1.16669767447538  L 15.6782697674419 10.7532093022688  L 13.4262573644054 10.7532093022688  L 13.4262573644054 4.13590697668741  C 13.4262573644054 3.58576744186046  12.9148341085915 3.13813953488372  12.2864930232558 3.13813953488372  L 4.86120930232558 3.13813953488372  L 4.86120930232558 1.16669767447538  L 15.6782697674419 1.16669767447538  Z " fill-rule="nonzero" fill="#81d3f8" stroke="none" transform="matrix(1 0 0 1 1427 289 )" />
  </g>
</svg>