<?xml version="1.0" encoding="utf-8"?>
<svg version="1.1" xmlns:xlink="http://www.w3.org/1999/xlink" width="38px" height="39px" xmlns="http://www.w3.org/2000/svg">
  <g transform="matrix(1 0 0 1 -12 -830 )">
    <path d="M 9.59761379076087 9.07938128140704  L 18.62890625 4.36361494974874  L 28.4023862092391 9.43153266331658  L 19.37109375 14.1472989949749  L 9.59761379076087 9.07938128140704  Z M 18.8265540081522 0.107176507537688  C 18.7620159646739 0.0727269158291457  18.6934442934783 0.0574159861809045  18.6208389945652 0.0574159861809045  C 18.5522673233696 0.0574159861809045  18.4796620244565 0.0727269158291457  18.4151239809783 0.107176507537688  L 1.8853175951087 8.73488536432161  C 1.59086277173913 8.88799466080402  1.59489639945652 9.28607883165829  1.8853175951087 9.4391881281407  L 19.1734459918478 18.4037374371859  C 19.2379840353261 18.4381870288945  19.3065557065217 18.4534979585427  19.3751273777174 18.4534979585427  C 19.4436990489131 18.4534979585427  19.5163043478261 18.4381870288945  19.5808423913044 18.4037374371859  L 36.1146824048913 9.77220084798995  C 36.4091372282609 9.61909155150754  36.4051036005435 9.22100738065327  36.1146824048913 9.06789808417085  L 18.8265540081522 0.107176507537688  Z M 24 22.7482137248744  L 33.8316491168478 17.8755103643216  L 33.7993800951087 27.8773751570352  L 24 32.7500785175879  L 24 22.7482137248744  Z M 37.8814113451087 12.0726680276382  C 37.8854449728261 11.8391763505025  37.6797299592391 11.6707561243719  37.4578804347826 11.6707561243719  C 37.389308763587 11.6707561243719  37.3207370923913 11.6860670540201  37.256199048913 11.7205166457286  L 20.690090013587 20.3673641645729  C 20.556980298913 20.43626334799  20.4722741168478 20.5702339824121  20 20.7195155464824  L 20 38.5529208542714  C 20.4158033288043 38.786412531407  20.6174847146739 38.9548327575377  20.8393342391304 38.9548327575377  C 20.9079059103261 38.9548327575377  20.9764775815217 38.9395218278894  21.041015625 38.9050722361809  L 37.6071246603261 30.2582247173367  C 37.740234375 30.1893255339196  37.8249405570652 30.0553548994975  37.8249405570652 29.9060733354271  L 37.8814113451087 12.0726680276382  Z M 4.15625 27.5443624371859  L 4.18851902173913 17.5042203203518  L 15 22.7482137248744  L 15 32.7921835741206  L 4.15625 27.5443624371859  Z M 0.800271739130435 11.3836761934673  C 0.731700067934782 11.3492266017588  0.66312839673913 11.3339156721106  0.59859035326087 11.3339156721106  C 0.376740828804348 11.3339156721106  0.175059442934783 11.5023358982412  0.175059442934783 11.7358275753769  L 0.118588654891305 29.5730606155779  C 0.118588654891305 29.7185144472362  0.203294836956522 29.8563128140704  0.340438179347826 29.9252119974874  L 17.6648692255435 38.908899968593  C 17.7294072690217 38.9433495603015  17.8020125679348 38.9586604899498  17.866550611413 38.9586604899498  C 18.0884001358696 38.9586604899498  18.2900815217391 38.7902402638191  19 38.5567485866834  L 19 20.7195155464824  C 18.3465523097826 20.5702339824121  18.2618461277174 20.43626334799  18.1247027853261 20.3673641645729  L 0.800271739130435 11.3836761934673  Z " fill-rule="nonzero" fill="#0075a7" stroke="none" transform="matrix(1 0 0 1 12 830 )" />
  </g>
</svg>