<?xml version="1.0" encoding="utf-8"?>
<svg version="1.1" xmlns:xlink="http://www.w3.org/1999/xlink" width="28px" height="23px" xmlns="http://www.w3.org/2000/svg">
  <g transform="matrix(1 0 0 1 -66 -379 )">
    <path d="M 8.58605801721257 10.2773818600643  L 16.4815914187834 17.4249956215533  L 24.9272844042447 9.95493311695772  L 16.5113297794118 2.79388398897059  L 8.58605801721257 10.2773818600643  Z M 14.176868879512 19.413429519761  L 14.3552990140374 19.3059466142004  L 6.53411148479278 12.2255096587776  L 3.06959305648396 15.4365617233456  L 7.88720665942513 19.7896197288603  C 8.16781604680622 20.0411116255633  8.54769110323372 20.1813099749183  8.94291828626337 20.1792452780331  L 12.0951839864639 20.1792452780331  C 12.8732334628102 20.179860533652  13.6205635876553 19.9049307456956  14.176868879512 19.413429519761  Z M 26.9643617563503 11.8761902090993  L 17.5521722259358 20.2329867440257  L 24.9867611255013 20.2329867440257  C 25.8079631412147 20.2329867440257  26.4736789083389 20.8345084907486  26.4736789083389 21.5765231692325  C 26.4736789083389 22.3185378477164  25.8079631412147 22.9200595944393  24.9867611255013 22.9200595944393  C 24.9867611255013 22.9200595944393  24.9867611255013 22.9200595944393  24.9867611255013 23  L 8.9280491059492 23  C 7.74538235377175 22.9191188374988  6.61153443799768 22.4938494597541  5.77578340574866 21.7377475275735  L 0.958169802807487 17.3846895220588  C -0.175286434200732 16.3398386833897  -0.175286434200732 14.6676383754339  0.958169802807487 13.6227875367647  L 14.3404298337233 0.926368362821689  C 15.4714967787357 -0.141936784975238  17.3452037091382 -0.183962299412633  18.5335379512032 0.832320823759189  L 26.9346234249666 7.99336995174632  C 27.5303149296412 8.50105181189829  27.8679670583063 9.208211580196  27.8679670583063 9.94811275198847  C 27.8679670583063 10.635378564015  27.5765255408592 11.2965211772095  27.0535768382353 11.7955780101103  L 26.9643617563503 11.8761902090993  Z " fill-rule="nonzero" fill="#000080" stroke="none" transform="matrix(1 0 0 1 66 379 )" />
  </g>
</svg>