<?xml version="1.0" encoding="utf-8"?>
<svg version="1.1" xmlns:xlink="http://www.w3.org/1999/xlink" width="28px" height="22px" xmlns="http://www.w3.org/2000/svg">
  <g transform="matrix(1 0 0 1 -66 -466 )">
    <path d="M 20.6022697674419 3.05776883011693  C 20.710623255814 3.05776883011693  20.8193240311137 2.95970613705505  20.8193240311137 2.84532556291391  L 20.8193240311137 0.327865077167839  C 20.8193240311137 0.197166622516557  20.710623255814 0.099103929170116  20.5659782944677 0  L 0.361872868323037 0  C 0.217227906976743 0.0991039294546773  0.108527131994912 0.197166622516557  0.108527131676961 0.327865077167839  L 0.108527131676961 2.84532556291391  C 0.108527131676961 2.97602401756519  0.217227906976743 3.07408671091163  0.361872868323037 3.07408671091163  L 9 3.07408671091163  L 9 21.7417423400507  C 8.84504806190952 21.8073246801014  8.89939844940044 21.8562783224855  8.97163410842115 21.856278322201  L 11.9923348837209 21.856278322201  C 12.0647441860465 21.856278322201  12.1189209302326 21.8073246798168  12.1189209302326 21.7417423400507  L 12.1189209302326 3.05776883011693  L 20.6022697674419 3.05776883011693  Z M 27.891472868323 21.6601529360772  L 22.7728124032068 10.3484425606115  L 21.0002604651163 10.3484425606115  L 16.1886015502816 21.6601529360772  L 17.9432682171602 21.6601529360772  L 19.3180031008812 18.2273370420375  L 24.5453643409793 18.2273370420375  L 26.0103937985556 21.6601529360772  L 27.891472868323 21.6601529360772  Z M 19.8064620153979 17.0339560264901  L 19.8064620153979 17.017793553989  L 21.181023255814 13.6995136423841  C 21.4704868218114 12.9801282119205  21.6875410851653 12.2608981897506  21.8504186046512 11.541512759287  C 22.0490666665607 12.146517615894  22.338703875863 12.9310191609582  22.7365209302326 13.8956390287924  L 24.0388465116279 17.0339560264901  L 19.8064620153979 17.0339560264901  Z " fill-rule="nonzero" fill="#000080" stroke="none" transform="matrix(1 0 0 1 66 466 )" />
  </g>
</svg>