<?xml version="1.0" encoding="utf-8"?>
<svg version="1.1" xmlns:xlink="http://www.w3.org/1999/xlink" width="8px" height="6px" xmlns="http://www.w3.org/2000/svg">
  <g transform="matrix(1 0 0 1 -69 -708 )">
    <path d="M 3.67902542372881 1.12140739051095  C 3.68167372881356 1.12140739051095  3.68697033898305 1.12055200729927  3.68697033898305 1.11884124087591  L 3.68697033898305 0.0162522810218978  C 3.68697033898305 0.0145415145985401  3.6843220338983 0.0136861313868613  3.67902542372881 0.0136861313868613  L 0.109110169491525 0.0136861313868613  C 0.103813559322034 0.0136861313868613  0.101165254237288 0.0145415145985398  0.101165254237288 0.0162522810218978  L 0.101165254237288 1.11884124087591  C 0.101165254237288 1.12055200729927  0.103813559322034 1.12140739051095  0.109110169491525 1.12140739051095  L 3.67902542372881 1.12140739051095  Z M 7.99576271186441 1.68168339416058  C 7.99576271186441 1.67911724452555  7.99046610169492 1.67740647810219  7.98252118644068 1.67740647810219  L 2.46345338983051 1.67740647810219  C 2.45550847457627 1.67740647810219  2.45021186440678 1.67911724452555  2.45021186440678 1.68168339416058  L 2.45021186440678 2.07515967153285  C 2.45021186440678 2.07772582116788  2.45550847457627 2.07943658759124  2.46345338983051 2.07943658759124  L 7.98252118644068 2.07943658759124  C 7.99046610169492 2.07943658759124  7.99576271186441 2.07772582116788  7.99576271186441 2.07515967153285  L 7.99576271186441 1.68168339416058  Z M 7.99576271186441 2.65425410583942  C 7.99576271186441 2.65168795620438  7.99046610169492 2.64997718978102  7.98252118644068 2.64997718978102  L 0.275953389830509 2.64997718978102  C 0.268008474576271 2.64997718978102  0.26271186440678 2.65168795620438  0.26271186440678 2.65425410583942  L 0.26271186440678 3.04773038321168  C 0.26271186440678 3.05029653284671  0.268008474576271 3.05200729927007  0.275953389830509 3.05200729927007  L 7.98252118644068 3.05200729927007  C 7.99046610169492 3.05200729927007  7.99576271186441 3.05029653284671  7.99576271186441 3.04773038321168  L 7.99576271186441 2.65425410583942  Z M 7.99576271186441 3.62596943430657  C 7.99576271186441 3.62340328467153  7.99046610169492 3.62169251824818  7.98252118644068 3.62169251824818  L 0.275953389830509 3.62169251824818  C 0.268008474576271 3.62169251824818  0.26271186440678 3.62340328467153  0.26271186440678 3.62596943430657  L 0.26271186440678 4.01944571167883  C 0.26271186440678 4.02201186131387  0.268008474576271 4.02372262773723  0.275953389830509 4.02372262773723  L 7.98252118644068 4.02372262773723  C 7.99046610169492 4.02372262773723  7.99576271186441 4.02201186131387  7.99576271186441 4.01944571167883  L 7.99576271186441 3.62596943430657  Z M 7.99576271186441 4.5985401459854  C 7.99576271186441 4.59597399635036  7.99046610169492 4.59426322992701  7.98252118644068 4.59426322992701  L 0.275953389830509 4.59426322992701  C 0.268008474576271 4.59426322992701  0.26271186440678 4.59597399635036  0.26271186440678 4.5985401459854  L 0.26271186440678 4.99201642335766  C 0.26271186440678 4.9945825729927  0.268008474576271 4.99629333941606  0.275953389830509 4.99629333941606  L 7.98252118644068 4.99629333941606  C 7.99046610169492 4.99629333941606  7.99576271186441 4.9945825729927  7.99576271186441 4.99201642335766  L 7.99576271186441 4.5985401459854  Z M 7.99576271186441 5.57025547445256  C 7.99576271186441 5.56768932481752  7.99046610169492 5.56597855839416  7.98252118644068 5.56597855839416  L 0.275953389830509 5.56597855839416  C 0.268008474576271 5.56597855839416  0.26271186440678 5.56768932481752  0.26271186440678 5.57025547445256  L 0.26271186440678 5.96373175182482  C 0.26271186440678 5.96629790145985  0.268008474576271 5.96800866788321  0.275953389830509 5.96800866788321  L 7.98252118644068 5.96800866788321  C 7.99046610169492 5.96800866788321  7.99576271186441 5.96629790145985  7.99576271186441 5.96373175182482  L 7.99576271186441 5.57025547445256  Z " fill-rule="nonzero" fill="#000080" stroke="none" transform="matrix(1 0 0 1 69 708 )" />
  </g>
</svg>