<?xml version="1.0" encoding="utf-8"?>
<svg version="1.1" xmlns:xlink="http://www.w3.org/1999/xlink" width="9px" height="6px" xmlns="http://www.w3.org/2000/svg">
  <g transform="matrix(1 0 0 1 -83 -708 )">
    <path d="M 4.0787109375 1.12055200729927  C 4.0845703125 1.12055200729927  4.0904296875 1.11884124087591  4.0904296875 1.11798585766423  L 4.0904296875 0.015396897810219  C 4.0904296875 0.0136861313868613  4.0875 0.0128307481751825  4.081640625 0.0128307481751825  L 0.129492187500002 0.0128307481751825  C 0.1236328125 0.0128307481751825  0.120703125000002 0.0136861313868613  0.120703125000002 0.015396897810219  L 0.120703125000002 1.11798585766423  C 0.120703125000002 1.11969662408759  0.123632812500004 1.12055200729927  0.129492187500002 1.12055200729927  L 4.0787109375 1.12055200729927  Z M 8.85703125 1.68082801094891  C 8.85703125 1.67826186131387  8.8482421875 1.67655109489051  8.8423828125 1.67655109489051  L 2.7369140625 1.67655109489051  C 2.728125 1.67655109489051  2.722265625 1.67826186131387  2.722265625 1.68082801094891  L 2.722265625 2.07430428832117  C 2.722265625 2.0768704379562  2.728125 2.07858120437956  2.7369140625 2.07858120437956  L 8.8423828125 2.07858120437956  C 8.851171875 2.07858120437956  8.85703125 2.0768704379562  8.85703125 2.07430428832117  L 8.85703125 1.68082801094891  Z M 8.8541015625 2.65254333941606  C 8.85703125 2.64997718978102  8.8482421875 2.64826642335766  8.8423828125 2.64826642335766  L 0.3140625 2.64826642335766  C 0.305273437500002 2.64826642335766  0.2994140625 2.64997718978102  0.2994140625 2.65254333941606  L 0.2994140625 3.04601961678832  C 0.2994140625 3.04858576642336  0.305273437500002 3.05029653284671  0.3140625 3.05029653284671  L 8.839453125 3.05029653284671  C 8.8482421875 3.05029653284671  8.8541015625 3.04858576642336  8.8541015625 3.04601961678832  L 8.8541015625 2.65254333941606  Z M 8.8541015625 3.62511405109489  C 8.85703125 3.62254790145985  8.8482421875 3.6208371350365  8.8423828125 3.6208371350365  L 0.3140625 3.6208371350365  C 0.305273437500002 3.6208371350365  0.2994140625 3.62254790145985  0.2994140625 3.62511405109489  L 0.2994140625 4.01859032846715  C 0.2994140625 4.02115647810219  0.305273437500002 4.02286724452555  0.3140625 4.02286724452555  L 8.839453125 4.02286724452555  C 8.8482421875 4.02286724452555  8.8541015625 4.02115647810219  8.8541015625 4.01859032846715  L 8.8541015625 3.62511405109489  Z M 8.8541015625 4.59682937956204  C 8.85703125 4.59426322992701  8.8482421875 4.59255246350365  8.8423828125 4.59255246350365  L 0.3140625 4.59255246350365  C 0.305273437500002 4.59255246350365  0.2994140625 4.59426322992701  0.2994140625 4.59682937956204  L 0.2994140625 4.99030565693431  C 0.2994140625 4.99287180656934  0.305273437500002 4.9945825729927  0.3140625 4.9945825729927  L 8.839453125 4.9945825729927  C 8.8482421875 4.9945825729927  8.8541015625 4.99287180656934  8.8541015625 4.99030565693431  L 8.8541015625 4.59682937956204  Z M 8.8541015625 5.56940009124088  C 8.85703125 5.56683394160584  8.8482421875 5.56512317518248  8.8423828125 5.56512317518248  L 0.3140625 5.56512317518248  C 0.305273437500002 5.56512317518248  0.2994140625 5.56683394160584  0.2994140625 5.56940009124088  L 0.2994140625 5.96287636861314  C 0.2994140625 5.96544251824817  0.305273437500002 5.96715328467153  0.3140625 5.96715328467153  L 8.839453125 5.96715328467153  C 8.8482421875 5.96715328467153  8.8541015625 5.96544251824817  8.8541015625 5.96287636861314  L 8.8541015625 5.56940009124088  Z " fill-rule="nonzero" fill="#000080" stroke="none" transform="matrix(1 0 0 1 83 708 )" />
  </g>
</svg>