<?xml version="1.0" encoding="utf-8"?>
<svg version="1.1" xmlns:xlink="http://www.w3.org/1999/xlink" width="18px" height="28px" xmlns="http://www.w3.org/2000/svg">
  <g transform="matrix(1 0 0 1 -66 -739 )">
    <path d="M 18 1.156640625  C 17.9630859375 0.53046875  17.6203125 0.0218749999999999  17.1984375 0.021875  L 9.6240234375 0.021875  C 9.365625 0.021875  9.137109375 0.21328125  8.9982421875 0.505859375  C 8.859375 0.216015625  8.6326171875 0.024609375  8.37421875 0.024609375  L 0.8015625 0.024609375  C 0.3796875 0.024609375  0.0369140625 0.533203125  0 1.162109375  L 0 26.843359375  C 0.0369140625 27.46953125  0.3796875 27.980859375  0.8015625 27.980859375  L 8.3759765625 27.980859375  C 8.634375 27.980859375  8.862890625 27.789453125  9.0017578125 27.496875  C 9.140625 27.78671875  9.3673828125 27.978125  9.62578125 27.978125  L 17.2001953125 27.978125  C 17.6220703125 27.978125  17.96484375 27.46953125  18 26.840625  L 18 1.156640625  Z M 7.4197265625 2.080859375  L 7.4197265625 1.1265625  L 8.061328125 1.1265625  L 8.061328125 2.080859375  L 7.4197265625 2.080859375  Z M 6.30703125 2.080859375  L 6.30703125 1.1265625  L 6.9486328125 1.1265625  L 6.9486328125 2.080859375  L 6.30703125 2.080859375  Z M 5.1943359375 1.1265625  L 5.192578125 1.1265625  L 5.8359375 1.1265625  L 5.8359375 2.080859375  L 5.1943359375 2.080859375  L 5.1943359375 1.1265625  Z M 8.3724609375 3.259375  L 8.3724609375 25.935546875  C 8.3724609375 26.214453125  8.2212890625 26.44140625  8.033203125 26.44140625  L 1.4080078125 26.44140625  C 1.219921875 26.44140625  1.06875 26.214453125  1 25.935546875  L 1 3.259375  C 1.06875 2.98046875  1.219921875 2.753515625  1.4080078125 2.753515625  L 8.033203125 2.753515625  C 8.2212890625 2.753515625  8.3724609375 2.98046875  8.3724609375 3.259375  Z M 15.9767578125 2.078125  L 15.9767578125 1.123828125  L 16.618359375 1.123828125  L 16.618359375 2.078125  L 15.9767578125 2.078125  Z M 14.8623046875 2.078125  L 14.8623046875 1.123828125  L 15.50390625 1.123828125  L 15.50390625 2.078125  L 14.8623046875 2.078125  Z M 13.749609375 2.078125  L 13.749609375 1.123828125  L 14.3912109375 1.123828125  L 14.3912109375 2.078125  L 13.749609375 2.078125  Z M 17 3.25390625  L 17 25.930078125  C 16.9294921875 26.208984375  16.7783203125 26.4359375  16.590234375 26.4359375  L 9.9650390625 26.4359375  C 9.776953125 26.4359375  9.62578125 26.208984375  9.62578125 25.930078125  L 9.62578125 3.25390625  C 9.62578125 2.975  9.776953125 2.748046875  9.9650390625 2.748046875  L 16.590234375 2.748046875  C 16.7783203125 2.748046875  16.9294921875 2.975  17 3.25390625  Z " fill-rule="nonzero" fill="#000080" stroke="none" transform="matrix(1 0 0 1 66 739 )" />
  </g>
</svg>