<?xml version="1.0" encoding="utf-8"?>
<svg version="1.1" xmlns:xlink="http://www.w3.org/1999/xlink" width="5px" height="19px" xmlns="http://www.w3.org/2000/svg">
  <g transform="matrix(1 0 0 1 -77 -743 )">
    <path d="M 2.26595052083333 3.54841468978102  C 2.26920572916667 3.54841468978102  2.2724609375 3.54299726277372  2.2724609375 3.54028854927007  L 2.2724609375 0.0487568430656934  C 2.2724609375 0.0433394160583942  2.27083333333333 0.0406307025547445  2.267578125 0.0406307025547445  L 0.0719401041666679 0.0406307025547445  C 0.0686848958333333 0.0406307025547445  0.0670572916666679 0.0433394160583942  0.0670572916666679 0.0487568430656934  L 0.0670572916666679 3.54028854927007  C 0.0670572916666679 3.54570597627737  0.0686848958333357 3.54841468978102  0.0719401041666679 3.54841468978102  L 2.26595052083333 3.54841468978102  Z M 4.92057291666667 5.32262203467153  C 4.92057291666667 5.31449589416058  4.91569010416667 5.30907846715328  4.91243489583333 5.30907846715328  L 1.5205078125 5.30907846715328  C 1.515625 5.30907846715328  1.51236979166667 5.31449589416058  1.51236979166667 5.32262203467153  L 1.51236979166667 6.56863024635036  C 1.51236979166667 6.57675638686131  1.515625 6.58217381386861  1.5205078125 6.58217381386861  L 4.91243489583333 6.58217381386861  C 4.91731770833333 6.58217381386861  4.92057291666667 6.57675638686131  4.92057291666667 6.56863024635036  L 4.92057291666667 5.32262203467153  Z M 4.9189453125 8.39972057481752  C 4.92057291666667 8.39159443430657  4.91569010416667 8.38617700729927  4.91243489583333 8.38617700729927  L 0.174479166666667 8.38617700729927  C 0.169596354166668 8.38617700729927  0.166341145833333 8.39159443430657  0.166341145833333 8.39972057481752  L 0.166341145833333 9.64572878649635  C 0.166341145833333 9.6538549270073  0.169596354166668 9.6592723540146  0.174479166666667 9.6592723540146  L 4.91080729166667 9.6592723540146  C 4.91569010416667 9.6592723540146  4.9189453125 9.6538549270073  4.9189453125 9.64572878649635  L 4.9189453125 8.39972057481752  Z M 4.9189453125 11.4795278284672  C 4.92057291666667 11.4714016879562  4.91569010416667 11.4659842609489  4.91243489583333 11.4659842609489  L 0.174479166666667 11.4659842609489  C 0.169596354166668 11.4659842609489  0.166341145833333 11.4714016879562  0.166341145833333 11.4795278284672  L 0.166341145833333 12.725536040146  C 0.166341145833333 12.7336621806569  0.169596354166668 12.7390796076642  0.174479166666667 12.7390796076642  L 4.91080729166667 12.7390796076642  C 4.91569010416667 12.7390796076642  4.9189453125 12.7336621806569  4.9189453125 12.725536040146  L 4.9189453125 11.4795278284672  Z M 4.9189453125 14.5566263686131  C 4.92057291666667 14.5485002281022  4.91569010416667 14.5430828010949  4.91243489583333 14.5430828010949  L 0.174479166666667 14.5430828010949  C 0.169596354166668 14.5430828010949  0.166341145833333 14.5485002281022  0.166341145833333 14.5566263686131  L 0.166341145833333 15.802634580292  C 0.166341145833333 15.8107607208029  0.169596354166668 15.8161781478102  0.174479166666667 15.8161781478102  L 4.91080729166667 15.8161781478102  C 4.91569010416667 15.8161781478102  4.9189453125 15.8107607208029  4.9189453125 15.802634580292  L 4.9189453125 14.5566263686131  Z M 4.9189453125 17.6364336222628  C 4.92057291666667 17.6283074817518  4.91569010416667 17.6228900547445  4.91243489583333 17.6228900547445  L 0.174479166666667 17.6228900547445  C 0.169596354166668 17.6228900547445  0.166341145833333 17.6283074817518  0.166341145833333 17.6364336222628  L 0.166341145833333 18.8824418339416  C 0.166341145833333 18.8905679744526  0.169596354166668 18.8959854014599  0.174479166666667 18.8959854014599  L 4.91080729166667 18.8959854014599  C 4.91569010416667 18.8959854014599  4.9189453125 18.8905679744526  4.9189453125 18.8824418339416  L 4.9189453125 17.6364336222628  Z " fill-rule="nonzero" fill="#000080" stroke="none" transform="matrix(1 0 0 1 77 743 )" />
  </g>
</svg>