<?xml version="1.0" encoding="utf-8"?>
<svg version="1.1" xmlns:xlink="http://www.w3.org/1999/xlink" width="38px" height="37px" xmlns="http://www.w3.org/2000/svg">
  <g transform="matrix(1 0 0 1 -12 -509 )">
    <path d="M 38 20.212962962963  C 38 18.8939814814815  36.7785714285715 17.8148148148148  35.2857142857143 18  L 13.5714285714286 18  C 12.0785714285714 17.8148148148148  10.8571428571429 18.8939814814815  11 20.212962962963  L 11 34.6018518518519  C 10.8571428571429 35.9208333333333  12.0785714285714 37  13.5714285714286 37  L 35.2857142857143 37  C 36.7785714285715 37  38 35.9208333333333  38 34.6018518518519  L 38 20.212962962963  Z M 2.71428571428571 28.7777777777778  L 0 28.7777777777778  L 0 22.4989898989898  C 0 12.9500000000001  8.55000000000001 5.2323232323233  19 5.2323232323233  L 19 0  L 31.2142857142857 6.54040404040401  L 19 13.080808080808  L 19 7.84848484848488  C 10.0428571428571 7.84848484848488  2.71428571428571 14.3888888888889  2.71428571428571 22.4989898989898  L 2.71428571428571 28.7777777777778  Z M 35 20  L 35 34  L 14 34  L 14 20  L 35 20  Z " fill-rule="nonzero" fill="#39bbdb" stroke="none" transform="matrix(1 0 0 1 12 509 )" />
  </g>
</svg>