<?xml version="1.0" encoding="utf-8"?>
<svg version="1.1" xmlns:xlink="http://www.w3.org/1999/xlink" width="38px" height="38px" xmlns="http://www.w3.org/2000/svg">
  <g transform="matrix(1 0 0 1 -12 -429 )">
    <path d="M 25.1830898557481 28.5473083878148  C 25.0312008096937 28.3976598500044  24.9015111518354 28.2287634714079  24.7962680150616 28.0460327985272  C 22.2338211253169 29.9165478943564  19.0752389967682 31.0258947980527  15.6563895883447 31.036254997492  C 7.04914389885447 31.036254997492  0.000446986962994548 24.1011533267678  0.000446986962994548 15.5460727626685  C 0.000446986962994548 6.990992198569  6.97799825615628 0.0557291188860144  15.5852439456465 0.0557291188860144  C 24.1924896351368 0.0557291188860144  31.17004090433 6.990992198569  31.17004090433 15.5460727626685  C 31.1700572602847 19.0440126979088  30.0016175073715 22.2753309008559  28.0310578517032 24.8715637053408  C 28.1477961375388 24.9502926055595  28.2580577381533 25.0403195393856  28.3602190358393 25.1409738605276  L 37.1144670179291 33.8799838275296  C 37.5766036446017 34.3241947442303  37.8388999337801 34.9454241692306  37.8388999337801 35.595749785085  C 37.8388999337801 36.8931750349077  36.8155552004792 37.9449460108002  35.5531954979492 37.9449460108002  C 34.9567920907617 37.9486283144016  34.3210312102353 37.7117229113567  33.8916237776934 37.2863183548168  L 25.1830898557481 28.5473083878148  Z M 2.41998666884827 15.522249169825  C 2.41998666884827 22.7621651506429  8.32488546697276 28.6312766833243  15.6089472769419 28.6312766833243  C 22.8930090869111 28.6312766833243  28.7979078850356 22.7621651506429  28.7979078850356 15.522249169825  C 28.7979548908858 8.3007083686181  22.9219171692266 2.43928323670891  15.6563895883447 2.41330646737228  C 8.37232777837549 2.41330646737228  2.41998666884827 8.28233318900718  2.41998666884827 15.522249169825  Z " fill-rule="nonzero" fill="#0075a7" stroke="none" transform="matrix(1 0 0 1 12 429 )" />
  </g>
</svg>