<?xml version="1.0" encoding="utf-8"?>
<svg version="1.1" xmlns:xlink="http://www.w3.org/1999/xlink" width="28px" height="28px" xmlns="http://www.w3.org/2000/svg">
  <g transform="matrix(1 0 0 1 -66 -636 )">
    <path d="M 27.8609685945274 13.9991796875  C 27.8606965174129 10.163671875  26.3389692164179 6.694296875  23.8364039179104 4.165  L 23.7830768034826 4.11140625  C 21.2641868781095 1.5736328125  17.7875855099502 0.014765625  13.9534748134328 0  L 13.907765858209 0  C 10.1033115671642 0.014765625  6.64983675373134 1.5509375  4.13883706467662 4.0351171875  L 4.07843594527363 4.11140625  C 1.5527440920398 6.6327734375  0 10.1333203125  0 13.9991796875  C 0 17.86640625  1.55247201492537 21.36640625  4.07843594527363 23.9041796875  C 6.60439987562189 26.425546875  10.0731110074627 27.99234375  13.9080379353234 28  L 13.9537468905473 28  C 17.7878575870647 27.99234375  21.2644589552239 26.425546875  23.783348880597 23.9041796875  C 26.3093128109453 21.36640625  27.8609685945274 17.8666796875  27.8609685945274 13.9991796875  Z M 13 2.200625  L 13 25.7985546875  C 10.0276741293532 25.5390625  7.48701803482587 24.285625  5.59254508706468 22.3751171875  L 5.58411069651741 22.3751171875  L 5.59254508706468 22.3751171875  C 3.46979944029851 20.2357421875  2.13825404228856 17.2705859375  2.13825404228856 13.9991796875  C 2.13825404228856 10.7294140625  3.46952736318408 7.7790234375  5.59227300995025 5.6240625  L 5.64505597014925 5.5789453125  C 7.53191075870647 3.6987890625  10.0584188432836 2.4601171875  13 2.200625  Z M 15.00342039801 3.9886328125  L 15.00342039801 2.200625  C 15.5203669154229 2.261875  16.0378575870647 2.3305078125  16.532765858209 2.4453515625  L 15.00342039801 3.9886328125  Z M 15.00342039801 7.7183203125  L 15.00342039801 5.81546875  L 17.9399486940299 2.85796875  C 18.3970382462687 3.02640625  18.8380752487562 3.2169921875  19.2559856965174 3.4384765625  L 15.00342039801 7.7183203125  Z M 15.00342039801 11.4480078125  L 15.00342039801 9.5366796875  L 20.4202036691542 4.11140625  C 20.8008395522388 4.3553125  21.1512748756219 4.6312109375  21.4932758084577 4.921875  L 15.00342039801 11.4480078125  Z M 15.00342039801 15.1766015625  L 15.00342039801 13.28140625  L 22.4439132462687 5.800703125  C 22.755713619403 6.129375  23.0528218283582 6.4643359375  23.3189132462687 6.8318359375  L 15.00342039801 15.1766015625  Z M 15.00342039801 18.9062890625  L 15.00342039801 17.00234375  L 24.0420942164179 7.917109375  C 24.3005674751244 8.314140625  24.513331778607 8.7346875  24.6964396766169 9.1697265625  L 15.00342039801 18.9062890625  Z M 15.00342039801 22.634609375  L 15.00342039801 20.7246484375  L 25.1981498756219 10.5002734375  C 25.3496968283582 10.9891796875  25.4726756840796 11.508984375  25.5632773631841 12.0287890625  L 15.00342039801 22.634609375  Z M 24.9622590174129 18.187421875  C 24.3694029850746 19.768984375  23.4405317164179 21.198515625  22.2621657338308 22.3751171875  C 21.0971315298507 23.552265625  19.6744402985075 24.4846875  18.0925839552239 25.0799609375  L 24.9622590174129 18.187421875  Z M 25.5942941542289 15.7267578125  L 15.650147699005 25.7225390625  C 15.4373833955224 25.752890625  15.2170009328358 25.7761328125  15.00342039801 25.798828125  L 15.00342039801 24.469375  L 25.7156405472637 13.7016796875  L 25.7156405472637 13.999453125  C 25.7156405472637 14.5884375  25.6770055970149 15.1618359375  25.5942941542289 15.7267578125  Z " fill-rule="nonzero" fill="#000080" stroke="none" transform="matrix(1 0 0 1 66 636 )" />
  </g>
</svg>