<?xml version="1.0" encoding="utf-8"?>
<svg version="1.1" xmlns:xlink="http://www.w3.org/1999/xlink" width="28px" height="26px" xmlns="http://www.w3.org/2000/svg">
  <g transform="matrix(1 0 0 1 -66 -716 )">
    <path d="M 28 21.5981889204545  C 27.9204545454545 23.9843306107955  25.8292791193182 25.9261363636364  23.2595880681818 26  L 4.74041193181818 26  C 2.17072088068182 25.9261363636364  0.0795454545454545 23.9843306107955  0 21.5981889204545  L 0 4.40181107954546  C 0.0795454545454545 2.01566938920455  2.17072088068182 0.0738636363636364  4.74041193181818 0  L 23.2595880681818 0  C 25.8292791193182 0.0738636363636364  27.9204545454545 2.01566938920455  28 4.40181107954546  L 28 21.5981889204545  Z M 23.2595880681818 2  L 4.74041193181818 2  C 3.99778053977273 1.80504261363636  3.29554332386364 2.07626065340909  2.76731178977273 2.56964666193182  C 2.23597301136364 3.06014737215909  1.94389204545455 3.71222478693182  2 4.40181107954546  L 2 21.5981889204545  C 1.94389204545455 22.2877752130682  2.23597301136364 22.9398526278409  2.76731178977273 23.4303533380682  C 3.29865056818182 23.9237393465909  3.99778053977273 24.1949573863636  4.74041193181818 24  L 23.2595880681818 24  C 24.0022194602273 24.1949573863636  24.7044566761364 23.9237393465909  25.2326882102273 23.4303533380682  C 25.7640269886364 22.9369673295455  26.0561079545455 22.2877752130682  26 21.5981889204545  L 26 4.40181107954546  C 26.0561079545455 3.71222478693182  25.7640269886364 3.06014737215909  25.2326882102273 2.56964666193182  C 24.7044566761364 2.07626065340909  24.0022194602273 1.80504261363636  23.2595880681818 2  Z " fill-rule="nonzero" fill="#000080" stroke="none" transform="matrix(1 0 0 1 66 716 )" />
  </g>
</svg>