<?xml version="1.0" encoding="utf-8"?>
<svg version="1.1" xmlns:xlink="http://www.w3.org/1999/xlink" width="18px" height="10px" xmlns="http://www.w3.org/2000/svg">
  <g transform="matrix(1 0 0 1 -71 -724 )">
    <path d="M 11.6814088983051 0.888813405797101  C 11.6814088983051 1.35869565217391  11.2821769067797 1.7379981884058  10.7876059322034 1.7379981884058  L 7.21239406779661 1.7379981884058  C 6.71782309322034 1.7379981884058  6.31859110169492 1.35869565217391  6.31859110169492 0.888813405797101  C 6.31859110169492 0.41893115942029  6.71782309322034 0.0396286231884058  7.21239406779661 0.0396286231884058  L 10.7876059322034 0.0396286231884058  C 11.2821769067797 0.0396286231884058  11.6814088983051 0.41893115942029  11.6814088983051 0.888813405797101  Z M 5.45458156779661 9.01551177536232  C 5.45458156779661 9.48539402173913  5.05534957627119 9.86469655797101  4.56077860169492 9.86469655797101  L 0.985566737288136 9.86469655797101  C 0.490995762711864 9.86469655797101  0.0917637711864407 9.48539402173913  0.0917637711864407 9.01551177536232  C 0.0917637711864407 8.54562952898551  0.490995762711864 8.16632699275362  0.985566737288136 8.16632699275362  L 4.56077860169492 8.16632699275362  C 5.05534957627119 8.16632699275362  5.45458156779661 8.54562952898551  5.45458156779661 9.01551177536232  Z M 17.9082362288136 5.07246376811594  C 17.9082362288136 5.54234601449275  17.5090042372881 5.92164855072464  17.0144332627119 5.92164855072464  L 13.4392213983051 5.92164855072464  C 12.9446504237288 5.92164855072464  12.5454184322034 5.54234601449275  12.5454184322034 5.07246376811594  C 12.5454184322034 4.60258152173913  12.9446504237288 4.22327898550725  13.4392213983051 4.22327898550725  L 17.0144332627119 4.22327898550725  C 17.5090042372881 4.22327898550725  17.9082362288136 4.60258152173913  17.9082362288136 5.07246376811594  Z " fill-rule="nonzero" fill="#000080" stroke="none" transform="matrix(1 0 0 1 71 724 )" />
  </g>
</svg>