<?xml version="1.0" encoding="utf-8"?>
<svg version="1.1" xmlns:xlink="http://www.w3.org/1999/xlink" width="38px" height="38px" xmlns="http://www.w3.org/2000/svg">
  <g transform="matrix(1 0 0 1 -12 -270 )">
    <path d="M 3.26204819277108 19  C 3.45575249056298 19.0000636868311  3.61418985984071 18.8456888142015  3.61915662650602 18.6520481927711  C 3.70504326650867 14.694725699322  5.31665761221316 10.9236301463708  8.11734939759036 8.12650602409639  C 10.9969318489969 5.23311651004952  14.913311871412 3.61035719520623  18.995421686747 3.61915662650602  C 23.0751672870791 3.60872085667727  26.9893076110016 5.23191847626515  29.8643373493976 8.12650602409639  C 30.3061445783133 8.56831325301205  30.7227710843374 9.03759036144578  31.1073493975904 9.52975903614458  L 28.4153012048193 11.6312048192771  C 28.3266284943634 11.6987472849138  28.2745800449915 11.803820779975  28.2745800449915 11.9152875205027  C 28.2745800449915 12.0811826737471  28.3888255974005 12.2252314770314  28.5503614457831 12.2630120481928  L 36.4067469879518 14.1859036144578  C 36.4337733311636 14.1922750719829  36.4614470117283 14.1954929986667  36.4892142351833 14.1954929986667  C 36.6851956319563 14.1954929986667  36.8450453344653 14.0384801029402  36.8485542168675 13.8425301204819  L 36.8828915662651 5.75265060240964  C 36.8828915662651 5.45277108433735  36.5395180722892 5.2833734939759  36.3083132530121 5.4710843373494  L 33.7856626506024 7.44204819277108  C 30.2278249266824 2.88806845251315  24.7708600884615 0.226473051363913  18.9918514585642 0.226473051363913  C 8.76630105506621 0.226473051363913  0.421463214124234 8.41012918133233  0.222048192771084 18.633734939759  C 0.221969921025485 18.6367865277516  0.221930780326837 18.6398389939233  0.221930780326837 18.6428915855669  C 0.221930780326837 18.8401171275546  0.381813672074009 19.0000000193018  0.579039214061777 19.0000000193018  L 3.26204819277108 19  Z M 37.420843373494 19  L 34.7379518072289 19  C 34.544247509437 18.9999363131689  34.3858101401593 19.1543111857985  34.380843373494 19.3479518072289  C 34.2999362902839 23.3063485096496  32.6875602998933 27.0792262724059  29.8826506024096 29.8734939759036  C 27.0024905085558 32.7660212147201  23.0864866224685 34.3886246767794  19.004578313253 34.380843373494  C 14.2686618104075 34.3919871327758  9.79451987183413 32.2094376361961  6.88807228915663 28.4702409638554  L 9.58012048192771 26.3687951807229  C 9.66879319238356 26.3012527150862  9.72084164175549 26.1961792200249  9.72084164175549 26.0847124794973  C 9.72084164175549 25.9188173262529  9.6065960893465 25.7747685229686  9.44506024096385 25.7369879518072  L 1.59096385542169 23.8140963855422  C 1.5632176817792 23.8073639025882  1.53476809826065 23.8039616832917  1.50621680269417 23.8039616832917  C 1.31002316509998 23.8039616832917  1.15008246544313 23.9613025855163  1.14686746987952 24.1574698795181  L 1.11481927710843 32.2519277108434  C 1.11481927710843 32.5495180722892  1.45819277108434 32.7212048192771  1.69168674698795 32.5334939759036  L 4.21433734939759 30.5625301204819  C 7.77278015660722 35.1140294954074  13.2285154257648 37.7738540648357  19.0059423419732 37.7738540648357  C 29.2311031491006 37.7738540648357  37.5762535085118 29.5917255119163  37.7779518072289 19.3685542168675  C 37.7780741158092 19.3647401654624  37.778135281884 19.3609243985924  37.778135281884 19.3571083866023  C 37.778135281884 19.1598828446145  37.6182523901368 18.9999999528673  37.4210268481491 18.9999999528673  Z " fill-rule="nonzero" fill="#0075a7" stroke="none" transform="matrix(1 0 0 1 12 270 )" />
  </g>
</svg>