<?xml version="1.0" encoding="utf-8"?>
<svg version="1.1" xmlns:xlink="http://www.w3.org/1999/xlink" width="38px" height="40px" xmlns="http://www.w3.org/2000/svg">
  <g transform="matrix(1 0 0 1 -12 -187 )">
    <path d="M 37 35  C 37.7454427083333 37.7598958333333  34.9498697916667 39.9963541666667  31.5 40  L 6.5 40  C 3.05013020833333 39.9963541666667  0.254557291666667 37.7598958333333  1 35  L 1 21.6666666666667  C 0.254557291666667 18.9067708333333  3.05013020833333 16.6703125  6.5 16.6666666666667  L 6.5 10  C 6.5 4.47708333333333  12.0963541666667 0  19 0  C 25.9036458333333 0  31.5 4.47708333333333  31.5 10  L 31.5 16.6666666666667  C 34.9498697916667 16.6703125  37.7454427083333 18.9067708333333  37 21.6666666666667  L 37 35  Z M 31.5 20  L 6.5 20  C 5.35026041666666 20.0010416666667  4.41796875 20.746875  5 21.6666666666667  L 5 35  C 4.41796875 35.9197916666667  5.35026041666666 36.665625  6.5 36  L 31.5 36  C 32.6497395833333 36.665625  33.58203125 35.9197916666667  33 35  L 33 21.6666666666667  C 33.58203125 20.746875  32.6497395833333 20.0010416666667  31.5 20  Z M 27.3333333333333 10  C 27.3333333333333 6.31822916666667  23.6022135416667 3.33333333333333  19 3.33333333333333  C 14.3977864583333 3.33333333333333  10.6666666666667 6.31822916666667  10.6666666666667 10  L 10.6666666666667 17  L 27.3333333333333 17  L 27.3333333333333 10  Z M 19 31.6666666666667  L 19 31.6645833333333  C 17.8509114583333 31.6635416666667  16.919921875 30.9192708333333  16.9166666666667 30  L 16.9166666666667 26.6666666666667  C 16.9166666666667 25.7463541666667  17.849609375 25  19 25  C 20.150390625 25  21.0833333333333 25.7463541666667  21.0833333333333 26.6666666666667  L 21.0833333333333 30  C 21.08203125 30.9197916666667  20.1497395833333 31.665625  19 31.6666666666667  Z " fill-rule="nonzero" fill="#39bbdb" stroke="none" transform="matrix(1 0 0 1 12 187 )" />
  </g>
</svg>