<?xml version="1.0" encoding="utf-8"?>
<svg version="1.1" xmlns:xlink="http://www.w3.org/1999/xlink" width="38px" height="36px" xmlns="http://www.w3.org/2000/svg">
  <g transform="matrix(1 0 0 1 -12 -752 )">
    <path d="M 0 1.494140625  L 0 34.5128906249999  C 0.0779296874999846 35.31796875  0.801562499999985 35.9753906250001  1.69218749999998 36  L 17.6826171875 36  C 18.228125 35.9753906250001  18.710546875 35.7292968750001  19.0037109375 35.353125  C 19.296875 35.7257812499999  19.7755859375 35.9718749999999  20.32109375 36  L 36.3115234375 36  C 37.2021484375 35.9718749999999  37.92578125 35.31796875  38 34.509375  L 38 1.48710937500006  C 37.9220703125 0.682031250000031  37.1984375 0.028125000000063  36.3078125 0  L 20.3173828125 0  C 19.771875 0.028125000000063  19.289453125 0.274218750000063  18.9962890625 0.650390625  C 18.703125 0.277734375000032  18.2244140625 0.0316406250000315  17.67890625 0  L 1.69218749999998 0  C 0.801562499999985 0.0316406250000315  0.0779296874999846 0.685546875  0 1.494140625  Z M 18 4.19062499999994  L 18 18  L 3 18  L 3 4.19062499999994  C 2.25625000000003 3.83203125  2.57539062500002 3.54023437499994  2.97246093749998 4.15384615384615  L 16.958984375 4.15384615384615  C 17.3560546875 3.54023437499994  17.6751953125 3.83203125  18 4.19062499999994  Z M 3 20.7692307692308  L 18 20.769232825253  L 18 33.345703125  C 17.6751953125 33.7042968749999  17.3560546875 33.99609375  16.958984375 34  L 2.97246093749998 34  C 2.57539062500002 33.99609375  2.25625000000003 33.7042968749999  3 33.345703125  L 3 20.7692307692308  Z M 35 18  L 20 18  L 20 4.18359375  C 20.32109375 3.82500000000006  20.640234375 3.533203125  21.0373046875 4.15384615384615  L 35.023828125 4.15384615384615  C 35.4208984375 3.533203125  35.7400390625 3.82500000000006  35 4.18359375  L 35 18  Z M 20 33.3386718750001  L 20 20.7692307692308  L 35 20.7692326668815  L 35 33.3386718750001  C 35.7400390625 33.697265625  35.4208984375 33.9890625000001  35.023828125 34  L 21.0373046875 34  C 20.640234375 33.9890625000001  20.32109375 33.697265625  20 33.3386718750001  Z M 15.6638671875 2.67539062499997  L 15.6638671875 1.44843749999994  L 17.018359375 1.44843749999994  L 17.018359375 2.67539062499997  L 15.6638671875 2.67539062499997  Z M 29.026953125 2.671875  L 29.026953125 1.44492187499997  L 30.3814453125 1.44492187499997  L 30.3814453125 2.671875  L 29.026953125 2.671875  Z M 33.7287109375 2.671875  L 33.7287109375 1.44492187499997  L 35.083203125 1.44492187499997  L 35.083203125 2.671875  L 33.7287109375 2.671875  Z M 10.9658203125 1.44843749999994  L 12.3203125 1.44843749999994  L 12.3203125 2.67539062499997  L 10.9658203125 2.67539062499997  L 10.9658203125 1.44843749999994  Z M 31.3759765625 2.671875  L 31.3759765625 1.44492187499997  L 32.73046875 1.44492187499997  L 32.73046875 2.671875  L 31.3759765625 2.671875  Z M 13.31484375 2.67539062499997  L 13.31484375 1.44843749999994  L 14.6693359375 1.44843749999994  L 14.6693359375 2.67539062499997  L 13.31484375 2.67539062499997  Z M 4.44593674334144 12  L 4.42796610169488 13  L 14.9048501815981 13  L 14.9228208232446 12  L 4.44593674334144 12  Z M 14.9048501815981 29  L 14.9228208232446 28  L 4.44593674334144 28  L 4.42796610169488 29  L 14.9048501815981 29  Z M 35.0877092633928 11  L 23.49765625 11  L 23.4777762276785 11.1406425463222  L 35.0678292410714 11.1465644300954  L 35.0877092633928 11  Z M 9.07517403147697 6.94558008141499  L 4.21950665859567 6.94202695115104  L 4.20872427360775 8.47224171813586  L 9.06439164648913 8.4757948483998  L 9.07517403147697 6.94558008141499  Z M 7.41468674334144 9.2456397389107  L 7.39671610169488 9.79637492981479  L 14.9048501815981 9.80229681358782  L 14.9228208232446 9.25156162268389  L 7.41468674334144 9.2456397389107  Z M 4.44593674334144 11  L 4.42796610169488 11.1430112998316  L 14.9048501815981 11.1489331836047  L 14.9228208232446 11  L 4.44593674334144 11  Z M 4.44593674334144 14  L 4.42796610169488 14  L 14.9048501815981 14  L 14.9228208232446 14  L 4.44593674334144 14  Z M 28.075174031477 23.5609646967996  L 23.2195066585957 23.5574115665357  L 23.2087242736077 25.0876263335205  L 28.0643916464891 25.0911794637844  L 28.075174031477 23.5609646967996  Z M 35.0916852678571 9.25037724592919  L 26.7858119419643 9.24445536215615  L 26.7659319196428 9.79519055306008  L 35.0718052455357 9.80111243683328  L 35.0916852678571 9.25037724592919  Z M 14.9048501815981 26.4176814289724  L 14.9228208232446 25.8669462380685  L 7.41468674334144 25.8610243542953  L 7.39671610169488 26.4117595451994  L 14.9048501815981 26.4176814289724  Z M 14.9048501815981 27.7643177989893  L 14.9228208232446 27  L 4.44593674334144 27  L 4.42796610169488 27.7583959152162  L 14.9048501815981 27.7643177989893  Z M 35.0877092633928 14  L 23.49765625 14  L 23.4777762276785 14  L 35.0678292410714 14  L 35.0877092633928 14  Z M 4.20872427360775 25.0876263335205  L 9.06439164648913 25.0911794637844  L 9.07517403147697 23.5609646967996  L 4.21950665859567 23.5574115665357  L 4.20872427360775 25.0876263335205  Z M 23.4459367433414 28  L 23.4279661016949 29  L 33.9048501815981 29  L 33.9228208232446 28  L 23.4459367433414 28  Z M 4.44593674334144 15  L 4.42796610169488 15.1805516563729  L 14.9048501815981 15.1864735401459  L 14.9228208232446 15  L 4.44593674334144 15  Z M 23.4459367433414 27  L 23.4279661016949 27.7583959152162  L 33.9048501815981 27.7643177989893  L 33.9228208232446 27  L 23.4459367433414 27  Z M 23.4459367433414 31  L 23.4279661016949 31.7959362717575  L 33.9048501815981 31.8018581555305  L 33.9228208232446 31  L 23.4459367433414 31  Z M 14.9048501815981 30  L 14.9228208232446 29.9056709713645  L 4.44593674334144 29.8997490875913  L 4.42796610169488 30  L 14.9048501815981 30  Z M 14.9048501815981 31.8018581555305  L 14.9228208232446 31  L 4.44593674334144 31  L 4.42796610169488 31.7959362717575  L 14.9048501815981 31.8018581555305  Z M 35.0877092633928 15  L 23.49765625 15  L 23.4777762276785 15.1793672796182  L 35.0678292410714 15.1852891633914  L 35.0877092633928 15  Z M 28.6068219866071 8.4746104716451  L 28.6227260044643 6.94439570466028  L 23.24716796875 6.94084257439634  L 23.2352399553571 8.47105734138131  L 28.6068219866071 8.4746104716451  Z M 23.4459367433414 29.8997490875913  L 23.4279661016949 30  L 33.9048501815981 30  L 33.9228208232446 29.9056709713645  L 23.4459367433414 29.8997490875913  Z M 35.0877092633928 12  L 23.49765625 12  L 23.4777762276785 13  L 35.0678292410714 13  L 35.0877092633928 12  Z M 26.4146867433414 25.8610243542953  L 26.3967161016949 26.4117595451994  L 33.9048501815981 26.4176814289724  L 33.9228208232446 25.8669462380685  L 26.4146867433414 25.8610243542953  Z " fill-rule="nonzero" fill="#0075a7" stroke="none" transform="matrix(1 0 0 1 12 752 )" />
  </g>
</svg>