<?xml version="1.0" encoding="utf-8"?>
<svg version="1.1" xmlns:xlink="http://www.w3.org/1999/xlink" width="19px" height="12px" xmlns="http://www.w3.org/2000/svg">
  <g transform="matrix(1 0 0 1 -512 -136 )">
    <path d="M 12.1263970822704 6.294390625  C 11.5059889190051 6.098140625  11.0613580197704 5.611734375  11.0613580197704 5.0229375  C 11.0613580197704 4.442671875  11.5059889190051 3.947734375  12.1263970822704 3.75146875  C 11.9816326530612 3.27359375  11.7541673309949 2.821328125  11.4542819276148 2.4031875  C 10.8442113759566 2.6250625  10.1100705516582 2.531203125  9.61373266103316 2.12159375  C 9.11741370376275 1.712  9.00368104272959 1.106125  9.27251574457908 0.602671875  C 8.7590870748201 0.360600565671506  8.20997991929301 0.174172950605368  7.63877551020408 0.0480000000000007  C 7.40095364317602 0.560000000000001  6.801220703125 0.926937500000001  6.09809271364796 0.926937500000001  C 5.39496472417092 0.926937500000001  4.7952317841199 0.560000000000001  4.55740991709184 0.0480000000000007  C 3.97837113360969 0.16746875  3.43034518494898 0.3551875  2.92366968271684 0.602671875  C 3.19252331792092 1.106140625  3.07877172353316 1.712  2.58245276626276 2.12159375  C 2.08613380899235 2.5311875  1.35197405133929 2.6250625  0.741903499681122 2.403203125  C 0.442037029655612 2.821328125  0.214552774234694 3.27359375  0.0697883450255101 3.75146875  C 0.690196508290816 3.94771875  1.13482740752551 4.442671875  1.13482740752551 5.0229375  C 1.13482740752551 5.603203125  0.690196508290816 6.098140625  0.0697883450255101 6.29440625  C 0.214552774234694 6.772265625  0.442037029655612 7.22453125  0.741922433035714 7.642671875  C 1.35195511798469 7.420796875  2.08611487563776 7.514671875  2.58243383290816 7.924265625  C 3.07877172353316 8.333859375  3.19252331792092 8.939734375  2.92366968271684 9.443203125  C 3.43032625159439 9.690671875  3.97837113360969 9.87840625  4.55742885044643 9.997859375  C 4.7952317841199 9.485859375  5.39496472417092 9.1189375  6.09809271364796 9.1189375  C 6.801220703125 9.1189375  7.40095364317602 9.485859375  7.63877551020408 9.997859375  C 8.21781429368622 9.87840625  8.76585917570153 9.690671875  9.27253467793367 9.443203125  C 9.00368104272959 8.939734375  9.11741370376276 8.333859375  9.61373266103316 7.924265625  C 10.1100705516582 7.514671875  10.8442113759566 7.420796875  11.4542819276148 7.642671875  C 11.7541483976403 7.224546875  11.9816326530612 6.772265625  12.1263970822704 6.294390625  Z M 6.09809271364796 6.388265625  C 5.18815569196429 6.388265625  4.44367725605867 5.773859375  4.44367725605867 5.0229375  C 4.44367725605867 4.272015625  5.18815569196429 3.65759375  6.09809271364796 3.65759375  C 7.00802973533163 3.65759375  7.75250817123724 4.272  7.75250817123724 5.0229375  C 7.75250817123724 5.773875  7.00802973533163 6.388265625  6.09811164700255 6.388265625  Z M 12.901907286352 1.86559375  L 12.901907286352 0.611203125  L 18.9302116549745 0.611203125  L 18.9302116549745 1.86559375  L 12.901907286352 1.86559375  Z M 12.901907286352 6.917328125  L 12.901907286352 5.662921875  L 18.9302116549745 5.662921875  L 18.9302116549745 6.917328125  L 12.901907286352 6.917328125  Z M 3.13047871492347 12  L 3.13047871492347 10.7146875  L 18.9302116549745 10.7146875  L 18.9302116549745 12  L 3.13047871492347 12  Z " fill-rule="nonzero" fill="#8080ff" stroke="none" transform="matrix(1 0 0 1 512 136 )" />
  </g>
</svg>