<?xml version="1.0" encoding="utf-8"?>
<svg version="1.1" xmlns:xlink="http://www.w3.org/1999/xlink" width="19px" height="13px" xmlns="http://www.w3.org/2000/svg">
  <g transform="matrix(1 0 0 1 -993 -461 )">
    <path d="M 12.1263970822704 6.81892317708334  C 11.5059889190051 6.60631901041667  11.0613580197704 6.07937890625  11.0613580197704 5.441515625  C 11.0613580197704 4.81289453125  11.5059889190051 4.27671223958333  12.1263970822704 4.06409114583334  C 11.9816326530612 3.54639322916667  11.7541673309949 3.05643880208333  11.4542819276148 2.603453125  C 10.8442113759566 2.84381770833333  10.1100705516582 2.74213671875  9.61373266103316 2.29839322916667  C 9.11741370376275 1.85466666666667  9.00368104272959 1.19830208333333  9.27251574457908 0.65289453125  C 8.7590870748201 0.390650612810798  8.20997991929301 0.188687363155815  7.63877551020408 0.0520000000000007  C 7.40095364317602 0.606666666666667  6.801220703125 1.00418229166667  6.09809271364796 1.00418229166667  C 5.39496472417092 1.00418229166667  4.7952317841199 0.606666666666667  4.55740991709184 0.0520000000000007  C 3.97837113360969 0.181424479166667  3.43034518494898 0.384786458333334  2.92366968271684 0.65289453125  C 3.19252331792092 1.19831901041667  3.07877172353316 1.85466666666667  2.58245276626276 2.29839322916667  C 2.08613380899235 2.74211979166667  1.35197405133929 2.84381770833333  0.741903499681122 2.60347005208333  C 0.442037029655612 3.05643880208333  0.214552774234694 3.54639322916667  0.0697883450255101 4.06409114583334  C 0.690196508290816 4.2766953125  1.13482740752551 4.81289453125  1.13482740752551 5.441515625  C 1.13482740752551 6.07013671875  0.690196508290816 6.60631901041667  0.0697883450255101 6.81894010416667  C 0.214552774234694 7.33662109375  0.442037029655612 7.82657552083334  0.741922433035714 8.27956119791667  C 1.35195511798469 8.03919661458333  2.08611487563776 8.14089453125  2.58243383290816 8.58462109375  C 3.07877172353316 9.02834765625  3.19252331792092 9.68471223958334  2.92366968271684 10.23013671875  C 3.43032625159439 10.4982278645833  3.97837113360969 10.7016067708333  4.55742885044643 10.8310143229167  C 4.7952317841199 10.27634765625  5.39496472417092 9.87884895833334  6.09809271364796 9.87884895833334  C 6.801220703125 9.87884895833334  7.40095364317602 10.27634765625  7.63877551020408 10.8310143229167  C 8.21781429368622 10.7016067708333  8.76585917570153 10.4982278645833  9.27253467793367 10.23013671875  C 9.00368104272959 9.68471223958334  9.11741370376276 9.02834765625  9.61373266103316 8.58462109375  C 10.1100705516582 8.14089453125  10.8442113759566 8.03919661458334  11.4542819276148 8.27956119791667  C 11.7541483976403 7.82659244791667  11.9816326530612 7.33662109375  12.1263970822704 6.81892317708334  Z M 6.09809271364796 6.92062109375  C 5.18815569196429 6.92062109375  4.44367725605867 6.25501432291667  4.44367725605867 5.441515625  C 4.44367725605867 4.62801692708334  5.18815569196429 3.96239322916667  6.09809271364796 3.96239322916667  C 7.00802973533163 3.96239322916667  7.75250817123724 4.628  7.75250817123724 5.441515625  C 7.75250817123724 6.25503125  7.00802973533163 6.92062109375  6.09811164700255 6.92062109375  Z M 12.901907286352 2.02105989583333  L 12.901907286352 0.66213671875  L 18.9302116549745 0.66213671875  L 18.9302116549745 2.02105989583333  L 12.901907286352 2.02105989583333  Z M 12.901907286352 7.49377213541667  L 12.901907286352 6.13483203125  L 18.9302116549745 6.13483203125  L 18.9302116549745 7.49377213541667  L 12.901907286352 7.49377213541667  Z M 3.13047871492347 13  L 3.13047871492347 11.607578125  L 18.9302116549745 11.607578125  L 18.9302116549745 13  L 3.13047871492347 13  Z " fill-rule="nonzero" fill="#7f7f7f" stroke="none" transform="matrix(1 0 0 1 993 461 )" />
  </g>
</svg>