<?xml version="1.0" encoding="utf-8"?>
<svg version="1.1" xmlns:xlink="http://www.w3.org/1999/xlink" width="45px" height="19px" xmlns="http://www.w3.org/2000/svg">
  <g transform="matrix(1 0 0 1 -651 -363 )">
    <path d="M 11.1999999609375 15.4177082946777  L 5.1999999609375 9.40104170532227  L 11.1999999609375 3.46354170532225  C 11.5766073918417 3.09085728386816  11.7881832447591 2.58538872684068  11.7881832447591 2.05833335266112  C 11.7881832447591 0.960797381933133  10.8890889809462 0.071068683368249  9.77999999999999 0.071068683368249  C 9.24739670322751 0.071068683368249  8.73660744966263 0.280440598638417  8.3600000390625 0.653124999999997  L 0.920000039062491 8.03541670532225  C 0.144552870996367 8.80736584236272  0.144552870996358 10.0540925682818  0.920000039062495 10.8260417053223  L 8.36000003906249 18.2083332946777  C 8.73553324100937 18.5830145493545  9.24672494972605 18.7937674230595  9.77999999999999 18.7937674230595  C 10.3132750502739 18.7937674230595  10.8244667589906 18.5830145493545  11.1999999609375 18.2083332946777  C 11.9754471290036 17.4363841576373  11.9754471290036 16.1896574317182  11.1999999609375 15.4177082946777  Z M 33.84 15.3979167053223  C 33.0777142939853 16.1675028229634  33.0777142939853 17.3991638823589  33.84 18.16875  C 34.6200749174304 18.9361195933988  35.8799250825696 18.9361195933988  36.66 18.16875  L 44.1200000390625 10.8854167053223  C 44.8954472071286 10.1134675682818  44.8954472071286 8.86674084236274  44.1200000390625 8.09479170532227  L 36.66 0.712500000000002  C 36.2851310029143 0.344148316688913  35.7782814071312 0.137428703963794  35.25 0.137428703963794  C 34.1448093469886 0.137428703963794  33.248875302369 1.02403010228532  33.248875302369 2.11770835266114  C 33.248875302369 2.6453363636578  33.4616535445318 3.15114802124873  33.84 3.52291670532227  L 39.84 9.46041670532227  L 33.84 15.3979167053223  Z M 28.2816247841684 3.04462986157542  C 28.2816247841684 2.30454487579361  27.8643671080638 1.62629617122538  27.2000000390625 1.28645829467773  C 26.8953574409633 1.11181374688949  26.5495258238338 1.01984413858758  26.1974557589175 1.01984413858758  C 25.4790428728307 1.01984413858758  24.8158224493097 1.40114579197864  24.4599999609375 2.01875  L 17.0799999609375 14.84375  C 16.876114859197 15.1611355932522  16.7678318246377 15.5294375831759  16.7678318246377 15.9055243237236  C 16.7678318246377 16.9985879124459  17.663262342465 17.8846910290459  18.7678318637002 17.8846910290459  C 19.5121932637166 17.8846910290459  20.1949702466277 17.4756129971958  20.5400000390625 16.8229167053223  L 27.9999999609375 4.05729170532228  C 28.1843234330298 3.75099738695876  28.2816247841684 3.40112281087299  28.2816247841684 3.04462986157542  Z " fill-rule="nonzero" fill="#39bbdb" stroke="none" transform="matrix(1 0 0 1 651 363 )" />
  </g>
</svg>