<?xml version="1.0" encoding="utf-8"?>
<svg version="1.1" xmlns:xlink="http://www.w3.org/1999/xlink" width="8px" height="6px" xmlns="http://www.w3.org/2000/svg">
  <g transform="matrix(1 0 0 1 -748 -31 )">
    <path d="M 0.368253980654761 5.80645161290323  L 4 5.80645161290323  C 3.98803988496767 5.80672644141327  3.97607709442209 5.80686386884065  3.96411392161859 5.80686386884065  C 3.08747145472095 5.80686386884065  2.37681232191622 5.08474249195842  2.37681232191622 4.19396063043339  C 2.37681232191622 3.30317876890836  3.08747145472095 2.58105739202613  3.96411392161859 2.58105739202613  C 3.97581247387229 2.58105739202613  3.98751066867781 2.58118880701518  3.99920636160714 2.58145161290323  C 4.86196350679013 2.60083803652775  5.55141552132098 3.31707372140818  5.55141552132098 4.19396063043339  C 5.55141552132098 5.07053397065182  4.86243898305218 5.78663384191375  4 5.80645161290323  L 7.63174601934524 5.80645161290323  C 7.85277050748213 5.29834486535932  7.96736697271228 4.74907699912382  7.96825398065476 4.19354837449597  C 7.96825398065476 1.97016127772177  6.18809523809523 0.161290297379032  4 0.161290335181452  C 1.81190476190476 0.161290372983871  0.0317460193452348 1.97016131552419  0.0317460193452348 4.19354837449597  C 0.0317460193452348 4.76774191028226  0.154761904761902 5.31129030997984  0.368253980654761 5.80645161290323  Z " fill-rule="nonzero" fill="#39bbdb" stroke="none" transform="matrix(1 0 0 1 748 31 )" />
  </g>
</svg>