<?xml version="1.0" encoding="utf-8"?>
<svg version="1.1" xmlns:xlink="http://www.w3.org/1999/xlink" width="120px" height="117px" xmlns="http://www.w3.org/2000/svg">
  <g transform="matrix(1 0 0 1 -341 -188 )">
    <path d="M 120 108.148936224235  C 120 112.851063829787  116.119402926772 116.446808564661  111.044776119403 116  L 9.55223874766792 116  C 4.47761194029851 116.446808564661  0.597014867070905 112.851063829787  1 108.148936224235  L 1 8.57446813912899  C 0.597014867070905 3.87234053357713  4.47761194029851 0.276595798703457  9.55223874766792 1  L 111.044776119403 1  C 116.119402926772 0.276595798703457  120 3.87234053357713  120 8.57446813912899  L 120 108.148936224235  Z M 9.55223874766791 104.000000054023  C 9.55223874766791 106.212765957447  11.6417910447761 108.148936224235  14.0298506879664 108  L 58.8059700909515 108  C 61.1940297341418 108.148936224235  63.28358203125 106.212765957447  63.28358203125 104.000000054023  C 63.28358203125 101.787234150598  61.1940297341418 99.8510638838098  58.8059700909515 99  L 14.0298506879664 99  C 11.6417910447761 99.8510638838098  9.55223874766791 101.787234150598  9.55223874766791 104.000000054023  Z M 111 69.425531860871  L 111 14.1063829787234  C 111.044776119403 11.0638298412566  108.358208955224 8.57446813912899  105.074626923974 9  L 15.5223881180037 9  C 12.2388060867537 8.57446813912899  9.55223892257463 11.0638298412567  10 14.1063829787234  L 10 69.425531860871  C 9.55223874766792 72.4680849983377  12.238805911847 74.9574467004654  15.5223881180037 75  L 105.074626923974 75  C 108.358208955224 74.9574468625332  111.044776119403 72.4680851604056  111 69.425531860871  Z M 111.044776119403 87.4042553731716  C 111.044776119403 85.1914894697473  108.955223822295 83.2553192029588  106.567164179104 83  L 14.0298506879664 83  C 11.6417910447761 83.2553192029588  9.55223874766791 85.1914894697473  9.55223874766791 87.4042553731716  C 9.55223874766791 89.6170212765958  11.6417910447761 91.5531915433843  14.0298506879664 91  L 106.567164179104 91  C 108.955223822295 91.5531915433843  111.044776119403 89.6170212765958  111.044776119403 87.4042553731716  Z M 104 63.063829787234  C 105.074626923974 66.3829787234043  102.089552238806 69.425531860871  98.2089551655784 69  L 22.0895521805037 69  C 20.2985074043843 69.425531860871  18.8059701492537 68.5957446268284  17.6119402402052 67.7659573927859  C 57.9104477028918 60.5744680851064  67.1641791044776 34.0212765957447  85.9701492537313 33.1914893617021  C 93.4328358791978 32.9148935629987  99.7014925956157 37.3404255319149  104 42.8723403715093  L 104 63.063829787234  Z M 18.5074626282649 63.063829787234  L 15.5223881180037 63.063829787234  L 15.5223881180037 58.3617021816822  C 36.7164179104478 50.0638298412567  37.0149254314366 36.7872340965758  48.3582089552239 36.2340424991689  C 53.4328357625933 35.9574467004654  57.6119403568097 37.6170211685506  61.4925372551306 40.106383032746  C 51.044776119403 48.680851171875  38.2089551655784 58.9148936170213  18.5074626282649 63.063829787234  Z M 39.4029850746269 26.5531914893617  C 39.4029850746269 31.8085105302527  34.6268656133396 36.2340424991689  28.9552239388993 36.2340424991689  C 23.2835820895522 36.2340424991689  18.5074628031716 31.8085105302527  18.5074626282649 26.5531914893617  C 18.5074624533582 21.2978724484707  23.2835820895522 16.8723404795545  28.9552239388993 16.8723404795545  C 34.6268657882463 16.8723404795545  39.4029850746269 21.2978724484707  39.4029850746269 26.5531914893617  Z " fill-rule="nonzero" fill="#58d0ef" stroke="none" transform="matrix(1 0 0 1 341 188 )" />
  </g>
</svg>