<?xml version="1.0" encoding="utf-8"?>
<svg version="1.1" xmlns:xlink="http://www.w3.org/1999/xlink" width="82px" height="54px" xmlns="http://www.w3.org/2000/svg">
  <g transform="matrix(1 0 0 1 -807 -219 )">
    <path d="M 66.3899333333333 40.6873469387755  L 56.7795333333333 35.0944897959184  L 67.8632 15.7454081632653  L 77.4736 21.3382653061224  L 66.3899333333333 40.6873469387755  Z M 78.884 18.869693877551  L 69.2763333333333 13.2768367346939  L 72.0479333333333 8.43336734693878  L 81.6583333333333 14.0262244897959  L 78.884 18.869693877551  Z M 55.4183333333333 37.469387755102  L 54.8443333333333 47.0020408163265  L 52.7396666666667 46.7816326530612  C 52.7396666666667 46.9744897959184  52.1383333333333 51.134693877551  44.5396666666667 51.134693877551  C 40.6036666666667 51.134693877551  38.3623333333333 48.765306122449  35.4923333333333 45.6244897959184  C 31.8843333333333 41.8224489795918  27.2923333333333 37.0561224489796  18.0263333333333 37.0561224489796  C 10.0411382874529 36.6924503705125  2.75999252146603 41.6374156470778  0.0956666666666709 49.2336734693878  L 2.829 50.0051020408163  C 5.13694146967737 43.5719968980056  11.3595772207797 39.427868834547  18.1356666666667 39.8112244897959  C 26.3356666666667 39.8112244897959  30.053 43.7234693877551  33.6336666666667 47.5255102040816  C 36.531 50.8591836734694  39.4556666666667 54  44.567 54  C 50.9903333333333 54  53.6143333333333 51.4102040816326  54.7076666666667 49.3989795918367  L 54.7076666666667 50.0877551020408  L 65.0123333333333 42.9795918367347  L 55.4183333333333 37.469387755102  Z M 8 29.8928571428571  L 8 17.4673469387755  L 10.5096666666667 17.4673469387755  C 11.5438719955422 17.4432785271061  12.5587687742154 17.7521025513462  13.407 18.3489795918367  C 14.520549974395 19.285319951256  15.4480166028481 20.4258407604115  16.1403333333333 21.7102040816327  L 20.9783333333333 29.9755102040816  L 25.461 29.9755102040816  L 19.9943333333333 21.1316326530612  C 19.3360427342458 19.9817830252031  18.5767798473126 18.8937522550382  17.7256666666667 17.8806122448979  C 17.1376842281139 17.245540539119  16.4194670147575 16.7472460951333  15.621 16.4204081632653  C 19.4766598309719 15.8092612399407  22.270599198924 12.3896010414855  22.1263333333333 8.45816326530612  C 22.2498156505007 6.25141491617483  21.3634684057462 4.109270367765  19.721 2.64489795918366  C 17.8064165109789 1.16978187241504  15.4300534854589 0.436530209996208  13.0243333333333 0.578571428571419  L 4 0.578571428571419  L 4 29.8928571428571  L 8 29.8928571428571  Z M 8 14.1887755102041  L 8 3.69183673469388  L 12.2863333333333 3.69183673469388  C 13.8248684677826 3.58794856079533  15.3488461746472 4.04780461698464  16.5776666666667 4.98673469387755  C 17.5864908597331 5.9024415707879  18.129257818488 7.22964051796738  18.0536666666667 8.59591836734694  C 18.1310425904671 10.1269937303283  17.5421592689164 11.6159572206283  16.441 12.6734693877551  C 15.2906661424205 13.7176950042364  13.7780177161609 14.2622290764784  12.2316666666667 14.1887755102041  L 8 14.1887755102041  Z M 31.611 25.8979591836735  C 34.0951371874237 28.6011215498327  37.6353428786227 30.062754506722  41.287 29.8928571428571  C 45.0101181780029 30.0575246655937  48.6173478280004 28.5668825190975  51.1543333333333 25.815306122449  C 53.7383600595896 22.753281660227  55.0590320273219 18.8090149571939  54.8443333333333 14.7948979591837  C 55.0001790916993 10.9955046681335  53.7094484762609 7.27974068148586  51.2363333333333 4.40816326530612  C 48.8051174655838 1.72802426167548  45.3242753443677 0.266122549492266  41.7243333333333 0.413265306122449  C 37.955286459439 0.211239926101002  34.284957276142 1.66894710040031  31.6656666666667 4.40816326530612  C 29.0890130508527 7.47439029692957  27.7693596912124 11.415614865293  27.9756666666667 15.4285714285714  C 27.7946223043493 19.2615090112785  29.0981062106184 23.0154091893272  31.611 25.8979591836735  Z M 31.693 15.1255102040816  C 31.6049000682038 12.1219449422556  32.5948380390604 9.18717436429065  34.481 6.86020408163265  C 36.2260541317792 4.78676544196648  38.8090282408294 3.62175488510451  41.5056666666667 3.69183673469388  C 44.154542041932 3.56552260104841  46.7141742366828 4.67269547309735  48.4483333333333 6.69489795918368  C 50.282977123742 9.14316731837694  51.1849854838392 12.1738076522027  50.9903333333333 15.2357142857143  C 51.144804538789 18.2166675469258  50.2222968986941 21.1530506197173  48.3936666666667 23.5010204081633  C 46.6012501116823 25.5394810674225  43.9857418369894 26.6447153285007  41.287 26.5040816326531  C 38.6474698078959 26.5816827113799  36.1185817567586 25.4341121012342  34.4263333333333 23.3908163265306  C 32.5619692700409 21.0549165957614  31.5919746928077 18.1217572843168  31.693 15.1255102040816  Z M 61 18.0734693877551  L 61 0.385714285714287  L 65 0.385714285714287  L 65 18.0734693877551  L 61 18.0734693877551  Z " fill-rule="nonzero" fill="#58d0ef" stroke="none" transform="matrix(1 0 0 1 807 219 )" />
  </g>
</svg>