<?xml version="1.0" encoding="utf-8"?>
<svg version="1.1" xmlns:xlink="http://www.w3.org/1999/xlink" width="109px" height="73px" xmlns="http://www.w3.org/2000/svg">
  <g transform="matrix(1 0 0 1 -794 -210 )">
    <path d="M 1 67.8078576222928  C 0.3193018942672 69.6177696201692  1.41994222508753 71.25061743256  3.10906021416024 71.940450636358  C 3.65719789863386 72.1655513744798  4.24485374858314 72.2810698243715  4.83822323996255 72  L 15.5608404127528 72  L 15.5608404127528 67  L 5 67  L 5 55.5084738844287  L 1 55.5084738844287  L 1 67.8078576222928  Z M 18.9469300160936 67  L 40.392164132367 67  L 40.392164132367 72  L 18.9469300160936 72  L 18.9469300160936 67  Z M 43.7782538503613 67  L 65.2234879666348 67  L 65.2234879666348 72  L 43.7782538503613 72  L 43.7782538503613 67  Z M 68.6095775699755 67  L 90.0548118009025 67  L 90.0548118009025 72  L 68.6095775699755 72  L 68.6095775699755 67  Z M 104 48.7997191389719  L 104 24.2009516632437  L 108 24.2009516632437  L 108 48.7997191389719  L 104 48.7997191389719  Z M 90.0548118009025 6  L 68.6095775699755 6  L 68.6095775699755 1  L 90.0548118009025 1  L 90.0548118009025 6  Z M 65.2234879666348 6  L 43.7782538503613 6  L 43.7782538503613 1  L 65.2234879666348 1  L 65.2234879666348 6  Z M 40.392164132367 6  L 18.9469300160936 6  L 18.9469300160936 1  L 40.392164132367 1  L 40.392164132367 6  Z M 5 6  L 5 17.4921969177869  L 1 17.4921969177869  L 1 5.19281317992284  C 0.32342351443147 5.18833397436681  0.323416701439224 5.18385475101506  0.323416701439224 5.17937552512005  C 0.323416701439224 2.71669048459933  2.33869131985208 0.72028980661121  4.82465854578386 0.72028980661121  C 4.82918011820873 0.72028980661121  4.83370168806895 0.720296555796765  4.83822323996255 1  L 15.5608404127528 1  L 15.5608404127528 6  L 5 6  Z M 5 48.7997191389719  L 5 24.2009516632437  L 1 24.2009516632437  L 1 48.7997191389719  L 5 48.7997191389719  Z M 104.177083271212 0.720289806611205  C 104.172561698786 0.720289806611205  104.168040128928 0.720296555796765  104.163518577034 1  L 93.4409014042432 1  L 93.4409014042432 6  L 104 6  L 104 17.4921969177869  L 108 17.4921969177869  L 108 5.19281317992284  C 108.678318302565 5.18833397436681  108.678325115557 5.18385475101505  108.678325115557 5.17937552512005  C 108.678325115557 2.71669048459933  106.663050497144 0.720289806611205  104.177083271212 0.720289806611205  Z M 108.678325115902 67.8212953906764  C 108.678325115902 67.8168161269227  108.678318302795 67.8123368657069  108 67.8078576222928  L 108 55.5084738844287  L 104 55.5084738844287  L 104 67  L 93.4409014042432 67  L 93.4409014042432 72  L 104.163518577034 72  C 104.168040129044 72.2803743599993  104.172561699016 72.2803811091852  104.177083271558 72.2803811091852  C 106.66305049749 72.2803811091852  108.678325115902 70.2839804311971  108.678325115902 67.8212953906764  Z " fill-rule="nonzero" fill="#58d0ef" stroke="none" transform="matrix(1 0 0 1 794 210 )" />
  </g>
</svg>