<?xml version="1.0" encoding="utf-8"?>
<svg version="1.1" xmlns:xlink="http://www.w3.org/1999/xlink" width="153px" height="117px" xmlns="http://www.w3.org/2000/svg">
  <g transform="matrix(1 0 0 1 -772 -188 )">
    <path d="M 0.00997823055675862 7.10231428298136  C 0.00997823055675862 7.10564289032914  0.00998071478330017 7.10897149721616  0.00998568323431387 7.11230010087001  C 0.00849303156955309 9.95411693766965  1.80264302810395 12.4879906056407  5 13.4352626402724  L 5 32.0690110704829  C 1.79870405735099 33.0129176438937  0 35.5475680642227  0 38.3919736098853  C 0 41.2363791555478  1.79870405735099 43.7710295758768  5 44.7149361492876  L 5 72.285734056235  C 1.79870397390358 73.2296405820287  0 75.7642910439474  0 78.6086966523768  C 0 81.4531022608062  1.79870397390357 83.9877527227248  5 84.9316592485185  L 5 103.56540756525  C 1.80667953785212 104.513847785598  0.0154363657878995 107.044520547075  0.0154363657878995 109.882929832112  C 0.0154363657878995 113.584776964312  3.02211872476866 116.585716996404  6.73104937616544 116.585716996404  C 9.57488998398214 116.585716996404  12.1104052115169 114.797894838801  13.0606602811187 112  L 45.1612905844192 112  C 46.1070033319085 114.805855087292  48.6465038295821 116.601121941618  51.496352171926 116.601121941618  C 54.3462005142699 116.601121941618  56.8857010119436 114.805855087292  57.8314137594328 112  L 94.4091194787823 112  C 95.3548322262716 114.805855087292  97.8943327239453 116.601121941618  100.744181066289 116.601121941618  C 103.594029408633 116.601121941618  106.133529906307 114.805855087292  107.079242653796 112  L 139.179872957097 112  C 140.130128026698 114.797894838801  142.665643254233 116.585716996404  145.50948386205 116.585716996404  C 149.218414513447 116.585716996404  152.225096872427 113.584776964312  152.225096872427 109.882929832112  C 152.225096872427 107.044520547075  150.433853700363 104.513847785598  147 103.56540756525  L 147 84.9316592485185  C 150.441829264312 83.9877527227248  152.24053145675 81.4531022608061  152.24053145675 78.6086966523768  C 152.24053145675 75.7642910439474  150.441829264312 73.2296405820287  147 72.285734056235  L 147 44.7149361492876  C 150.441829180864 43.7710295758768  152.240531295149 41.2363791555478  152.240531295149 38.3919736098852  C 152.240531295149 35.5475680642227  150.441829180864 33.0129176438937  147 32.0690110704829  L 147 13.4352626402723  C 150.433853700363 12.4868224199249  152.225096872427 9.95614965844736  152.225096872427 7.11774037341108  C 152.225096872427 3.415893241211  149.218414513447 0.414953209119057  145.50948386205 0.414953209119057  C 142.665643254233 0.414953209119057  140.130128026698 2.20277536672175  139.179872957097 5  L 107.079242653796 5  C 106.133529906307 2.19481511823073  103.594029408633 0.399548263904281  100.744181066289 0.399548263904281  C 97.8943327239453 0.399548263904281  95.3548322262716 2.19481511823073  94.4091194787823 5  L 57.8314137594328 5  C 56.8857010119436 2.19481511823074  54.3462005142699 0.399548263904298  51.496352171926 0.399548263904298  C 48.6465038295821 0.399548263904298  46.1070033319085 2.19481511823074  45.1612905844192 5  L 13.0606602811187 5  C 12.1149537881601 2.19480419924986  9.575447827697 0.399527118689338  6.7255912409343 0.399527118689338  C 3.01666058953752 0.399527118689338  0.00997823055675862 3.40046715078129  0.00997823055675862 7.10231428298136  Z M 143 13.4352626402723  L 143 32.0690110704829  C 140.588039908342 33.0129176438937  138.789337794057 35.5475680642227  138.789337794057 38.3919736098853  C 138.789337794057 41.2363791555478  140.588039908342 43.7710295758768  143 44.7149361492876  L 143 72.285734056235  C 140.588039824895 73.2296405820287  138.789337632457 75.7642910439474  138.789337632457 78.6086966523768  C 138.789337632457 81.4531022608061  140.588039824895 83.9877527227248  143 84.9316592485185  L 143 103.56540756525  C 141.369162718892 104.240154848065  139.855911261467 105.750516214853  139.179872957097 107  L 107.079242653796 107  C 106.133529906307 104.970885235492  103.594029408633 103.175618381166  100.744181066289 103.175618381166  C 97.8943327239453 103.175618381166  95.3548322262716 104.970885235492  94.4091194787823 107  L 57.8314137594328 107  C 56.8857010119436 104.970885235492  54.3462005142699 103.175618381166  51.496352171926 103.175618381166  C 48.6465038295821 103.175618381166  46.1070033319085 104.970885235492  45.1612905844192 107  L 13.0606602811187 107  C 12.3824037979242 105.7446011453  10.8772968885922 104.242368730007  9 103.56540756525  L 9 84.9316592485185  C 11.6524934133201 83.9877527227248  13.4511956057581 81.4531022608061  13.4511956057581 78.6086966523768  C 13.4511956057581 75.7642910439474  11.6524934133201 73.2296405820287  9 72.285734056235  L 9 44.7149361492876  C 11.6524933298727 43.7710295758768  13.4511954441577 41.2363791555478  13.4511954441577 38.3919736098852  C 13.4511954441577 35.5475680642227  11.6524933298727 33.0129176438937  9 32.0690110704829  L 9 13.4352626402723  C 10.8713705193227 12.7605153574581  12.3846219767481 11.2501539906695  13.0606602811187 10  L 45.1612905844192 10  C 46.1070033319085 12.0297850835093  48.6465038295821 13.8250519378357  51.496352171926 13.8250519378357  C 54.3462005142699 13.8250519378357  56.8857010119436 12.0297850835093  57.8314137594328 10  L 94.4091194787823 10  C 95.3548322262716 12.0297850835093  97.8943327239453 13.8250519378357  100.744181066289 13.8250519378357  C 103.594029408633 13.8250519378357  106.133529906307 12.0297850835093  107.079242653796 10  L 139.179872957097 10  C 139.855911375163 11.2501541041483  141.369162832588 12.7605154709368  143 13.4352626402723  Z " fill-rule="nonzero" fill="#58d0ef" stroke="none" transform="matrix(1 0 0 1 772 188 )" />
  </g>
</svg>