<?xml version="1.0" encoding="utf-8"?>
<svg version="1.1" xmlns:xlink="http://www.w3.org/1999/xlink" width="153px" height="117px" xmlns="http://www.w3.org/2000/svg">
  <g transform="matrix(1 0 0 1 -548 -179 )">
    <path d="M 6.34741601439059 1  L 63.4741601439059 1  C 66.9797412094856 0.426477431363429  69.8215761582965 3.02651759986585  70 6.23382968822709  L 70 110.766170311773  C 69.8215761582965 113.973482400134  66.9797412094856 116.573522568637  63.4741601439059 116  L 6.34741601439059 116  C 2.84183494881091 116.573522568637  0 113.973482400134  0 110.766170311773  L 0 6.23382968822709  C 0 3.02651759986585  2.84183494881091 0.426477431363429  6.34741601439059 1  Z M 85.6901161942729 110  L 149.164276338179 110  C 149.164276338179 110.766170311773  149.164276338179 110.766170311773  149.164276338179 110.766170311773  C 150.917066870969 110.766170311773  152.337984345374 112.066190396024  152.337984345374 113.669846440205  C 152.337984345374 115.273502484385  150.917066870969 116.573522568637  149.164276338179 116.573522568637  C 149.164276338179 116.573522568637  149.164276338179 116.573522568637  149.164276338179 116  L 85.6901161942729 116  C 85.6901161942729 116.573522568637  85.6901161942729 116.573522568637  85.6901161942729 116.573522568637  C 83.9373256614831 116.573522568637  82.5164081870776 115.273502484385  82.5164081870776 113.669846440205  C 82.5164081870776 112.066190396024  83.9373256614831 110.766170311773  85.6901161942729 110.766170311773  C 85.6901161942729 110.766170311773  85.6901161942729 110.766170311773  85.6901161942729 110  Z M 88.8638242014682 18  L 145.990568330984 18  C 149.496149396563 17.8485342019544  152.337984345374 20.4485743704568  152 23.6558864588181  L 152 93.344113541182  C 152.337984345374 96.5514256295432  149.496149396563 99.1514657980456  145.990568330984 99  L 88.8638242014682 99  C 85.3582431358885 99.1514657980456  82.5164081870776 96.5514256295432  82 93.344113541182  L 82 23.6558864588181  C 82.5164081870776 20.4485743704568  85.3582431358885 17.8485342019544  88.8638242014682 18  Z M 107.90607224464 75.922056770591  C 107.90607224464 72.6525174499767  105.132251446351 70.1147045137273  101.558656230249 70.1147045137273  C 98.188178326608 70.1147045137273  95.2112402158588 72.6525174499767  95.2112402158588 75.922056770591  C 95.2112402158588 79.1857887389483  98.188178326608 81.7294090274547  101.558656230249 81.7294090274547  C 104.929134133891 81.7294090274547  107.90607224464 79.1857887389483  107.90607224464 75.922056770591  Z M 64 43.5344532340624  C 60.7193815936604 38.482056770591  56.0794204871408 42.5936621684504  54.7782002041908 43.76093997208  L 54.6258622198454 43.9003164262448  L 34.6695862706014 62.8206700791065  L 23.5616082454179 55.9099208934388  C 22.5802372628869 55.3023578094214  21.2915850330994 55.3092795814379  20.3180786620643 55.9273429502094  L 19.8547172930138 56.2757840856212  L 7.09641110408868 72.1008189855747  C 6.06812970975741 73.192601209865  6.06812970975741 74.4644113541182  7.29952841654918 75.3761656584458  C 7.84602302189777 75.7194459947404  8.49022468080255 75.9091812551194  9.15297389275123 75.922056770591  C 9.15297389275123 75.922056770591  61.0304049783655 75.922056770591  63.3916437357188 75.7478362028851  L 64 75.7478362028851  L 64 43.5344532340624  Z M 91.6693820798289 41.077943229409  L 91.6757294958432 41.077943229409  C 91.0129802838946 41.0908187448806  90.3687786249898 41.2805540052595  89.8222840196412 41.6238343415542  C 88.5908853128494 42.5355886458818  88.5908853128494 43.8073987901349  89.6191667071807 44.8991810144253  L 102.377472896106 60.7300232666356  C 103.405754290437 61.6417775709632  104.846617725704 61.821805490926  106.078016432495 61.0900791065612  L 117.185994457679 54.1793299208934  L 137.148617822937 73.0996835737552  C 138.176899217269 74.0114378780828  143.115188876465 78.7444299674267  146 73.4655467659376  L 146 41.2579711493718  C 145.990568330984 41.077943229409  91.6693820798289 41.077943229409  91.6693820798289 41.077943229409  Z M 25.3896640575624 41.077943229409  C 25.3896640575624 37.8142112610517  22.4127259468132 35.2705909725454  19.0422480431718 35.2705909725454  C 15.6717701395304 35.2705909725454  12.6948320287812 37.8142112610517  12.6948320287812 41.077943229409  C 12.6948320287812 44.3474825500233  15.6717701395304 46.8852954862727  19.0422480431718 46.8852954862727  C 22.6158432592737 46.8852954862727  25.3896640575624 44.3474825500233  25.3896640575624 41.077943229409  Z M 85.6901161942729 1  L 149.164276338179 1  C 149.164276338179 0.426477431363429  149.164276338179 0.426477431363429  149.164276338179 0.426477431363429  C 150.917066870969 0.426477431363429  152.337984345374 1.72649751561464  152.337984345374 3.33015355979526  C 152.337984345374 4.93380960397588  150.917066870969 6.23382968822709  149.164276338179 6.23382968822709  C 149.164276338179 6.23382968822709  149.164276338179 6.23382968822709  149.164276338179 7  L 85.6901161942729 7  C 85.6901161942729 6.23382968822709  85.6901161942729 6.23382968822709  85.6901161942729 6.23382968822709  C 83.9373256614831 6.23382968822709  82.5164081870776 4.93380960397588  82.5164081870776 3.33015355979526  C 82.5164081870776 1.72649751561464  83.9373256614831 0.426477431363429  85.6901161942729 0.426477431363429  C 85.6901161942729 0.426477431363429  85.6901161942729 0.426477431363429  85.6901161942729 1  Z " fill-rule="nonzero" fill="#58d0ef" stroke="none" transform="matrix(1 0 0 1 548 179 )" />
  </g>
</svg>