<?xml version="1.0" encoding="utf-8"?>
<svg version="1.1" xmlns:xlink="http://www.w3.org/1999/xlink" width="103px" height="119px" xmlns="http://www.w3.org/2000/svg">
  <g transform="matrix(1 0 0 1 -350 -424 )">
    <path d="M 15.1259325079218 0.00219179233284884  C 12.9177022187669 0.0130484130391361  11.1335571255897 1.73561517383474  12 3.85674562363735  L 12 26.9348815213935  C 11.2840813569943 28.9515839288993  13.031273648013 30.513847718129  15.1362021211211 30.513847718129  C 17.2411305942291 30.513847718129  18.9883228852479 28.9515839288993  20 26.9348815213935  L 20 3.9062028365734  C 19.1390372113412 3.88976297889106  19.1391467246845 3.87332194343357  19.1391467246845 3.85688073971662  C 19.1391467246845 1.72806944128529  17.342516607015 0.00232690841211814  15.1262610412273 0.00232690841211814  Z M 87.1527636240713 0.00219179233284884  C 87.1078848171963 0.000732926128044242  87.0629835303673 0  87.0180790313286 0  C 84.8188387178108 0  83.0360021874694 1.71249651987071  83.0360021874694 3.82496391742843  C 83.0360021874694 3.85204584805472  83.0363016249845 3.87912701498695  83 3.9062028365734  L 83 26.9348815213935  C 83.2189873704458 28.9252507018529  84.954269987115 30.4520189386751  87.0343817130136 30.4520189386751  C 89.1144934389121 30.4520189386751  90.8497760555813 28.9252507018529  91 26.9348815213935  L 91 3.9062028365734  C 91.0610315931908 1.8074832211686  89.3366778994429 0.0721157447282797  87.1527636240713 0.00232692132994186  Z M 21.011545475741 88.9542133005542  C 26.6943277099022 88.9542133005542  31.3011329320347 93.3792530648931  31.3011329320347 98.8378162438681  C 31.3011329320347 104.296379422843  26.6943277099022 108.721419187182  21.011545475741 108.721419187182  C 15.3287632415798 108.721419187182  10.7219580194473 104.296379422843  10.7219580194473 98.8378162438681  C 10.7219580194473 93.3792530648931  15.3287632415798 88.9542133005542  21.011545475741 88.9542133005542  Z M 21.0115450420673 79.0707453511083  C 9.64601938250516 79.0707453511083  0.432440398956519 87.9207946603794  0.432440398956519 98.8378837408021  C 0.432440398956519 109.754972821225  9.64601938250515 118.605022130496  21.0115450420673 118.605022130496  C 32.3770707016295 118.605022130496  41.5906496851781 109.754972821225  41.5906496851781 98.8378837408021  C 41.5906496851781 87.9207946603794  32.3770707016295 79.0707453511082  21.0115450420673 79.0707453511082  Z M 82.0079703295981 88.9542133005542  C 87.6907525637593 88.9542133005542  92.2975577858918 93.3792530648931  92.2975577858918 98.8378162438681  C 92.2975577858918 104.296379422843  87.6907525637593 108.721419187182  82.0079703295981 108.721419187182  C 76.3251880954368 108.721419187182  71.7183828733044 104.296379422843  71.7183828733044 98.8378162438681  C 71.7183828733044 93.3792530648931  76.3251880954368 88.9542133005542  82.0079703295981 88.9542133005542  Z M 82.0079698959244 79.0707453511083  C 70.6424442363622 79.0707453511083  61.4288652528136 87.9207946603794  61.4288652528136 98.8378837408021  C 61.4288652528136 109.754972821225  70.6424442363622 118.605022130496  82.0079698959244 118.605022130496  C 93.3734955554865 118.605022130496  102.587074539035 109.754972821225  102.587074539035 98.8378837408021  C 102.587074539035 87.9207946603794  93.3734955554865 79.0707453511082  82.0079698959244 79.0707453511082  Z " fill-rule="nonzero" fill="#58d0ef" stroke="none" transform="matrix(1 0 0 1 350 424 )" />
  </g>
</svg>