<?xml version="1.0" encoding="utf-8"?>
<svg version="1.1" xmlns:xlink="http://www.w3.org/1999/xlink" width="62px" height="50px" xmlns="http://www.w3.org/2000/svg">
  <g transform="matrix(1 0 0 1 -370 -463 )">
    <path d="M 58.8578026299055 0.199945339626748  L 58.8578026299055 0.100797119140629  C 58.0131320397983 0.0630642671475032  57.1839067186925 0.328158207453589  56.5302686727834 0.844883355034723  L 0.813638199491278 46.1813807508681  C 0.333936289084659 46.5663348296504  0.0737402238716367 47.1486851770075  0.113265883902615 47.7488989257813  C 0.175080019077036 48.3143556043837  0.556102770712207 48.8400716145833  1.17410331577035 49.1773924424913  C 1.76179542061173 49.53528243554  2.44606101417867 49.7181583153043  3.14117229742005 49.7031085883247  C 3.98617167649786 49.7221167932096  4.81203651480352 49.4593059163402  5.47898514262355 48.9591579861111  L 61.1545000635901 3.77145060221356  C 61.6556689459706 3.39053180989052  61.9324270969966 2.79806911245328  61.8959879315044 2.18413004557293  C 61.8029856126486 1.56327870229416  61.4092083362071 1.02195313809929  60.8351504996366 0.725796983506956  C 60.2366911570609 0.383385312222028  59.5538698583363 0.201797283172001  58.8578026299055 0.199945339626748  Z " fill-rule="nonzero" fill="#58d0ef" stroke="none" transform="matrix(1 0 0 1 370 463 )" />
  </g>
</svg>