<?xml version="1.0" encoding="utf-8"?>
<svg version="1.1" xmlns:xlink="http://www.w3.org/1999/xlink" width="62px" height="50px" xmlns="http://www.w3.org/2000/svg">
  <g transform="matrix(1 0 0 1 -370 -463 )">
    <path d="M 3.16172993277615 0.100797119140629  C 2.45378778957211 0.0796493782581188  1.75404626655667 0.251590155668745  1.14312584484011 0.596809353298615  C 0.582929407942354 0.916302911344171  0.203970875675977 1.46385721728519  0.11326588390261 2.08484619140625  C 0.069772716388723 2.68381626191727  0.345208054521431 3.26303654272766  0.844474863735456 3.62252495659722  L 56.6025025027253 48.9095160590278  C 57.1172916061046 49.3758245171441  57.8691991687863 49.6635035536024  58.6827800599564 49.7031085883247  C 59.4635191702063 49.7539231199197  60.2394293197904 49.5513617439496  60.8866857467297 49.127750515408  C 61.4284852170859 48.8091551769116  61.7947091087064 48.2745566731889  61.885709043423 47.6694175889757  C 61.9328014956765 47.067043196211  61.6569799622409 46.4832758915534  61.1545000635901 46.1218375651042  L 5.42730908884447 0.815179578993059  C 4.78637145700668 0.321389173422121  3.98158460932068 0.0676877181876417  3.16158912609011 0.100932752821182  Z " fill-rule="nonzero" fill="#58d0ef" stroke="none" transform="matrix(1 0 0 1 370 463 )" />
  </g>
</svg>