<?xml version="1.0" encoding="utf-8"?>
<svg version="1.1" xmlns:xlink="http://www.w3.org/1999/xlink" width="143px" height="128px" xmlns="http://www.w3.org/2000/svg">
  <g transform="matrix(1 0 0 1 -330 -433 )">
    <path d="M 130.3124186242 10.0295952956989  C 131.680973025958 10.0295952956989  132.784195397716 11.1404821236559  132 12.5166915322581  L 132 115.681991935484  C 132.784195397716 117.058335752688  131.680973025958 118.169088172043  130.3124186242 118  L 12.6865654085752 118  C 11.2915066040024 118.136789947314  10.1863065985338 117.024680086874  11 115.681857526882  L 11 12.5954548387097  C 10.2147886350586 11.2191110215054  11.3178713583798 10.1083586021505  12.6865654085752 11  L 130.3124186242 11  L 130.3124186242 10.0297297043011  Z M 132.375723719952 0.27744677419355  L 132.385918055842 1  L 10.5824829692647 1  C 4.7604012457046 0.277312365591399  0.041541893902535 4.99599422043011  0 10.8356434139785  L 0 117.264787231183  C -0.0300977541976099 120.105915591398  1.07312461756038 122.829033333333  3.06492985329804 124.854301747312  C 5.05659544059887 126.869489516129  7.76340053332112 128  10.5824829692647 128  L 132.385918055842 128  C 138.23858278707 128  142.988025146541 123.24193655914  143 117.362905510753  L 143 10.8357778225806  C 142.998359130867 8.00446129032258  141.87474808733 5.30096720430108  139.893276835919 3.30540309139785  C 137.936536071324 1.32083312519881  135.2183312563 0.197550705383541  132.375723719952 0.198817741935486  L 132.375723719952 0.27744677419355  Z " fill-rule="nonzero" fill="#58d0ef" stroke="none" transform="matrix(1 0 0 1 330 433 )" />
  </g>
</svg>