<?xml version="1.0" encoding="utf-8"?>
<svg version="1.1" xmlns:xlink="http://www.w3.org/1999/xlink" width="153px" height="122px" xmlns="http://www.w3.org/2000/svg">
  <g transform="matrix(1 0 0 1 -101 -438 )">
    <path d="M 141.935372894531 38.3296682543945  C 143.018335432617 38.7969155957031  144.059557508789 39.4267697851562  145.036104512695 40.2181642163086  C 147.089803939453 41.8827897314453  148.853459742188 44.2723648022461  150.101549920898 47.3846034179687  C 153.114366155273 54.928833371582  152.746956975586 60.6246477587891  150.190382557617 65.1668215380859  C 148.682368986328 67.8553983251953  146.445041320312 70.0157693212891  143.723033411133 71.8414777270508  C 144.326361120117 72.3910190722656  144.882443953125 72.9975565478516  145.397856427734 73.6621572070312  C 145.473998581055 73.7467372216797  145.545859722656 73.8355842578125  145.61619205957 73.9290033154297  C 145.936356363281 74.3573895166015  146.231139849609 74.8142738574219  146.515526507813 75.2961510717773  C 148.166956511719 78.1349906958008  148.053813459961 82.3487503637695  146.911832964844 86.473205793457  C 145.752728124023 90.6673063647461  143.480540214844 95.0147175390625  141.000566651367 97.5679662133789  C 135.509917359375 103.234825258789  129.012600533203 107.079785717773  121.870368087891 108.330198000488  C 119.814491373128 108.691119778762  117.725718028661 108.831312715636  115.639854873047 108.748373552246  L 117.066069026367 115.905821508789  C 117.456718368164 117.80071800293  116.243182582031 119.658886867676  114.344519668945 120.068376025391  L 108.527743107422 121.333113479004  L 108.527743107422 121.327932053223  C 107.312554124484 121.588171093338  106.049235747521 121.197043312225  105.195832822266 120.296360993652  L 88.1194866855469 102.209350178223  C 85.1549855800781 103.117784934082  82.3860384960937 103.358418764648  79.8886347363281 102.667301274414  C 77.7886076865234 102.082251555176  75.9948315029297 100.925715532227  74.5808489824219 99.0721183911133  C 72.8005275351562 100.389432602539  71.0009413857422 101.225021950684  68.4978805107422 101.400125458984  C 63.2203682871094 101.767705561523  58.3324350029297 101.219840524902  54.0898758896484 99.9032882177734  C 49.5932036484375 98.5090137792969  45.7941960175781 96.2320596606445  42.9836611728516 93.2392997314453  C 40.5162250927734 90.6113766918945  39.6165847939453 88.0340492504883  38.9121926660156 85.0330599804687  C 37.1023623896484 85.741093503418  35.1607356123047 86.3491550854492  33.1961746728516 86.7735789672851  C 30.0838231230469 87.4457994140625  26.8415098769531 87.6801849145508  23.7881759853516 87.1791056567383  C 22.2910180927734 86.9319187939453  20.8417166279297 86.4879881665039  19.4983721455078 85.872459296875  C 16.7939471337891 84.6368295361328  14.4982132119141 82.7120632958984  12.9836251230469 80.3212689697266  C 12.3624085166016 79.333588125  11.8711536064453 78.275195234375  11.5396750722656 77.1573680004883  C 7.12541380078124 74.3116706420898  4.22069490527343 70.3880736474609  2.54556603808593 65.9935718432617  C 0.90086340234375 61.6877648730469  0.462816333984375 56.9467136694336  0.954071244140625 52.3640024414062  C 1.43951618847656 47.8358491308594  2.8354569609375 43.4347942944336  4.87111463964844 39.7539647900391  C 7.04269698046875 35.8174140820312  9.98349922265625 32.6379686865234  13.397973328125 30.8587410595703  C 16.2500959335937 23.4036629931641  20.7764300039062 18.1295294238281  26.539540171875 14.4569292602539  C 32.1966933574219 10.8460495996094  38.9660122089844 8.87053555908202  46.4329955214844 7.93268825927733  C 49.5695046357422 5.64217087402343  53.4156042919922 3.74544557128905  57.8651846572266 2.4576962548828  C 66.2029109912109 0.0461760766601435  76.7290383105469 -0.272941938476575  88.6524823564453 2.97371038574217  C 90.734926359375 3.53925335937499  92.7410750595703 4.05465778808592  94.7404963916016 4.56731915283202  C 106.451262070312 7.56769886962889  117.959440508789 10.5187022436523  127.717112329102 18.8816055126953  C 128.054553829102 19.1702442285156  128.593053615234 19.6213374414062  129.131706401367 20.0754787182617  C 134.138134001953 24.285733269043  139.320392071289 28.6439646459961  141.935525894531 38.3295159033203  Z M 131.657701737305 47.3413229052734  C 130.427041605469 48.8523329663086  128.196441457031 49.0818418920898  126.681241816406 47.8527651635742  C 125.166347876953 46.6233835839844  124.936239462891 44.4019017871094  126.165982192383 42.890586875  C 127.965415640625 40.6843446533203  130.101067335938 39.1235010473633  132.373255245117 38.2223812280274  C 132.983082903972 37.9797812276869  133.610478891168 37.7835933579377  134.250053950195 37.6355028491211  C 131.978018891602 31.7086555786133  128.208061538086 28.5398778857422  124.551400086914 25.4665002612305  C 124.137663433594 25.1153789892578  123.717046412109 24.7645625683594  123.113718703125 24.2447386181641  C 114.575545634766 16.9263601220703  103.876187203125 14.1852065771485  92.9951883369141 11.3958957958985  C 90.90708721875 10.8602225683594  88.8116471806641 10.3228728833008  86.7938781005859 9.77470314453127  C 76.2379361015625 6.8994408911133  67.0365001142578 7.14784686035158  59.8352500107422 9.23095292724611  C 56.3087031064453 10.2513990820313  53.2912998603516 11.6977929272461  50.8648398398437 13.4099662744141  C 50.4796556064284 13.9268564296503  49.9598917718204 14.3288181457494  49.3618719814453 14.5722932763672  C 47.0543651279297 16.5126037939453  45.4509444023437 18.7148838452149  44.6402895908203 20.9860469848633  C 43.9895641552734 22.8253188061524  41.9653735576172 23.7907498413086  40.1191539345703 23.1424556616211  C 38.2735460126953 22.4927898754883  37.3028089746094 20.4758239819336  37.9539932607422 18.6362473095703  C 38.1908291923828 17.9692084375  38.4746042988281 17.3091796508789  38.7941569013672 16.6560088964844  C 35.6992353984375 17.5690155249024  32.8590387246094 18.7927584765625  30.3385478027344 20.4016069677735  C 26.8824859365234 22.6023629125977  23.9890814208984 25.577140053711  21.7997631826172 29.5380740820313  L 21.9892013876953 29.5670294238281  C 23.9187492333984 29.873193725586  25.2379363007812 31.6800050878906  24.9296977792969 33.6032472216797  C 24.6225296601562 35.5274037597656  22.8114761308594 36.8399937475586  20.8768827216797 36.534134296875  C 20.2430180888565 36.4335933067288  19.5994738876024 36.4078640491484  18.9595665087891 36.4574789208985  C 18.4036365263672 36.5007594335938  17.9061127998047 36.6037794384766  17.4859544794922 36.7627288183594  C 15.0423701132812 37.6906703198243  12.7998440332031 40.0470230273438  11.0840448076172 43.1545374194336  C 9.48077708203124 46.0493064184571  8.37977264648437 49.5240960620117  7.99493341992187 53.1093731469727  C 7.62278452734374 56.64085421875  7.94172557812499 60.252191081543  9.17253870996093 63.4776602026367  C 9.85904194042968 65.2719750537109  10.8355887949219 66.9530593994141  12.1370398154297 68.4334378100586  C 12.1965163242187 68.2979574951172  12.2552284306641 68.1643058398438  12.3150107900391 68.0295874291992  C 13.1314755673828 66.2585891430664  15.2263040537109 65.4793865209961  17.0070842021484 66.2884588891602  C 18.7820542353516 67.0967692041016  19.5635057695312 69.1897809204102  18.7526981074219 70.960779206543  C 18.4683114492187 71.5724982568359  18.2852949111328 72.1697396362305  18.1903466074219 72.7432070996094  C 18.1281843943435 73.1336948040272  18.1062571278564 73.5294959792399  18.1249071328125 73.9244314428711  C 18.226861018843 74.2541783897656  18.2789084386134 74.5972365394456  18.2793320947266 74.9422867358399  C 18.4213725732422 75.5169734545899  18.6577498037109 76.0596569165039  18.97730240625 76.5613457275391  C 19.7463694570312 77.7823454663086  20.9713724736328 78.7896854077149  22.4329055712891 79.4596199926758  C 23.2265970818132 79.8181173409904  24.0640841773675 80.0711759544094  24.9238878134766 80.2123056347656  C 27.0185634492187 80.5544355126953  29.3675052128906 80.3666831420899  31.6991696308594 79.863165522461  C 34.6577077705078 79.2227959814453  37.5035617089844 78.0997871728516  39.7700923535156 76.8958558178711  C 41.4924660966797 75.9799536254883  43.6340809072266 76.6299241137695  44.55696121875 78.3471263867188  C 44.7022699241793 78.6173365559718  44.8097366117694 78.9061227026499  44.8763611201172 79.205422746582  L 44.8885927529297 79.2043559912109  C 45.0543320947266 79.9236669189453  45.2254227011719 80.7184139672852  45.3855049277344 81.4810054077149  C 46.0010644189453 84.3666306616211  46.49782359375 86.6726926220703  48.14298478125 88.4293655883789  C 50.0898099726562 90.5016514526367  52.8474426767578 92.1184245825195  56.1963244570312 93.1580724829102  C 59.6224186435547 94.2182940332031  63.6279889746094 94.6565860327149  68.0242084980469 94.3501168798828  C 69.5747270830078 94.242220300293  71.0422232958984 92.9140858862305  73.2075368203125 90.943296069336  L 73.3144112050781 90.8483530541993  C 74.7647829228516 89.5359155664063  77.0071561523437 89.6412214331055  78.3197685527343 91.0841103100586  C 78.6931406982422 91.4894846484375  78.9474068261718 91.9594750537109  79.0955629716797 92.4524773217774  C 79.751792671875 94.5075424511719  80.66947471875 95.5586201074219  81.7753717177734 95.8655464624023  C 83.2440910341797 96.272597109375  85.3256174853515 95.829276184082  87.7988638300781 94.8356517114258  C 89.1963335566406 94.2765094189453  90.7401247734375 94.671673256836  91.7110145126953 95.708882944336  L 108.977104555664 113.99659984375  L 109.439309337891 113.897694509277  L 108.166908445312 107.515944206543  C 105.76980440332 106.820407194824  103.338451819336 105.826630371094  100.894255901367 104.511297319336  C 99.1662248935546 103.586251381836  98.5214624238281 101.445234780273  99.4506115517578 99.72772765625  C 100.374103564453 98.0097633300781  102.52152834082 97.3663458740234  104.249100647461 98.2907822583008  C 110.012516516602 101.38991480957  115.550716535156 102.255069052734  120.651939738281 101.362940627441  C 126.255885082031 100.381507963867  131.438143151367 97.274755625  135.900108 92.6739092578125  C 137.604592995117 90.9173886425781  139.213364985352 87.7472393432617  140.089306271484 84.5920249169922  C 140.769999386719 82.129909140625  140.994297834961 79.8899873535156  140.385160160156 78.834185324707  C 140.238167908083 78.5809772927323  140.076114596267 78.3367579256749  139.899868066406 78.1028350878906  C 139.858433305664 78.0444673510742  139.816692694336 77.9859471142578  139.781985301758 77.9265124731445  C 138.788008250977 76.6687852539063  137.426774871094 75.782447956543  135.788035201172 75.2030368652344  C 135.562666055473 75.1537755383719  135.342481795239 75.0833591057243  135.130429248047 74.9927299829101  C 131.598683780273 73.9616161254883  126.941164910156 74.2116985522461  121.989015404297 75.2022749609375  C 113.386014413086 76.9255730639649  104.095592938477 80.9250635302734  97.5806930654296 84.6849867724609  C 95.7352379941406 85.7526757592774  94.172793477539 86.7583393920899  92.9591048408203 87.6475721044922  C 91.392073461914 88.799688605957  89.1778331074218 88.4659405688477  88.0243853818359 86.9011347924805  C 86.8652805410156 85.3363288671875  87.201346086914 83.1328297094727  88.7697535693359 81.9796463037109  C 90.2848003593749 80.8645621337891  92.0715433242187 79.7086356640625  94.0304472978515 78.5757210571289  C 101.066263910156 74.5135958325195  111.160154126953 70.1823384887695  120.604389011719 68.2915568139648  C 126.202677240234 67.1702243139648  131.615961125976 66.9079502270508  136.207428969727 68.0138905029297  C 139.723273195312 66.294249868164  142.551085236328 64.3024293481445  144.006043816406 61.7101670336914  C 145.53974390625 58.9879106811523  145.640196624023 55.2732491113281  143.527632240234 49.9831139135742  C 142.752143522461 48.0565190136719  141.728045941406 46.6306985205078  140.569093951172 45.691936965332  C 139.876780754883 45.1276132470703  139.130342314453 44.7443363671875  138.379011310547 44.5402776660156  C 138.237297646807 44.5175266208043  138.097169131433 44.4858665628037  137.959464541992 44.4454870019531  C 137.91787678125 44.4383244165039  137.876289169922 44.4305521289062  137.828891293945 44.4241515966797  C 136.899742166016 44.2796798876953  135.929005277344 44.3982441699219  134.982425953125 44.7737489111328  C 133.817511146484 45.2350527734375  132.681340617187 46.0919775268555  131.657396036133 47.3413229052734  Z " fill-rule="nonzero" fill="#58d0ef" stroke="none" transform="matrix(1 0 0 1 101 438 )" />
  </g>
</svg>