<?xml version="1.0" encoding="utf-8"?>
<svg version="1.1" xmlns:xlink="http://www.w3.org/1999/xlink" width="126px" height="85px" xmlns="http://www.w3.org/2000/svg">
  <g transform="matrix(1 0 0 1 -118 -449 )">
    <path d="M 81.1742050066692 49.2974146431588  C 78.6542284155869 45.5469469840935  75.789676307641 44.6487019460867  71.7366151843559 46.6286979166667  C 68.9383983970084 47.9934365410332  66.8585079577934 43.7558136789133  69.6567245950838 42.389544420397  C 71.1726109255907 41.6477155651746  72.6410488805259 41.1795383410755  74.0546682521913 40.9833295590512  C 75.148127157965 32.0748017490146  82.6771927234184 26.9689313766892  91.413654399295 27.7047914467202  C 94.0401976872142 21.0003234181447  102.276226371951 18.9572712732264  109.009267339939 22.545965978674  C 111.761110761242 24.0126353550816  109.52582337319 28.1737336887669  106.780889934261 26.7110437517596  C 103.607540439215 25.0187800798846  99.6381664967607 25.0330136014921  97.2133933736662 27.3469625651042  C 94.5031632050305 29.9299718556447  95.1625245903201 33.941235254786  96.9392992568598 37.2547478445242  C 98.4017487304688 39.9957038024352  94.2233874737995 42.2169050710867  92.75648505383 39.4759491131757  C 91.4007557855374 36.9423746392877  90.7530644959985 34.5545029560811  90.6649243688072 32.385950476844  C 84.6921297184642 31.9802174127252  79.6640001405297 35.2276127093891  78.7856706888338 41.4101834001971  C 81.1915565667874 42.2325160736909  83.3016973299352 43.9838567796312  85.1136359422637 46.6686436690597  C 86.8487975061928 49.2504286317568  82.9095200790778 51.8813422543637  81.1742050066692 49.2974146431588  Z M 38.6308076981707 56.292522936022  C 37.8937479134908 57.3707537390907  38.1735234946646 58.8423205764358  39.2546979706555 59.5775683329814  L 39.2546979706555 59.5786396572354  C 40.8232533155488 60.6539624947213  42.4587581650152 61.552207532728  44.1753398008765 62.1996052048142  C 43.7529123761433 66.1941861275338  41.7868054830412 69.2951136155687  38.6604435380145 71.7764983108108  C 37.6383873832889 72.5891889164555  37.4667138838605 74.0763669059685  38.2802435499238 75.0982754874015  C 39.0943875500191 76.1209493859094  40.5858586794969 76.2899156021256  41.6135964486471 75.4782963207348  C 43.0106318025915 74.3714453212979  44.2054364662729 73.1761320734797  45.1972424471227 71.8937339087134  C 47.7645137552401 71.2842924936655  50.3853754287348 71.2262869334178  52.5899519674162 71.741756176098  C 54.5566731945503 72.2015156601915  56.1259962318979 73.107413121129  56.8386409656059 74.4597547156532  C 58.2946411323361 77.2135668637388  62.4906609660823 75.0098130894567  61.0398815882241 72.2576845791104  C 58.6691595060023 67.7753361398508  52.9824362352325 66.395751829955  48.0141928210747 66.708278038781  C 48.3943928091654 65.5922441318272  48.6617306021341 64.4344278311515  48.822501698266 63.2359004610079  C 53.9504414991425 63.5464370249156  58.0928709675114 60.9468984111065  60.8379580649771 56.1570743771115  C 62.679993342702 57.6396607633024  64.065819276391 59.6224116958756  64.7669472727706 61.6619437112894  C 65.7822471036585 64.6102811532236  70.2755477372332 63.0738215002112  69.2587123713796 60.1257900654561  C 66.9234612519055 53.333318799268  59.8283396984565 47.9792028698621  52.0073676305259 49.118653355504  C 48.9170909822789 49.5693829356701  49.6013280940358 54.2523786071228  52.6968256812119 53.8018021801098  C 53.9989969083433 53.6105099870831  55.3263561892236 53.6797085398797  56.6013998380335 54.0053573778857  C 52.9523397198933 60.2246598483249  47.2418155821265 59.2962641293638  41.9288429925686 55.6725211324606  C 40.8476683665206 54.937273375915  39.367713824314 55.2138329726211  38.6308076981707 56.292522936022  Z M 104.659232733899 35.9806142666104  C 102.579188636147 33.6536561092343  99.0379235827935 36.8004981348536  101.117814022008 39.1276094453829  C 105.354372248952 43.8701413112331  105.247498535156 47.0723872378238  99.8632768530869 50.4533944520693  C 97.2249099609375 52.1124464738176  99.7505681664444 56.1080988703547  102.388781550114 54.4514955042934  C 104.997973127858 52.8111154543215  106.750486251906 51.0515101615287  107.76716810928 49.1899742662585  C 109.597533291254 49.5156626724381  111.321331776391 50.2232085532799  112.146685196742 51.849201928491  C 113.489362492854 54.4989406760276  117.543498325553 52.6745955711571  116.473379611281 49.9336397628097  C 117.917249006765 47.0325944890203  119.932186151867 45.2979362595017  123.212255702172 45.4909310687641  C 126.33216834032 45.6733656390766  126.60503393912 40.9534850348395  123.490956423876 40.7705913041948  C 118.999037816787 40.5071939048424  115.498464515053 42.5300435933981  113.144633317454 46.2087311813767  C 111.885336035156 45.4162430320946  110.435631516768 44.8952640149916  108.860780523533 44.5851866114161  C 108.741315362995 41.6947017261402  107.209152481898 38.8282454339105  104.659232733899 35.9806142666104  Z M 77.9659987328506 57.1192940596847  C 76.7592169564596 56.6287717307151  76.170643988186 55.2533197142455  76.6640133384146 54.0468337644285  C 77.1572291801639 52.8395826471002  78.5419802543826 52.2599857562641  79.7478406797828 52.7515794094876  C 81.429565386814 53.4354027044623  82.7550446312881 54.3919594594595  83.9019403939596 55.7113955605997  C 85.9458993449886 58.0622294569961  82.3630210389672 61.1533617240287  80.3189085794588 58.8013033502252  C 79.7060740686928 58.0951349503801  78.8564591058498 57.4820202526746  77.9650773818597 57.1192940596847  Z M 15.9246063667111 42.3916872184684  C 14.1593481373857 39.8212279613598  10.2490925161966 42.4874958826013  12.0080549471227 45.056577808277  C 15.2346876405297 49.7539600049268  21.3611898961509 50.3128952790681  26.8409223632813 50.2117298441019  C 25.1057607993521 52.573583289344  23.6436184927592 55.2271481735642  22.7460946289063 58.3084853691582  C 21.8785139219703 61.2960033959741  26.4313935523056 62.6061035860079  27.2982064167302 59.6231770129504  C 27.8333425281059 57.7842923792934  28.5998846441502 56.1895208597269  29.4316873713796 54.8244760786177  C 32.4028060261052 49.9448123152449  37.6565066358613 44.5763097110782  43.9795582674352 47.8241643176379  C 45.1146302758194 48.4083526622325  46.5056771484375 47.9879267666103  47.1289532369474 46.8868916983389  C 48.7927120498285 44.3197994175816  50.4988519578887 42.7879312183277  52.2400021532012 42.0721207506334  C 53.8857952219893 41.3927359058277  55.6631840725038 41.4406402378941  57.5343946646342 42.0182474838119  C 58.5922289491235 42.3422524018159  59.7044214415015 41.8907576541385  60.2556807450457 40.9905228216498  C 62.8823775414444 36.8516165892455  67.489154704173 34.1819813925253  71.9635682426639 32.4116627076295  C 72.765581471513 32.0960755296312  73.2947289515053 31.3941924268018  73.43062432117 30.6056835673564  L 73.43062432117 30.606755041174  C 73.5792646460556 29.7408033326295  76.3728748285061 27.4164469840934  77.5081003453697 26.1219577966638  C 79.5936723990091 23.7327086324606  81.8942202481898 21.2496402994791  81.8223568216463 15.8494565297719  C 86.2675950457317 17.1367523050394  90.8614735947028 15.9027176326717  95.5018791682546 12.6123154648789  C 96.5721513910061 11.8559469313063  96.8215232898247 10.3800946473817  96.0614304806593 9.31762800007036  C 95.300109153487 8.25424303209456  93.8200009527439 8.00599732545043  92.7569457293255 8.76221285543353  C 86.8675310927972 12.9347898982967  82.2619822980183 12.4877336007883  77.9363627429497 7.75392548212272  C 75.8262219798018 5.44992459353883  72.319813705221 8.63824300570099  74.4228909775152 10.9374994369369  C 75.1958824004383 11.7807998838682  75.9922140148628 12.531658643018  76.8186422946837 13.1870147452139  C 77.692518800019 18.7283097022804  75.8147053925305 20.864415698902  74.1745939381669 22.7366651358389  L 72.1353952505716 24.8248668003941  C 70.8876144054878 26.0099258164414  69.7769575981326 27.0639748733108  69.16396942883 28.4567215301239  C 67.6551465891768 29.0944769847973  66.199607097942 29.7998802171312  64.8208448051639 30.596653663429  C 62.6991876048018 25.2309060212556  59.4017663443216 21.6252226826436  52.4241135908918 21.8837226210585  C 49.2985194883765 21.9997338911177  49.4824772675305 26.7179308576154  52.590566151391 26.6036032252956  C 57.7607333889101 26.4119857474662  59.3005740948933 29.2346700010557  60.7966519793255 33.3801573321368  C 59.489906471513 34.4729278135557  58.295255316311 35.6956369298986  57.2315859089177 37.0775170414555  C 51.9662152034108 36.0730559543919  47.6344533584223 38.3089499049831  44.2234022103659 42.7961959547438  C 41.9294571765434 42.0049322828688  39.7664938905297 41.9380498222832  37.7753576124238 42.3243455975507  C 39.0352692287538 39.355040382179  39.8377429830412 36.2626837873029  39.4159298923399 33.3388340987472  C 38.9703157845846 30.2529054493947  34.2753986447218 30.9264745125985  34.7151776295732 34.0052097497888  C 35.2143821027058 37.4713122360642  32.8134098466082 42.0464083702843  30.9772096917873 45.2933446561796  C 26.348013688548 45.581995275549  18.5331837604802 46.191895850929  15.9246063667111 42.3916872184684  Z M 1.79824154439787 41.5358367381053  L 1.79885572837272 41.5350714210304  C 2.6008689572218 40.5027553051098  4.08650496379574 40.3126684614302  5.12007785584985 41.1102072248029  C 6.16071408870046 41.9069806711008  6.35035348227897 43.3906385311092  5.54849391196647 44.4231076506194  C 3.56948840510671 46.9732114477759  6.84955795541159 53.8177193394567  12.1864849204459 51.2714416789837  C 14.9974466630145 49.9296603234093  17.0414054639863 54.1865674707911  14.2243015815549 55.5280426696228  C 4.40758663062119 60.2127219788147  -3.23480180544969 48.0208322599944  1.79824154439787 41.5358367381053  Z M 17.2671300042874 32.5755783097551  C 14.7772499285442 30.1304662338119  9.20323534441693 31.5051530827703  7.93119310689787 34.393801476281  C 6.54076056831174 37.5808955605997  0.306770414919972 35.0358423775338  5.36376829030107 29.9243090776323  C 9.16730385623094 26.0763491166948  16.5125651510099 25.2019796681447  20.5952621141387 29.2069681253519  C 22.8179580554497 31.3911316071931  19.4898259455983 34.7565278188345  17.2671300042874 32.5755783097551  Z M 29.7647463009718 28.9754048951295  C 26.7816503834794 22.6131545960022  37.2050575552591 16.3467131105715  41.882008951029 19.5523260135135  C 41.4953596560594 20.3221629011824  41.1629150604992 21.1715852864583  40.8949630835556 22.1140615234375  C 40.051643919112 25.1119869351774  44.6211074171113 26.3882631615991  45.4650409155869 23.3915622272663  C 46.5466760670732 19.5466632355011  49.7495078934832 17.7858336148649  52.2753196074695 16.4013515449043  C 54.8600961342416 14.9824334969735  57.5348553401296 14.5988925341357  60.1618591534871 15.905778601844  C 62.0630127524771 16.857131739161  64.14843114758 14.9966670185811  63.4474566596799 13.0108552663992  L 63.4534452910633 13.0093247818131  C 62.3298898699504 9.85590150795326  64.1668577172256 6.84971150936091  66.2226402724847 4.54310881193693  C 68.3025308617568 2.21477317356419  64.7552771770198 -0.930691520622196  62.6744652367569 1.39641978990708  C 60.4459343225991 3.89800694151182  58.5627466177591 7.01056614231418  58.3723395317264 10.4844742046734  C 55.9418849442645 10.166285217835  53.4934644626524 10.6014036458333  51.1941449814215 11.6467288059544  C 49.7258605349657 7.88279279279278  46.6420330435404 5.40722387915258  42.5175694693216 4.01662002041102  C 39.5584280773628 3.01828087169199  38.0367067740091 7.49802750211147  40.9964623499428 8.49621349767736  C 44.0328414657965 9.52210151851068  46.1601802805831 11.1871224750141  46.9982788062119 14.0134798616976  C 46.2315830316311 14.5235924831081  45.4708760384909 15.096761278857  44.7461003834794 15.7666570594031  C 36.4385154392149 9.69336353638793  20.2867717439977 19.9087774141329  25.4738300161966 30.9746850014076  C 26.7934741377668 33.7892575221706  31.0845439310213 31.7902835726351  29.7647463009718 28.9754048951295  Z M 92.6497649985709 78.087170995214  C 91.8534333841463 79.1208644425676  90.3607337366616 79.3106452790681  89.3267003191692 78.5134126724381  C 86.3449864281631 76.2170642067849  90.9969084389291 71.4313726157798  96.4821687118902 72.2745200591216  C 97.112508441311 72.3710940403294  97.7357845298209 72.5336321614583  98.3415555497332 72.7505025601773  C 102.377111304306 67.6251950485642  110.441620148152 65.5734190068975  115.022753741902 70.2117244686092  C 117.21059290444 72.4260384818412  113.834398385099 75.7438365181588  111.641645600705 73.5261553790118  C 109.283207948266 71.1330799285614  104.683494276391 72.6915786792652  102.371429839939 75.3093302540822  C 106.917706654916 79.8997312341638  104.386213476563 86.1738252920889  101.034280649771 84.5744623187641  C 99.8517604158727 84.0123130718609  99.3525559427401 82.6033432485219  99.9167137099848 81.4279263003237  C 101.106297434737 78.9509800552506  95.1276678115473 74.885231225366  92.6497649985709 78.0874771519566  Z " fill-rule="nonzero" fill="#58d0ef" stroke="none" transform="matrix(1 0 0 1 118 449 )" />
  </g>
</svg>