<?xml version="1.0" encoding="utf-8"?>
<svg version="1.1" xmlns:xlink="http://www.w3.org/1999/xlink" width="137px" height="137px" xmlns="http://www.w3.org/2000/svg">
  <g transform="matrix(1 0 0 1 -556 -430 )">
    <path d="M 121.5875 54.115  L 99.8986875 42  L 37.1013125 42  L 15.4125 54.115  C 11.1003249443372 56.7023050333977  8.5625 60.7628249443372  9 65.075  L 9 116.45  C 8.5625 124.016301072682  16.2296236591477 130.15  25.6875 130  L 111.3125 130  C 120.770376340852 130.15  128.4375 124.016301072682  128 116.45  L 128 65.075  C 128.4375 60.7628249443372  125.899675055663 56.7023050333977  121.5875 54.115  Z M 43 35  L 94 35  L 94 13.7  C 94.1875 9.91684946365907  90.3539381704262 6.85  85.625 7  L 51.375 7  C 46.6460618295738 6.85  42.8125 9.91684946365907  43 13.7  L 43 35  Z M 102 34.25  L 126.725 48.635  C 133.193262583494 52.5159575500965  137 58.6067374165058  137 65.075  L 137 116.45  C 137 127.799451609023  125.499314511278 137  111.3125 137  L 25.6875 137  C 11.5006854887215 137  0 127.799451609023  0 116.45  L 0 65.075  C 0 58.6067374165058  3.80673741650577 52.5159575500965  10.275 48.635  L 35 34.25  L 35 13.7  C 34.25 6.13369892731813  41.9171236591477 0  51.375 0  L 85.625 0  C 95.0828763408524 0  102.75 6.13369892731813  102 13.7  L 102 34.25  Z M 9 116.45  L 9 68  L 128 68  L 128 116.45  C 128.4375 124.016301072682  120.770376340852 130.15  111.3125 130  L 25.6875 130  C 16.2296236591477 130.15  8.5625 124.016301072682  9 116.45  Z M 94 85.625  L 94 95  L 81.34375 95  C 81.34375 95.9  81.34375 95.9  81.34375 95.9  C 78.9792809147869 95.9  77.0625 97.4334247318295  77.0625 99.325  C 77.0625 101.21657526817  78.9792809147869 102.75  81.34375 102.75  C 81.34375 102.75  81.34375 102.75  81.34375 102  L 94 102  L 94 113.025  C 94.1875 114.916575268171  96.1042809147869 116.45  98.46875 116.45  C 100.833219085213 116.45  102.75 114.916575268171  102.75 113.025  L 102 113.025  L 102 102  L 115.59375 102  C 115.59375 102.75  115.59375 102.75  115.59375 102.75  C 117.958219085213 102.75  119.875 101.21657526817  119.875 99.325  C 119.875 97.4334247318295  117.958219085213 95.9  115.59375 95.9  C 115.59375 95.9  115.59375 95.9  115.59375 95  L 102.75 95  L 102.75 85.625  C 102.75 83.7334247318295  100.833219085213 82.2  98.46875 82.2  C 96.1042809147869 82.2  94.1875 83.7334247318295  94.1875 85.625  L 94 85.625  Z " fill-rule="nonzero" fill="#58d0ef" stroke="none" transform="matrix(1 0 0 1 556 430 )" />
  </g>
</svg>