<?xml version="1.0" encoding="utf-8"?>
<svg version="1.1" xmlns:xlink="http://www.w3.org/1999/xlink" width="143px" height="143px" xmlns="http://www.w3.org/2000/svg">
  <g transform="matrix(1 0 0 1 -106 -177 )">
    <path d="M 142 30.2668632751938  C 142.674148869509 13.9332142657192  129.373642700258 0.650139965546937  113.039993690784 1  L 30.0469272932817 1  C 13.7132782838071 0.650139965546937  0.412772114556417 13.9332142657192  1 30.2842951442722  L 1 113.277361541774  C 0.412772114556417 129.611010551249  13.6958464147287 142.894084851421  30.0469272932817 142  L 113.039993690784 142  C 129.373642700258 142.894084991387  142.656717000431 129.611010691214  142 113.277361541774  L 142 30.2668632751938  Z M 113.162016634367 64.6947789513351  C 114.12076873385 65.9498725452196  113.894154575797 67.8150811369509  112.604197243755 68.7912651055125  C 112.098673460379 69.1921978143841  100.558784808355 77.664079748062  78 79.0063326873385  L 78 90.5462213393626  L 92.2089258182601 86.3800078488372  C 98.6587124784668 84.4799355189492  105.422272642119 88.1406253660637  107.322344972007 94.5904120262704  C 109.239849170973 101.040198686477  105.56172745478 107.786326981051  99.129372663652 109.721263049096  L 75.805549332472 116.641709754522  C 74.6376149440138 117.007778725237  73.4522488264427 117.112369799742  72.284314298019 117.07750620155  C 71.1163799095607 117.094938070629  69.9310137919897 116.990346856159  68.7456475344531 116.641709754522  L 45.4392560723514 109.721263049096  C 38.9894694121447 107.803758850129  35.3287795650301 101.040198826443  37.2288518949182 94.5904120262704  C 39.1289242248062 88.1580570951766  45.8924843884582 84.4799355189492  52.3422710486649 86.3800078488372  L 67 90.5462213393626  L 67 79.0063326873385  C 43.9575483204134 77.6466478789836  32.4525234065461 69.1921978143841  31.9469996231697 68.7912651055125  C 30.6570422911283 67.8150811369509  30.4129962639965 65.9498725452196  31.406611961671 64.6599152131783  C 32.3827959302325 63.3699578811369  34.2480045219638 63.1084799849268  35.5553937230835 64.1020958225667  C 35.6599847975883 64.1892551679586  46.1190984065461 71.7721124784668  66.3400514211886 73.0969335486649  L 66.3400514211886 63.64886750646  C 46.7640771425495 62.3066145671835  36.6710325043066 54.8806439384152  36.2352361972437 54.5320068367786  C 34.927846996124 53.5383909991387  34.7012328380706 51.6731824074074  35.694848535745 50.3832252153316  C 36.688464373385 49.0932678832903  38.5536729651163 48.8317899870801  39.8436302971576 49.8428375538329  C 40.070244455211 49.9997242355728  49.0302184431524 56.449511035745  66.3400514211886 57.7394683677864  L 66.3400514211886 49.40704124677  C 52.3422710486649 48.134515783807  45.1080508397933 42.7480722975883  44.7942774763135 42.4691625322997  C 43.4868882751938 41.4929785637381  43.2602741171404 39.6103381029285  44.236458085702 38.3203807708872  C 45.2300739233419 37.0304234388458  47.0952825150732 36.786377411714  48.385239707149 37.7625613802756  C 48.5421263888889 37.8845843238587  54.6258442183462 42.2425483742463  66.3400514211886 43.4279146317829  L 66.3400514211886 40.1158620262704  C 66.3400514211886 36.8386731589147  69.0071254306632 34.1715991494401  72.2843142980189 34.1715990094746  C 75.5615031653747 34.171598869509  78.2111453057709 36.8212411498708  78.2111454457364 40.1158620262704  L 78.2111454457364 43.4453465008613  C 90.0299438630491 42.2425483742463  96.0962296834625 37.8148569875108  96.1659570198105 37.7625613802756  C 97.4559143518518 36.786377411714  99.3385548126615 37.0478553079242  100.314738781223 38.3378126399655  C 101.308354618863 39.6277699720069  101.064308591731 41.4929785637381  99.7917831287683 42.4691625322997  C 99.4605778962101 42.7306404285099  92.2437894164513 48.1170839147287  78.2285773148148 49.40704124677  L 78.2285773148148 57.7394683677864  C 95.6430015073212 56.449511035745  104.655270962532 49.9125650301464  104.742430167959 49.8428375538329  C 106.0323875 48.8666535852713  107.897596091731 49.1106996124031  108.891211929371 50.4180888135228  C 109.884827767011 51.7080461455642  109.658213608958 53.5732547372954  108.350824407838 54.549438705857  C 107.897596091731 54.8980758074935  97.7871197243755 62.3240464362618  78.2285773148148 63.6662993755383  L 78.2285773148148 73.1317972868217  C 98.4495303294573 71.8069762166236  108.908643938415 64.206687037037  109.01323501292 64.1369595607235  C 110.32062421404 63.1433437230835  112.168400936692 63.4048216192937  113.162016634367 64.6947789513351  Z " fill-rule="nonzero" fill="#58d0ef" stroke="none" transform="matrix(1 0 0 1 106 177 )" />
  </g>
</svg>