<?xml version="1.0" encoding="utf-8"?>
<svg version="1.1" xmlns:xlink="http://www.w3.org/1999/xlink" width="13px" height="20px" xmlns="http://www.w3.org/2000/svg">
  <g transform="matrix(1 0 0 1 -52 -108 )">
    <path d="M 0.409222315228175 9.22033322265625  L 0.411801075768849 9.22033322265625  C 0.489454613864894 9.14107913302246  0.580068743099193 9.07478739073785  0.679992010788691 9.0241293359375  L 10.7668081225198 0.3299224609375  C 11.0014751906622 0.119971796875  11.3263988374256 0.00124970703124998  11.6655056671627 0  C 11.9878505533854 0  12.3101954396081 0.10997416015625  12.5667819521949 0.3186751171875  C 12.8059045536669 0.509295934073045  12.9444631079135 0.793633576982578  12.9444631079135 1.09371907006572  C 12.9444631079135 1.38810642762196  12.8110949963689 1.66764596704285  12.5796757548983 1.85831330078125  L 3.12852375372024 10.007648203125  L 12.5693607127356 18.1182422070312  C 12.8073589677644 18.3122390574316  12.9447599197564 18.5982448660073  12.9447599197564 18.8996513034467  C 12.9447599197564 19.1953138397509  12.8125254817038 19.4764587250807  12.582254515439 19.6703774609375  C 12.0974478159102 20.1015261328125  11.2928749705481 20.1015261328125  10.7938850880456 19.6803751171875  L 0.576841649615574 10.9036876367187  C 0.238398211831319 10.7076315981732  0.0372050587065234 10.3482902028913  0.0520641818576389 9.966407890625  L 0.0520641818576389 9.9326658203125  C 0.0700484091201187 9.65899223032904  0.198328689892331 9.40314414206573  0.409222315228175 9.22033322265625  Z " fill-rule="nonzero" fill="#ffffff" stroke="none" transform="matrix(1 0 0 1 52 108 )" />
  </g>
</svg>