<?xml version="1.0" encoding="utf-8"?>
<svg version="1.1" xmlns:xlink="http://www.w3.org/1999/xlink" width="20px" height="20px" xmlns="http://www.w3.org/2000/svg">
  <g transform="matrix(1 0 0 1 -25 -42 )">
    <path d="M 18 2.74864376483386  L 18 17.2151898734177  C 18.155515377769 17.7576853490902  17.7938517355617 18.1193490160206  17.2513562351661 18  L 2.78481012658228 18  C 2.24231465090981 18.1193490160206  1.88065098397943 17.7576853738133  2 17.2151898734177  L 2 2.74864376483386  C 1.88065098397943 2.20614828916139  2.24231462618671 1.84448462223101  2.78481012658228 2  L 17.2513562351661 2  C 17.7938517108386 1.84448462223101  18.155515377769 2.20614826443829  18 2.74864376483386  Z M 20 2.74864376483386  C 19.9638336382516 1.30198914655854  18.6980108534415 0.0361663617484165  17.2513562351661 0  L 2.78481012658228 0  C 1.33815550830696 0.0361663617484178  0.0723327234968356 1.30198914655854  0 2.74864376483386  L 0 17.2151898734177  C 0.0723327234968356 18.661844491693  1.33815550830696 19.9276672765032  2.78481012658228 20  L 17.2513562351661 20  C 18.6980108534415 19.9276672765032  19.9638336382516 18.661844491693  20 17.2151898734177  L 20 2.74864376483386  Z M 14.5388788320807 9.98191680676424  C 14.5388788073576 9.43942130636867  14.1772151898734 9.07775768888449  13.634719714201 9.07775768888449  L 10.9222423111155 9.07775768888449  L 10.9222423111155 6.36528028579905  C 10.9222423111155 5.82278481012658  10.5605786689082 5.4611211431962  10.0180831932358 5.4611211679193  C 9.47558771756329 5.4611211926424  9.11392405063291 5.82278481012658  9.11392405063291 6.36528028579905  L 9.11392405063291 9.07775768888449  L 6.40144664754747 9.07775768888449  C 5.858951171875 9.07775768888449  5.49728750494462 9.43942133109177  5.49728752966772 9.98191680676424  C 5.49728755439082 10.5244122824367  5.858951171875 10.8860759493671  6.40144664754747 10.8860759493671  L 9.11392405063291 10.8860759493671  L 9.11392405063291 13.5985533524525  C 9.11392405063291 14.141048828125  9.47558769284019 14.5027124950554  10.0180831932358 14.5027124703323  C 10.5605786936313 14.5027124456092  10.9222423358386 14.141048828125  10.9222423111155 13.5985533524525  L 10.9222423111155 10.8860759493671  L 13.6347197142009 10.8860759493671  C 14.1772151898734 10.8860759493671  14.5388788568038 10.5244123071598  14.5388788320807 9.98191680676424  Z " fill-rule="nonzero" fill="#2c698d" stroke="none" fill-opacity="0.898039215686275" transform="matrix(1 0 0 1 25 42 )" />
  </g>
</svg>