<?xml version="1.0" encoding="utf-8"?>
<svg version="1.1" xmlns:xlink="http://www.w3.org/1999/xlink" width="6px" height="6px" xmlns="http://www.w3.org/2000/svg">
  <g transform="matrix(1 0 0 1 -2 -2 )">
    <path d="M 5.48686010611821 0.13936672455138  C 5.54458991669418 0.0565610133580107  5.6157926749941 0.0162664020278426  5.70010857523468 0.0162664020278426  C 5.78590370555215 0.0162664020278426  5.85726638226331 0.0565041824253645  5.91459639698099 0.137036574233524  C 5.97148664246427 0.218762453609077  5.99987179891504 0.320607229017462  5.99987179891504 0.4425140580993  C 5.99987179891504 0.562090736943751  5.97120679158451 0.662742013036131  5.91339702599179 0.74446789812505  L 2.31495904072834 5.85943978200692  C 2.25742913009104 5.94224549328076  2.1862663492995 5.98373359797216  2.10191046741827 5.98373359797216  C 2.01763454468607 5.98373359797216  1.94639180474551 5.94224549320029  1.88870197581018 5.85938294544138  L 0.0894829851596774 3.30314733354792  C 0.0317931563375632 3.22022795493683  0.00300821229303263 3.11957667884445  0.00300821229303263 3  C 0.00300821229303263 2.87803633435262  0.0313134095381858 2.77619156473807  0.088563465163451 2.69452251042086  C 0.145533669852351 2.613990124487  0.216976305655927 2.57375234400901  0.302691476824379 2.57375234400901  C 0.387167295419595 2.57375234400901  0.458290098646162 2.61399012440653  0.516019900957592 2.69690949722379  L 2.10191046741827 4.95482858598213  L 5.48686010611821 0.13936672455138  Z " fill-rule="nonzero" fill="#58d0ef" stroke="none" transform="matrix(1 0 0 1 2 2 )" />
  </g>
</svg>