<?xml version="1.0" encoding="utf-8"?>
<svg version="1.1" xmlns:xlink="http://www.w3.org/1999/xlink" width="13px" height="11px" xmlns="http://www.w3.org/2000/svg">
  <g transform="matrix(1 0 0 1 -4 -5 )">
    <path d="M 11.8881968965895 0.255505661677529  C 12.0132781528374 0.103695191156353  12.1675507958206 0.0298217370510449  12.3502352463418 0.0298217370510449  C 12.536124695363 0.0298217370510449  12.6907438282372 0.103591001113168  12.8149588601255 0.251233719428127  C 12.9382210586726 0.401064498283308  12.9997222309826 0.587779919865347  12.9997222309826 0.81127577318205  C 12.9997222309826 1.03049968439688  12.9376147150998 1.21502702389957  12.8123602229822 1.36485781322926  L 5.01574458824473 10.7423062670127  C 4.89109644853059 10.8941167376814  4.73691042348224 10.970178262949  4.55413934607293 10.970178262949  C 4.37154151348649 10.970178262949  4.21718224361526 10.8941167375339  4.09218761425539 10.7422020666425  L 0.193879801179301 6.05577011150452  C 0.0688851720647202 5.90375125071752  0.0065177933015707 5.71922391121483  0.0065177933015707 5.5  C 0.0065177933015707 5.27639994631314  0.0678457206660691 5.08968453535313  0.191887507854144 4.93995793577157  C 0.315322951346761 4.79231522822617  0.470115328921175 4.71854596401652  0.655831533119487 4.71854596401652  C 0.838862473409122 4.71854596401652  0.992961880400019 4.79231522807865  1.11804311874145 4.94433407824361  L 4.55413934607293 9.08385240763391  L 11.8881968965895 0.255505661677529  Z " fill-rule="nonzero" fill="#58d0ef" stroke="none" transform="matrix(1 0 0 1 4 5 )" />
  </g>
</svg>