<?xml version="1.0" encoding="utf-8"?>
<svg version="1.1" xmlns:xlink="http://www.w3.org/1999/xlink" width="10px" height="10px" xmlns="http://www.w3.org/2000/svg">
  <g>
    <path d="M 7.74703887433112 0.84766904995184  L 6.12384681216556 0.84766904995184  C 6.01188405938302 0.84766904995184  5.91640917897849 0.887370890263805  5.83664836900685 0.966595993030287  C 5.75766135231164 1.04635680288153  5.7177214259284 1.14159359709439  5.7177214259284 1.25349683263324  L 5.7177214259284 2.87680793783444  C 5.7177214259284 2.989068302721  5.75766135243204 3.08478127798587  5.83664836900685 3.16376829468108  C 5.91640917885809 3.24341006137628  6.01188406781089 3.28299284998395  6.12384681216556 3.28299284998395  L 7.74703887433112 3.28299284998395  C 7.85906115302601 3.28299284998395  7.95477412829088 3.24341006149668  8.03393971393407 3.16376829468108  C 8.11352195483733 3.08478127798587  8.15316426923694 2.989068302721  8.15316426923694 2.87686746374679  L 8.15316426923694 1.25349683263324  C 8.15316426923694 1.14153407985071  8.11352195495773 1.04629728563784  8.03388018814212 0.966536475786601  C 7.95477412829088 0.887311372899722  7.85906115302601 0.847609532708155  7.74703887433112 0.847609532708155  Z M 8.03388018814212 5.83641027426691  C 7.95477412829088 5.75754230939641  7.85906115302601 5.7176023742241  7.74703887433112 5.7176023742241  L 6.12384681216556 5.7176023742241  C 6.01188405938302 5.7176023742241  5.91640917897849 5.75748278348405  5.83664836900685 5.83641027426691  C 5.75766135231164 5.9162306100305  5.7177214259284 6.01176501622699  5.7177214259284 6.12372776900952  L 5.7177214259284 7.74691983117509  C 5.7177214259284 7.85882305816567  5.75766135243204 7.95471460237853  5.83664836900685 8.03382066210937  C 5.91640917885809 8.11334338564854  6.01188406781089 8.15304521741224  6.12384681216556 8.15304522596051  L 7.74703887433112 8.15304522596051  C 7.85906115302601 8.15304522596051  7.95477412829088 8.11334338564854  8.03393971393407 8.03382066210937  C 8.11352195483733 7.95471460225813  8.15316426923694 7.85882305804527  8.15316426923694 7.74691983117509  L 8.15316426923694 6.12372776900952  C 8.15316426923694 6.01176501622699  8.11352195495773 5.9162306099101  8.03388018814212 5.83641027426691  Z M 5.26272765543397 5.26260860372967  C 5.50058154171126 5.02475471745238  5.78730380369756 4.90582777413313  6.12360872597389 4.90582777413313  L 7.74680078813945 4.90582777413313  C 8.0826295206951 4.90582777413313  8.36982797240207 5.02475471721158  8.60756280697506 5.26260860372967  C 8.84541669325235 5.50046249000696  8.96422459329516 5.78718475199326  8.96422459329516 6.1233111053216  L 8.96422459329516 7.74662221907106  C 8.96422459329516 8.08245095162671  8.84541669325235 8.36964940333369  8.60756280697506 8.60738423790668  C 8.36982796373341 8.84523812418397  8.0826295206951 8.96416506750321  7.74686030538313 8.96416506738281  L 6.12366824321757 8.96416506738281  C 5.78730380369756 8.96416506738281  5.50058153316299 8.84523812430437  5.26272765543397 8.60738423790668  C 5.02487376915668 8.36964939466503  4.90594682583744 8.08245095162671  4.90594682583744 7.74668173631475  L 4.90594682583744 6.12337063111355  C 4.90594682583744 5.78718476054153  5.02487376891588 5.50046249000696  5.26272765543397 5.26260860372967  Z M 2.87698650690283 0.84766904995184  L 1.25367540158123 0.84766904995184  C 1.14159360564266 0.84766904995184  1.04635681155019 0.887370890263805  0.966595993030287 0.966595993030287  C 0.887430407387093 1.04635680288153  0.847669049951841 1.14159359709439  0.847669049951841 1.25349683263324  L 0.847669049951841 2.87680793783444  C 0.847669049951841 2.989068302721  0.887489933299444 3.08478127798587  0.966595993030287 3.16376829468108  C 1.04635680288153 3.24341006137628  1.14159359709439 3.28299284998395  1.25367540158123 3.28299284998395  L 2.87698650690283 3.28299284998395  C 2.98912782863335 3.28299284998395  3.08472176086259 3.24341006149668  3.16388733783712 3.16376829468108  C 3.24346957874037 3.08478127798587  3.28299284998395 2.989068302721  3.28299284998395 2.87686746374679  L 3.28299284998395 1.25349683263324  C 3.28299284998395 1.14153407985071  3.24346957874037 1.04629728563784  3.16382782059343 0.966536475786601  C 3.08472176074219 0.887311372899722  2.98912782863335 0.847609532708155  2.87698650690283 0.847609532708155  Z M 0.39255623630137 0.392556236180971  C 0.630291079422624 0.154702349783283  0.917370479425299 0.0357754067048374  1.25343730684129 0.0357754067048374  L 2.87680793783444 0.0357754067048374  C 3.21263667039009 0.0357754067048374  3.49971607894103 0.154702349783283  3.73756996533872 0.39255623630137  C 3.97542385161601 0.630291079543023  4.09435079493525 0.917370479545698  4.09435079481486 1.2532587377729  L 4.09435079481486 2.87645079993846  C 4.09435079481486 3.21251762723405  3.97542385173641 3.49965655326948  3.73756996533872 3.73745091351402  C 3.49971607906143 3.97530479979131  3.21263667905875 4.09423174311055  2.87686746374679 4.09423174311055  L 1.25337778092894 4.09423174311055  C 0.917310953633348 4.09423174311055  0.630172027597924 3.97530480003211  0.392496710268622 3.73745091351402  C 0.154702349783283 3.49959702723673  0.0357754067048374 3.21251762723405  0.0357754067048374 2.87645079993846  L 0.0357754067048374 1.2532587377729  C 0.0357754067048374 0.917370479425299  0.154702349783283 0.630291079422624  0.39255623630137 0.392556236180971  Z M 3.16382782059343 5.83646980005886  C 3.08472176074219 5.75760183518836  2.98912782863335 5.71766190001605  2.87698650690283 5.71766190013645  L 1.25367540158123 5.71766190013645  C 1.14159360564266 5.71766190013645  1.04635681155019 5.75754230939641  0.966595993030287 5.83646980005886  C 0.887430407387093 5.91629013582245  0.847669049951841 6.01182454201895  0.847669049951841 6.12378729492188  L 0.847669049951841 7.74697935708744  C 0.847669049951841 7.85888258407802  0.887489933299444 7.95477412829088  0.966595993030287 8.03388018802173  C 1.04635680288153 8.1134029115609  1.14159359709439 8.15310474332459  1.25367540158123 8.15310474332459  L 2.87698650690283 8.15310474332459  C 2.98912782863335 8.15310474332459  3.08472176086259 8.11340290301263  3.16388733783712 8.03388018802173  C 3.24346957874037 7.95477412817048  3.28299284998395 7.85888258395762  3.28299284998395 7.74697935708744  L 3.28299284998395 6.12378729492188  C 3.28299284998395 6.01182454213934  3.24346957874037 5.91629013582245  3.16382782059343 5.83646980005886  Z M 0.39255623630137 5.26266812952162  C 0.630291079543023 5.02481424324433  0.917370479545698 4.90588729992508  1.25343730684129 4.90588730004548  L 2.87680793783444 4.90588730004548  C 3.21263667039009 4.90588730004548  3.49971607894103 5.02481424312393  3.73756996533872 5.26266812952162  C 3.97542385161601 5.50052201579891  4.09435079493525 5.78724427778521  4.09435079481486 6.12337063111355  L 4.09435079481486 7.74668173631475  C 4.09435079481486 8.0825104688704  3.97542385173641 8.36970892057737  3.73756996533872 8.60744376381903  C 3.49971607906143 8.84529765009632  3.21263667905875 8.96422459341556  2.87686746374679 8.96422459329516  L 1.25337778092894 8.96422459329516  C 0.917310953633348 8.96422459329516  0.630172027597924 8.84529765021671  0.392496710268622 8.60744376381903  C 0.154702349783283 8.36970892057738  0.0357754067048374 8.08251047753906  0.0357754067048374 7.7467412622271  L 0.0357754067048374 6.1234301570259  C 0.0357754067048374 5.78724428645387  0.154702349783283 5.50052201591931  0.39255623630137 5.26266812952162  Z M 5.26272765543397 0.39255623630137  C 5.50058154171126 0.154702349783283  5.78730380369756 0.0357754067048374  6.12360872597389 0.0357754067048374  L 7.74680078813945 0.0357754067048374  C 8.0826295206951 0.0357754067048374  8.36982797240207 0.154702349783283  8.60756280697506 0.39255623630137  C 8.84541669325235 0.630291079422624  8.96422459329516 0.91731095351295  8.96422459329516 1.2532587377729  L 8.96422459329516 2.87645079993846  C 8.96422459329516 3.21251762723405  8.84541669325235 3.49965655326948  8.60756280697506 3.73745091351402  C 8.36982796373341 3.97530479979131  8.0826295206951 4.09423174311055  7.74686030538313 4.09423174311055  L 6.12366824321757 4.09423174311055  C 5.78730380369756 4.09423174311055  5.50058153316299 3.97530480003211  5.26272765543397 3.73745091351402  C 5.02487376915668 3.49959702723673  4.90594682583744 3.21251762723405  4.90594682583744 2.87645079993846  L 4.90594682583744 1.2532587377729  C 4.90594682583744 0.9173704794253  5.02487376891588 0.630291079422625  5.26272765543397 0.39255623630137  Z " fill-rule="nonzero" fill="#000000" stroke="none" />
  </g>
</svg>