<?xml version="1.0" encoding="utf-8"?>
<svg version="1.1" xmlns:xlink="http://www.w3.org/1999/xlink" width="9px" height="9px" xmlns="http://www.w3.org/2000/svg">
  <g>
    <path d="M 3.30000000292969 2.77499999707031  L 1.27500000292969 0.749999997070313  L 2.62500000292969 0.749999997070313  C 2.85000000292969 0.749999997070313  3.00000000585937 0.599999994140625  2.99999999707031 0.375000002929687  C 2.99999998828125 0.15000001171875  2.85000000292969 0  2.62500000292969 0  L 0.299999997070313 0  C 0.225 0  0.150000002929688 0.0749999970703125  0.0749999970703125 0.150000002929687  C 0 0.225  0 0.299999997070313  0 0.375000002929687  L 0 2.62500000292969  C 0 2.85000000292969  0.150000002929688 3.00000000585938  0.375000002929687 2.99999999707031  C 0.600000002929687 2.99999998828125  0.750000005859375 2.84999999414063  0.749999997070313 2.62500000292969  L 0.749999997070313 1.27500000292969  L 2.77499999707031 3.30000000292969  C 2.925 3.45000000585938  3.15 3.45000000585938  3.30000000292969 3.30000000292969  C 3.45000000585938 3.15  3.45000000585938 2.925  3.30000000292969 2.77499999707031  Z M 3.30000000292969 5.69999999707031  C 3.15 5.54999999414062  2.925 5.54999999414062  2.77499999707031 5.69999999707031  L 1.42499999707031 7.04999999707031  L 0.749999997070313 7.72499999707031  L 0.749999997070313 6.37499999707031  C 0.749999997070313 6.14999999707031  0.600000002929687 6.00000000292969  0.375000002929687 6.00000000292969  C 0.150000002929687 6.00000000292969  0 6.15000000585938  0 6.37499999707031  L 0 8.62499999707031  C 0 8.84999999707031  0.150000002929688 9  0.375000002929687 9  L 2.62500000292969 9  C 2.85000000292969 9  3.00000000585938 8.84999999707031  2.99999999707031 8.62499999707031  C 2.99999998828125 8.39999999707031  2.84999999414063 8.24999999414062  2.62500000292969 8.25000000292969  L 1.27500000292969 8.25000000292969  L 1.95000000292969 7.57500000292969  L 3.30000000292969 6.22500000292969  C 3.45000000585938 6.075  3.45000000585938 5.85  3.30000000292969 5.69999999707031  Z M 9 6.37499999707031  C 9 6.14999999707031  8.84999999707031 5.99999999414063  8.62499999707031 6.00000000292969  C 8.39999999707031 6.00000000292969  8.24999999414063 6.15000000585938  8.25000000292969 6.37499999707031  L 8.25000000292969 7.72499999707031  L 7.57500000292969 7.04999999707031  L 6.22500000292969 5.69999999707031  C 6.075 5.54999999414063  5.85 5.54999999414063  5.69999999707031 5.69999999707031  C 5.54999999414063 5.85  5.54999999414063 6.075  5.69999999707031 6.22500000292969  L 7.04999999707031 7.57500000292969  L 7.72499999707031 8.25000000292969  L 6.37499999707031 8.25000000292969  C 6.14999999707031 8.25000000292969  5.99999999414063 8.40000000585938  6.00000000292969 8.62499999707031  C 6.00000001171875 8.84999998828125  6.15000000585938 9  6.37499999707031 9  L 8.62499999707031 9  C 8.84999999707031 9  9 8.84999999707031  9 8.62499999707031  L 9 6.37499999707031  Z M 9 0.375000002929689  C 9 0.150000002929689  8.84999999707031 0  8.62499999707031 0  L 6.37499999707031 0  C 6.14999999707031 0  5.99999999414063 0.150000002929688  6.00000000292969 0.375000002929688  C 6.00000001171875 0.600000002929688  6.15000000585938 0.750000005859376  6.37499999707031 0.749999997070314  L 7.72499999707031 0.749999997070314  L 7.04999999707031 1.42499999707031  L 5.69999999707031 2.77499999707031  C 5.54999999414063 2.925  5.54999999414063 3.15  5.69999999707031 3.30000000292969  C 5.85 3.45000000585938  6.075 3.45000000585938  6.22500000292969 3.30000000292969  L 7.57500000292969 1.95000000292969  L 8.25000000292969 1.27500000292969  L 8.25000000292969 2.62500000292969  C 8.25000000292969 2.85000000292969  8.40000000585938 3.00000000585938  8.62499999707031 2.99999999707031  C 8.84999998828125 2.99999998828125  9 2.84999999414063  9 2.62500000292969  L 9 0.375000002929689  Z " fill-rule="nonzero" fill="#000000" stroke="none" />
  </g>
</svg>