<?xml version="1.0" encoding="utf-8"?>
<svg version="1.1" xmlns:xlink="http://www.w3.org/1999/xlink" width="5px" height="9px" xmlns="http://www.w3.org/2000/svg">
  <g transform="matrix(1 0 0 1 -388 -701 )">
    <path d="M 4.87538270415473 4.2723401655872  L 0.641708590512849 0.174463146156484  C 0.507306232448741 0.0443718071246053  0.305702713727896 0.0443718071246053  0.171300355663789 0.174463146156484  C 0.0368979975996808 0.304554485188362  0.0368979975996808 0.499691475950272  0.171300355663789 0.62978281498215  L 4.16977035188108 4.5  L 0.171300355663789 8.37021718501785  C 0.0368979975996808 8.50030852404973  0.0368979975996808 8.69544551481164  0.171300355663789 8.82553685384352  C 0.238501534695843 8.89058252335946  0.339303294056208 8.92310534922444  0.406504473088262 8.92310534922444  C 0.473705652120429 8.92310534922444  0.574507411480795 8.89058252335946  0.641708590512849 8.82553685384352  L 4.87538270415473 4.7276598344128  C 5.00978506221884 4.59756849538093  5.00978506221884 4.40243150461907  4.87538270415473 4.2723401655872  Z " fill-rule="nonzero" fill="#000000" stroke="none" fill-opacity="0.647058823529412" transform="matrix(1 0 0 1 388 701 )" />
  </g>
</svg>