<?xml version="1.0" encoding="utf-8"?>
<svg version="1.1" xmlns:xlink="http://www.w3.org/1999/xlink" width="15px" height="15px" xmlns="http://www.w3.org/2000/svg">
  <g transform="matrix(1 0 0 1 -777 -245 )">
    <path d="M 14.6526315789474 13.40625  L 8.63684210526316 7.5  L 14.6526315789474 1.546875  C 14.9526315789474 1.25  14.9526315789474 0.765624999999999  14.6526315789474 0.421875  L 14.6052631578947 0.375000000000001  C 14.3052631578947 0.078125  13.8157894736842 0.078125  13.5157894736842 0.375000000000001  L 7.5 6.375  L 1.48421052631579 0.421875  C 1.18421052631579 0.125000000000001  0.694736842105263 0.125000000000001  0.394736842105262 0.421875  L 0.347368421052631 0.468750000000001  C 0.04736842105263 0.765625000000001  0.04736842105263 1.25  0.347368421052631 1.59375  L 6.36315789473684 7.5  L 0.347368421052632 13.453125  C 0.0473684210526323 13.75  0.0473684210526323 14.234375  0.347368421052632 14.578125  L 0.394736842105264 14.625  C 0.694736842105264 14.921875  1.18421052631579 14.921875  1.48421052631579 14.625  L 7.5 8.625  L 13.5157894736842 14.578125  C 13.8157894736842 14.875  14.3052631578947 14.875  14.6052631578947 14.578125  L 14.6526315789474 14.53125  C 14.9526315789474 14.234375  14.9526315789474 13.75  14.6526315789474 13.40625  Z " fill-rule="nonzero" fill="#1a1a1a" stroke="none" transform="matrix(1 0 0 1 777 245 )" />
  </g>
</svg>