<?xml version="1.0" encoding="utf-8"?>
<svg version="1.1" xmlns:xlink="http://www.w3.org/1999/xlink" width="24px" height="24px" xmlns="http://www.w3.org/2000/svg">
  <g transform="matrix(1 0 0 1 -676 -376 )">
    <path d="M 12.75 5.25  C 12.75 5.7  12.45 6  12 6  C 11.55 6  11.25 5.7  11.25 5.25  L 11.25 0.75  C 11.25 0.375  11.55 0  12 0  C 12.375 0  12.75 0.300000000000002  12.75 0.75  L 12.75 5.25  Z M 12.75 23.25  C 12.75 23.7  12.45 24  12 24  C 11.55 24  11.25 23.7  11.25 23.25  L 11.25 18.75  C 11.25 18.375  11.55 18  12 18  C 12.375 18  12.75 18.3  12.75 18.75  L 12.75 23.25  Z M 16.05 6.525  C 15.825 6.9  15.375 6.975  15 6.825  C 14.625 6.6  14.55 6.15  14.7 5.775  L 16.95 1.875  C 17.175 1.5  17.625 1.425  18 1.575  C 18.375 1.8  18.45 2.25  18.3 2.625  L 16.05 6.525  Z M 7.05000000000003 22.125  C 6.82499999999997 22.5  6.375 22.575  6 22.425  C 5.625 22.2  5.55000000000003 21.75  5.69999999999997 21.375  L 7.94999999999997 17.475  C 8.17500000000003 17.1  8.625 17.025  9 17.175  C 9.375 17.4  9.44999999999997 17.85  9.30000000000003 18.225  L 7.05000000000003 22.125  Z M 23.25 11.25  C 23.7 11.25  24 11.55  24 12  C 24 12.45  23.7 12.75  23.25 12.75  L 18.75 12.75  C 18.375 12.75  18 12.45  18 12  C 18 11.625  18.3 11.25  18.75 11.25  L 23.25 11.25  Z M 5.25 11.25  C 5.69999999999997 11.25  6 11.55  6 12  C 6 12.45  5.69999999999997 12.75  5.25 12.75  L 0.75 12.75  C 0.375 12.75  0 12.45  0 12  C 0 11.625  0.30000000000003 11.25  0.75 11.25  L 5.25 11.25  Z M 2.625 18.3  C 2.25 18.45  1.80000000000003 18.375  1.57499999999997 18  C 1.34999999999998 17.625  1.5 17.175  1.875 16.95  L 5.77500000000002 14.7  C 6.15000000000002 14.475  6.59999999999998 14.625  6.82499999999997 15  C 7.05000000000003 15.375  6.90000000000002 15.825  6.52500000000002 16.05  L 2.625 18.3  Z M 18.225 9.3  C 17.85 9.45  17.4 9.375  17.175 9  C 16.95 8.625  17.1 8.175  17.475 7.95  L 21.375 5.7  C 21.75 5.55  22.2 5.625  22.425 6  C 22.65 6.375  22.5 6.825  22.125 7.05  L 18.225 9.3  Z M 22.125 16.95  C 22.5 17.175  22.575 17.625  22.425 18  C 22.2 18.375  21.75 18.45  21.375 18.3  L 17.475 16.05  C 17.1 15.825  17.025 15.375  17.175 15  C 17.4 14.625  17.85 14.55  18.225 14.7  L 22.125 16.95  Z M 6.52500000000002 7.95  C 6.90000000000002 8.175  6.97499999999998 8.625  6.82499999999997 9  C 6.59999999999998 9.375  6.15000000000002 9.45  5.77500000000002 9.3  L 1.875 7.05  C 1.5 6.825  1.42500000000003 6.375  1.57499999999997 6  C 1.80000000000003 5.625  2.25 5.55  2.625 5.7  L 6.52500000000002 7.95  Z M 18.375 21.225  C 18.675 21.6  18.525 22.05  18.15 22.275  C 17.775 22.5  17.325 22.35  17.1 22.05  L 14.775 18.225  C 14.55 17.85  14.7 17.4  15 17.175  C 15.375 16.95  15.825 17.1  16.05 17.4  L 18.375 21.225  Z M 9.15000000000002 5.775  C 9.375 6.15  9.30000000000003 6.675  8.92500000000003 6.825  C 8.55000000000003 7.05  8.09999999999998 6.9  7.875 6.6  L 5.55000000000003 2.775  C 5.32499999999997 2.4  5.47499999999998 1.95  5.84999999999998 1.725  C 6.15000000000002 1.5  6.67500000000003 1.65  6.82499999999997 1.95  L 9.15000000000002 5.775  Z " fill-rule="nonzero" fill="#188cea" stroke="none" transform="matrix(1 0 0 1 676 376 )" />
  </g>
</svg>