<?xml version="1.0" encoding="utf-8"?>
<svg version="1.1" xmlns:xlink="http://www.w3.org/1999/xlink" width="14px" height="15px" xmlns="http://www.w3.org/2000/svg">
  <g transform="matrix(1 0 0 1 -456 -841 )">
    <path d="M 14 13.2479304635762  C 13.9436241610738 14.5889900662252  12.8689597315436 14.3331953642384  12.1877516778523 14.0240066225166  L 2.34546979865772 8.79635761589404  L 2.35604026845638 13.9333609271523  C 2.35604026845638 14.5219370860927  1.83691275167785 14.9987582781457  1.19563758389262 15  C 0.553187919463088 15  0.0317114093959734 14.5256622516556  0.0305369127516781 13.9370860927152  L 0.0164429530201346 7.55960264900662  L 0 7.54966887417218  L 0.016442953020134 7.54097682119205  L 0.00352348993288537 1.16597682119205  C 0.00234899328859047 0.577400662251655  0.520302013422819 0.0993377483443708  1.16275167785235 0.0993377483443708  C 1.80520134228188 0.0980960264900663  2.32667785234899 0.573675496688742  2.32785234899329 1.16100993377483  L 2.33959731543624 6.2967715231788  L 11.3679530201342 1.45778145695364  C 12.3744966442953 0.897764900662251  13.9494966442953 0.224751655629139  14 2.58402317880795  L 14 13.2479304635762  Z " fill-rule="nonzero" fill="#169bd5" stroke="none" transform="matrix(1 0 0 1 456 841 )" />
  </g>
</svg>