<?xml version="1.0" encoding="utf-8"?>
<svg version="1.1" xmlns:xlink="http://www.w3.org/1999/xlink" width="15px" height="15px" xmlns="http://www.w3.org/2000/svg">
  <g transform="matrix(1 0 0 1 -560 -841 )">
    <path d="M 6.22350993377484 1.93566176470588  C 6.22723509933775 0.0165441176470587  6.81953642384106 -0.0951286764705887  7.41307947019868 0.227481617647059  L 7.57450331125828 0.325367647058824  L 7.73344370860927 0.438419117647059  L 7.88741721854305 0.561121323529412  L 14.3456125827815 6.05790441176471  C 14.7280629139073 6.43841911764706  14.9118377483444 6.91957720588236  14.9006622516556 7.5  C 14.8882450331126 8.08042279411765  14.7019867549669 8.52573529411765  14.3418874172185 8.83318014705882  L 7.46026490066225 14.6374080882353  L 7.32367549668874 14.7284007352941  C 6.85182119205298 15.0179227941177  6.23096026490066 15.1282169117647  6.20860927152318 13.7771139705882  L 6.2135761589404 10.4545036764706  L 1.25165562913907 14.6374080882353  L 1.11506622516556 14.7284007352941  C 0.643211920529802 15.0179227941177  0.0223509933774843 15.1282169117647  0 13.7771139705882  L 0 1.93566176470588  C 0.0186258278145695 0.0165441176470595  0.612168874172186 -0.0951286764705875  1.2044701986755 0.22748161764706  L 1.3658940397351 0.325367647058825  L 1.52483443708609 0.43841911764706  L 1.67880794701987 0.561121323529412  L 6.22350993377484 4.4296875  L 6.22350993377484 1.93566176470588  Z " fill-rule="nonzero" fill="#169bd5" stroke="none" transform="matrix(1 0 0 1 560 841 )" />
  </g>
</svg>