<?xml version="1.0" encoding="utf-8"?>
<svg version="1.1" xmlns:xlink="http://www.w3.org/1999/xlink" width="15px" height="15px" xmlns="http://www.w3.org/2000/svg">
  <g transform="matrix(1 0 0 1 -420 -841 )">
    <path d="M 8.77649006622516 1.93566176470588  C 8.77276490066225 0.0165441176470587  8.18046357615894 -0.0951286764705887  7.58692052980132 0.227481617647059  L 7.42549668874172 0.325367647058824  L 7.26655629139073 0.438419117647059  L 7.11258278145695 0.561121323529412  L 0.654387417218544 6.05790441176471  C 0.279875428364884 6.4185765483262  0.0752563838349131 6.95020504561746  0.0993377483443709 7.5  C 0.111754966887417 8.08042279411765  0.298013245033113 8.52573529411765  0.658112582781457 8.83318014705882  L 7.53973509933775 14.6374080882353  L 7.67632450331126 14.7284007352941  C 8.14817880794702 15.0179227941177  8.76903973509934 15.1282169117647  8.79139072847682 13.7771139705882  L 8.7864238410596 10.4545036764706  L 13.7483443708609 14.6374080882353  L 13.8849337748344 14.7284007352941  C 14.3567880794702 15.0179227941177  14.9776490066225 15.1282169117647  15 13.7771139705882  L 14.983857615894 1.93566176470588  C 14.9813741721854 0.0165441176470595  14.3878311258278 -0.0951286764705875  13.7955298013245 0.22748161764706  L 13.6341059602649 0.325367647058825  L 13.4751655629139 0.43841911764706  L 13.3211920529801 0.561121323529412  L 8.77649006622516 4.4296875  L 8.77649006622516 1.93566176470588  Z " fill-rule="nonzero" fill="#169bd5" stroke="none" transform="matrix(1 0 0 1 420 841 )" />
  </g>
</svg>