<?xml version="1.0" encoding="utf-8"?>
<svg version="1.1" xmlns:xlink="http://www.w3.org/1999/xlink" width="14px" height="15px" xmlns="http://www.w3.org/2000/svg">
  <g transform="matrix(1 0 0 1 -385 -841 )">
    <path d="M 11.9408333333333 2.17301324503311  L 14 0  L 14 6.51158940397351  L 13.9451666666667 6.51158940397351  L 13.9451666666667 6.51903973509934  L 12.1345 6.51903973509934  L 12.1333333333333 6.51158940397351  L 7.83183333333333 6.51158940397351  L 10.6785 3.5078642384106  C 9.69332592330693 2.45502770586482  8.35472545026869 1.86318890481702  6.95863037393796 1.86318890481702  C 4.05913543732629 1.86318890481702  1.70863037393796 4.36490905269959  1.70863037393796 7.45093724918788  C 1.70863037393796 10.5369654456762  4.05913543732629 13.0386855935587  6.95863037393796 13.0386855935587  C 9.18325862355924 13.0386855935587  11.1663708684667 11.5463920650081  11.9081666666667 9.31415562913907  L 13.7783333333333 9.31291390728477  C 12.9806004188594 12.6027551868088  10.1926932047669 14.901443210905  7.00042306521166 14.901443210905  C 3.1344298163961 14.901443210905  0.000423065211658506 11.5658163470616  0.000423065211658506 7.45111208507723  C 0.000423065211658506 3.33640782309284  3.1344298163961 0.000780959249409239  7.00042306521166 0.000780959249409239  C 8.85236747457273 0.000780959249409239  10.6288452520266 0.781874466414691  11.9408333333333 2.17301324503311  Z " fill-rule="nonzero" fill="#169bd5" stroke="none" transform="matrix(1 0 0 1 385 841 )" />
  </g>
</svg>