<?xml version="1.0" encoding="utf-8"?>
<svg version="1.1" xmlns:xlink="http://www.w3.org/1999/xlink" width="13px" height="15px" xmlns="http://www.w3.org/2000/svg">
  <g>
    <path d="M 2.60515873015873 13.5  C 2.60515873015873 14.32875  2.18343253968254 15  1.32837301587302 15  C 0.473313492063492 15  0.0515873015873016 14.32875  0 13.5  L 0 1.5  C 0.0515873015873016 0.67125  0.473313492063492 0  1.32837301587302 0  C 2.18343253968254 0  2.60515873015873 0.67125  2.60515873015873 1.5  L 2.60515873015873 13.5  Z M 13 13.5  C 12.922619047619 14.32875  12.5008928571429 15  11.6458333333333 15  C 10.7907738095238 15  10.3690476190476 14.32875  10.3690476190476 13.5  L 10.3690476190476 1.5  C 10.3690476190476 0.67125  10.7907738095238 0  11.6458333333333 0  C 12.5008928571429 0  12.922619047619 0.67125  13 1.5  L 13 13.5  Z " fill-rule="nonzero" fill="#169bd5" stroke="none" />
  </g>
</svg>