<?xml version="1.0" encoding="utf-8"?>
<svg version="1.1" xmlns:xlink="http://www.w3.org/1999/xlink" width="14px" height="15px" xmlns="http://www.w3.org/2000/svg">
  <g transform="matrix(1 0 0 1 -525 -841 )">
    <path d="M 0 13.2479304635762  C 0.0340604026845635 14.5889900662252  1.10755033557047 14.3331953642384  1.78993288590604 14.0240066225166  L 11.6322147651007 8.79635761589404  L 11.621644295302 13.9333609271523  C 11.621644295302 14.5219370860927  12.1407718120805 14.9987582781457  12.7820469798658 15  C 13.4244966442953 15  13.9459731543624 14.5256622516556  13.9471476510067 13.9370860927152  L 13.9612416107383 7.55960264900662  L 13.9765100671141 7.54966887417218  L 13.960067114094 7.54097682119205  L 13.9729865771812 1.16597682119205  C 13.9765100671141 0.577400662251655  13.4562080536913 0.0993377483443708  12.8137583892617 0.0993377483443708  C 12.1724832214765 0.0980960264900663  11.6510067114094 0.573675496688742  11.6486577181208 1.16100993377483  L 11.6380872483221 6.2967715231788  L 2.60973154362416 1.45778145695364  C 1.60318791946309 0.897764900662251  0.0281879194630873 0.223509933774834  0 2.58278145695364  L 0 13.2479304635762  Z " fill-rule="nonzero" fill="#169bd5" stroke="none" transform="matrix(1 0 0 1 525 841 )" />
  </g>
</svg>