<?xml version="1.0" encoding="utf-8"?>
<svg version="1.1" xmlns:xlink="http://www.w3.org/1999/xlink" width="19px" height="15px" xmlns="http://www.w3.org/2000/svg">
  <g transform="matrix(1 0 0 1 -357 -811 )">
    <path d="M 12.1263970822704 7.86798828125  C 11.5059889190051 7.62267578125  11.0613580197704 7.01466796875  11.0613580197704 6.278671875  C 11.0613580197704 5.55333984375  11.5059889190051 4.93466796875  12.1263970822704 4.6893359375  C 11.9816326530612 4.0919921875  11.7541673309949 3.52666015625  11.4542819276148 3.003984375  C 10.8442113759566 3.281328125  10.1100705516582 3.16400390625  9.61373266103316 2.6519921875  C 9.11741370376275 2.14  9.00368104272959 1.38265625  9.27251574457908 0.75333984375  C 8.7590870748201 0.450750707089382  8.20997991929301 0.21771618825671  7.63877551020408 0.0600000000000008  C 7.40095364317602 0.700000000000001  6.801220703125 1.158671875  6.09809271364796 1.158671875  C 5.39496472417092 1.158671875  4.7952317841199 0.700000000000001  4.55740991709184 0.0600000000000008  C 3.97837113360969 0.209335937500001  3.43034518494898 0.443984375  2.92366968271684 0.75333984375  C 3.19252331792092 1.38267578125  3.07877172353316 2.14  2.58245276626276 2.6519921875  C 2.08613380899235 3.163984375  1.35197405133929 3.281328125  0.741903499681122 3.00400390625  C 0.442037029655612 3.52666015625  0.214552774234694 4.0919921875  0.0697883450255101 4.6893359375  C 0.690196508290816 4.9346484375  1.13482740752551 5.55333984375  1.13482740752551 6.278671875  C 1.13482740752551 7.00400390625  0.690196508290816 7.62267578125  0.0697883450255101 7.8680078125  C 0.214552774234694 8.46533203125  0.442037029655612 9.0306640625  0.741922433035714 9.55333984375  C 1.35195511798469 9.27599609375  2.08611487563776 9.39333984375  2.58243383290816 9.90533203125  C 3.07877172353316 10.41732421875  3.19252331792092 11.17466796875  2.92366968271684 11.80400390625  C 3.43032625159439 12.11333984375  3.97837113360969 12.3480078125  4.55742885044643 12.49732421875  C 4.7952317841199 11.85732421875  5.39496472417092 11.398671875  6.09809271364796 11.398671875  C 6.801220703125 11.398671875  7.40095364317602 11.85732421875  7.63877551020408 12.49732421875  C 8.21781429368622 12.3480078125  8.76585917570153 12.11333984375  9.27253467793367 11.80400390625  C 9.00368104272959 11.17466796875  9.11741370376276 10.41732421875  9.61373266103316 9.90533203125  C 10.1100705516582 9.39333984375  10.8442113759566 9.27599609375  11.4542819276148 9.55333984375  C 11.7541483976403 9.03068359375  11.9816326530612 8.46533203125  12.1263970822704 7.86798828125  Z M 6.09809271364796 7.98533203125  C 5.18815569196429 7.98533203125  4.44367725605867 7.21732421875  4.44367725605867 6.278671875  C 4.44367725605867 5.34001953125  5.18815569196429 4.5719921875  6.09809271364796 4.5719921875  C 7.00802973533163 4.5719921875  7.75250817123724 5.34  7.75250817123724 6.278671875  C 7.75250817123724 7.21734375  7.00802973533163 7.98533203125  6.09811164700255 7.98533203125  Z M 12.901907286352 2.3319921875  L 12.901907286352 0.76400390625  L 18.9302116549745 0.76400390625  L 18.9302116549745 2.3319921875  L 12.901907286352 2.3319921875  Z M 12.901907286352 8.64666015625  L 12.901907286352 7.07865234375  L 18.9302116549745 7.07865234375  L 18.9302116549745 8.64666015625  L 12.901907286352 8.64666015625  Z M 3.13047871492347 15  L 3.13047871492347 13.393359375  L 18.9302116549745 13.393359375  L 18.9302116549745 15  L 3.13047871492347 15  Z " fill-rule="nonzero" fill="#7f7f7f" stroke="none" transform="matrix(1 0 0 1 357 811 )" />
  </g>
</svg>