<?xml version="1.0" encoding="utf-8"?>
<svg version="1.1" xmlns:xlink="http://www.w3.org/1999/xlink" width="35px" height="36px" xmlns="http://www.w3.org/2000/svg">
  <g transform="matrix(1 0 0 1 -12 -830 )">
    <path d="M 8.8399074388587 8.38096733668342  L 17.158203125 4.02795226130653  L 26.1600925611413 8.70603015075377  L 17.841796875 13.0590452261307  L 8.8399074388587 8.38096733668342  Z M 17.3402471127717 0.0989321608040201  C 17.2808041779891 0.0671325376884422  17.2176460597826 0.0529993718592965  17.1507727581522 0.0529993718592965  C 17.0876146399457 0.0529993718592965  17.0207413383152 0.0671325376884422  16.9612984035326 0.0989321608040201  L 1.73647673233696 8.06297110552764  C 1.4652683423913 8.2043027638191  1.46898352581522 8.57176507537688  1.73647673233696 8.71309673366834  L 17.6597528872283 16.9880653266332  C 17.7191958220109 17.0198649497487  17.7823539402174 17.0339981155779  17.8455120584239 17.0339981155779  C 17.9086701766304 17.0339981155779  17.9755434782609 17.0198649497487  18.0349864130435 16.9880653266332  L 33.263523267663 9.02049309045226  C 33.5347316576087 8.8791614321608  33.5310164741848 8.51169912060301  33.263523267663 8.37036746231156  L 17.3402471127717 0.0989321608040201  Z M 22.5675101902174 20.9983511306533  L 31.1607294497283 16.5004711055276  L 31.131007982337 25.7329616834171  L 22.5377887228261 30.2308417085427  L 22.5675101902174 20.9983511306533  Z M 34.890773607337 11.1440012562814  C 34.8944887907609 10.9284704773869  34.7050144361413 10.7730056532663  34.5006793478261 10.7730056532663  C 34.4375212296196 10.7730056532663  34.374363111413 10.7871388190955  34.3149201766304 10.8189384422111  L 19.0566618546196 18.8006438442211  C 18.9340608016304 18.8642430904523  18.8560419497283 18.9879082914573  18.8560419497283 19.1257066582915  L 18.8040293817935 35.5873115577889  C 18.8040293817935 35.8028423366834  18.9897885529891 35.958307160804  19.1941236413043 35.958307160804  C 19.2572817595109 35.958307160804  19.3204398777174 35.9441739949749  19.3798828125 35.9123743718593  L 34.6381411345109 27.9306689698493  C 34.7607421875 27.8670697236181  34.8387610394022 27.7434045226131  34.8387610394022 27.6056061557789  L 34.890773607337 11.1440012562814  Z M 3.828125 25.4255653266332  L 3.85784646739131 16.1577418341709  L 13.1755264945652 20.9983511306533  L 13.1458050271739 30.2697079145729  L 3.828125 25.4255653266332  Z M 0.737092391304348 10.5080087939698  C 0.673934273097826 10.4762091708543  0.610776154891304 10.4620760050251  0.551333220108696 10.4620760050251  C 0.346998131793479 10.4620760050251  0.161238960597826 10.6175408291457  0.161238960597826 10.8330716080402  L 0.109226392663044 27.298209798995  C 0.109226392663044 27.4324748743719  0.187245244565218 27.5596733668342  0.313561480978261 27.6232726130653  L 16.2702742866848 35.9159076633166  C 16.3297172214674 35.9477072864322  16.3965905230978 35.9618404522613  16.4560334578804 35.9618404522613  C 16.6603685461957 35.9618404522613  16.8461277173913 35.8063756281407  17 35.5908448492462  L 17 19.1257066582915  C 16.8981402853261 18.9879082914573  16.8201214334239 18.8642430904523  16.6938051970109 18.8006438442211  L 0.737092391304348 10.5080087939698  Z " fill-rule="nonzero" fill="#39bbdb" stroke="none" transform="matrix(1 0 0 1 12 830 )" />
  </g>
</svg>