<?xml version="1.0" encoding="utf-8"?>
<svg version="1.1" xmlns:xlink="http://www.w3.org/1999/xlink" width="28px" height="28px" xmlns="http://www.w3.org/2000/svg">
  <g transform="matrix(1 0 0 1 -287 -301 )">
    <path d="M 27.9363636363636 14.060321969697  C 27.9363636363636 21.7298295454545  21.6953598484848 27.9708333333333  14.0258522727273 27.9708333333333  C 6.3563446969697 27.9708333333333  0.115340909090909 21.7298295454545  0.115340909090909 14.060321969697  C 0.115340909090909 6.39081439393939  6.3563446969697 0.149810606060606  14.0258522727273 0.149810606060606  C 21.6953598484848 0.149810606060606  27.9363636363636 6.39081439393939  27.9363636363636 14.060321969697  Z M 26.080303030303 14.060321969697  C 26.080303030303 7.41496212121212  20.6745265151515 2.00587121212121  14.0258522727273 2.00587121212121  C 7.37717803030303 2.00587121212121  1.97140151515152 7.41496212121212  1.97140151515152 14.060321969697  C 1.97140151515152 20.7056818181818  7.37717803030303 26.1147727272727  14.0258522727273 26.1147727272727  C 20.6745265151515 26.1147727272727  26.080303030303 20.7056818181818  26.080303030303 14.060321969697  Z " fill-rule="nonzero" fill="#ffffff" stroke="none" transform="matrix(1 0 0 1 287 301 )" />
  </g>
</svg>