<?xml version="1.0" encoding="utf-8"?>
<svg version="1.1" xmlns:xlink="http://www.w3.org/1999/xlink" width="28px" height="26px" xmlns="http://www.w3.org/2000/svg">
  <g transform="matrix(1 0 0 1 -287 -211 )">
    <path d="M 26.8056649251701 8.83388547792412  C 28.3938833306645 7.34709281690205  28.3938833306645 4.94140883030386  26.8056649251701 3.45461616928178  L 24.3878990748299 1.18191575564899  C 23.6249957931938 0.46601282957622  22.5877442833257 0.0634904886582865  21.5058520952381 0.0634904886582865  C 20.4239599071505 0.0634904886582865  19.3867083972824 0.46601282957622  18.6238051156463 1.18191575564899  L 1.85712448979592 16.7801617260257  C 1.25594223884139 17.3176820303389  0.919841665195348 18.0633683508749  0.928562258503401 18.8403074322048  L 0.928562258503401 24.1051242002041  L 0.805921959183674 24.1051242002041  L 0.26280062585034 24.5956350850462  C 0.0978461832643924 24.7495767792692  0.00517574267025826 24.9583665203792  0.00517574267025826 25.1760729497829  C 0.00517574267025826 25.6294231268053  0.398979984829679 25.9969360591867  0.884762136054422 25.9969360591867  C 1.11804295515211 25.9969360591867  1.34176919895797 25.9104525131425  1.5067236462585 25.7565108145196  L 2.0148048707483 25.2823503035098  L 7.9015391292517 25.2823503035098  C 8.72635160572122 25.2784706775751  9.51511614490538 24.9663622654607  10.0915444353742 24.4157810744686  L 26.8056649251701 8.83388547792412  Z M 9.23306236734694 19.8703802725972  L 9.28562250340136 19.8049788280567  L 7.00801697959184 19.8049788280567  L 7.00801697959184 17.6303805812346  C 7.00801697959184 17.1788777837024  6.61581747019084 16.8128624482959  6.13201485714286 16.8128624482959  L 4.3800106122449 16.8128624482959  L 17.765323047619 4.37023646903126  L 23.406776707483 9.71680505540335  L 10.1090644897959 22.1757814085002  L 10.1090644897959 20.704248753974  C 10.109181298871 20.698799313758  10.1092397077897 20.6933489196137  10.1092397077897 20.6878983891823  C 10.1092397077897 20.2363955916501  9.71704019838867 19.8703802562436  9.23323758534069 19.8703802562436  Z M 7.97161931972789 23.7127154821728  L 2.68056650340136 23.7127154821728  L 2.68056650340136 18.8076066845403  C 2.65984822084755 18.6829994981095  2.65984822084755 18.5561555521662  2.68056650340136 18.4315483657354  L 5.25601273469388 18.4315483657354  L 5.25601273469388 20.6878984055359  C 5.25601273469388 21.1394012030682  5.64821224409488 21.5054165384747  6.13201485714286 21.5054165384747  L 8.40962038095238 21.5054165384747  L 8.40962038095238 23.6309636891943  C 8.26988885056618 23.6819805603299  8.12162786332461 23.7096530995285  7.97161931972789 23.7127154821728  Z M 25.5792619591837 4.61549192414942  C 26.4881928381486 5.46455600642162  26.4881928381486 6.84029601461652  25.5792619591837 7.68936009688872  L 24.6506997278912 8.57227967436796  L 18.9216458231293 3.22571108799586  L 19.8677281360544 2.34279151051663  C 20.3023412215271 1.93137959405222  20.8955550209923 1.69975566738276  21.514612122449 1.69975566738276  C 22.1336692239057 1.69975566738276  22.7268830233709 1.93137959405222  23.1614961088435 2.34279151051663  L 25.5792619591837 4.61549192414942  Z " fill-rule="nonzero" fill="#ffffff" stroke="none" transform="matrix(1 0 0 1 287 211 )" />
  </g>
</svg>