<?xml version="1.0" encoding="utf-8"?>
<svg version="1.1" xmlns:xlink="http://www.w3.org/1999/xlink" width="28px" height="28px" xmlns="http://www.w3.org/2000/svg">
  <g transform="matrix(1 0 0 1 -287 -387 )">
    <path d="M 12.1746926229508 27.91796875  L 27.8579021516393 12.2325179303279  L 21.6818007172131 6.05820952868852  L 5.99859118852459 21.7436603483607  L 12.1746926229508 27.91796875  Z M 20.1016905737705 9.18301741803279  L 20.8856941598361 8.39856557377049  L 24.7456454918033 12.2576203893443  L 23.9616419057377 13.0416239754098  L 20.1016905737705 9.18301741803279  Z M 17.7492315573771 11.535924692623  L 18.5332351434426 10.7514728483607  L 20.8493852459016 13.0667264344262  L 20.0653816598361 13.8511782786885  L 17.7492315573771 11.535924692623  Z M 15.3963242827869 13.8888319672131  L 16.1803278688525 13.1043801229508  L 18.4964779713115 15.4196337090164  L 17.7124743852459 16.2040855532787  L 15.3963242827869 13.8888319672131  Z M 13.0438652663934 16.2412909836066  L 13.827868852459 15.4568391393443  L 16.144018954918 17.7720927254098  L 15.3600153688525 18.5565445696721  L 13.0438652663934 16.2412909836066  Z M 10.6918545081967 18.5941982581967  L 11.4758580942623 17.8097464139344  L 13.7920081967213 20.125  L 13.0080046106557 20.9094518442623  L 10.6918545081967 18.5941982581967  Z M 8.33939549180328 20.9471055327869  L 9.12339907786885 20.1626536885246  L 12.9833504098361 24.0217085040984  L 12.1993468237705 24.8061603483607  L 8.33939549180328 20.9471055327869  Z M 11.2911757172131 7.83331198770492  C 11.0370133196721 7.57914959016393  10.6250640368852 7.57914959016393  10.3709016393443 7.83331198770492  L 8.00230532786886 10.2019082991803  C 7.74814293032787 10.4560706967213  7.74814293032787 10.8680199795082  8.00230532786886 11.1221823770492  C 8.25646772540984 11.3763447745902  8.66841700819672 11.3763447745902  8.92257940573771 11.1221823770492  L 11.2911757172131 8.75358606557377  C 11.5453381147541 8.49942366803278  11.5453381147541 8.0874743852459  11.2911757172131 7.83331198770492  Z M 5.95242059426229 13.1711705942623  C 5.69870645491803 12.9170081967213  5.28675717213115 12.9170081967213  5.03259477459016 13.1711705942623  L 2.66399846311475 15.5397669057377  C 2.63844774590164 15.5653176229508  2.61513831967213 15.5931096311475  2.59451844262295 15.6217981557377  L 1.74910348360656 14.7763831967213  C 1.73789702868852 14.7651767418033  1.72848360655738 14.7526255122951  1.72041495901639 14.7391777663934  L 1.24212346311475 14.2608862704918  C 1.12378329918033 14.1425461065574  0.94627305327869 14.0537909836066  0.769211065573771 14.0533427254098  C 0.414638831967213 14.0533427254098  0.11968493852459 14.3482966188525  0.11968493852459 14.702868852459  C 0.11968493852459 14.8799308401639  0.208888319672131 15.0578893442623  0.327228483606557 15.17578125  L 3.78419569672131 18.6331967213115  C 3.90253586065574 18.7515368852459  4.09439036885246 18.8550845286885  4.27145235655738 18.8550845286885  C 4.62602459016394 18.8550845286885  4.92097848360656 18.5601306352459  4.92097848360656 18.2055584016393  C 4.92097848360656 18.0284964139344  4.81743084016394 17.836193647541  4.69909067622951 17.7183017418033  L 4.37231045081967 17.3910732581967  C 4.35841444672131 17.3830046106557  4.34541495901639 17.3731429303279  4.33376024590164 17.3614882172131  L 3.50179303278688 16.5295210040984  C 3.53048155737705 16.5089011270492  3.55782530737705 16.4860399590164  3.58382428278688 16.4600409836066  L 5.95242059426229 14.0914446721312  C 6.20658299180328 13.8372822745902  6.20658299180328 13.4253329918033  5.95242059426229 13.1711705942623  Z M 18.9590804303279 4.16790471311476  C 18.9590804303279 3.93212090163935  18.8851178278689 3.79898821721312  18.7371926229508 3.68109631147541  L 15.2811219262295 0.222784323770492  C 15.1627817622951 0.074859118852459  15.0296490778688 0.000896516393442623  14.8225537909836 0.000448258196721311  C 14.467981557377 0.000448258196721311  14.1456839139344 0.322745901639344  14.1461321721311 0.67686987704918  C 14.1461321721311 0.853931864754098  14.2353355532787 1.03189036885246  14.3536757172131 1.14978227459016  L 15.7038294057377 2.49993596311475  L 13.3406121926229 4.86315317622951  C 13.086449795082 5.11731557377049  13.086449795082 5.52926485655738  13.3406121926229 5.78342725409836  C 13.5947745901639 6.03758965163935  14.0067238729508 6.03758965163935  14.2608862704918 5.78342725409836  L 16.6294825819672 3.41483094262295  C 16.6317238729508 3.41258965163934  16.6335169057377 3.41079661885246  16.6353099385246 3.40855532786885  L 17.8222976434426 4.59554303278689  C 17.940637807377 4.71388319672131  18.1324923155738 4.81743084016394  18.3095543032787 4.81743084016394  C 18.6641265368852 4.81743084016394  18.9590804303279 4.52247694672131  18.9590804303279 4.16790471311476  Z " fill-rule="nonzero" fill="#ffffff" stroke="none" transform="matrix(1 0 0 1 287 387 )" />
  </g>
</svg>