<?xml version="1.0" encoding="utf-8"?>
<svg version="1.1" xmlns:xlink="http://www.w3.org/1999/xlink" width="28px" height="28px" xmlns="http://www.w3.org/2000/svg">
  <g transform="matrix(1 0 0 1 -287 -255 )">
    <path d="M 27.5090648854962 27.3462357954545  C 28.1561307251908 26.704071969697  28.1561307251908 25.6600378787879  27.5048902671756 25.0137310606061  L 19.3101145038168 16.8810369318182  L 26.1189169847328 13.1274857954545  C 27.5842080152672 12.3196022727273  27.4547948473282 10.1859611742424  25.8976622137405 9.56036931818181  L 2.87046755725191 0.321496212121209  C 1.23819179389313 -0.333096590909095  -0.385734732824427 1.27852746212121  0.273854961832063 2.8984375  L 9.58325381679389 25.7511837121212  C 10.2136211832061 27.2965198863636  12.3635496183206 27.4249526515151  13.1776001908397 25.9707623106061  L 16.959804389313 19.2135416666667  L 25.1545801526718 27.3462357954545  C 25.4802003816794 27.6693892045454  25.9060114503817 27.8309659090909  26.331822519084 27.8309659090909  C 26.7576335877863 27.8309659090909  27.1834446564886 27.6693892045455  27.5090648854962 27.3462357954545  Z " fill-rule="nonzero" fill="#ffffff" stroke="none" transform="matrix(1 0 0 1 287 255 )" />
  </g>
</svg>