<?xml version="1.0" encoding="utf-8"?>
<svg version="1.1" xmlns:xlink="http://www.w3.org/1999/xlink" width="35px" height="33px" xmlns="http://www.w3.org/2000/svg">
  <g transform="matrix(1 0 0 1 -12 -350 )">
    <path d="M 33.5070811564626 11.2122392604422  C 35.4923541633306 9.32515626760645  35.4923541633306 6.27178813077028  33.5070811564626 4.38470513793457  L 30.4848738435374 1.50012384370834  C 29.5312447414923 0.591477822154434  28.2346803541571 0.0805840817585944  26.8823151190476 0.0805840817585944  C 25.5299498839381 0.0805840817585944  24.233385496603 0.591477822154434  23.2797563945578 1.50012384370834  L 2.3214056122449 21.2978975753403  C 1.56992779855174 21.9801348846609  1.14980208149419 22.9265829068797  1.16070282312925 23.9126978947214  L 1.16070282312925 30.5949653310283  L 1.00740244897959 30.5949653310283  L 0.328500782312925 31.2175368387125  C 0.122307729080491 31.4129243736879  0.00646967833782282 31.6779267374044  0.00646967833782282 31.9542464362629  C 0.00646967833782282 32.529652430176  0.498724981037099 32.9961111520446  1.10595267006803 32.9961111520446  C 1.39755369394014 32.9961111520446  1.67721149869746 32.8863435743731  1.88340455782313 32.6909560338134  L 2.51850608843537 32.0891369236855  L 9.87692391156463 32.0891369236855  C 10.9079395071515 32.084212783076  11.8938951811317 31.6880751830848  12.6144305442177 30.9892605945178  L 33.5070811564626 11.2122392604422  Z M 11.5413279591837 25.2200980382964  L 11.6070281292517 25.1370885125335  L 8.7600212244898 25.1370885125335  L 8.7600212244898 22.3770215069517  C 8.7600212244898 21.80396026393  8.26977183773855 21.3394023382217  7.66501857142857 21.3394023382217  L 5.47501326530612 21.3394023382217  L 22.2066538095238 5.54683859530891  L 29.2584708843537 12.332867954935  L 12.6363306122449 28.1461840954041  L 12.6363306122449 26.2784695723516  C 12.6364766235888 26.2715529751543  12.6365496347371 26.264635167202  12.6365496347371 26.2577171862698  C 12.6365496347371 25.6846559432482  12.1463002479858 25.2200980175399  11.5415469816759 25.2200980175399  Z M 9.96452414965986 30.0969081119885  L 3.3507081292517 30.0969081119885  L 3.3507081292517 23.8711930996088  C 3.32481027605944 23.7130378245236  3.32481027605944 23.5520435854417  3.3507081292517 23.3938883103565  L 6.57001591836735 23.3938883103565  L 6.57001591836735 26.2577172070264  C 6.57001591836735 26.8307784500481  7.0602653051186 27.2953363757563  7.66501857142857 27.2953363757563  L 10.5120254761905 27.2953363757563  L 10.5120254761905 29.9931462209004  C 10.3373610632077 30.0578984034956  10.1520348291558 30.0930212417092  9.96452414965986 30.0969081119885  Z M 31.9740774489796 5.85812436526657  C 33.1102410476858 6.93578262353514  33.1102410476858 8.68191417239789  31.9740774489796 9.75957243066646  L 30.8133746598639 10.8802011251593  L 23.6520572789116 4.09417176553321  L 24.834660170068 2.97354307104034  C 25.3779265269089 2.45136640783551  26.1194437762404 2.15738219321657  26.8932651530612 2.15738219321657  C 27.6670865298821 2.15738219321657  28.4086037792136 2.45136640783551  28.9518701360544 2.97354307104034  L 31.9740774489796 5.85812436526657  Z " fill-rule="nonzero" fill="#0075a7" stroke="none" transform="matrix(1 0 0 1 12 350 )" />
  </g>
</svg>