<?xml version="1.0" encoding="utf-8"?>
<svg version="1.1" xmlns:xlink="http://www.w3.org/1999/xlink" width="5px" height="19px" xmlns="http://www.w3.org/2000/svg">
  <g transform="matrix(1 0 0 1 -70 -740 )">
    <path d="M 2.29939088983051 3.55112340328467  C 2.30104608050847 3.55112340328467  2.30435646186441 3.54841468978102  2.30435646186441 3.54299726277372  L 2.30435646186441 0.0514655565693431  C 2.30435646186441 0.0460481295620438  2.30270127118644 0.0433394160583942  2.29939088983051 0.0433394160583942  L 0.0681938559322034 0.0433394160583942  C 0.0648834745762712 0.0433394160583942  0.0632282838983051 0.0460481295620428  0.0632282838983051 0.0514655565693431  L 0.0632282838983051 3.54299726277372  C 0.0632282838983051 3.54841468978102  0.0648834745762712 3.55112340328467  0.0681938559322034 3.55112340328467  L 2.29939088983051 3.55112340328467  Z M 4.99735169491525 5.32533074817518  C 4.99735169491525 5.31720460766423  4.99404131355932 5.31178718065693  4.98907574152542 5.31178718065693  L 1.53965836864407 5.31178718065693  C 1.53469279661017 5.31178718065693  1.53138241525424 5.31720460766423  1.53138241525424 5.32533074817518  L 1.53138241525424 6.57133895985401  C 1.53138241525424 6.57946510036496  1.53469279661017 6.58488252737226  1.53965836864407 6.58488252737226  L 4.98907574152542 6.58488252737226  C 4.99404131355932 6.58488252737226  4.99735169491525 6.57946510036496  4.99735169491525 6.57133895985401  L 4.99735169491525 5.32533074817518  Z M 4.99735169491525 8.40513800182482  C 4.99735169491525 8.39701186131387  4.99404131355932 8.39159443430657  4.98907574152542 8.39159443430657  L 0.172470868644068 8.39159443430657  C 0.167505296610169 8.39159443430657  0.164194915254238 8.39701186131387  0.164194915254238 8.40513800182482  L 0.164194915254238 9.65114621350365  C 0.164194915254238 9.6592723540146  0.167505296610169 9.6646897810219  0.172470868644068 9.6646897810219  L 4.98907574152542 9.6646897810219  C 4.99404131355932 9.6646897810219  4.99735169491525 9.6592723540146  4.99735169491525 9.65114621350365  L 4.99735169491525 8.40513800182482  Z M 4.99735169491525 11.4822365419708  C 4.99735169491525 11.4741104014599  4.99404131355932 11.4686929744526  4.98907574152542 11.4686929744526  L 0.172470868644068 11.4686929744526  C 0.167505296610169 11.4686929744526  0.164194915254238 11.4741104014599  0.164194915254238 11.4822365419708  L 0.164194915254238 12.7282447536496  C 0.164194915254238 12.7363708941606  0.167505296610169 12.7417883211679  0.172470868644068 12.7417883211679  L 4.98907574152542 12.7417883211679  C 4.99404131355932 12.7417883211679  4.99735169491525 12.7363708941606  4.99735169491525 12.7282447536496  L 4.99735169491525 11.4822365419708  Z M 4.99735169491525 14.5620437956204  C 4.99735169491525 14.5539176551095  4.99404131355932 14.5485002281022  4.98907574152542 14.5485002281022  L 0.172470868644068 14.5485002281022  C 0.167505296610169 14.5485002281022  0.164194915254238 14.5539176551095  0.164194915254238 14.5620437956204  L 0.164194915254238 15.8080520072993  C 0.164194915254238 15.8161781478102  0.167505296610169 15.8215955748175  0.172470868644068 15.8215955748175  L 4.98907574152542 15.8215955748175  C 4.99404131355932 15.8215955748175  4.99735169491525 15.8161781478102  4.99735169491525 15.8080520072993  L 4.99735169491525 14.5620437956204  Z M 4.99735169491525 17.6391423357664  C 4.99735169491525 17.6310161952555  4.99404131355932 17.6255987682482  4.98907574152542 17.6255987682482  L 0.172470868644068 17.6255987682482  C 0.167505296610169 17.6255987682482  0.164194915254238 17.6310161952555  0.164194915254238 17.6391423357664  L 0.164194915254238 18.8851505474453  C 0.164194915254238 18.8932766879562  0.167505296610169 18.8986941149635  0.172470868644068 18.8986941149635  L 4.98907574152542 18.8986941149635  C 4.99404131355932 18.8986941149635  4.99735169491525 18.8932766879562  4.99735169491525 18.8851505474453  L 4.99735169491525 17.6391423357664  Z " fill-rule="nonzero" fill="#ffffff" stroke="none" transform="matrix(1 0 0 1 70 740 )" />
  </g>
</svg>