<?xml version="1.0" encoding="utf-8"?>
<svg version="1.1" xmlns:xlink="http://www.w3.org/1999/xlink" width="19px" height="4px" xmlns="http://www.w3.org/2000/svg">
  <g transform="matrix(1 0 0 1 -72 -783 )">
    <path d="M 0.123349471830985 1.90720663265306  C 0.12073613556338 2.03635204081633  0.290602992957747 2.13998724489796  0.499669894366197 2.13998724489796  L 3.13129951584507 2.13998724489796  C 3.33775308098592 2.13998724489796  3.50761993838028 2.03475765306122  3.50761993838028 1.90720663265306  L 3.50761993838028 0.28093112244898  C 3.50761993838028 0.153380102040816  3.33775308098592 0.0481505102040816  3.13129951584507 0.0481505102040816  L 0.499669894366197 0.0481505102040816  C 0.293216329225352 0.0481505102040816  0.123349471830985 0.153380102040816  0.123349471830985 0.28093112244898  L 0.123349471830985 1.90720663265306  Z M 18.876650528169 1.75733418367347  C 18.8792638644366 1.55165816326531  18.604863556338 1.38265306122449  18.2703565140845 1.38265306122449  L 5.3709286971831 1.38265306122449  C 5.03642165492958 1.38265306122449  4.76463468309859 1.55165816326531  4.76463468309859 1.75733418367347  L 4.76463468309859 1.76371173469388  C 4.76463468309859 1.96938775510204  5.03903499119718 2.13839285714286  5.3709286971831 2.13839285714286  L 18.2703565140845 2.13839285714286  C 18.604863556338 2.13839285714286  18.876650528169 1.96938775510204  18.876650528169 1.76371173469388  L 18.876650528169 1.75733418367347  Z M 18.8792638644366 3.54464285714286  C 18.8792638644366 3.33896683673469  18.604863556338 3.16996173469388  18.2703565140845 3.16996173469388  L 0.761003521126762 3.16996173469388  C 0.426496478873239 3.16996173469388  0.154709507042254 3.33896683673469  0.154709507042254 3.54464285714286  L 0.154709507042254 3.55102040816327  C 0.154709507042254 3.75669642857143  0.429109815140846 3.92570153061224  0.761003521126762 4  L 18.2729698503521 4  C 18.6074768926056 3.92570153061224  18.8792638644366 3.75669642857143  18.8792638644366 3.55102040816327  L 18.8792638644366 3.54464285714286  Z " fill-rule="nonzero" fill="#ffffff" stroke="none" transform="matrix(1 0 0 1 72 783 )" />
  </g>
</svg>