<?xml version="1.0" encoding="utf-8"?>
<svg version="1.1" xmlns:xlink="http://www.w3.org/1999/xlink" width="28px" height="18px" xmlns="http://www.w3.org/2000/svg">
  <g transform="matrix(1 0 0 1 -68 -771 )">
    <path d="M 27.4640625 9  C 27.773046875 8.8681640625  27.9890625 8.6501953125  27.9890625 8.3900390625  L 27.9890625 0.7470703125  C 27.9890625 0.3375  27.48046875 0.00703124999999998  26.8515625 0  L 1.145703125 0  C 0.51953125 0.0052734375  0.0109375 0.3375  0.0109375 0.7470703125  L 0.0109375 8.391796875  C 0.0109375 8.651953125  0.2296875 8.869921875  0.538671875 9.0017578125  C 0.226953125 9.13359375  0.0109375 9.3515625  0.0109375 9.61171875  L 0.0109375 17.2564453125  C 0.0109375 17.666015625  0.51953125 17.996484375  1.1484375 18  L 26.854296875 18  C 27.483203125 17.996484375  27.991796875 17.6642578125  27.991796875 17.2564453125  L 27.991796875 9.6099609375  C 27.991796875 9.3498046875  27.773046875 9.1318359375  27.4640625 9  Z M 25.033203125 1.346484375  L 25.033203125 0.72421875  L 25.9875 0.72421875  L 25.9875 1.346484375  L 25.033203125 1.346484375  Z M 23.37890625 1.346484375  L 23.37890625 0.72421875  L 24.333203125 0.72421875  L 24.333203125 1.346484375  L 23.37890625 1.346484375  Z M 21.721875 1.346484375  L 21.721875 0.72421875  L 22.676171875 0.72421875  L 22.676171875 1.346484375  L 21.721875 1.346484375  Z M 1.544921875 7.7994140625  L 1.544921875 2.112890625  C 1.544921875 1.9318359375  1.771875 1.7841796875  2.05078125 2  L 25.94921875 2  C 26.228125 1.7841796875  26.455078125 1.9318359375  26.455078125 2.112890625  L 26.455078125 7.7994140625  C 26.455078125 7.98046875  26.228125 8.128125  25.94921875 8.128125  L 2.05078125 8.128125  C 1.771875 8.128125  1.544921875 7.98046875  1.544921875 7.7994140625  Z M 25.033203125 9.587109375  L 25.9875 9.587109375  L 25.9875 10.209375  L 25.033203125 10.209375  L 25.033203125 9.587109375  Z M 23.37890625 9.587109375  L 24.333203125 9.587109375  L 24.333203125 10.209375  L 23.37890625 10.209375  L 23.37890625 9.587109375  Z M 21.721875 9.587109375  L 22.676171875 9.587109375  L 22.676171875 10.209375  L 21.721875 10.209375  L 21.721875 9.587109375  Z M 26.45234375 10.97578125  L 26.45234375 16.6623046875  C 26.45234375 16.843359375  26.225390625 16.991015625  25.946484375 17  L 2.048046875 17  C 1.769140625 16.991015625  1.5421875 16.843359375  1.5421875 16.6623046875  L 1.5421875 10.97578125  C 1.5421875 10.7947265625  1.769140625 10.6470703125  2.048046875 10.6470703125  L 25.946484375 10.6470703125  C 26.225390625 10.6470703125  26.45234375 10.7947265625  26.45234375 10.97578125  Z " fill-rule="nonzero" fill="#ffffff" stroke="none" transform="matrix(1 0 0 1 68 771 )" />
  </g>
</svg>