<?xml version="1.0" encoding="utf-8"?>
<svg version="1.1" xmlns:xlink="http://www.w3.org/1999/xlink" width="35px" height="34px" xmlns="http://www.w3.org/2000/svg">
  <g transform="matrix(1 0 0 1 -12 -509 )">
    <path d="M 35 18.5740740740741  C 35 17.3620370370371  33.875 16.3703703703704  32.5 17  L 12.5 17  C 11.125 16.3703703703704  10 17.3620370370371  10 18.5740740740741  L 10 31.7962962962963  C 10 33.0083333333333  11.125 34  12.5 34  L 32.5 34  C 33.875 34  35 33.0083333333333  35 31.7962962962963  L 35 18.5740740740741  Z M 2.5 26.4444444444444  L 0 26.4444444444444  L 0 20.6747474747474  C 0 11.9000000000001  7.87500000000001 4.80808080808087  17.5 4.80808080808087  L 17.5 0  L 28.75 6.01010101010098  L 17.5 12.020202020202  L 17.5 7.21212121212124  C 9.24999999999997 7.21212121212124  2.5 13.2222222222222  2.5 20.6747474747474  L 2.5 26.4444444444444  Z M 32 18.8888888888889  L 32 31  L 13 31  L 13 18.8888888888889  L 32 18.8888888888889  Z " fill-rule="nonzero" fill="#0075a7" stroke="none" transform="matrix(1 0 0 1 12 509 )" />
  </g>
</svg>