<?xml version="1.0" encoding="utf-8"?>
<svg version="1.1" xmlns:xlink="http://www.w3.org/1999/xlink" width="35px" height="35px" xmlns="http://www.w3.org/2000/svg">
  <g transform="matrix(1 0 0 1 -12 -671 )">
    <path d="M 34.8262107431592 17.498974609375  C 34.8258706467662 12.70458984375  32.9237115205224 8.36787109375  29.7955048973881 5.20625  L 29.7288460043532 5.1392578125  C 26.5802335976368 1.967041015625  22.2344818874378 0.01845703125  17.441843516791 0  L 17.3847073227612 0  C 12.6291394589552 0.01845703125  8.31229594216418 1.938671875  5.17354633084577 5.043896484375  L 5.09804493159204 5.1392578125  C 1.94093011504975 8.290966796875  0 12.666650390625  0 17.498974609375  C 0 22.3330078125  1.94059001865672 26.7080078125  5.09804493159204 29.880224609375  C 8.25549984452736 33.03193359375  12.5913887593284 34.9904296875  17.3850474191542 35  L 17.4421836131841 35  C 22.2348219838308 34.9904296875  26.5805736940299 33.03193359375  29.7291861007463 29.880224609375  C 32.8866410136816 26.7080078125  34.8262107431592 22.333349609375  34.8262107431592 17.498974609375  Z M 16 2.75078125  L 16 32.248193359375  C 12.5345926616915 31.923828125  9.35877254353234 30.35703125  6.99068135883085 27.968896484375  L 6.98013837064677 27.968896484375  L 6.99068135883085 27.968896484375  C 4.33724930037313 25.294677734375  2.6728175528607 21.588232421875  2.6728175528607 17.498974609375  C 2.6728175528607 13.411767578125  4.3369092039801 9.723779296875  6.99034126243781 7.030078125  L 7.05631996268657 6.973681640625  C 9.41488844838308 4.623486328125  12.5730235541045 3.075146484375  16 2.75078125  Z M 18.7542754975124 4.985791015625  L 18.7542754975124 2.75078125  C 19.4004586442786 2.82734375  20.0473219838308 2.913134765625  20.6659573227612 3.056689453125  L 18.7542754975124 4.985791015625  Z M 18.7542754975124 9.647900390625  L 18.7542754975124 7.2693359375  L 22.4249358675373 3.5724609375  C 22.9962978078358 3.7830078125  23.5475940609453 4.021240234375  24.0699821206468 4.298095703125  L 18.7542754975124 9.647900390625  Z M 18.7542754975124 14.310009765625  L 18.7542754975124 11.920849609375  L 25.5252545864428 5.1392578125  C 26.0010494402985 5.444140625  26.4390935945274 5.789013671875  26.8665947605721 6.15234375  L 18.7542754975124 14.310009765625  Z M 18.7542754975124 18.970751953125  L 18.7542754975124 16.6017578125  L 28.0548915578358 7.25087890625  C 28.4446420242537 7.66171875  28.8160272854478 8.080419921875  29.1486415578358 8.539794921875  L 18.7542754975124 18.970751953125  Z M 18.7542754975124 23.632861328125  L 18.7542754975124 21.2529296875  L 30.0526177705224 9.89638671875  C 30.3757093439055 10.39267578125  30.6416647232587 10.918359375  30.8705495957711 11.462158203125  L 18.7542754975124 23.632861328125  Z M 18.7542754975124 28.29326171875  L 18.7542754975124 25.905810546875  L 31.4976873445274 13.125341796875  C 31.6871210354478 13.736474609375  31.8408446050995 14.38623046875  31.9540967039801 15.035986328125  L 18.7542754975124 28.29326171875  Z M 31.2028237717662 22.73427734375  C 30.4617537313433 24.71123046875  29.3006646455224 26.49814453125  27.8277071672886 27.968896484375  C 26.3714144123134 29.44033203125  24.5930503731343 30.605859375  22.6157299440299 31.349951171875  L 31.2028237717662 22.73427734375  Z M 31.9928676927861 19.658447265625  L 19.5626846237562 32.153173828125  C 19.296729244403 32.19111328125  19.0212511660448 32.220166015625  18.7542754975124 32.24853515625  L 18.7542754975124 30.58671875  L 32.1445506840796 17.127099609375  L 32.1445506840796 17.49931640625  C 32.1445506840796 18.235546875  32.0962569962687 18.952294921875  31.9928676927861 19.658447265625  Z " fill-rule="nonzero" fill="#0075a7" stroke="none" transform="matrix(1 0 0 1 12 671 )" />
  </g>
</svg>