<?xml version="1.0" encoding="utf-8"?>
<svg version="1.1" xmlns:xlink="http://www.w3.org/1999/xlink" width="23px" height="23px" xmlns="http://www.w3.org/2000/svg">
  <g transform="matrix(1 0 0 1 -68 -385 )">
    <path d="M 22.9673854406631 11.4722548511404  C 22.9674148080305 17.7528596097457  17.8551588268814 22.8496712836995  11.5362870650961 22.8688194718362  C 11.5188128105157 22.8688987603443  11.5013383966136 22.8689384047532  11.4838639599501 22.8689384047532  C 5.14168292558884 22.8689384047532  0.000329358814855046 17.7587445565658  0.000329358814855046 11.4550009830188  C 0.000329358814855046 5.15125740947194  5.14168292558884 0.041063561284459  11.4838639599501 0.041063561284459  C 17.8260449943113 0.041063561284459  22.9673985610853 5.15125740947194  22.9673985610853 11.4550009830188  C 22.9673985610853 11.4607522748586  22.96739418761 11.4665035658718  22.9673854406631 11.4722548511404  Z M 21.2195110729807 11.4375092490632  C 21.2195457088704 6.11637392185811  16.8898337036407 1.79736659546968  11.5362870650961 1.77822581806379  C 11.5246346146762 1.77818415653083  11.5129820982914 1.77816332571382  11.5013295724835 1.77816332571382  C 6.13412613355886 1.77816332571382  1.78314807178293 6.10277182347898  1.78314807178293 11.4374467567132  C 1.78314807178293 16.7721216899474  6.13412613355886 21.0967301877126  11.5013295724835 21.0967301877126  C 16.8685330114082 21.0967301877126  21.2195110731841 16.7721216899474  21.2195110731841 11.4374467567132  Z " fill-rule="nonzero" fill="#ffffff" stroke="none" transform="matrix(1 0 0 1 68 385 )" />
  </g>
</svg>