<?xml version="1.0" encoding="utf-8"?>
<svg version="1.1" xmlns:xlink="http://www.w3.org/1999/xlink" width="35px" height="35px" xmlns="http://www.w3.org/2000/svg">
  <g transform="matrix(1 0 0 1 -12 -429 )">
    <path d="M 23.1949511829259 26.2935735150926  C 23.0550533773494 26.1557393355304  22.9356023766905 26.0001768815599  22.8386679086094 25.8318723144329  C 20.4785194575287 27.5547151658546  17.5692990759707 28.5764820508381  14.4203588313701 28.5860243397953  C 6.49263253841859 28.5860243397953  0.00041169851854761 22.1984306957071  0.00041169851854761 14.3187512287736  C 0.00041169851854761 6.43907176183987  6.42710365698605 0.0513294516055396  14.3548299499376 0.0513294516055396  C 22.2825562428891 0.0513294516055396  28.7092482013566 6.43907176183987  28.7092482013566 14.3187512287736  C 28.7092632660517 17.5405380112318  27.6330687567895 20.5167521455252  25.8180796002529 22.9080192022876  C 25.9256017056278 22.9805326630154  26.027158443036 23.0634522073288  26.1212543751152 23.1561601346965  L 34.1843775165136 31.2052482621984  C 34.6100296726595 31.6143898960016  34.8516183600606 32.1865748927124  34.8516183600606 32.7855590125783  C 34.8516183600606 33.9805559532044  33.9090640004414 34.9492923783686  32.7463642744269 34.9492923783686  C 32.1970453467542 34.9526839737909  31.6114761146904 34.7344816288812  31.2159692689281 34.3426616425944  L 23.1949511829259 26.2935735150926  Z M 2.22893508972867 14.2968084458914  C 2.22893508972867 20.9651521124343  7.6676576669486 26.3709127346408  14.3766619656044 26.3709127346408  C 21.0856662642603 26.3709127346408  26.5243888414802 20.9651521124343  26.5243888414802 14.2968084458914  C 26.5244321363421 7.64538928688509  21.1122921295508 2.24670824433716  14.4203588313701 2.22278227257974  C 7.71135453271427 2.22278227257974  2.22893508972867 7.62846477934872  2.22893508972867 14.2968084458914  Z " fill-rule="nonzero" fill="#39bbdb" stroke="none" transform="matrix(1 0 0 1 12 429 )" />
  </g>
</svg>