<?xml version="1.0" encoding="utf-8"?>
<svg version="1.1" xmlns:xlink="http://www.w3.org/1999/xlink" width="35px" height="37px" xmlns="http://www.w3.org/2000/svg">
  <g transform="matrix(1 0 0 1 -12 -187 )">
    <path d="M 34.7697368421053 32.375  C 34.7655393366228 34.9279036458333  32.1906695449561 36.9966276041667  29.0131578947368 37  L 5.98684210526316 37  C 2.80933045504386 36.9966276041667  0.234460663377193 34.9279036458333  0.230263157894737 32.375  L 0.230263157894737 20.0416666666667  C 0.234460663377193 17.4887630208333  2.80933045504386 15.4200390625  5.98684210526316 15.4166666666667  L 5.98684210526316 9.25  C 5.98684210526316 4.14130208333333  11.1413788377193 0  17.5 0  C 23.8586211622807 0  29.0131578947368 4.14130208333333  29.0131578947368 9.25  L 29.0131578947368 15.4166666666667  C 32.1906695449561 15.4200390625  34.7655393366228 17.4887630208333  34.7697368421053 20.0416666666667  L 34.7697368421053 32.375  Z M 29.0131578947368 18  L 5.98684210526316 18  C 4.92787143640351 18.5009635416667  4.06918174342105 19.190859375  4 20.0416666666667  L 4 32.375  C 4.06918174342105 33.2258072916667  4.92787143640351 33.915703125  5.98684210526316 34  L 29.0131578947368 34  C 30.0721285635965 33.915703125  30.9308182565789 33.2258072916667  31 32.375  L 31 20.0416666666667  C 30.9308182565789 19.190859375  30.0721285635965 18.5009635416667  29.0131578947368 18  Z M 25.1754385964912 9.25  C 25.1754385964912 5.84436197916667  21.7388808936404 3.08333333333333  17.5 3.08333333333333  C 13.2611191063597 3.08333333333333  9.82456140350877 5.84436197916667  9.82456140350877 9.25  L 9.82456140350877 16  L 25.1754385964912 16  L 25.1754385964912 9.25  Z M 17.5 29.2916666666667  L 17.5 29.2897395833333  C 16.4416289747807 29.2887760416667  15.5841385690789 28.6003255208333  15.5811403508772 27.75  L 15.5811403508772 24.6666666666667  C 15.5811403508772 23.8153776041667  16.4404296875 23.125  17.5 23.125  C 18.5595703125 23.125  19.4188596491228 23.8153776041667  19.4188596491228 24.6666666666667  L 19.4188596491228 27.75  C 19.4176603618421 28.6008072916667  18.5589706688597 29.290703125  17.5 29.2916666666667  Z " fill-rule="nonzero" fill="#0075a7" stroke="none" transform="matrix(1 0 0 1 12 187 )" />
  </g>
</svg>