<?xml version="1.0" encoding="utf-8"?>
<svg version="1.1" xmlns:xlink="http://www.w3.org/1999/xlink" width="35px" height="37px" xmlns="http://www.w3.org/2000/svg">
  <g transform="matrix(1 0 0 1 -12 -589 )">
    <path d="M 8.96425079004516 35.3101955186147  L 20.5461607279333 36.7054469152627  C 23.9526029608178 37.442628026665  27.5515419144743 36.7258699470682  30.2763625776397 34.7675977653632  C 34.9322333254519 31.4626926642061  36.2237720484691 25.6597750500584  33.3334278086787 21.0321228929164  L 27.3765178434952 13.7458100558659  C 26.7193031913357 12.9416286137725  25.6676758375102 12.465614107457  24.548265637435 12.465614107457  C 23.7382539045871 12.465614107457  22.9534095459893 12.7153875815832  22.32799302607 13.1722066917991  C 21.9200358330443 13.4630979073189  21.5865539367827 13.8277482410287  21.3497321292095 14.2418994292292  C 20.1235511686941 12.9708343775323  17.9821238000012 12.7924568176844  16.5108346409768 13.8388268156425  C 16.0262001083143 14.1836722898984  15.6476309681558 14.6316199235022  15.410291162716 15.141061452514  C 14.153884150089 14.4526693035737  12.5454809487787 14.5395530226483  11.3924339925636 15.3581005465476  C 10.9844768143598 15.6489917658322  10.6509949323068 16.0136420992669  10.414173136646 16.4277932839778  L 7.84623835403728 13.3272346368715  C 7.1905196103878 12.5116504887294  6.13113198103534 12.0275206141253  5.00216483240386 12.0275206141253  C 4.19917131049644 12.0275206141253  3.42068627190308 12.2729916296481  2.79771349566914 12.722625698324  C 1.21233693928559 13.8667842999236  0.92004345955921 15.9146435113645  2.1338936335404 17.3734636871508  L 11.6195302795031 28.7680167597766  L 9.87263585591762 28.5664804348158  C 8.91951228256673 28.4602381548363  7.95914515676088 28.7069498247798  7.2173563664596 29.2486033640668  C 6.30750457288507 29.90204011882  5.77887265789371 30.8852011368299  5.77887265789371 31.9239263387067  C 5.77887265789371 33.5875569387287  7.11977845561144 35.0130291393885  8.96425079004516 35.3101955186147  Z M 32.0057880434783 10.2886871387264  C 32.3394772978868 9.76024367440458  32.1742590258436 9.09377663784925  31.6214712596443 8.73840783334064  C 24.3421394308572 4.89469367495665  15.880180239965 3.19093614389912  7.4444526533992 3.87053071414548  C 6.73333385877477 3.94358386007915  6.21993937509771 4.50964640600544  6.29150234284019 5.14175977653636  C 6.33587643689545 5.74505142504383  6.90020781187712 6.2142418158187  7.58145899108236 6.2142418158187  C 15.445003460149 5.59840417883832  23.4215827441158 7.14369891741951  30.2588936198928 10.6452514087596  C 30.4605860342164 10.7650867568127  30.6974666174281 10.8297696450725  30.9401824397685 10.8312849283126  C 31.377529789119 10.8271439506119  31.7810522095677 10.6216735846324  32.0057880434783 10.2886871387264  Z M 0.374493358265298 6.37931035728717  C 0.457398334827133 6.48516407947712  0.558241306437779 6.57682023560312  0.672788812810694 6.65043103448276  L 6.75470170454545 10.7491379185749  C 6.94883168555442 10.8810902174298  7.17993375462783 10.9533716615915  7.41758050537108 10.9564655172413  C 8.08838234802437 10.9478007368328  8.62744774308936 10.4220134577644  8.62744774308936 9.77639940879259  C 8.63304486732815 9.377956906194  8.43467000956949 8.98626536287234  8.09703124999999 8.75560344827593  L 3.44030777809834 5.62974136685072  L 8.0307433582653 2.16896552970099  C 8.56827372240659 1.75740417345044  8.67082048743214 1.01019988200845  8.26275095991655 0.478448275862108  C 8.04130197302662 0.185797140947015  7.68779671035716 0.0126912146273829  7.31161326190453 0.0126912146273829  C 7.05699000450636 0.0126912146273829  6.80923742522282 0.0921804547842347  6.60555397727272 0.239224137931054  L 0.606500959916545 4.78448275862066  C 0.127205678844931 5.18628036030567  0.0282810697147795 5.86629125522947  0.374493358265298 6.37931035728717  Z M 25.8217818322981 14.8620111731843  L 31.0624650621118 21.0631285037317  L 31.2196855590062 21.2801675977653  C 34.1166723224892 25.1629817593843  33.1577132947224 30.3704566715079  29.0185986024845 33.2328212290502  C 26.7729408940948 34.8339894789725  23.811135536909 35.4078869908066  21.0178222186165 34.7831005707708  L 9.33109861613211 33.3723463687151  C 8.52426944060774 33.2594884488406  7.92993472017436 32.6424006945772  7.92993472017436 31.9175414377814  C 7.92993472017436 31.4873619206653  8.14186947911921 31.0786857025059  8.51005821616603 30.7988826694527  C 8.83696804062289 30.5603614761202  9.26114208225577 30.4536119032111  9.68047748447205 30.50432962105  L 16.4234898931847 31.3259776536313  L 3.81091226708072 16.1952513845365  C 3.31687300258309 15.5950349442943  3.43978702541513 14.7564832479646  4.0904153863184 14.2884078091174  C 4.34754249910398 14.1057823246564  4.667067160958 14.0062819910355  4.99640387241151 14.0062819910355  C 5.46041376218326 14.0062819910355  5.89639525094249 14.203367095454  6.16921972049688 14.5364525139664  L 10.7286141304348 19.9469273864132  L 12.4755085540203 18.7532122783913  C 11.9605885601783 18.1726935382976  12.0448452130009 17.3365901933718  12.6676669254658 16.8463687029723  C 12.9247940382514 16.6637432185111  13.2443187001054 16.5642428848902  13.5736554115589 16.5642428848902  C 14.0376653013307 16.5642428848902  14.4736467900899 16.7613279893088  14.7464712596443 17.0944134078213  L 15.8470147379052 18.4121508501004  L 17.5939091614907 17.2184357420783  C 17.099869896993 16.6182193018362  17.2227839198251 15.7796676055065  17.8734122807283 15.3115921666594  C 18.1305393935139 15.1289666821983  18.4500640553679 15.0294663485772  18.7794007668214 15.0294663485772  C 19.2434106565932 15.0294663485772  19.6793921453524 15.2265514529959  19.9522166149068 15.5596368715083  L 21.6991110384923 17.7300279208493  L 23.446005421135 16.5363128491619  C 22.9519661566373 15.9360964089198  23.0748801794694 15.0975447125901  23.7255085403726 14.629469273743  C 23.9865162094566 14.4424556882151  24.3118481780419 14.3404525344301  24.6473073403693 14.3404525344301  C 25.1095089210811 14.3404525344301  25.5446968353728 14.5337100446954  25.8217818322981 14.8620111731843  Z " fill-rule="nonzero" fill="#39bbdb" stroke="none" transform="matrix(1 0 0 1 12 589 )" />
  </g>
</svg>