<?xml version="1.0" encoding="utf-8"?>
<svg version="1.1" xmlns:xlink="http://www.w3.org/1999/xlink" width="28px" height="26px" xmlns="http://www.w3.org/2000/svg">
  <g transform="matrix(1 0 0 1 -68 -676 )">
    <path d="M 7.74076155032464 8.44202309333976  C 7.74076155032464 8.70472677303467  7.75808498333446 8.9671545778234  7.79262303978264 9.2276581821713  C 10.5044800787458 8.99793618127583  13.1642069950875 10.058466079926  14.9458592865929 12.0799137521849  C 15.1334421475225 12.2883943368273  15.2369784389321 12.5570410827502  15.2369784389321 12.8352837957413  C 15.2369784389321 13.4652187098651  14.7171300012952 13.9758818555587  14.0758644553445 13.9758818555587  C 13.7359905393596 13.9758818555587  13.4131810000203 13.8295999127799  13.1925771731747 13.5756180345698  C 12.0163830852134 12.2440070670477  10.3099462730004 11.4791522610786  8.5152366589874 11.4791522610786  C 5.0951537188609 11.4791522610786  2.32262869511672 14.202689060719  2.32262869511672 17.5623419639335  C 2.32262869511672 20.921994867148  5.0951537188609 23.6455316667884  8.5152366589874 23.6455316667884  C 9.90984206170803 23.6455316667884  11.2636192172623 23.1831039260954  12.3573491656111 22.3331299922315  C 11.3651110334014 20.9333864372486  10.8344250021792 19.2680635023926  10.8370639239228 17.5623884773742  C 10.8370639239228 16.8795504369781  10.9206641332085 16.2065975723441  11.0847682363092 15.5549358749272  C 11.2219194240976 15.0578484606234  11.6811636443679 14.712714122321  12.2054491687621 14.712714122321  C 12.8467147147129 14.712714122321  13.3665631523497 15.2233772680147  13.3665631523497 15.8533121821385  C 13.3665631523497 15.9365875209307  13.3572792664837 16.0196124246702  13.3388775201483 16.1009021441057  C 13.2195937622305 16.5768083775135  13.1592961536704 17.0651316324264  13.1592961536704 17.5552509896791  C 13.1592961536704 20.9149038928936  15.9318211774146 23.638440692534  19.3519041175411 23.638440692534  C 22.769149903071 23.638440692534  25.5404983187355 20.919252045528  25.5445078188394 17.5623884773742  C 25.5441593683751 15.0836158197641  24.0140780858429 12.8525037048393  21.6756759927301 11.9209904311517  C 20.6960030445629 14.0216457804867  18.8758788178359 15.6310061440877  16.6465042683263 16.3678020916683  C 16.5354575879711 16.4015150169171  16.4198873298488 16.4186581245026  16.3036583279144 16.4186581245026  C 15.6623927819637 16.4186581245026  15.1425443443268 15.907994978809  15.1425443443268 15.2780600646852  C 15.1425443443268 14.7982757107038  15.4481911332341 14.3697837752964  15.9072616805273 14.2059885647699  C 18.428259890673 13.3721881210764  20.1261137683405 11.0506574716461  20.1259758440271 8.43760392309186  C 20.1234925800913 5.07967756961662  17.3516957511441 2.35883339048483  13.9333695141953 2.35883339048483  C 10.5132865740688 2.35883339048483  7.74076155032464 5.08237019012527  7.74076155032464 8.44202309333976  Z M 5.51916182923023 9.73028173431734  L 5.51993591452332 9.72952135171878  C 5.45240278456188 9.30208022950348  5.41850110229696 8.87016246376795  5.41853194911053 8.43760392309186  C 5.41853194911053 3.81818175179647  9.23085624277138 0.0732181006020587  13.9333679058582 0.0732181006020587  C 18.6358795689449 0.0732181006020587  22.448203836904 3.81818175179647  22.448203836904 8.43760392309186  C 22.448203836904 8.87559359098854  22.4133704099429 9.307500046611  22.3467998714913 9.73028173431734  C 25.6673849534827 10.9573050246576  27.8663225319549 14.0773256376869  27.8667357860146 17.5623884773742  C 27.8667357860146 22.1818106486696  24.0544115180555 25.9267742998641  19.3518998549687 25.9267742998641  C 17.2928577004278 25.9267742998641  15.4056604248132 25.208957927753  13.9333679058582 24.0151319246456  C 12.4091080583901 25.2530768543993  10.4925861024723 25.9292202454505  8.51483593104588 25.9267742998641  C 3.8123242679591 25.9267742998641  0 22.1818106486696  0 17.5623884773742  C 0 13.978629345504  2.29513531603973 10.9210661312876  5.51916182923023 9.73028173431734  Z " fill-rule="nonzero" fill="#ffffff" stroke="none" transform="matrix(1 0 0 1 68 676 )" />
  </g>
</svg>