<?xml version="1.0" encoding="utf-8"?>
<svg version="1.1" xmlns:xlink="http://www.w3.org/1999/xlink" width="35px" height="35px" xmlns="http://www.w3.org/2000/svg">
  <g transform="matrix(1 0 0 1 -12 -270 )">
    <path d="M 3.00451807228916 17.5  C 3.18292992551853 17.5000586589234  3.32885908143223 17.3578712762382  3.33343373493976 17.1795180722892  C 3.41253985073167 13.5346157756914  4.89692148493317 10.0612382927099  7.47650602409638 7.48493975903614  C 10.128753018813 4.81997573294035  13.7359451447216 3.32532899558468  17.4957831325301 3.33343373493976  C 21.2534435538887 3.32382184167643  24.8585727996067 4.81887228077054  27.5066265060241 7.48493975903614  C 27.9135542168675 7.89186746987952  28.2972891566265 8.32409638554217  28.6515060240964 8.77740963855422  L 26.1719879518072 10.7129518072289  C 26.0903157184926 10.7751619729469  26.042376357229 10.8719401920823  26.042376357229 10.9746069267788  C 26.042376357229 11.1274050942408  26.1476025239215 11.2600816235816  26.2963855421687 11.2948795180723  L 33.5325301204819 13.0659638554217  C 33.5574228050191 13.0718323031421  33.5829117213287 13.0747961829825  33.6084867955635 13.0747961829825  C 33.7889959768019 13.0747961829825  33.9362259659548 12.9301790421818  33.9394578313253 12.7496987951807  L 33.9710843373494 5.29849397590361  C 33.9710843373494 5.02228915662651  33.6548192771084 4.86626506024096  33.4418674698795 5.03915662650602  L 31.1183734939759 6.85451807228915  C 27.8414176956285 2.66006304836737  22.8152658709514 0.208593599940446  17.492494764467 0.208593599940446  C 8.07422465598203 0.208593599940446  0.388189802482847 7.74617161438504  0.204518072289156 17.1626506024096  C 0.204445979891895 17.1654612755607  0.204409929248403 17.1682727575609  0.204409929248403 17.1710843551274  C 0.204409929248403 17.3527394595898  0.351670487436587 17.500000017778  0.533325591899005 17.500000017778  L 3.00451807228916 17.5  Z M 34.4665662650602 17.5  L 31.9954819277108 17.5  C 31.8170700744815 17.4999413410766  31.6711409185678 17.6421287237618  31.6665662650602 17.8204819277108  C 31.5920465831562 21.4663736273088  30.1069634341122 24.9413926193212  27.5234939759036 27.5150602409639  C 24.8707149420909 30.1792300661896  21.2638692575368 31.6737332549284  17.5042168674699 31.6665662650602  C 13.1421885095859 31.6768302538725  9.02126830300512 29.6665872964964  6.34427710843373 26.2225903614458  L 8.82379518072289 24.2870481927711  C 8.90546741403749 24.2248380270531  8.95340677530111 24.1280598079177  8.95340677530111 24.0253930732212  C 8.95340677530111 23.8725949057592  8.84818060860862 23.7399183764184  8.69939759036145 23.7051204819277  L 1.46536144578313 21.9340361445783  C 1.43980575953347 21.9278351734365  1.41360219576639 21.9247015504002  1.38730494984989 21.9247015504002  C 1.20660028364472 21.9247015504002  1.05928648132919 22.0696208024492  1.05632530120482 22.2503012048193  L 1.02680722891566 29.7057228915663  C 1.02680722891566 29.9798192771084  1.34307228915663 30.1379518072289  1.55813253012048 29.9650602409639  L 3.8816265060241 28.1496987951807  C 7.1591396179277 32.3418692720857  12.1841589447834 34.7917076912961  17.5054732097121 34.7917076912961  C 26.9233844794348 34.7917076912961  34.6097071788925 27.2555366557123  34.7954819277108 17.8394578313253  C 34.7955945803506 17.8359448892417  34.7956509175247 17.8324303671246  34.7956509175247 17.8289156192389  C 34.7956509175247 17.6472605147765  34.6483903593365 17.4999999565883  34.4667352548741 17.4999999565883  Z " fill-rule="nonzero" fill="#39bbdb" stroke="none" transform="matrix(1 0 0 1 12 270 )" />
  </g>
</svg>