<?xml version="1.0" encoding="utf-8"?>
<svg version="1.1" xmlns:xlink="http://www.w3.org/1999/xlink" width="15px" height="17px" xmlns="http://www.w3.org/2000/svg">
  <g transform="matrix(1 0 0 1 -74 -716 )">
    <path d="M 15 16.069186970339  C 14.9488863031915 16.536281779661  14.53125 16.9133342161017  14.0138796542553 16.9133342161017  C 13.4965093085106 16.9133342161017  13.0788730053191 16.536281779661  13 16.069186970339  L 13 0.930813029661017  C 13.0788730053191 0.463718220338983  13.4965093085106 0.0866657838983051  14.0138796542553 0.0866657838983051  C 14.53125 0.0866657838983051  14.9488863031915 0.463718220338983  15 0.930813029661017  L 15 16.069186970339  Z M 2 16.069186970339  C 1.92112699468085 16.536281779661  1.50349069148936 16.9133342161017  0.986120345744681 16.9133342161017  C 0.468749999999999 16.9133342161017  0.0511136968085106 16.536281779661  0 16.069186970339  L 0 0.930813029661017  C 0.0511136968085106 0.463718220338983  0.468749999999999 0.0866657838983051  0.986120345744681 0.0866657838983051  C 1.50349069148936 0.0866657838983051  1.92112699468085 0.463718220338983  2 0.930813029661017  L 2 16.069186970339  Z M 8.43500664893617 16.069186970339  C 8.43500664893617 16.536281779661  8.01737034574468 16.9133342161017  7.5 16.9133342161017  C 6.98262965425532 16.9133342161017  6.56499335106383 16.536281779661  6.56499335106383 16.069186970339  L 6.56499335106383 0.930813029661017  C 6.56499335106383 0.463718220338983  6.98262965425532 0.0866657838983051  7.5 0.0866657838983051  C 8.01737034574468 0.0866657838983051  8.43500664893617 0.463718220338983  8.43500664893617 0.930813029661017  L 8.43500664893617 16.069186970339  Z " fill-rule="nonzero" fill="#ffffff" stroke="none" transform="matrix(1 0 0 1 74 716 )" />
  </g>
</svg>