<?xml version="1.0" encoding="utf-8"?>
<svg version="1.1" xmlns:xlink="http://www.w3.org/1999/xlink" width="35px" height="33px" xmlns="http://www.w3.org/2000/svg">
  <g transform="matrix(1 0 0 1 -12 -752 )">
    <path d="M 0 1.36962890625  L 0 31.6368164062499  C 0.0717773437499858 32.3748046875  0.738281249999986 32.9774414062501  1.55859374999999 33  L 16.28662109375 33  C 16.7890625 32.9774414062501  17.2333984375 32.7518554687501  17.50341796875 32.40703125  C 17.7734375 32.7486328124999  18.21435546875 32.9742187499999  18.716796875 33  L 33.44482421875 33  C 34.26513671875 32.9742187499999  34.931640625 32.3748046875  35 31.63359375  L 35 1.36318359375006  C 34.92822265625 0.625195312500029  34.26171875 0.0257812500000577  33.44140625 0  L 18.71337890625 0  C 18.2109375 0.0257812500000577  17.7666015625 0.251367187500058  17.49658203125 0.59619140625  C 17.2265625 0.254589843750029  16.78564453125 0.0290039062500289  16.283203125 0  L 1.55859374999999 0  C 0.738281249999986 0.0290039062500289  0.0717773437499858 0.62841796875  0 1.36962890625  Z M 16.25 3.84140624999994  L 16.2500000000014 16  L 3 16  L 3 3.84140624999994  C 2.07812500000003 3.5126953125  2.37207031250001 3.24521484374994  2.73779296874999 4  L 15.6201171875 4  C 15.98583984375 3.24521484374994  16.27978515625 3.5126953125  16.25 3.84140624999994  Z M 3 19  L 16.25 19  L 16.25 30.56689453125  C 16.27978515625 30.8956054687499  15.98583984375 31.1630859375  15.6201171875 31  L 2.73779296874999 31  C 2.37207031250001 31.1630859375  2.07812500000003 30.8956054687499  3 30.56689453125  L 3 19  Z M 32 16  L 18.75 16  L 18.75 3.8349609375  C 18.716796875 3.50625000000006  19.0107421875 3.23876953125  19.37646484375 4  L 32.2587890625 4  C 32.62451171875 3.23876953125  32.91845703125 3.50625000000006  32 3.8349609375  L 32 16  Z M 18.75 30.5604492187501  L 18.7499999999986 19  L 32 19  L 32 30.5604492187501  C 32.91845703125 30.88916015625  32.62451171875 31.1566406250001  32.2587890625 31  L 19.37646484375 31  C 19.0107421875 31.1566406250001  18.716796875 30.88916015625  18.75 30.5604492187501  Z M 14.42724609375 2.45244140624997  L 14.42724609375 1.32773437499994  L 15.6748046875 1.32773437499994  L 15.6748046875 2.45244140624997  L 14.42724609375 2.45244140624997  Z M 26.7353515625 2.44921875  L 26.7353515625 1.32451171874997  L 27.98291015625 1.32451171874997  L 27.98291015625 2.44921875  L 26.7353515625 2.44921875  Z M 31.06591796875 2.44921875  L 31.06591796875 1.32451171874997  L 32.3134765625 1.32451171874997  L 32.3134765625 2.44921875  L 31.06591796875 2.44921875  Z M 10.10009765625 1.32773437499994  L 11.34765625 1.32773437499994  L 11.34765625 2.45244140624997  L 10.10009765625 2.45244140624997  L 10.10009765625 1.32773437499994  Z M 28.89892578125 2.44921875  L 28.89892578125 1.32451171874997  L 30.146484375 1.32451171874997  L 30.146484375 2.44921875  L 28.89892578125 2.44921875  Z M 12.263671875 2.45244140624997  L 12.263671875 1.32773437499994  L 13.51123046875 1.32773437499994  L 13.51123046875 2.45244140624997  L 12.263671875 2.45244140624997  Z M 4.09494173728817 10.9429174270073  L 4.07838983050844 11.4477580186693  L 13.7281514830509 11.453186412128  L 13.7447033898305 10.9483458204661  L 4.09494173728817 10.9429174270073  Z M 13.7281514830509 26.6839556428973  L 13.7447033898305 26.1791150512353  L 4.09494173728817 26.1736866577766  L 4.07838983050844 26.6785272494385  L 13.7281514830509 26.6839556428973  Z M 32.317626953125 10  L 21.642578125 10  L 21.624267578125 10.212255667462  L 32.29931640625 10.2176840609208  L 32.317626953125 10  Z M 8.35871292372879 6.36678174129707  L 3.88638771186443 6.36352470522179  L 3.87645656779661 7.76622157495787  L 8.34878177966104 7.76947861103315  L 8.35871292372879 6.36678174129707  Z M 6.82931673728817 8.47516976066814  L 6.81276483050844 8.98001035233022  L 13.7281514830509 8.98543874578884  L 13.7447033898305 8.4805981541269  L 6.82931673728817 8.47516976066814  Z M 4.09494173728817 9.70958643318357  L 4.07838983050844 10.2144270248457  L 13.7281514830509 10.2198554183043  L 13.7447033898305 9.71501482664233  L 4.09494173728817 9.70958643318357  Z M 4.09494173728817 12.1773340995228  L 4.07838983050844 12.6821746911847  L 13.7281514830509 12.6876030846435  L 13.7447033898305 12.1827624929815  L 4.09494173728817 12.1773340995228  Z M 25.8587129237288 21.5975509720663  L 21.3863877118644 21.594293935991  L 21.3764565677966 22.9969908057271  L 25.848781779661 23.0002478418024  L 25.8587129237288 21.5975509720663  Z M 32.3212890625 8.47951247543509  L 24.671142578125 8.47408408197647  L 24.65283203125 8.97892467363841  L 32.302978515625 8.98435306709717  L 32.3212890625 8.47951247543509  Z M 13.7281514830509 24.2162079765581  L 13.7447033898305 23.7113673848961  L 6.82931673728817 23.7059389914374  L 6.81276483050844 24.2107795830995  L 13.7281514830509 24.2162079765581  Z M 13.7281514830509 25.4506246490735  L 13.7447033898305 24.9457840574116  L 4.09494173728817 24.9403556639528  L 4.07838983050844 25.4451962556149  L 13.7281514830509 25.4506246490735  Z M 32.317626953125 12.1805911355979  L 21.642578125 12.1751627421393  L 21.624267578125 13  L 32.29931640625 13  L 32.317626953125 12.1805911355979  Z M 3.87645656779661 22.9969908057271  L 8.34878177966104 23.0002478418024  L 8.35871292372879 21.5975509720663  L 3.88638771186443 21.594293935991  L 3.87645656779661 22.9969908057271  Z M 21.5949417372882 26.1736866577766  L 21.5783898305084 26.6785272494385  L 31.2281514830509 26.6839556428973  L 31.2447033898305 26.1791150512353  L 21.5949417372882 26.1736866577766  Z M 4.09494173728817 13.4106650933464  L 4.07838983050844 13.9155056850085  L 13.7281514830509 13.9209340784671  L 13.7447033898305 13.4160934868052  L 4.09494173728817 13.4106650933464  Z M 21.5949417372882 24.9403556639528  L 21.5783898305084 25.4451962556149  L 31.2281514830509 25.4506246490735  L 31.2447033898305 24.9457840574116  L 21.5949417372882 24.9403556639528  Z M 21.5949417372882 28.6414343241156  L 21.5783898305084 29.1462749157777  L 31.2281514830509 29.1517033092363  L 31.2447033898305 28.6468627175744  L 21.5949417372882 28.6414343241156  Z M 13.7281514830509 27.9183723154127  L 13.7447033898305 27.4135317237508  L 4.09494173728817 27.408103330292  L 4.07838983050844 27.9129439219539  L 13.7281514830509 27.9183723154127  Z M 13.7281514830509 29.1517033092363  L 13.7447033898305 28.6468627175744  L 4.09494173728817 28.6414343241156  L 4.07838983050844 29.1462749157777  L 13.7281514830509 29.1517033092363  Z M 32.317626953125 14  L 21.642578125 14  L 21.624267578125 14  L 32.29931640625 14  L 32.317626953125 14  Z M 26.348388671875 7.76839293234134  L 26.363037109375 6.36569606260526  L 21.411865234375 6.36243902652998  L 21.40087890625 7.7651358962662  L 26.348388671875 7.76839293234134  Z M 21.5949417372882 27.408103330292  L 21.5783898305084 27.9129439219539  L 31.2281514830509 27.9183723154127  L 31.2447033898305 27.4135317237508  L 21.5949417372882 27.408103330292  Z M 32.317626953125 11  L 21.642578125 11  L 21.624267578125 12  L 32.29931640625 12  L 32.317626953125 11  Z M 24.3293167372882 23.7059389914374  L 24.3127648305084 24.2107795830995  L 31.2281514830509 24.2162079765581  L 31.2447033898305 23.7113673848961  L 24.3293167372882 23.7059389914374  Z " fill-rule="nonzero" fill="#0075a7" stroke="none" transform="matrix(1 0 0 1 12 752 )" />
  </g>
</svg>