<?xml version="1.0" encoding="utf-8"?>
<svg version="1.1" xmlns:xlink="http://www.w3.org/1999/xlink" width="15px" height="15px" xmlns="http://www.w3.org/2000/svg">
  <g transform="matrix(1 0 0 1 -215 -201 )">
    <path d="M 14.9511627906977 1.05581395343159  C 14.9511627906977 0.505767441803688  14.4999999999432 0.0581395348269437  13.9454883720362 0.058139534826944  L 4.17748837203625 0.058139534826944  C 3.62297674412927 0.058139534826944  3.17181395337482 0.505767441803688  3.17181395354515 1.05581395343159  L 3.17181395354515 3.13813953488372  L 1.07311627901299 3.13813953488372  C 0.518511627906977 3.13813953488372  0.0674418603515626 3.58576744186046  0.067441860521893 4.13590697668741  L 0.067441860521893 13.944093023199  C 0.067441860521893 14.494232558026  0.518511627906976 14.9418604650027  1.07311627901299 14.9418604651731  L 10.841023255814 14.9418604651731  C 11.3954418605219 14.9418604651731  11.8466976744754 14.4942325581963  11.8466976744754 13.944093023199  L 11.8466976744754 11.8617674419172  L 13.9454883720362 11.8617674419172  C 14.4999999999432 11.8617674419172  14.9511627906977 11.4142325581395  14.9511627906977 10.8639999999432  L 14.9511627906977 1.05581395343159  Z M 10.7293023256382 4.24669767436183  L 10.7293023256382 13.8332093023256  L 1.1848372093591 13.8332093023256  L 1.1848372093591 4.24669767436183  L 10.7293023256382 4.24669767436183  Z M 13.8337674418605 1.16669767447538  L 13.8337674418605 10.7532093022688  L 11.8466976744754 10.7532093022688  L 11.8466976744754 4.13590697668741  C 11.8466976744754 3.58576744186046  11.3954418605219 3.13813953488372  10.841023255814 3.13813953488372  L 4.28930232558139 3.13813953488372  L 4.28930232558139 1.16669767447538  L 13.8337674418605 1.16669767447538  Z " fill-rule="nonzero" fill="#027db4" stroke="none" transform="matrix(1 0 0 1 215 201 )" />
  </g>
</svg>