<?xml version="1.0" encoding="utf-8"?>
<svg version="1.1" xmlns:xlink="http://www.w3.org/1999/xlink" width="20px" height="20px" xmlns="http://www.w3.org/2000/svg">
  <g transform="matrix(1 0 0 1 -25 -357 )">
    <path d="M 19.974921875 10  C 19.975 4.49087890625  15.5091015625 0.0249999999999995  9.999921875 0.025  C 4.49087890625 0.025  0.024921875 4.49095703125  0.024921875 10  C 0.024921875 15.50904296875  4.49087890625 19.975  9.999921875 19.975  C 15.5091015625 19.975  19.974921875 15.50904296875  19.974921875 10  Z M 14.8721875 10.19544921875  C 14.3662109375 10.491484375  8.4389453125 13.95150390625  8.1423828125 14.12279296875  C 7.77220703125 14.33685546875  7.3978125 14.06455078125  7.3978125 13.6986328125  L 7.3978125 5.828125  C 7.3978125 5.42498046875  7.8116015625 5.22921875  8.1271484375 5.40658203125  C 8.558203125 5.648203125  14.5078515625 9.12580078125  14.87216796875 9.34279296875  C 15.198984375 9.5375  15.20431640625 10.0010546875  14.87216796875 10.19544921875  Z " fill-rule="nonzero" fill="#7f7f7f" stroke="none" transform="matrix(1 0 0 1 25 357 )" />
  </g>
</svg>