<?xml version="1.0" encoding="utf-8"?>
<svg version="1.1" xmlns:xlink="http://www.w3.org/1999/xlink" width="37px" height="35px" xmlns="http://www.w3.org/2000/svg">
  <g transform="matrix(1 0 0 1 -929 -94 )">
    <path d="M 12.4356254264966 17.8653217391304  C 13.084500295748 18.2423606636638  13.8827976888882 18.2423606636638  14.5316725581395 17.8653217391304  C 15.1805779846362 17.4880463769531  15.580063255814 16.7910028986923  15.580063255814 16.036962318699  C 15.580063255814 15.2826434782609  15.1805779846362 14.5856463765285  14.5316725581395 14.2086028986923  C 13.8827976888882 13.8315639741589  13.084500295748 13.8315639741589  12.4356254264966 14.2086028986923  C 11.78672 14.5856463769531  11.3874641860465 15.282689855214  11.3874641860465 16.036962318699  C 11.3874641860465 16.7910492752208  11.78672 17.4880463765285  12.4356254264966 17.8653217391304  Z M 9.72734015489871 29.8656463769531  L 10 29.8656  L 10 12.254052173913  L 33.4751218604651 12.254052173913  L 33.4751218604651 19.3475246378227  C 34.4237140056721 19.7583068553738  35.2961718386752 20.32931062036  36 21.036057970873  L 36 10.9548057969599  C 36.0550945735034 10.2373565217391  35.4773209302326 9.65555942000679  34.7650852711778 9.65555942043139  L 30.5830412404501 9.65555942043139  L 27.4090034107127 0.872626086956523  C 27.1650902325581 0.198539130434783  26.4248607749137 -0.149286956521739  25.7553500776594 0.0960463769531256  L 1.01567007765943 9.16447536217731  C 0.346113488372093 9.41004057956861  0.000780155318858868 10.155547826087  0.244463875828942 10.8295884056556  L 7.10813023255814 29.8208463769531  C 7.11983255813953 29.8537739130435  7.13314108513127 29.8857739130435  7.14736744186046 29.9170782608696  L 7.14736744186046 31.1646144926121  C 7.14736744186046 31.8820637678329  7.72491162790698 32.4636289852242  8.43737674418604 32  L 22.091007752078 32  C 21.6103679171565 31.6577512516525  21.2565320749003 30.7813059028424  21.0421581395349 29.8656463769531  L 9.72734015489871 29.8656463769531  Z M 8.43737674418605 10  C 7.72491162790698 9.65583768130095  7.14736744186046 10.2374028986923  7.14736744186046 10.9548057969599  L 7.14736744186046 22.3327072465183  L 3.11011100789199 11.1618782608696  L 25.4258493023256 2.98207536217731  L 27.8376297674419 10  L 8.43737674418605 10  Z M 36.8795348837209 27.7598608695652  C 36.8795348837209 23.8719536230469  33.7495528683571 20.72  29.8892080618755 20.72  C 26.0284043409452 20.72  22.8986517828057 23.8719536230469  22.8986517828057 27.7599072465183  C 22.8986976744186 31.6480463769531  26.0284502325581 34.8  29.8892080618755 34.8  C 33.7495528679369 34.8  36.8795348837209 31.6480463769531  36.8795348837209 27.7598608695652  Z M 34.1742784497524 27.7645449273947  C 34.1742784497524 27.9245449273947  34.0983280622956 28.0666898547894  33.9808458916129 28.1561971013078  L 30.5720731781545 31.6286144926121  L 30.5720731781545 31.6256  C 30.4806922587567 31.7170970851753  30.3572139939407 31.7683611128477  30.2285755037359 31.7682086956522  C 29.9591925581395 31.7682086956522  29.7409786046512 31.5483826086957  29.7409786046512 31.277310144786  L 29.7409786046512 29.8637449273947  L 26.2112818604651 29.8637449273947  C 26.1729624804801 29.8734840578295  26.1330368990848 29.8788173913044  26.0917345735034 29.8788173913044  C 25.822351627907 29.8788173913044  25.6041376744186 29.6587594204314  25.6041376744186 29.3876869565217  L 25.6041376744186 26.1564289856488  C 25.6041376744186 25.8853565217391  25.822351627907 25.6655304347826  26.0917345735034 25.6655304347826  L 29.7409786046512 25.6655304347826  L 29.7409786046512 24.2429681160836  C 29.7409786046512 23.9716637682575  29.9594220153638 23.7520695652174  30.2285755037359 23.7520695652174  C 30.3751987595499 23.7520695652174  30.5062189144486 23.8169971013078  30.5954778293173 23.9201855073879  L 34.0014970544036 27.3898202899966  C 34.1110754525524 27.4827737039314  34.1743332868209 27.6199659575359  34.1742784497524 27.7645449273947  Z M 20.8001265116279 27.7599072465183  C 20.8003559688522 22.9601855073879  24.4690579846362 19.0235826086956  29.136863255814 18.6384231882643  L 27.5949556590548 17.0857739130435  L 20.7852117828057 23.9236637682575  L 16.5453444962641 21.3379710143512  L 11.363600620015 25.6055188404382  L 11.363600620015 28.193762318699  L 20.8106815502475 28.193762318699  C 20.8040272865416 28.0499942026155  20.8001265116279 27.9052985504416  20.8001265116279 27.7599072465183  Z " fill-rule="nonzero" fill="#39bbdb" stroke="none" transform="matrix(1 0 0 1 929 94 )" />
  </g>
</svg>