<?xml version="1.0" encoding="utf-8"?>
<svg version="1.1" xmlns:xlink="http://www.w3.org/1999/xlink" width="19px" height="11px" xmlns="http://www.w3.org/2000/svg">
  <g transform="matrix(1 0 0 1 -139 -28 )">
    <path d="M 18.809619238477 1.1340206185567  C 18.936539746159 1.26002290950744  19 1.4049255441008  19 1.56872852233677  C 19 1.73253150057274  18.936539746159 1.87743413516609  18.809619238477 2.00343642611684  L 9.93787575150301 10.8109965635739  C 9.81095524382098 10.9369988545246  9.66499665998664 11  9.5 11  C 9.33500334001336 11  9.18904475617903 10.9369988545246  9.06212424849699 10.8109965635739  L 0.190380761523046 2.00343642611684  C 0.0634602538410155 1.87743413516609  0 1.73253150057274  0 1.56872852233677  C 0 1.4049255441008  0.0634602538410155 1.26002290950744  0.190380761523046 1.1340206185567  L 1.14228456913828 0.189003436426117  C 1.26920507682031 0.0630011454753708  1.41516366065464 0  1.58016032064128 0  C 1.74515698062792 0  1.89111556446226 0.0630011454753708  2.01803607214429 0.189003436426117  L 9.5 7.61683848797251  L 16.9819639278557 0.189003436426117  C 17.1088844355377 0.0630011454753708  17.2548430193721 0  17.4198396793587 0  C 17.5848363393454 0  17.7307949231797 0.0630011454753708  17.8577154308617 0.189003436426117  L 18.809619238477 1.1340206185567  Z " fill-rule="nonzero" fill="#333333" stroke="none" transform="matrix(1 0 0 1 139 28 )" />
  </g>
</svg>