<?xml version="1.0" encoding="utf-8"?>
<svg version="1.1" xmlns:xlink="http://www.w3.org/1999/xlink" width="6px" height="11px" xmlns="http://www.w3.org/2000/svg">
  <g transform="matrix(1 0 0 1 -95 -277 )">
    <path d="M 5.980215 1.04820833333333  C 5.980215 0.485283333333333  5.645085 0.0283402777777777  5.23089 0.0283402777777777  C 5.081985 0.0283402777777777  4.944075 0.0896194444444443  4.827225 0.190972222222222  C 4.810725 0.205104166666667  4.79577 0.221543055555556  4.780215 0.237141666666667  L 2.732355 2.27418888888889  L 0.349245000000001 4.64284027777778  L 0.292785000000001 4.69936805555556  C 0.11589 4.88575694444444  0 5.17470555555556  0 5.50313194444444  C 0.000600000000000733 5.83216944444444  0.116370000000001 6.12185138888889  0.294225 6.30811805555556  L 0.349245000000001 6.36244583333333  L 2.732835 8.73268611111111  L 4.69626 10.6854305555556  L 4.87866 10.8669458333333  C 4.984035 10.9438083333333  5.102565 10.9920555555556  5.23089 10.9920555555556  C 5.645085 10.9920555555556  5.980215 10.5357236111111  5.980215 9.9721875  L 5.980215 1.04820833333333  Z " fill-rule="nonzero" fill="#006569" stroke="none" transform="matrix(1 0 0 1 95 277 )" />
  </g>
</svg>