<?xml version="1.0" encoding="utf-8"?>
<svg version="1.1" xmlns:xlink="http://www.w3.org/1999/xlink" width="6px" height="11px" xmlns="http://www.w3.org/2000/svg">
  <g transform="matrix(1 0 0 1 -89 -277 )">
    <path d="M 6 1.04820833333333  C 6 0.485283333333333  5.66487 0.0283402777777777  5.250675 0.0283402777777777  C 5.10177 0.0283402777777777  4.96386 0.0896194444444443  4.84701 0.190972222222222  C 4.83051 0.205104166666667  4.815555 0.221543055555556  4.8 0.237141666666667  L 2.752155 2.27418888888889  L 0.36903 4.64284027777778  L 0.31257 4.69936805555556  C 0.135675 4.88575694444444  0.0197849999999997 5.17470555555556  0.0197849999999997 5.50313194444444  C 0.0203849999999999 5.83216944444444  0.136155 6.12185138888889  0.31401 6.30811805555556  L 0.36903 6.36244583333333  L 2.75262 8.73268611111111  L 4.716045 10.6854305555556  L 4.898445 10.8669458333333  C 5.00382 10.9438083333333  5.12235 10.9920555555556  5.250675 10.9920555555556  C 5.66487 10.9920555555556  6 10.5357236111111  6 9.9721875  L 6 1.04820833333333  Z " fill-rule="nonzero" fill="#006569" stroke="none" transform="matrix(1 0 0 1 89 277 )" />
  </g>
</svg>