<?xml version="1.0" encoding="utf-8"?>
<svg version="1.1" xmlns:xlink="http://www.w3.org/1999/xlink" width="8px" height="14px" xmlns="http://www.w3.org/2000/svg">
  <g transform="matrix(1 0 0 1 91 -347 )">
    <path d="M 8 1.33408333333333  C 8 0.617633333333333  7.55316 0.0360694444444443  7.0009 0.0360694444444443  C 6.80236 0.0360694444444443  6.61848 0.114061111111111  6.46268 0.243055555555556  C 6.44068 0.261041666666667  6.42074 0.281963888888889  6.4 0.301816666666667  L 3.66954 2.89442222222222  L 0.49204 5.90906944444444  L 0.41676 5.98101388888889  C 0.1809 6.21823611111111  0.0263799999999996 6.58598888888889  0.0263799999999996 7.00398611111111  C 0.0271799999999999 7.42276111111111  0.18154 7.79144722222222  0.41868 8.02851388888889  L 0.49204 8.09765833333333  L 3.67016 11.1143277777778  L 6.28806 13.5996388888889  L 6.53126 13.8306583333333  C 6.67176 13.9284833333333  6.8298 13.9898888888889  7.0009 13.9898888888889  C 7.55316 13.9898888888889  8 13.4091027777778  8 12.691875  L 8 1.33408333333333  Z " fill-rule="nonzero" fill="#006569" stroke="none" transform="matrix(1 0 0 1 -91 347 )" />
  </g>
</svg>