<?xml version="1.0" encoding="utf-8"?>
<svg version="1.1" xmlns:xlink="http://www.w3.org/1999/xlink" width="8px" height="14px" xmlns="http://www.w3.org/2000/svg">
  <g transform="matrix(1 0 0 1 84 -347 )">
    <path d="M 8 1.33408333333333  C 7.97362 0.617633333333333  7.52678 0.0360694444444443  6.97452 0.0360694444444443  C 6.77598 0.0360694444444443  6.5921 0.114061111111111  6.4363 0.243055555555556  C 6.4143 0.261041666666667  6.39436 0.281963888888889  6.37362 0.301816666666667  L 3.64314 2.89442222222222  L 0.465660000000001 5.90906944444444  L 0.390380000000002 5.98101388888889  C 0.154519999999999 6.21823611111111  0 6.58598888888889  0 7.00398611111111  C 0.000800000000000978 7.42276111111111  0.155160000000001 7.79144722222222  0.3923 8.02851388888889  L 0.465660000000001 8.09765833333333  L 3.64378 11.1143277777778  L 6.26168 13.5996388888889  L 6.50488 13.8306583333333  C 6.64538 13.9284833333333  6.80342 13.9898888888889  6.97452 13.9898888888889  C 7.52678 13.9898888888889  7.97362 13.4091027777778  8 12.691875  L 8 1.33408333333333  Z " fill-rule="nonzero" fill="#006569" stroke="none" transform="matrix(1 0 0 1 -84 347 )" />
  </g>
</svg>