<?xml version="1.0" encoding="utf-8"?>
<svg version="1.1" xmlns:xlink="http://www.w3.org/1999/xlink" width="6px" height="14px" xmlns="http://www.w3.org/2000/svg">
  <g transform="matrix(1 0 0 1 -295 -347 )">
    <path d="M 6 1.33408333333333  C 5.980215 0.617633333333333  5.645085 0.0360694444444443  5.23089 0.0360694444444443  C 5.081985 0.0360694444444443  4.944075 0.114061111111111  4.827225 0.243055555555556  C 4.810725 0.261041666666667  4.79577 0.281963888888889  4.780215 0.301816666666667  L 2.732355 2.89442222222222  L 0.349245000000001 5.90906944444444  L 0.292785000000001 5.98101388888889  C 0.11589 6.21823611111111  0 6.58598888888889  0 7.00398611111111  C 0.000600000000000733 7.42276111111111  0.116370000000001 7.79144722222222  0.294225 8.02851388888889  L 0.349245000000001 8.09765833333333  L 2.732835 11.1143277777778  L 4.69626 13.5996388888889  L 4.87866 13.8306583333333  C 4.984035 13.9284833333333  5.102565 13.9898888888889  5.23089 13.9898888888889  C 5.645085 13.9898888888889  5.980215 13.4091027777778  6 12.691875  L 6 1.33408333333333  Z " fill-rule="nonzero" fill="#006569" stroke="none" transform="matrix(1 0 0 1 295 347 )" />
  </g>
</svg>