<?xml version="1.0" encoding="utf-8"?>
<svg version="1.1" xmlns:xlink="http://www.w3.org/1999/xlink" width="6px" height="14px" xmlns="http://www.w3.org/2000/svg">
  <g transform="matrix(1 0 0 1 -289 -347 )">
    <path d="M 6 1.33408333333333  C 6 0.617633333333333  5.66487 0.0360694444444443  5.250675 0.0360694444444443  C 5.10177 0.0360694444444443  4.96386 0.114061111111111  4.84701 0.243055555555556  C 4.83051 0.261041666666667  4.815555 0.281963888888889  4.8 0.301816666666667  L 2.752155 2.89442222222222  L 0.36903 5.90906944444444  L 0.31257 5.98101388888889  C 0.135675 6.21823611111111  0.0197849999999997 6.58598888888889  0.0197849999999997 7.00398611111111  C 0.0203849999999999 7.42276111111111  0.136155 7.79144722222222  0.31401 8.02851388888889  L 0.36903 8.09765833333333  L 2.75262 11.1143277777778  L 4.716045 13.5996388888889  L 4.898445 13.8306583333333  C 5.00382 13.9284833333333  5.12235 13.9898888888889  5.250675 13.9898888888889  C 5.66487 13.9898888888889  6 13.4091027777778  6 12.691875  L 6 1.33408333333333  Z " fill-rule="nonzero" fill="#006569" stroke="none" transform="matrix(1 0 0 1 289 347 )" />
  </g>
</svg>