<?xml version="1.0" encoding="utf-8"?>
<svg version="1.1" xmlns:xlink="http://www.w3.org/1999/xlink" width="25px" height="7px" xmlns="http://www.w3.org/2000/svg">
  <g transform="matrix(1 0 0 1 -116 -485 )">
    <path d="M 4.61185079225352 3.78255208333333  C 4.61185079225352 3.78824869791667  4.60841219190141 3.7939453125  4.6049735915493 3.7939453125  L 0.169179137323943 3.7939453125  C 0.162301936619718 3.7939453125  0.158863336267604 3.79109700520833  0.158863336267604 3.785400390625  L 0.158863336267604 0.111083984375  C 0.158863336267604 0.105387369791667  0.162301936619717 0.102539062499999  0.169179137323943 0.102539062499999  L 4.60153499119718 0.102539062499999  C 4.60841219190141 0.102539062499999  4.61185079225352 0.105387369791666  4.61185079225352 0.111083984375  L 4.61185079225352 3.78255208333333  Z M 24.8411366637324 3.77970377604167  C 24.8411366637324 3.78824869791667  24.8342594630282 3.7939453125  24.8239436619718 3.7939453125  L 6.28301056338028 3.7939453125  C 6.27613336267606 3.7939453125  6.26581756161972 3.78824869791667  6.26581756161972 3.77970377604167  L 6.26581756161972 2.469482421875  C 6.26581756161972 2.46378580729167  6.27269476232394 2.45524088541667  6.28301056338028 2.45524088541667  L 24.8239436619718 2.45524088541667  C 24.8308208626761 2.45524088541667  24.8411366637324 2.4609375  24.8411366637324 2.469482421875  L 24.8411366637324 3.77970377604167  Z M 24.8411366637324 6.929931640625  C 24.8411366637324 6.9384765625  24.8342594630282 6.94417317708333  24.8239436619718 7  L 0.217319542253522 7  C 0.210442341549296 6.94417317708333  0.200126540492958 6.9384765625  0.200126540492958 6.929931640625  L 0.200126540492958 5.61971028645833  C 0.200126540492958 5.614013671875  0.207003741197183 5.60546875  0.217319542253522 5.60546875  L 24.8239436619718 5.60546875  C 24.8308208626761 5.60546875  24.8411366637324 5.61116536458333  24.8411366637324 5.61971028645833  L 24.8411366637324 6.929931640625  Z " fill-rule="nonzero" fill="#027db4" stroke="none" transform="matrix(1 0 0 1 116 485 )" />
  </g>
</svg>