<?xml version="1.0" encoding="utf-8"?>
<svg version="1.1" xmlns:xlink="http://www.w3.org/1999/xlink" width="10px" height="22px" xmlns="http://www.w3.org/2000/svg">
  <g transform="matrix(1 0 0 1 -68 -486 )">
    <path d="M 4.59878177966102 4.11182709854015  C 4.60209216101695 4.11182709854015  4.60871292372881 4.10869069343066  4.60871292372881 4.10241788321168  L 4.60871292372881 0.059591697080292  C 4.60871292372881 0.0533188868613139  4.60540254237288 0.0501824817518248  4.59878177966102 0.0501824817518248  L 0.136387711864407 0.0501824817518248  C 0.129766949152542 0.0501824817518248  0.12645656779661 0.0533188868613127  0.12645656779661 0.059591697080292  L 0.12645656779661 4.10241788321168  C 0.12645656779661 4.10869069343066  0.129766949152542 4.11182709854015  0.136387711864407 4.11182709854015  L 4.59878177966102 4.11182709854015  Z M 9.99470338983051 6.16617244525547  C 9.99470338983051 6.15676322992701  9.98808262711864 6.15049041970803  9.97815148305085 6.15049041970803  L 3.07931673728814 6.15049041970803  C 3.06938559322034 6.15049041970803  3.06276483050847 6.15676322992701  3.06276483050847 6.16617244525547  L 3.06276483050847 7.60891879562044  C 3.06276483050847 7.6183280109489  3.06938559322034 7.62460082116788  3.07931673728814 7.62460082116788  L 9.97815148305085 7.62460082116788  C 9.98808262711864 7.62460082116788  9.99470338983051 7.6183280109489  9.99470338983051 7.60891879562044  L 9.99470338983051 6.16617244525547  Z M 9.99470338983051 9.73226505474453  C 9.99470338983051 9.72285583941606  9.98808262711864 9.71658302919708  9.97815148305085 9.71658302919708  L 0.344941737288136 9.71658302919708  C 0.335010593220339 9.71658302919708  0.328389830508475 9.72285583941606  0.328389830508475 9.73226505474453  L 0.328389830508475 11.1750114051095  C 0.328389830508475 11.184420620438  0.335010593220339 11.1906934306569  0.344941737288136 11.1906934306569  L 9.97815148305085 11.1906934306569  C 9.98808262711864 11.1906934306569  9.99470338983051 11.184420620438  9.99470338983051 11.1750114051095  L 9.99470338983051 9.73226505474453  Z M 9.99470338983051 13.2952212591241  C 9.99470338983051 13.2858120437956  9.98808262711864 13.2795392335766  9.97815148305085 13.2795392335766  L 0.344941737288136 13.2795392335766  C 0.335010593220339 13.2795392335766  0.328389830508475 13.2858120437956  0.328389830508475 13.2952212591241  L 0.328389830508475 14.7379676094891  C 0.328389830508475 14.7473768248175  0.335010593220339 14.7536496350365  0.344941737288136 14.7536496350365  L 9.97815148305085 14.7536496350365  C 9.98808262711864 14.7536496350365  9.99470338983051 14.7473768248175  9.99470338983051 14.7379676094891  L 9.99470338983051 13.2952212591241  Z M 9.99470338983051 16.8613138686131  C 9.99470338983051 16.8519046532847  9.98808262711864 16.8456318430657  9.97815148305085 16.8456318430657  L 0.344941737288136 16.8456318430657  C 0.335010593220339 16.8456318430657  0.328389830508475 16.8519046532847  0.328389830508475 16.8613138686131  L 0.328389830508475 18.3040602189781  C 0.328389830508475 18.3134694343066  0.335010593220339 18.3197422445255  0.344941737288136 18.3197422445255  L 9.97815148305085 18.3197422445255  C 9.98808262711864 18.3197422445255  9.99470338983051 18.3134694343066  9.99470338983051 18.3040602189781  L 9.99470338983051 16.8613138686131  Z M 9.99470338983051 20.4242700729927  C 9.99470338983051 20.4148608576642  9.98808262711864 20.4085880474453  9.97815148305085 20.4085880474453  L 0.344941737288136 20.4085880474453  C 0.335010593220339 20.4085880474453  0.328389830508475 20.4148608576642  0.328389830508475 20.4242700729927  L 0.328389830508475 21.8670164233577  C 0.328389830508475 21.8764256386861  0.335010593220339 21.8826984489051  0.344941737288136 21.8826984489051  L 9.97815148305085 21.8826984489051  C 9.98808262711864 21.8826984489051  9.99470338983051 21.8764256386861  9.99470338983051 21.8670164233577  L 9.99470338983051 20.4242700729927  Z " fill-rule="nonzero" fill="#027db4" stroke="none" transform="matrix(1 0 0 1 68 486 )" />
  </g>
</svg>