<?xml version="1.0" encoding="utf-8"?>
<svg version="1.1" xmlns:xlink="http://www.w3.org/1999/xlink" width="25px" height="8px" xmlns="http://www.w3.org/2000/svg">
  <g transform="matrix(1 0 0 1 -116 -502 )">
    <path d="M 0.162301936619718 3.81441326530612  C 0.158863336267606 4.07270408163265  0.38237235915493 4.27997448979592  0.657460387323944 4.27997448979592  L 4.12013094190141 4.27997448979592  C 4.39178036971831 4.27997448979592  4.61528939260563 4.06951530612245  4.61528939260563 3.81441326530612  L 4.61528939260563 0.561862244897959  C 4.61528939260563 0.306760204081633  4.39178036971831 0.0963010204081633  4.12013094190141 0.0963010204081633  L 0.657460387323944 0.0963010204081633  C 0.385810959507042 0.0963010204081633  0.162301936619718 0.306760204081633  0.162301936619718 0.561862244897959  L 0.162301936619718 3.81441326530612  Z M 24.8376980633803 3.51466836734694  C 24.8411366637324 3.10331632653061  24.4800836267606 2.76530612244898  24.0399427816901 2.76530612244898  L 7.06701144366197 2.76530612244898  C 6.62687059859155 2.76530612244898  6.26925616197183 3.10331632653061  6.26925616197183 3.51466836734694  L 6.26925616197183 3.52742346938776  C 6.26925616197183 3.93877551020408  6.63030919894366 4.27678571428571  7.06701144366197 4.27678571428571  L 24.0399427816901 4.27678571428571  C 24.4800836267606 4.27678571428571  24.8376980633803 3.93877551020408  24.8376980633803 3.52742346938776  L 24.8376980633803 3.51466836734694  Z M 24.8411366637324 7.08928571428571  C 24.8411366637324 6.67793367346939  24.4800836267606 6.33992346938776  24.0399427816901 6.33992346938776  L 1.00132042253521 6.33992346938776  C 0.561179577464789 6.33992346938776  0.203565140845072 6.67793367346939  0.203565140845072 7.08928571428571  L 0.203565140845072 7.10204081632653  C 0.203565140845072 7.51339285714285  0.564618177816903 7.85140306122449  1.00132042253521 7.85140306122449  L 24.0433813820423 7.85140306122449  C 24.4835222271127 7.85140306122449  24.8411366637324 7.51339285714285  24.8411366637324 7.10204081632653  L 24.8411366637324 7.08928571428571  Z " fill-rule="nonzero" fill="#027db4" stroke="none" transform="matrix(1 0 0 1 116 502 )" />
  </g>
</svg>