<?xml version="1.0" encoding="utf-8"?>
<svg version="1.1" xmlns:xlink="http://www.w3.org/1999/xlink" width="35px" height="32px" xmlns="http://www.w3.org/2000/svg">
  <g transform="matrix(1 0 0 1 -111 -481 )">
    <path d="M 34.330078125 16  C 34.71630859375 15.765625  34.986328125 15.378125  35 14.915625  L 35 1.328125  C 34.986328125 0.6  34.3505859375 0.0125  33.564453125 0  L 1.43212890625 0  C 0.6494140625 0.009375  0.013671875 0.6  0 1.328125  L 0 14.91875  C 0.013671875 15.38125  0.287109375 15.76875  0.67333984375 16.003125  C 0.28369140625 16.2375  0.013671875 16.625  0 17.0875  L 0 30.678125  C 0.013671875 31.40625  0.6494140625 31.99375  1.435546875 32  L 33.56787109375 32  C 34.35400390625 31.99375  34.98974609375 31.403125  35 30.678125  L 35 17.084375  C 34.98974609375 16.621875  34.71630859375 16.234375  34.330078125 16  Z M 31.29150390625 2.39375  L 31.29150390625 1.2875  L 32.484375 1.2875  L 32.484375 2.39375  L 31.29150390625 2.39375  Z M 29.2236328125 2.39375  L 29.2236328125 1.2875  L 30.41650390625 1.2875  L 30.41650390625 2.39375  L 29.2236328125 2.39375  Z M 27.15234375 2.39375  L 27.15234375 1.2875  L 28.34521484375 1.2875  L 28.34521484375 2.39375  L 27.15234375 2.39375  Z M 2 13.865625  L 2 3.75625  C 1.93115234375 3.434375  2.21484375 3.171875  2.5634765625 3.171875  L 32.4365234375 3.171875  C 32.78515625 3.171875  33.06884765625 3.434375  33 3.75625  L 33 13.865625  C 33.06884765625 14.1875  32.78515625 14.45  32.4365234375 15  L 2.5634765625 15  C 2.21484375 14.45  1.93115234375 14.1875  2 13.865625  Z M 31.29150390625 17.04375  L 32.484375 17.04375  L 32.484375 18.15  L 31.29150390625 18.15  L 31.29150390625 17.04375  Z M 29.2236328125 17.04375  L 30.41650390625 17.04375  L 30.41650390625 18.15  L 29.2236328125 18.15  L 29.2236328125 17.04375  Z M 27.15234375 17.04375  L 28.34521484375 17.04375  L 28.34521484375 18.15  L 27.15234375 18.15  L 27.15234375 17.04375  Z M 33 19.5125  L 33 29.621875  C 33.0654296875 29.94375  32.78173828125 30.20625  32.43310546875 30  L 2.56005859375 30  C 2.21142578125 30.20625  1.927734375 29.94375  2 29.621875  L 2 19.5125  C 1.927734375 19.190625  2.21142578125 18.928125  2.56005859375 19  L 32.43310546875 19  C 32.78173828125 18.928125  33.0654296875 19.190625  33 19.5125  Z " fill-rule="nonzero" fill="#027db4" stroke="none" transform="matrix(1 0 0 1 111 481 )" />
  </g>
</svg>