<?xml version="1.0" encoding="utf-8"?>
<svg version="1.1" xmlns:xlink="http://www.w3.org/1999/xlink" width="11px" height="22px" xmlns="http://www.w3.org/2000/svg">
  <g transform="matrix(1 0 0 1 -85 -486 )">
    <path d="M 4.98509114583333 4.10869069343066  C 4.99225260416667 4.10869069343066  4.9994140625 4.10241788321168  4.9994140625 4.09928147810219  L 4.9994140625 0.0564552919708029  C 4.9994140625 0.0501824817518248  4.99583333333333 0.0470460766423358  4.988671875 0.0470460766423358  L 0.158268229166669 0.0470460766423358  C 0.151106770833333 0.0470460766423358  0.147526041666669 0.0501824817518248  0.147526041666669 0.0564552919708029  L 0.147526041666669 4.09928147810219  C 0.147526041666669 4.10555428832117  0.151106770833339 4.10869069343066  0.158268229166669 4.10869069343066  L 4.98509114583333 4.10869069343066  Z M 10.8252604166667 6.16303604014599  C 10.8252604166667 6.15362682481752  10.8145182291667 6.14735401459854  10.8073567708333 6.14735401459854  L 3.3451171875 6.14735401459854  C 3.33437500000001 6.14735401459854  3.32721354166667 6.15362682481752  3.32721354166667 6.16303604014599  L 3.32721354166667 7.60578239051095  C 3.32721354166667 7.61519160583942  3.33437500000001 7.62146441605839  3.3451171875 7.62146441605839  L 10.8073567708333 7.62146441605839  C 10.8180989583333 7.62146441605839  10.8252604166667 7.61519160583942  10.8252604166667 7.60578239051095  L 10.8252604166667 6.16303604014599  Z M 10.8216796875 9.72599224452555  C 10.8252604166667 9.71658302919708  10.8145182291667 9.7103102189781  10.8073567708333 10  L 0.383854166666667 10  C 0.373111979166669 9.7103102189781  0.365950520833333 9.71658302919708  0.365950520833333 9.72599224452555  L 0.365950520833333 11.1687385948905  C 0.365950520833333 11.178147810219  0.373111979166669 11.184420620438  0.383854166666667 11  L 10.8037760416667 11  C 10.8145182291667 11.184420620438  10.8216796875 11.178147810219  10.8216796875 11.1687385948905  L 10.8216796875 9.72599224452555  Z M 10.8216796875 13.2920848540146  C 10.8252604166667 13.2826756386861  10.8145182291667 13.2764028284672  10.8073567708333 13  L 0.383854166666667 13  C 0.373111979166669 13.2764028284672  0.365950520833333 13.2826756386861  0.365950520833333 13.2920848540146  L 0.365950520833333 14.7348312043796  C 0.365950520833333 14.744240419708  0.373111979166669 14.750513229927  0.383854166666667 14.750513229927  L 10.8037760416667 14.750513229927  C 10.8145182291667 14.750513229927  10.8216796875 14.744240419708  10.8216796875 14.7348312043796  L 10.8216796875 13.2920848540146  Z M 10.8216796875 16.8550410583942  C 10.8252604166667 16.8456318430657  10.8145182291667 16.8393590328467  10.8073567708333 16.8393590328467  L 0.383854166666667 16.8393590328467  C 0.373111979166669 16.8393590328467  0.365950520833333 16.8456318430657  0.365950520833333 16.8550410583942  L 0.365950520833333 18.2977874087591  C 0.365950520833333 18.3071966240876  0.373111979166669 18.3134694343066  0.383854166666667 18  L 10.8037760416667 18  C 10.8145182291667 18.3134694343066  10.8216796875 18.3071966240876  10.8216796875 18.2977874087591  L 10.8216796875 16.8550410583942  Z M 10.8216796875 20.4211336678832  C 10.8252604166667 20.4117244525547  10.8145182291667 20.4054516423358  10.8073567708333 20  L 0.383854166666667 20  C 0.373111979166669 20.4054516423358  0.365950520833333 20.4117244525547  0.365950520833333 20.4211336678832  L 0.365950520833333 21.8638800182482  C 0.365950520833333 21.8732892335766  0.373111979166669 21.8795620437956  0.383854166666667 21.8795620437956  L 10.8037760416667 21.8795620437956  C 10.8145182291667 21.8795620437956  10.8216796875 21.8732892335766  10.8216796875 21.8638800182482  L 10.8216796875 20.4211336678832  Z " fill-rule="nonzero" fill="#027db4" stroke="none" transform="matrix(1 0 0 1 85 486 )" />
  </g>
</svg>