<?xml version="1.0" encoding="utf-8"?>
<svg version="1.1" xmlns:xlink="http://www.w3.org/1999/xlink" width="19px" height="11px" xmlns="http://www.w3.org/2000/svg">
  <g transform="matrix(1 0 0 1 -139 -11 )">
    <path d="M 18.809619238477 8.99656357388316  C 18.936539746159 9.1225658648339  19 9.26746849942726  19 9.43127147766323  C 19 9.5950744558992  18.936539746159 9.73997709049255  18.809619238477 9.8659793814433  L 17.8577154308617 10.8109965635739  C 17.7307949231797 10.9369988545246  17.5848363393454 11  17.4198396793587 11  C 17.2548430193721 11  17.1088844355377 10.9369988545246  16.9819639278557 10.8109965635739  L 9.5 3.38316151202749  L 2.01803607214429 10.8109965635739  C 1.89111556446226 10.9369988545246  1.74515698062792 11  1.58016032064128 11  C 1.41516366065464 11  1.26920507682031 10.9369988545246  1.14228456913828 10.8109965635739  L 0.190380761523046 9.8659793814433  C 0.0634602538410155 9.73997709049255  0 9.5950744558992  0 9.43127147766323  C 0 9.26746849942726  0.0634602538410155 9.1225658648339  0.190380761523046 8.99656357388316  L 9.06212424849699 0.189003436426117  C 9.18904475617903 0.0630011454753708  9.33500334001336 0  9.5 0  C 9.66499665998664 0  9.81095524382098 0.0630011454753708  9.93787575150301 0.189003436426117  L 18.809619238477 8.99656357388316  Z " fill-rule="nonzero" fill="#333333" stroke="none" transform="matrix(1 0 0 1 139 11 )" />
  </g>
</svg>