<?xml version="1.0" encoding="utf-8"?>
<svg version="1.1" xmlns:xlink="http://www.w3.org/1999/xlink" width="20px" height="20px" xmlns="http://www.w3.org/2000/svg">
  <g transform="matrix(1 0 0 1 -308 -14 )">
    <path d="M 19.3724544600022 0.628747417748678  C 20.0216488261994 1.27791173690581  20.0253446008473 2.32868356789172  19.3778028169014 2.97622535211268  L 12.3488300470401 10.005198121974  L 19.4087511738006 17.0651192487346  C 20.0593877935189 17.7157558684529  20.0606197183099 18.7664976523988  19.4138892019696 19.4132281690141  C 18.7675793428147 20.059538028169  17.7168075118288 20.0583061033781  17.0661708921105 19.4076995304247  L 10.0062197183099 12.3477784036642  L 2.9772469484485 19.3767812205656  C 2.33072676056338 20.0233014084507  1.27872300478653 20.0208375585937  0.629528638589349 19.3716431923966  C -0.0202666664832748 18.7218478873239  -0.0227305163402286 17.669844131272  0.623789671269807 17.023323943662  L 7.65276244140625 9.99435117380061  L 0.593051643100791 2.93461032873019  C -0.056353051826585 2.28520563380282  -0.0586065729533458 1.23344225352113  0.587733333241637 0.587102347326145  C 1.23467417831206 -0.0598384977442779  2.2864676056338 -0.0575849766175176  2.93584225352113 0.591819718309859  L 9.99558309859155 7.65156056338028  L 17.0243455399978 0.622798121974031  C 17.6718873239437 -0.024743661971832  18.7226591549296 -0.021077934363998  19.3724544600022 0.628747417748678  Z " fill-rule="nonzero" fill="#aaaaaa" stroke="none" transform="matrix(1 0 0 1 308 14 )" />
  </g>
</svg>