<?xml version="1.0" encoding="utf-8"?>
<svg version="1.1" xmlns:xlink="http://www.w3.org/1999/xlink" width="178px" height="114px" xmlns="http://www.w3.org/2000/svg">
  <g transform="matrix(1 0 0 1 -21 -75 )">
    <path d="M 22 77  A 1 1 0 0 1 23 76 L 197 76  A 1 1 0 0 1 198 77 L 198 187  A 1 1 0 0 1 197 188 L 23 188  A 1 1 0 0 1 22 187 L 22 77  Z " fill-rule="nonzero" fill="#ffffff" stroke="none" />
    <path d="M 21.5 77  A 1.5 1.5 0 0 1 23 75.5 L 197 75.5  A 1.5 1.5 0 0 1 198.5 77 L 198.5 187  A 1.5 1.5 0 0 1 197 188.5 L 23 188.5  A 1.5 1.5 0 0 1 21.5 187 L 21.5 77  Z " stroke-width="1" stroke-dasharray="9,4" stroke="#797979" fill="none" stroke-dashoffset="0.5" />
  </g>
</svg>