<?xml version="1.0" encoding="utf-8"?>
<svg version="1.1" xmlns:xlink="http://www.w3.org/1999/xlink" width="6px" height="12px" xmlns="http://www.w3.org/2000/svg">
  <g transform="matrix(1 0 0 1 -18 -18 )">
    <path d="M 0.176470588235304 0.224999999999994  C 0.176470588235304 0.0750000000000028  0.317647058823525 0.0750000000000028  0.388235294117635 0.0750000000000028  C 0.458823529411774 0.0750000000000028  0.599999999999994 0.0750000000000028  0.670588235294105 0.150000000000006  L 5.89411764705883 5.7  C 5.96470588235294 5.77500000000001  5.96470588235294 5.84999999999999  5.96470588235294 6  C 5.96470588235294 6.075  5.89411764705883 6.22499999999999  5.89411764705883 6.3  L 0.670588235294105 11.85  C 0.529411764705884 12  0.317647058823525 12  0.176470588235304 11.85  C 0.0352941176470551 11.7  0.0352941176470551 11.475  0.176470588235304 11.325  L 5.11764705882354 6  L 0.176470588235304 0.75  C 0.0352941176470551 0.599999999999994  0.0352941176470551 0.375  0.176470588235304 0.224999999999994  Z " fill-rule="nonzero" fill="#c9c9c9" stroke="none" transform="matrix(1 0 0 1 18 18 )" />
  </g>
</svg>