<?xml version="1.0" encoding="utf-8"?>
<svg version="1.1" xmlns:xlink="http://www.w3.org/1999/xlink" width="19px" height="19px" xmlns="http://www.w3.org/2000/svg">
  <g transform="matrix(1 0 0 1 -683 -281 )">
    <path d="M 692.5 281  C 697.82 281  702 285.18  702 290.5  C 702 295.82  697.82 300  692.5 300  C 687.18 300  683 295.82  683 290.5  C 683 285.18  687.18 281  692.5 281  Z " fill-rule="nonzero" fill="#ffffff" stroke="none" />
    <path d="M 692.5 281.5  C 697.54 281.5  701.5 285.46  701.5 290.5  C 701.5 295.54  697.54 299.5  692.5 299.5  C 687.46 299.5  683.5 295.54  683.5 290.5  C 683.5 285.46  687.46 281.5  692.5 281.5  Z " stroke-width="1" stroke="#797979" fill="none" />
  </g>
</svg>