<?xml version="1.0" encoding="utf-8"?>
<svg version="1.1" xmlns:xlink="http://www.w3.org/1999/xlink" width="26px" height="28px" xmlns="http://www.w3.org/2000/svg">
  <g transform="matrix(1 0 0 1 -739 -35 )">
    <path d="M 4.91542289820429 10.703962691215  C 4.91542289820429 6.20536129261364  8.54216417910448 2.54545454545455  13 2.54545454545455  C 17.4578358208955 2.54545454545455  21.0845771017957 6.20536129261364  21.0845771017957 10.703962691215  L 21.0845771017957 16.4149184276661  C 21.0845771017957 16.9444055944056  21.255161666278 17.460023322771  21.5696517286614 17.8834498961976  L 23.5099502361241 20  L 2.49004976387593 20  L 4.43034827133862 17.8834498961976  C 4.74483833372202 17.460023322771  4.91542289820429 16.9444055944056  4.91542289820429 16.4149184276661  L 4.91542289820429 10.703962691215  Z M 23.5099502361241 10.703962691215  C 23.5099502361241 4.84615384615384  18.8047263555271 0.0979020979020951  13 0.0979020979020979  C 7.19527364447295 0.0979020979020979  2.49004976387593 4.84615384615384  2.49004976387593 10.703962691215  L 2.49004976387593 16.4149184276661  L 0.0646766295475752 19.6783216783217  L 0.0646766295475752 21.310023322771  C 0.0646766295475752 22.2074592329545  0.792288569846083 22.9417249672203  1.68159202716884 23  L 24.3184079728312 23  C 25.2077114680504 22.9417249289773  25.9353234083489 22.2074591947115  25.9353233704524 21.310023322771  L 25.9353233704524 19.6783216783217  L 23.5099502361241 16.4149184276661  L 23.5099502361241 10.703962691215  Z M 15.4253731343284 22.9417249289773  C 15.4253731343284 24.2934708201715  14.3394965947389 25.3892773765297  13 25.3892773765297  C 11.6605034052611 25.3892773765297  10.5746268656716 24.2934708201715  10.5746268656716 22.9417249289773  L 8.14925373134328 22.9417249289773  C 8.14925373134328 25.6405594405594  10.3256218779151 27.8368298240822  13 27.8368298240822  C 15.6743781220849 27.8368298240822  17.8507462686567 25.6405594405594  17.8507462686567 22.9417249289773  L 15.4253731343284 22.9417249289773  Z " fill-rule="nonzero" fill="#39bbdb" stroke="none" transform="matrix(1 0 0 1 739 35 )" />
  </g>
</svg>