<?xml version="1.0" encoding="utf-8"?>
<svg version="1.1" xmlns:xlink="http://www.w3.org/1999/xlink" width="14px" height="14px" viewBox="427 473.5  14 14" xmlns="http://www.w3.org/2000/svg">
  <path d="M 434 473.5  C 437.92 473.5  441 476.58  441 480.5  C 441 484.42  437.92 487.5  434 487.5  C 430.08 487.5  427 484.42  427 480.5  C 427 476.58  430.08 473.5  434 473.5  Z " fill-rule="nonzero" fill="#ffffff" stroke="none" />
  <path d="M 434 474  C 437.64 474  440.5 476.86  440.5 480.5  C 440.5 484.14  437.64 487  434 487  C 430.36 487  427.5 484.14  427.5 480.5  C 427.5 476.86  430.36 474  434 474  Z " stroke-width="1" stroke="#797979" fill="none" />
  <path d="M 434 484  C 432.04 484  430.5 482.46  430.5 480.5  C 430.5 478.54  432.04 477  434 477  C 435.96 477  437.5 478.54  437.5 480.5  C 437.5 482.46  435.96 484  434 484  " fill-rule="nonzero" fill="#797979" stroke="none" />
</svg>