<?xml version="1.0" encoding="utf-8"?>
<svg version="1.1" xmlns:xlink="http://www.w3.org/1999/xlink" width="14px" height="12px" xmlns="http://www.w3.org/2000/svg">
  <g transform="matrix(1 0 0 1 -139 -5 )">
    <path d="M 13.740234375 9.72916666666667  C 13.9134114583333 9.99305555555555  14 10.3055555555556  14 10.6666666666667  C 14 11.0277777777778  13.9134114583333 11.3402777777778  13.740234375 11.6041666666667  C 13.5670572916667 11.8680555555556  13.3619791666667 12  13.125 12  L 0.875 12  C 0.638020833333333 12  0.432942708333333 11.8680555555556  0.259765625 11.6041666666667  C 0.0865885416666667 11.3402777777778  0 11.0277777777778  0 10.6666666666667  C 0 10.3055555555556  0.0865885416666667 9.99305555555555  0.259765625 9.72916666666667  L 6.384765625 0.395833333333334  C 6.55794270833333 0.131944444444443  6.76302083333333 0  7 0  C 7.23697916666667 0  7.44205729166667 0.131944444444443  7.615234375 0.395833333333334  L 13.740234375 9.72916666666667  Z " fill-rule="nonzero" fill="#61d2e8" stroke="none" transform="matrix(1 0 0 1 139 5 )" />
  </g>
</svg>