<?xml version="1.0" encoding="utf-8"?>
<svg version="1.1" xmlns:xlink="http://www.w3.org/1999/xlink" width="18px" height="17px" xmlns="http://www.w3.org/2000/svg">
  <g transform="matrix(1 0 0 1 -555 -299 )">
    <path d="M 17.5757575757576 12.7070707070707  C 17.8585858585859 12.9741863075196  18 13.2985409652076  18 13.6801346801347  C 18 14.0617283950617  17.8585858585859 14.3860830527497  17.5757575757576 14.6531986531987  L 15.5151515151515 16.5993265993266  C 15.2323232323232 16.8664421997755  14.8888888888889 17  14.4848484848485 17  C 14.0808080808081 17  13.7373737373737 16.8664421997755  13.4545454545455 16.5993265993266  L 9 12.3922558922559  L 4.54545454545455 16.5993265993266  C 4.26262626262626 16.8664421997755  3.91919191919192 17  3.51515151515152 17  C 3.11111111111111 17  2.76767676767677 16.8664421997755  2.48484848484848 16.5993265993266  L 0.424242424242424 14.6531986531987  C 0.141414141414142 14.3860830527497  0 14.0617283950617  0 13.6801346801347  C 0 13.2985409652076  0.141414141414142 12.9741863075196  0.424242424242424 12.7070707070707  L 4.87878787878788 8.5  L 0.424242424242424 4.29292929292929  C 0.141414141414142 4.02581369248036  0 3.70145903479237  0 3.31986531986532  C 0 2.93827160493827  0.141414141414142 2.61391694725028  0.424242424242424 2.34680134680135  L 2.48484848484848 0.400673400673401  C 2.76767676767677 0.133557800224466  3.11111111111111 0  3.51515151515152 0  C 3.91919191919192 0  4.26262626262626 0.133557800224466  4.54545454545455 0.400673400673401  L 9 4.60774410774411  L 13.4545454545455 0.400673400673401  C 13.7373737373737 0.133557800224466  14.0808080808081 0  14.4848484848485 0  C 14.8888888888889 0  15.2323232323232 0.133557800224466  15.5151515151515 0.400673400673401  L 17.5757575757576 2.34680134680135  C 17.8585858585859 2.61391694725028  18 2.93827160493827  18 3.31986531986532  C 18 3.70145903479237  17.8585858585859 4.02581369248036  17.5757575757576 4.29292929292929  L 13.1212121212121 8.5  L 17.5757575757576 12.7070707070707  Z " fill-rule="nonzero" fill="#8c8c8c" stroke="none" transform="matrix(1 0 0 1 555 299 )" />
  </g>
</svg>