<?xml version="1.0" encoding="utf-8"?>
<svg version="1.1" xmlns:xlink="http://www.w3.org/1999/xlink" width="20px" height="20px" xmlns="http://www.w3.org/2000/svg">
  <g transform="matrix(1 0 0 1 -23 -186 )">
    <path d="M 9.07023346212636 20  L 9.07235621178668 19.9980470703125  L 9.07023346212636 19.9980470703125  C 7.70317945397418 19.9980470703125  6.39768535580842 19.6172248828125  5.29173017153533 18.8965921289062  C 4.18152948794158 18.1740064453125  3.37063720703125 17.1741040820312  2.94396352751359 16.0042964648437  L 2.93334975798234 15.9750024414062  L 2.88664913807744 15.8422029101562  L 0.180136952275815 7.91524265625  C -0.172240319293478 6.971975390625  0.369062117866848 5.93301435546875  1.39222987432065 5.5971096484375  L 1.39859812330163 5.59515671875  C 2.19250836447011 5.343228203125  3.05434676460598 5.591250859375  3.57654441236413 6.157601796875  L 3.23690365998641 3.9468801953125  C 3.14774796195652 3.48012890625  3.26874498980978 2.9860365234375  3.56805339249321 2.589590859375  C 3.87373006538723 2.18728640625  4.32587680451766 1.91973439453125  4.84382893172554 1.83575822265625  C 5.3660265794837 1.74982912109375  5.89459247622283 1.8611463671875  6.3340027173913 2.15018064453125  C 6.6863799889606 2.38062689453125  6.94323331351902 2.69700224609375  7.07696683933424 3.06220095703125  L 7.08121233865489 1.79669955078125  C 7.08121233865489 0.806561875  7.97276929772418 0  9.07023346212636 0  C 10.1592066066576 0  11.048640794837 0.7987501171875  11.0571318147079 1.78107607421875  L 11.1802515922215 4.26130259765625  L 11.3415809485394 3.4195879296875  C 11.4095091075068 2.9508837109375  11.6706079101562 2.527096953125  12.0781768002717 2.226345078125  C 12.4984822308084 1.91582853515625  13.0185571076766 1.7771701953125  13.5450002759851 1.83185236328125  L 13.553491295856 1.83380529296875  C 14.0778116932745 1.89629919921875  14.5448177224864 2.14236890625  14.8717219344429 2.5251440234375  C 15.1965033967391 2.907919140625  15.3429734629755 3.386388046875  15.2814135742187 3.8687628125  L 15.2771680748981 3.89024509765625  L 14.1393715820313 10.7294209570313  C 14.1308805621603 10.788008984375  14.1223895422894 10.8524558203125  14.1117757727582 10.920808515625  C 14.0799344429348 11.1317254101562  14.0013925356658 11.6570647460938  14.0289883449389 11.8777463085937  C 14.0629524244225 11.8523581640625  14.1075302734375 11.8093936132813  14.1521081012228 11.7410409179687  L 15.6911052352242 9.17293232421875  L 15.7144555451766 9.141685390625  C 16.0986741465693 8.64954595703125  16.7482370711617 8.32145298828125  17.4529915930706 8.264817890625  C 18.1195365574049 8.21013572265625  18.7563629415761 8.40738208984375  19.2000186820652 8.80382775390625  C 19.6564109417459 9.2139439453125  19.9090187457541 9.7099892578125  19.9260007642663 10.2372815234375  C 19.9429828040082 10.7235621679687  19.7667941576087 11.2293721484375  19.4038031377378 11.7390879882812  C 19.306156419837 11.8894639257813  18.4039856912364 13.2858119335937  17.3595903957201 14.7466067773438  C 15.3493417331861 17.55687921875  14.5257129330842 18.23845328125  14.0820572138247 18.4864759375  C 13.3603206309443 18.968850703125  12.5664103897758 19.3418611523437  11.7194312797215 19.5996484765625  C 10.8639611497962 19.8593887304688  9.9724041907269 19.9941412109375  9.07023346212636 20  Z M 4.17940673828125 15.4613807226562  L 4.24096662703804 15.631286015625  C 4.93086188009511 17.4963382617188  6.86681413468071 18.7462161914063  9.06811071246603 18.7481691210938  C 10.6028623259171 18.738404453125  12.0696858016304 18.2931354296875  13.3093745117188 17.4592325  L 13.3369703209918 17.4397031445313  L 13.3666888799253 17.4240796875  C 13.5407547554348 17.3303388476563  14.2582458389946 16.8108583203125  16.2281621518342 14.0572209765625  C 17.3107670261549 12.5436969140625  18.2362880647079 11.10243140625  18.2447790845788 11.088760859375  L 18.263883873981 11.0614197851563  C 18.7860815217391 10.3349282226563  18.5504557574728 9.96387072265625  18.2532701044497 9.6963187109375  C 18.0940634977921 9.55375451171875  17.8457012143342 9.48540181640625  17.5739886209239 9.5068841015625  C 17.2768029679008 9.53031931640625  16.9987221042799 9.65921296875  16.8395154976223 9.84474171875  L 15.3344824431046 12.3581681445313  L 15.330236943784 12.364026953125  C 14.9757369225543 12.9206132226563  14.3962248853601 13.2194121679688  13.8188356190557 13.143247734375  C 13.3412158203125 13.080753828125  13.0588894573709 12.7741431640625  12.9654882600204 12.6745434960938  L 12.9548744904891 12.664778828125  C 12.5727786599864 12.2605214257813  12.6364612984035 11.616053125  12.7659493248981 10.7469973632813  C 12.7765630944293 10.6805975976563  12.7850541143003 10.6181036914063  12.7935451341712 10.5614686132813  L 12.7956678838315 10.5458451367188  L 13.9334643766984 3.714481015625  C 13.9674284561821 3.4020115234375  13.7233116720448 3.116883125  13.3857936693275 3.0739185546875  C 13.0546439368207 3.040718671875  12.7277397248641 3.28092958984375  12.6874073963995 3.58949322265625  L 12.6831618758492 3.62269310546875  L 11.5920659816576 9.32330826171875  L 11.5729611922554 9.3740845703125  C 11.432859375 9.73147154296875  11.0910958941916 9.9404355078125  10.7196138332201 9.8916121484375  C 10.4372874702785 9.85450640625  10.0976467179008 9.645542421875  10.0636826384171 9.1787911328125  L 10.0636826384171 9.1651205859375  L 9.69856884765625 1.8123230078125  L 9.69856884765625 1.79669955078125  C 9.69856884765625 1.49399474609375  9.41624248471467 1.24987794921875  9.07023346212636 1.24987794921875  C 8.72210168987772 1.24987794921875  8.43977532693614 1.49594767578125  8.43977532693614 1.79669955078125  L 8.43977532693614 1.79865248046875  L 8.41430226732337 9.1807440625  C 8.42491603685462 9.547895703125  8.14046692425272 9.85645931640625  7.75624832286005 9.88965921875  C 7.36778422214674 9.9228591015625  7.03663448963995 9.672883515625  6.97507462211277 9.30573185546875  L 5.81392781929348 3.54652865234375  C 5.75236793053668 3.236012109375  5.40848167883832 3.01337759765625  5.07945471722147 3.06610681640625  L 5.07733194633152 3.06610681640625  C 4.91812533967391 3.0914949609375  4.7780235436481 3.1754711328125  4.68249959663723 3.302411875  C 4.58485287873641 3.431305546875  4.54664329993206 3.5875402734375  4.57423910920516 3.7340103515625  L 4.57848460852581 3.75939849609375  L 5.62075715438179 10.557562734375  L 5.62075715438179 10.6005272851563  C 5.62075715438179 11.071184453125  5.3023439622962 11.291866015625  5.02850859799592 11.3406893945312  C 4.75891875424592 11.3875598242187  4.37894567340353 11.2918660351562  4.20063427734375 10.8661263476562  L 4.19851152768342 10.8622204882812  L 2.65102337381114 7.14578654296875  C 2.53214911684783 6.84308173828125  2.16278980553669 6.6731764453125  1.84437661345109 6.77277609375  C 1.52171790081522 6.88018748046875  1.35189752462636 7.21023337890625  1.4644035326087 7.50903232421875  L 1.47077178158968 7.52856166015625  L 4.17940673828125 15.4613807226562  Z " fill-rule="nonzero" fill="#ffffff" stroke="none" transform="matrix(1 0 0 1 23 186 )" />
  </g>
</svg>