<?xml version="1.0" encoding="utf-8"?>
<svg version="1.1" xmlns:xlink="http://www.w3.org/1999/xlink" width="10px" height="9px" xmlns="http://www.w3.org/2000/svg">
  <g transform="matrix(1 0 0 1 -181 -192 )">
    <path d="M 9.53 7.902  L 5.72 4.5  L 9.53 1.071  C 9.72 0.9  9.72 0.621  9.53 0.423000000000001  L 9.5 0.396  C 9.31 0.225  9 0.225  8.81 0.396  L 5 3.852  L 1.19 0.423000000000001  C 1 0.252  0.69 0.252  0.5 0.423000000000001  L 0.470000000000001 0.45  C 0.28 0.621  0.28 0.900000000000001  0.470000000000001 1.098  L 4.28 4.5  L 0.470000000000001 7.929  C 0.28 8.1  0.28 8.379  0.470000000000001 8.577  L 0.5 8.604  C 0.69 8.775  1 8.775  1.19 8.604  L 5 5.148  L 8.81 8.577  C 9 8.748  9.31 8.748  9.5 8.577  L 9.53 8.55  C 9.72 8.379  9.72 8.1  9.53 7.902  Z " fill-rule="nonzero" fill="#141f34" stroke="none" transform="matrix(1 0 0 1 181 192 )" />
  </g>
</svg>