<?xml version="1.0" encoding="utf-8"?>
<svg version="1.1" xmlns:xlink="http://www.w3.org/1999/xlink" width="35px" height="32px" xmlns="http://www.w3.org/2000/svg">
  <g transform="matrix(1 0 0 1 -158 -223 )">
    <path d="M 34.8643410854038 2.76995969004361  C 34.8643410854038 1.31453023255814  33.5620155040085 0.124031007994187  31.9701395348837 0.124031007630814  L 3.02964341098519 0.124031007630814  C 1.43776744186047 0.124031007630814  0.135658914596203 1.31453023255814  0.135658914596203 2.7699596900436  L 0.135658914596203 29.2300403099564  C 0.135658914596203 30.6852713179506  1.43776744186047 31.8759689923692  3.02964341098519 31.8759689923692  L 31.9701395348837 31.8759689923692  C 33.5620155040085 31.8759689923692  34.8643410854038 30.6852713179506  34.8643410854038 29.2300403099564  L 34.8643410854038 2.76995969004361  Z M 32 4.09302325581395  L 32 27.906976744186  C 31.9701395348837 28.7007751936773  31.3914728680846 29.2300403099564  30.5232558139535 29  L 4.47674418604651 29  C 3.6083100773869 29.2300403099564  3.02964341098519 28.7007751936773  3 27.906976744186  L 3 4.09302325581395  C 3.02964341098519 3.29922480632267  3.60831007778434 2.7699596900436  4.47674418604651 3  L 30.5232558139535 3  C 31.3914728680846 2.7699596900436  31.9701395348837 3.29922480632267  32 4.09302325581395  Z M 11.7118139534884 5.4160868215843  C 11.7118139534884 4.62208992223837  11.1329302325581 4.09302325581395  10.2647131784271 4.09302325581395  L 5.92362790697674 4.09302325581395  C 5.77885271331077 4.09302325581395  5.48951937971248 4.09302325581395  5.34474418604651 4.22538914716569  C 5.05541085284566 4.35755658902616  4.76586046511628 4.62208992223837  4.62130232558139 4.88662325581395  C 4.47674418604651 5.0189891471657  4.47674418604651 5.28372093023256  4.47674418604651 5.4160868215843  L 4.47674418604651 9.38507906976744  C 4.47674418604651 10.1786790697674  5.05541085284566 10.7081426355378  5.92362790697674 10.7081426355378  C 6.79184496110783 10.7081426355378  7.37072868203806 10.1786790697674  7.37072868203806 9.38507906976744  L 7.37072868203806 8.59108217042151  L 9.25193798436364 10.3110449611192  C 9.5412713175645 10.575776744186  9.83082170529388 10.7081426355378  10.2647131784271 10.7081426355378  C 10.6990387598224 10.7081426355378  10.9883720930233 10.575776744186  11.2777054262241 10.3110449611192  C 11.8563720930233 9.7819782943314  11.8563720930233 8.98817984484012  11.2777054262241 8.45891472856105  L 9.39649612389853 6.73895193786337  L 10.2647131784271 6.73895193786337  C 11.1329302325581 6.73895193786337  11.7118139534884 6.2096868215843  11.7118139534884 5.4160868215843  Z M 11.7118139534884 26.5839131784157  C 11.7118139534884 25.7901147289244  11.1329302325581 25.260849612282  10.2647131784271 25.260849612282  L 9.39649612389853 25.260849612282  L 11.2777054262241 23.541085271439  C 11.8563720930233 23.0118201551599  11.8563720930233 22.2182201551599  11.2777054262241 21.6887565890262  C 10.699038759425 21.1596899222384  9.83082170529388 21.1596899222384  9.25193798436365 21.6887565890262  L 7.37072868203806 23.4089178295785  L 7.37072868203806 22.6149209302326  C 7.37072868203806 21.8211224807413  6.79184496110783 21.2920558139535  5.92362790697675 21.2920558139535  C 5.05541085284566 21.2920558139535  4.47674418604651 21.8211224807413  4.47674418604651 22.6149209302326  L 4.47674418604651 26.5839131784157  C 4.47674418604651 26.7162790697674  4.47674418604651 26.980812403343  4.62130232558139 27.1131782946948  C 4.76586046511628 27.377711627907  5.05541085284566 27.6424434109738  5.34474418604651 27.7748093023256  C 5.48951937971248 27.906976744186  5.77885271331078 27.906976744186  5.92362790697675 27.906976744186  L 10.2647131784271 27.906976744186  C 11.1329302325581 27.906976744186  11.7118139534884 27.377711627907  11.7118139534884 26.5839131784157  Z M 30.3786976744186 4.88662325581395  C 30.2337054262241 4.62208992260174  29.9443720930233 4.35755658902616  29.6550387598224 4.2253891471657  C 29.510263565759 4.09302325581395  29.2209302325581 4.09302325581395  29.0761550388922 4.09302325581395  L 24.7350697674419 4.09302325581395  C 23.8670697674419 4.09302325581395  23.2881860465116 4.62208992260174  23.2881860465116 5.4160868215843  C 23.2881860465116 6.2096868215843  23.8670697674419 6.73895193786337  24.7350697674419 6.73895193786337  L 25.6032868215729 6.73895193786337  L 23.7220775192474 8.45891472856105  C 23.1431937983171 8.98817984484012  23.1431937983171 9.78197829433139  23.7220775192474 10.3110449611192  C 24.0116279069767 10.575776744186  24.3009612401776 10.7081426355378  24.7350697674419 10.7081426355378  C 25.1691782947061 10.7081426355378  25.458511627907 10.575776744186  25.7480620156364 10.3110449611192  L 27.6290542634334 8.59108217042151  L 27.6290542634334 9.38507906976744  C 27.6290542634334 10.1786790697674  28.2081550384947 10.7081426355378  29.0761550388922 10.7081426355378  C 29.9443720930233 10.7081426355378  30.5232558139535 10.1786790697674  30.5232558139535 9.38507906976744  L 30.5232558139535 5.4160868215843  C 30.5232558139535 5.28372093023256  30.5232558139535 5.0189891471657  30.3786976744186 4.88662325581395  Z M 30.5232558139535 22.6149209302326  C 30.5232558139535 21.8211224807413  29.9443720930233 21.2920558139535  29.0761550388922 21.2920558139535  C 28.2081550388922 21.2920558139535  27.6290542638308 21.8211224807413  27.6290542634334 22.6149209302326  L 27.6290542634334 23.4089178295785  L 25.7480620156364 21.6887565890262  C 25.1691782947061 21.1596899222384  24.300961240575 21.1596899222384  23.7220775192474 21.6887565890262  C 23.1431937983171 22.2182201547965  23.1431937983171 23.0118201547965  23.7220775192474 23.541085271439  L 25.6032868215729 25.260849612282  L 24.7350697674419 25.260849612282  C 23.8670697674419 25.260849612282  23.2881860465116 25.7901147285611  23.2881860465116 26.5839131784157  C 23.2881860465116 27.3777116282704  23.8670697674419 27.906976744186  24.7350697674419 27.906976744186  L 29.0761550388922 27.906976744186  C 29.2209302325581 27.906976744186  29.5102635661564 27.906976744186  29.6550387598224 27.7748093023256  C 29.9443720930233 27.6424434109738  30.2337054266215 27.377711627907  30.3786976744186 27.1131782946948  C 30.5232558139535 26.980812403343  30.5232558139535 26.7162790697674  30.5232558139535 26.5839131784157  L 30.5232558139535 22.6149209302326  Z " fill-rule="nonzero" fill="#027db4" stroke="none" transform="matrix(1 0 0 1 158 223 )" />
  </g>
</svg>