<?xml version="1.0" encoding="utf-8"?>
<svg version="1.1" xmlns:xlink="http://www.w3.org/1999/xlink" width="35px" height="32px" xmlns="http://www.w3.org/2000/svg">
  <g transform="matrix(1 0 0 1 -158 -284 )">
    <path d="M 15.5555555403646 28.4444444583333  L 19.4444444596354 28.4444444583333  L 19.4444444596354 32  L 15.5555555403646 32  L 15.5555555403646 28.4444444583333  Z M 0 3.86133333333334  C 0 2.87949377040797  0.870557437685797 2.08355554166667  1.94444445963542 2.08355554166667  C 2.57963658647406 2.0832973772022  3.17492381466205 2.36671218520829  3.53888887369792 2.84266666666667  L 12.8313888736979 14.9813333333333  C 13.2992082874606 15.5930972480332  13.2992082874606 16.4069027519668  12.8313888736979 17.0186666666667  L 3.53694445963542 29.1573333333333  C 3.17303244853865 29.6322387082576  2.57866553118779 29.9150345354897  1.94444384812853 29.9150345354897  C 0.871159005520096 29.9150345354897  0.000851202453090612 29.1199553570181  0 28.1386666666667  L 0 3.86133333333334  Z M 31.4630555403646 2.84266666666667  C 31.8266269238887 2.36722692330506  32.4210504301297 2.08387778889435  33.0555555403646 2.08355554166667  C 34.0419999096893 2.08378031646684  34.8719613625388 2.75930757853525  34.9863888736979 3.655111125  L 35 3.86133333333334  L 35 28.1386666666667  C 34.9982778539726 29.1193905219024  34.1282261454294 29.9135902735542  33.0555580463298 29.9135902735542  C 32.5076589863371 29.9135902735542  31.9851865691634 29.702249030187  31.6166666666667 29.3315555416667  L 31.4611111263021 29.1573333333333  L 22.1686111263021 17.0186666666667  C 21.7564181535508 16.4797190273495  21.7033151771462 15.7767511745953  22.0305555403646 15.191111125  L 22.1686111263021 14.9813333333333  L 31.4630555403646 2.84266666666667  Z M 15.5555555403646 21.3333333333333  L 19.4444444596354 21.3333333333333  L 19.4444444596354 24.888888875  L 15.5555555403646 24.888888875  L 15.5555555403646 21.3333333333333  Z M 3.11305554036458 7.96266666666667  L 3.11111112630208 7.96266666666667  L 3.11111112630208 24.5333333333333  L 9.47722220703125 16  L 3.11305554036458 7.96266666666667  Z M 15.5555555403646 14.2222222083333  L 19.4444444596354 14.2222222083333  L 19.4444444596354 17.7777777916667  L 15.5555555403646 17.7777777916667  L 15.5555555403646 14.2222222083333  Z M 15.5555555403646 7.111111125  L 19.4444444596354 7.111111125  L 19.4444444596354 10.6666666666667  L 15.5555555403646 10.6666666666667  L 15.5555555403646 7.111111125  Z M 15.5555555403646 0  L 19.4444444596354 0  L 19.4444444596354 3.55555554166667  L 15.5555555403646 3.55555554166667  L 15.5555555403646 0  Z " fill-rule="nonzero" fill="#027db4" stroke="none" transform="matrix(1 0 0 1 158 284 )" />
  </g>
</svg>