<?xml version="1.0" encoding="utf-8"?>
<svg version="1.1" xmlns:xlink="http://www.w3.org/1999/xlink" width="35px" height="32px" xmlns="http://www.w3.org/2000/svg">
  <g transform="matrix(1 0 0 1 -111 -284 )">
    <path d="M 3.88888887369792 14.2222222083333  L 3.88888887369792 17.7777777916667  L 0 17.7777777916667  L 0 14.2222222083333  L 3.88888887369792 14.2222222083333  Z M 30.7766666666667 0  C 31.8505536886163 0  32.7211111263021 0.7959382287413  32.7211111263021 1.77777779166666  C 32.7213934936851 2.358524879062  32.4114085474284 2.90278748769102  31.8908333333333 3.23555554166667  L 18.6141666666667 11.7315555416667  C 17.9450498849637 12.1592761485354  17.0549501150364 12.1592761485354  16.3858333333333 11.7315555416667  L 3.10916666666667 3.23377779166667  C 2.58973891284325 2.90105823866391  2.28043097680814 2.35763705708598  2.28043097680814 1.77777723257465  C 2.28043097680814 0.796488233618374  3.15004882826146 0.000778242242825702  4.22333333333333 0  L 30.7766666666667 0  Z M 31.8908333333333 28.7662222083333  C 32.4108455526351 29.0986303304125  32.7207586683968 29.6421032504043  32.7211111263021 30.2222222083333  C 32.7208652788644 31.1241142031445  31.9820073359771 31.8829361028926  31.0022222070312 31.9875555416667  L 30.7766666666667 32  L 4.22333333333333 32  C 3.15066661666923 31.9984254664892  2.28201063830009 31.2029496186783  2.28201063830009 30.2222244995016  C 2.28201063830009 29.7212882160796  2.51316512323296 29.2435991489494  2.91861112630208 28.9066666666667  L 3.10916666666667 28.7644444583333  L 16.3858333333333 20.2684444583333  C 16.9753073138365 19.8915823118178  17.7441784027864 19.8430310191051  18.3847222070313 20.1422222083333  L 18.6141666666667 20.2684444583333  L 31.8908333333333 28.7662222083333  Z M 11.6666666666667 14.2222222083333  L 11.6666666666667 17.7777777916667  L 7.77777779296875 17.7777777916667  L 7.77777779296875 14.2222222083333  L 11.6666666666667 14.2222222083333  Z M 26.2908333333333 2.848  L 26.2908333333333 3  L 8.16666666666667 3  L 17.5 8.664888875  L 26.2908333333333 2.848  Z M 19.4444444596354 14.2222222083333  L 19.4444444596354 17.7777777916667  L 15.5555555403646 17.7777777916667  L 15.5555555403646 14.2222222083333  L 19.4444444596354 14.2222222083333  Z M 27.2222222070312 14.2222222083333  L 27.2222222070312 17.7777777916667  L 23.3333333333333 17.7777777916667  L 23.3333333333333 14.2222222083333  L 27.2222222070312 14.2222222083333  Z M 35 14.2222222083333  L 35 17.7777777916667  L 31.1111111263021 17.7777777916667  L 31.1111111263021 14.2222222083333  L 35 14.2222222083333  Z " fill-rule="nonzero" fill="#027db4" stroke="none" transform="matrix(1 0 0 1 111 284 )" />
  </g>
</svg>