<?xml version="1.0" encoding="utf-8"?>
<svg version="1.1" xmlns:xlink="http://www.w3.org/1999/xlink" width="35px" height="32px" xmlns="http://www.w3.org/2000/svg">
  <g transform="matrix(1 0 0 1 -65 -284 )">
    <path d="M 34.2720868215729 31.2763733332122  C 35.0654201547738 30.5504049611192  35.0608620152389 29.3721699222384  34.2636217052939 28.641438759811  L 29.3173891471543 24.1211534883721  C 31.4726077518055 21.592786356468  32.7702015501226 18.4248161239099  32.7702015505201 14.9790164342297  C 32.7702015505201 6.7541531784157  25.4497426359239 0.0635435661337212  16.4529302325581 0.063543565770349  C 7.45503255813953 0.063543565770349  0.135658914596201 6.75415317805233  0.135658914596201 14.9790164342297  C 0.135658914596201 23.2028874418605  7.45503255813953 29.894092403343  16.4529302325581 29.8940924029797  C 20.2176496122706 29.8940924029797  23.6791875970317 28.7116899222384  26.4421581395349 26.7455702325581  L 31.3894759691247 31.26784  C 32.1880620156364 31.9973804651163  33.4787100777843 32.0009525581395  34.2720868215729 31.2763733332122  Z M 16.4529302325581 27.0532068215843  C 9.1691534883721 27.0532068215843  3.24357209302326 21.6366834109738  3.24357209302326 14.978817984375  C 3.24357209302326 8.32095255813953  9.16919689935729 2.9044688372093  16.4529302325581 2.9044688372093  C 23.736663565759 2.9044688372093  29.6620713179619 8.32099224818314  29.6620713179619 14.978817984375  C 29.6620713179619 21.6366437205669  23.7367069767442 27.0532068215843  16.4529302325581 27.0532068215843  Z M 23.4460713179619 14.9796117830669  C 23.4460713179619 14.1947038760901  22.7761984498774 13.5584744186047  21.9511317830782 14  L 10.9540775192474 14  C 10.1287937983171 13.5584744186047  9.45983255813954 14.1947435657703  9.45983255813954 14.9796117830669  C 9.45983255813954 15.7643212405523  10.1279689923805 16.3999553488372  10.9540775192474 16  L 21.951175193666 16  C 22.7762418604651 16.3999553488372  23.4460713175645 15.7640831006541  23.4460713179619 14.9796117830669  Z " fill-rule="nonzero" fill="#027db4" stroke="none" transform="matrix(1 0 0 1 65 284 )" />
  </g>
</svg>