<?xml version="1.0" encoding="utf-8"?>
<svg version="1.1" xmlns:xlink="http://www.w3.org/1999/xlink" width="35px" height="32px" xmlns="http://www.w3.org/2000/svg">
  <g transform="matrix(1 0 0 1 -18 -223 )">
    <path d="M 34.8484563253012 16  L 28.4045557228916 10.1144578313253  L 26.5464984939759 11.8132530120482  L 29.8013930722892 15  L 18.8177710843374 15  L 18.8177710843374 4.75301204819277  L 22.0792545180723 7.7289156626506  L 23.937311746988 6.03012048192771  L 17.5 0.13855421686747  L 11.062688253012 6.03012048192771  L 12.9207454819277 7.7289156626506  L 16.1822289156626 4.75301204819277  L 16.1822289156626 15  L 5.19860692771084 15  L 8.4535015060241 11.8132530120482  L 6.59544427710843 10.1144578313253  L 0.151543674698795 16  L 6.59544427710843 21.8855421686747  L 8.4535015060241 20.1867469879518  L 5.19860692771084 17  L 16.1822289156626 17  L 16.1822289156626 27.2469879518072  L 12.9207454819277 24.2710843373494  L 11.062688253012 25.9698795180723  L 17.5 31.8614457831325  L 23.937311746988 25.9698795180723  L 22.0792545180723 24.2710843373494  L 18.8177710843374 27.2469879518072  L 18.8177710843374 17  L 29.8013930722892 17  L 26.5464984939759 20.1867469879518  L 28.4045557228916 21.8855421686747  L 34.8484563253012 16  Z " fill-rule="nonzero" fill="#027db4" stroke="none" transform="matrix(1 0 0 1 18 223 )" />
  </g>
</svg>