<?xml version="1.0" encoding="utf-8"?>
<svg version="1.1" xmlns:xlink="http://www.w3.org/1999/xlink" width="35px" height="32px" xmlns="http://www.w3.org/2000/svg">
  <g transform="matrix(1 0 0 1 -110 -223 )">
    <path d="M 34.8860465116279 2.25240310065407  C 34.8860465116279 1.07897054251453  33.8333333332009 0.124031007630813  32.5394728680846 0.124031007630814  L 9.74747286808458 0.124031007630814  C 8.4536124029683 0.124031007630814  7.40089922454124 1.07897054251454  7.40089922493868 2.25240310065407  L 7.40089922493868 6.69469767441861  L 2.50393798436364 6.69469767441861  C 1.20986046511628 6.69469767441861  0.157364340820313 7.64963720930233  0.15736434121775 8.82326821693314  L 0.15736434121775 29.7473984494913  C 0.15736434121775 30.9210294571221  1.20986046511628 31.8759689920058  2.50393798436364 31.8759689923692  L 25.2957209302326 31.8759689923692  C 26.5893643412177 31.8759689923692  27.6422945737759 30.9210294574855  27.6422945737759 29.7473984494913  L 27.6422945737759 25.3051038760901  L 32.5394728680846 25.3051038760901  C 33.8333333332009 25.3051038760901  34.8860465116279 24.3503627906977  34.8860465116279 23.1765333332122  L 34.8860465116279 2.25240310065407  Z M 25 9  L 25 29  L 3 29  L 3 9  L 25 9  Z M 32 3  L 32 22.9401798448401  L 27 22.9401798448401  L 27 8.82326821693314  C 27.6422945737759 7.64963720930233  26.5893643412177 6.69469767441861  25.2957209302326 7  L 10.0083720930233 7  L 10.0083720930233 3  L 32 3  Z " fill-rule="nonzero" fill="#027db4" stroke="none" transform="matrix(1 0 0 1 110 223 )" />
  </g>
</svg>