<?xml version="1.0" encoding="utf-8"?>
<svg version="1.1" xmlns:xlink="http://www.w3.org/1999/xlink" width="22px" height="21px" xmlns="http://www.w3.org/2000/svg">
  <g transform="matrix(1 0 0 1 -71 -227 )">
    <path d="M 14.6305689963206 1.32469378876431  C 14.6097249144485 1.32469378876431  14.5888911056702 1.32386451954695  14.5681290872713 1.32220842974714  L 0.813796195376014 1.32220842974714  C 0.450425839306331 1.29322406374372  0.171881140629509 1.02037268885844  0.171881140629509 0.693413819477577  C 0.171881140629509 0.366454950096714  0.450425839306331 0.0936035752114322  0.813796195376014 0  L 14.5681290872713 0  C 14.5888911056702 0.0629631194082007  14.6097249144485 0.0621338501908402  14.6305689963206 0.0621338501908402  C 15.0195735012926 0.0621338501908402  15.3349239601163 0.34476751956686  15.3349239601163 0.693413819477577  C 15.3349239601163 1.04206011938829  15.0195735012926 1.32469378876431  14.6305689963206 1.32469378876431  Z M 2.22805220083842 4.58796379114981  L 0.813796195376017 4.58796379114981  C 0.427854723926989 4.58796379114981  0.114987344385163 4.30755558804206  0.114987344385163 3.96165453989742  C 0.114987344385163 3.61575349175279  0.427854723926989 3.33534528864504  0.813796195376017 3.33534528864504  L 2.22805220083842 3.33534528864504  C 2.61399367228744 3.33534528864504  2.92686105182927 3.61575349175279  2.92686105182927 3.96165453989742  C 2.92686105182927 4.30755558804206  2.61399367228744 4.58796379114981  2.22805220083842 4.58796379114981  Z M 21.8222742089932 7.23735132171398  C 21.8222742089932 7.58319768445257  21.5095020480663 7.86358323090568  21.1236216018801 8  L 5.74428083714431 8  C 5.74422875585233 7.86366056774809  5.74417667456537 7.86366057296636  5.74412459327208 7.86366057296636  C 5.35818312182305 7.86366057296636  5.04531574228123 7.58325236985861  5.04531574228123 7.23735132171398  C 5.04531574228123 6.89145027356934  5.35818312182305 6.61104207046159  5.74412459327208 6.61104207046159  C 5.74417667456537 6.61104207046159  5.74422875585233 6.61104207567987  5.74428083714431 7  L 21.1236216018801 7  C 21.5095020480663 6.61111941252227  21.8222742089932 6.89150495897539  21.8222742089932 7.23735132171398  Z M 14.5681290872713 4.58796379114981  L 5.74428083714431 4.58796379114981  C 5.35833936569528 4.58796379114981  5.04547198615345 4.30755558804206  5.04547198615345 3.96165453989742  C 5.04547198615345 3.61575349175279  5.35833936569528 3.33534528864504  5.74428083714431 3.33534528864504  L 14.5681290872713 3.33534528864504  C 14.9540705587204 3.33534528864504  15.2669379382622 3.61575349175279  15.2669379382622 3.96165453989742  C 15.2669379382622 4.30755558804206  14.9540705587204 4.58796379114981  14.5681290872713 4.58796379114981  Z M 2.92670480795149 7.23735132171398  C 2.92670480795149 7.58319768445257  2.61393264702464 7.86358323090568  2.22805220083842 7.86366055731155  L 0.813796195376017 7.86366055731155  C 0.427915749187619 7.86358323090843  0.11514358825739 7.58319768445451  0.11514358825739 7.23735132171398  C 0.11514358825739 6.89150495897344  0.427915749187619 6.61111941251952  0.813796195376017 6.61104208611641  L 2.22805220083842 6.61104208611641  C 2.61393264702464 6.61111941252227  2.92670480795149 6.89150495897539  2.92670480795149 7.23735132171398  Z M 21.1858147114247 11.131901309041  C 21.1650527739959 11.131901309041  21.1443011505077 11.1310720333394  21.1236216018801 11.1294159500239  L 16.7976620680894 11.1294159500239  C 16.7769825194618 11.1310720333394  16.7562308959736 11.131901309041  16.7354689585448 11.131901309041  C 16.3495274870958 11.131901309041  16.0366601075539 10.8514931059333  16.0366601075539 10.5055920577886  C 16.0366601075539 10.159691009644  16.3495274870958 9.87928280653626  16.7354689585448 9.87928280653626  C 16.7562308959736 9.87928280653626  16.7769825194618 9.88011208223794  16.7976620680894 9.88176816555344  L 21.1236216018801 9.88176816555344  C 21.1443011505077 9.88011208223794  21.1650527739959 9.87928280653626  21.1858147114247 9.87928280653626  C 21.5717561828737 9.87928280653626  21.8846235624156 10.159691009644  21.8846235624156 10.5055920577886  C 21.8846235624156 10.8514931059333  21.5717561828737 11.131901309041  21.1858147114247 11.131901309041  Z M 21.1858147114247 14.4026273884781  C 21.1650527739958 14.4026273884781  21.1443011505077 14.4017981127764  21.1236216018801 14.4001420294609  L 18.5335919874238 14.4001420294609  C 18.5129124387962 14.4017981127764  18.492160815308 14.4026273884781  18.4713988778792 14.4026273884781  C 18.0854574064301 14.4026273884781  17.7725900268883 14.1222191853703  17.7725900268883 13.7763181372257  C 17.7725900268883 13.430417089081  18.0854574064301 13.1500088859733  18.4713988778792 13.1500088859733  C 18.492160815308 13.1500088859733  18.5129124387962 13.150838161675  18.5335919874238 13.1524942449905  L 21.1236216018801 13.1524942449905  C 21.1443011505077 13.150838161675  21.1650527739958 13.1500088859733  21.1858147114247 13.1500088859733  C 21.5717561828737 13.1500088859733  21.8846235624156 13.430417089081  21.8846235624156 13.7763181372257  C 21.8846235624156 14.1222191853703  21.5717561828737 14.4026273884781  21.1858147114247 14.4026273884781  Z M 21.1236216018801 17.6708681088979  L 19.0105567454268 17.6708681088979  C 18.6246153156301 17.6708681088979  18.3117479360882 17.3904599057902  18.3117479360882 17.0445588576455  C 18.3117479360882 16.6986578095009  18.6246153156301 16.4182496063931  19.0105567870791 16.4182496063931  L 21.1236216018801 16.4182496063931  C 21.5095630316769 16.4182496063931  21.8224304112187 16.6986578095009  21.8224304112187 17.0445588576455  C 21.8224304112187 17.3904599057902  21.5095630316769 17.6708681088979  21.1236215602278 17.6708681088979  Z M 21.765536460366 20.3177702804449  C 21.765536460366 20.6447290820788  21.4869918736116 20.9175804239585  21.1236216018801 20.9465648750596  L 18.5335919874238 20.9465648750596  C 18.1702217156923 20.9175804239585  17.8916771289378 20.6447290820788  17.8916771289378 20.3177702804449  C 17.8916771289378 19.990811478811  18.1702217156923 19.7179601369313  18.5335919874238 19.6889756858302  L 21.1236216018801 19.6889756858302  C 21.4869918736116 19.7179601369313  21.765536460366 19.990811478811  21.765536460366 20.3177702804449  Z " fill-rule="nonzero" fill="#027db4" stroke="none" transform="matrix(1 0 0 1 71 227 )" />
  </g>
</svg>