<?xml version="1.0" encoding="utf-8"?>
<svg version="1.1" xmlns:xlink="http://www.w3.org/1999/xlink" width="10px" height="9px" xmlns="http://www.w3.org/2000/svg">
  <g transform="matrix(1 0 0 1 -74 -238 )">
    <path d="M 4.97718793777024 8.99398815445744  C 4.9754058791895 8.99398815445744  4.97362382073979 8.99398728750814  4.97184176320043 8.99398555360991  C 2.24277139034782 8.9913302351543  0.0319861260784269 6.99947129481266  0.0319861260784269 4.54330652393481  C 0.0319861260784269 2.08526293304511  2.24602839233724 0.0926248934121809  4.97718793777024 0.0926248934121809  C 7.70834748320324 0.0926248934121809  9.92238974946205 2.08526293304511  9.92238974946205 4.54330652393481  C 9.92238974946205 7.00135011482451  7.70834748320324 8.99398815445744  4.97718793777024 8.99398815445744  Z M 4.97184176320043 1.3051323208513  L 4.97184176320043 1.29550923693427  C 2.98473865958923 1.29550923693427  1.37387331627155 2.74528804592017  1.37387331627155 4.53368083917026  C 1.37387331627155 6.32207363242034  2.98473865958923 7.77185244140625  4.97184176320043 7.77185244140625  C 6.95894486681164 7.77185244140625  8.56981021012931 6.32207363242034  8.56981021012931 4.53368083917026  C 8.56981021012931 6.69246190732758  8.56981021012931 2.37489977101294  8.56981021012931 4.53368083917026  C 8.56099162906543 2.75014597407816  6.95356463790057 1.30776088727705  4.97184176320043 1.3051323208513  Z " fill-rule="nonzero" fill="#027db4" stroke="none" transform="matrix(1 0 0 1 74 238 )" />
  </g>
</svg>