<?xml version="1.0" encoding="utf-8"?>
<svg version="1.1" xmlns:xlink="http://www.w3.org/1999/xlink" width="28px" height="31px" xmlns="http://www.w3.org/2000/svg">
  <g transform="matrix(1 0 0 1 -68 -223 )">
    <path d="M 28 6.46560588404605  C 27.9757002622721 6.42495134856261  27.9720052091563 6.38438627988386  27.9653432076035 6.34418604132401  C 27.9533858503585 6.28951145541419  27.9328994979357 6.23669330052893  27.9045126990446 6.18735210834704  C 27.9063281206467 6.17560581796756  27.9063281206467 6.16368427660482  27.9045126990446 6.15193798622533  C 27.8778216903996 6.10019556895563  27.8402375134543 6.05377732855254  27.7939118282245 6.01534066714638  L 21.4011798716162 0.187188917557566  C 21.3562095413153 0.147904321165358  21.3060507226554 0.113913376481042  21.2518686455016 0.0860057206003289  L 21.2131583598726 0.0860057206003289  C 21.161202047821 0.0494243782176273  21.1033750070373 0.0204130308187466  21.0417269456608 0  L 3.30687287022293 0  C 1.51408125421956 0  0.0607364948248406 1.32959190676205  0 2.96972664268092  L 0 27.6634842763158  L 2 26.3835169335938  L 2 2.96972664268092  C 1.45430782245223 2.03370426591762  2.28372944626962 1.27490820518092  3.30687287022293 1.27490820518092  L 20.1845699791003 1.27490820518092  L 20.1845699791003 4.13333334395559  C 20.1876142381149 5.77510719205501  21.6416531203094 7.10533410254979  23.4362364102309 7.10811912417763  L 26.5607118033439 7.10811912417763  L 26.5607118033439 27.9569155602385  C 26.5607163195071 28.8937598418421  25.7321840484808 29.6540049028241  24.7081467555732 29.6567931352796  L 4.74468453921178 29.6567931352796  L 3.35664326731688 31  L 24.7302669088376 31  C 24.7302684804777 30.9317013404626  24.73027004759 30.9317013404637  24.7302716192302 30.9317013404637  C 26.5230632352335 30.9317013404637  27.9764079946283 29.6021094337016  27.9764079946283 27.9619746977827  C 27.9764079946283 27.9602883176834  27.9764064244968 27.9586019378907  28 27.9569155602385  L 28 6.46560588404605  Z M 25.5984839868631 5.82815178145559  L 23.458356598328 5.83827008840461  C 22.4352131743747 5.83827008840461  21.6057915505573 5.07947402766791  21.6057915505573 4.14345165090461  L 21.6057915505573 2.17543860711349  L 25.5984839868631 5.82815178145559  Z " fill-rule="nonzero" fill="#027db4" stroke="none" transform="matrix(1 0 0 1 68 223 )" />
  </g>
</svg>