<?xml version="1.0" encoding="utf-8"?>
<svg version="1.1" xmlns:xlink="http://www.w3.org/1999/xlink" width="22px" height="20px" xmlns="http://www.w3.org/2000/svg">
  <g transform="matrix(1 0 0 1 -66 -236 )">
    <path d="M 19.3963806010585 2.26255751397358  L 19.3798764774446 2.26255751397358  C 17.8089048461583 0.818488327636955  15.6753906839627 0.00685607407890566  13.4503795327349 0.00685607407890566  C 8.82604781015721 0.00685607407890566  5.07728626156552 3.44252815113263  5.07728626156552 7.68064443790005  C 5.07728626156552 8.95020532587894  5.42097457402291 10.1999325768247  6.07755090410786 11.3178294588415  L 0.730214056199596 16.2185668508638  C 0.277653523848661 16.6339982813347  0.0234688376468141 17.1970434950658  0.0234688376468141 17.7840801733994  C 0.0234688376468141 19.0078070286985  1.10589788647861 19.9998336514268  2.4411417858493 19.9998336514268  C 3.08302254285238 19.9998336514268  3.69855657440134 19.7658991973591  4.15206951549899 19.349593495935  L 9.49390497731855 14.4538980246443  C 10.7181386260488 15.0607297245143  12.0880359427931 15.3784971832029  13.4798571940764 15.3784971832029  C 18.1072272482938 15.3784971832029  21.8584518513345 11.9405677613475  21.8584518513345 7.6996668986501  C 21.8584518513345 5.65950673609838  20.9725880504116 3.70321144813582  19.3963806010585 2.26255751397358  Z M 8.30560790385584 13.7228209476626  L 3.16732334614415 18.4470914634146  C 2.76225369416656 18.8056710924499  2.12002987753203 18.8056710924499  1.71496022555444 18.4470914634146  C 1.52177746270896 18.2718930147945  1.41307720364021 18.0331598176336  1.41307720364021 17.7840801733994  C 1.41307720364021 17.5350005291652  1.52177746270895 17.2962673320043  1.71496022555444 17.1210688833842  L 6.85324481791835 12.4068822090955  C 6.85881374389156 12.4193116003725  6.86841617421812 12.4298721490243  6.88075167905746 12.4371336699695  C 7.08262956619187 12.6767958587011  7.30131296731502 12.904162378821  7.53541534148185 13.1177916349085  C 7.76986529933236 13.3325945154537  8.01785251366913 13.5346174446861  8.27810100806451 13.7228209476626  L 8.30560790385584 13.7228209476626  Z M 18.4061330456149 12.2203314913618  L 18.3951302734375 12.2203314913618  C 16.1010300522711 14.3412464002879  12.5061801477785 14.7145382180048  9.75246960370463 13.1177916349085  C 9.30663450652349 12.8614752123333  8.89331972474071 12.5604680567639  8.52016154548891 12.2203314913618  C 8.15023073353297 11.8755238147466  7.82192047267269 11.4951848196068  7.54091672757056 11.0859015497968  C 6.84702872617167 10.0682883852418  6.47910893476297 8.89245562681817  6.47910893476297 7.69247609379638  C 6.47910893476297 4.15607157329993  9.60718197232813 1.28924927723134  13.4658556144505 1.28924927723134  C 17.3245292565728 1.28924927723134  20.452602294138 4.15607157329993  20.452602294138 7.69247609379638  C 20.452602294138 9.39076168339682  19.7164624861284 11.0194861831489  18.4061330456149 12.2203314913618  Z " fill-rule="nonzero" fill="#027db4" stroke="none" transform="matrix(1 0 0 1 66 236 )" />
  </g>
</svg>