<?xml version="1.0" encoding="utf-8"?>
<svg version="1.1" xmlns:xlink="http://www.w3.org/1999/xlink" width="25px" height="15px" xmlns="http://www.w3.org/2000/svg">
  <g transform="matrix(1 0 0 1 -79 -156 )">
    <path d="M 2.17347358930229 7.5  C 3.76382012395575 5.77736318650886  7.92773652633818 1.75995025361474  12.5000687461324 1.75995025361474  C 17.072400990099 1.75995025361474  21.2363173683091 5.77736318650886  22.8266639271349 7.5  C 21.2363173924814 9.22263681349114  17.072400990099 13.2400497463853  12.5000687461324 13.2400497463853  C 7.92773650216584 13.2400497463853  3.76382012395575 9.22263681349114  2.17347358930229 7.5  Z M 24.6026540261448 6.79415423857276  C 22.9813668974319 4.93407959713153  18.1738861386139 0.0373134401236003  12.5000687461324 0.0373134401236003  C 6.82625137782333 0.0373134401236003  2.01877061900526 4.93407959713153  0.397483490292389 6.79415423857276  C 0.0325177420897844 7.20682571130298  0.0325177420897844 7.79317428869702  0.397483490292389 8.20584576142724  C 2.01877061900526 10.0659204028685  6.82625137782333 14.9626865598764  12.5000687461324 14.9626865598764  C 18.1738861144415 14.9626865598764  22.9813668732596 10.0659203810051  24.6026540261448 8.20584576142724  C 24.9676197743474 7.79317428869702  24.9676197743474 7.20682571130298  24.6026540261448 6.79415423857276  Z M 10.6436331025681 7.5  C 10.6436331025681 6.54850746268657  11.4749037215733 5.77736318650886  12.5000687461324 5.77736318650886  C 13.5252337706915 5.77736318650886  14.3565043896968 6.54850746268657  14.3565043896968 7.5  C 14.3565043896968 8.45149253731343  13.5252337706915 9.22263681349114  12.5000687461324 9.22263681349114  C 11.4749037215733 9.22263681349114  10.6436331025681 8.45149253731343  10.6436331025681 7.5  Z M 12.5000687461324 4.05597015654151  C 10.9984185730585 4.05597015654151  9.64459569345606 4.89490051451726  9.07047580832302 6.18221392548974  C 8.49566831683168 7.46952735832556  8.81332509862314 8.95024874650187  9.87493125386757 9.93532337336754  C 10.922559413721 10.9177449798097  12.5312806628753 11.2144925766345  13.9205858166383 10.6815920446595  C 15.3080995706993 10.1492537240555  16.2129400332611 8.89303483558769  16.2129400332611 7.5  C 16.2129400332611 5.59763680620336  14.5510863532642 4.05597015654151  12.5007563283184 4.05597015654151  Z " fill-rule="nonzero" fill="#ffffff" stroke="none" transform="matrix(1 0 0 1 79 156 )" />
  </g>
</svg>