<?xml version="1.0" encoding="utf-8"?>
<svg version="1.1" xmlns:xlink="http://www.w3.org/1999/xlink" width="23px" height="19px" xmlns="http://www.w3.org/2000/svg">
  <g transform="matrix(1 0 0 1 -113 -154 )">
    <path d="M 1.365625 3.72817073170732  C 2.53797159090909 3.72608536585366  3.7101875 3.72770731707317  4.96643181818182 3.72770731707317  C 4.96643181818182 2.97014024390244  4.9565 2.29703048780488  4.96878409090909 1.62426829268293  C 4.98590340909091 0.689792682926829  5.62898863636364 0.106237804878049  6.68921022727273 0.102762195121951  C 9.88947727272727 0.0921036585365852  13.089875 0.0925670731707316  16.2901420454545 0.102182926829268  C 17.3714034090909 0.105426829268293  18.0122670454545 0.695932926829268  18.0313465909091 1.67165243902439  C 18.0440227272727 2.32587804878049  18.0338295454545 2.9804512195122  18.0338295454545 3.72770731707317  L 20.9042556818182 3.72770731707317  C 22.9355738636364 3.72770731707317  22.9355738636364 3.72770731707317  22.9355738636364 5.50617682926829  C 22.9355738636364 9.57866463414634  22.9362272727273 13.6510365853659  22.9350511363636 17.7235243902439  C 22.9347897727273 18.7548536585366  22.7680397727273 18.9044207317073  21.6224829545455 18.9045365853659  C 14.8734204545455 18.9052317073171  8.12448863636364 18.9052317073171  1.37542613636364 18.9045365853659  C 0.220329545454545 18.9044207317073  0.0653409090909084 18.765512195122  0.0650795454545449 17.7268841463415  C 0.0639034090909083 13.4421524390244  0.0639034090909083 9.15742073170732  0.0652102272727267 4.87257317073171  C 0.0654715909090904 3.91376829268293  0.275607954545454 3.7300243902439  1.365625 3.72817073170732  Z M 1.73911363636364 17.4490670731707  L 21.2650681818182 17.4490670731707  L 21.2650681818182 11.3829695121951  L 14.1214772727273 11.3829695121951  C 14.1214772727273 11.8131341463415  14.1154659090909 12.1970731707317  14.1229147727273 12.5807804878049  C 14.1329772727273 13.1025853658537  13.825875 13.3955792682927  13.2640738636364 13.407743902439  C 12.0891136363636 13.4331158536585  10.9127159090909 13.4316097560976  9.737625 13.4091341463415  C 9.17334090909091 13.3983597560976  8.86610795454546 13.1111585365854  8.87695454545455 12.5873841463415  C 8.8851875 12.1879207317073  8.87852272727273 11.7881097560976  8.87852272727273 11.3820426829268  L 1.73911363636364 11.3820426829268  L 1.73911363636364 17.4490670731707  Z M 1.73048863636364 5.2272012195122  L 1.73048863636364 9.82948780487805  L 8.80782386363636 9.82948780487805  C 8.83827272727273 9.75696341463415  8.86480113636364 9.72243902439025  8.86558522727273 9.68756707317073  C 8.87225 9.35981707317073  8.87251136363636 9.03206707317073  8.87839204545454 8.70431707317073  C 8.88976136363636 8.05623170731707  9.12721022727273 7.80309146341463  9.83210795454545 7.78965243902439  C 10.9415585877481 7.76883740093828  12.051380920695 7.76876014800221  13.1608352272727 7.78942073170732  C 13.8569772727273 7.80216463414634  14.1078863636364 8.06341463414634  14.1206931818182 8.70570731707317  C 14.1282727272727 9.08281097560975  14.1221306818182 9.46026219512195  14.1221306818182 9.8337743902439  L 21.26925 9.8337743902439  L 21.26925 5.2272012195122  L 1.73048863636364 5.2272012195122  Z M 6.63197159090909 1.57051219512195  L 6.63197159090909 3.67754268292683  L 16.3430681818182 3.67754268292683  L 16.3430681818182 1.57051219512195  L 6.63197159090909 1.57051219512195  Z M 10.5349147727273 11.9191402439024  L 12.4653465909091 11.9191402439024  L 12.4653465909091 9.28485975609756  L 10.5349147727273 9.28485975609756  L 10.5349147727273 11.9191402439024  Z " fill-rule="nonzero" fill="#ffffff" stroke="none" transform="matrix(1 0 0 1 113 154 )" />
  </g>
</svg>