<?xml version="1.0" encoding="utf-8"?>
<svg version="1.1" xmlns:xlink="http://www.w3.org/1999/xlink" width="23px" height="23px" xmlns="http://www.w3.org/2000/svg">
  <g transform="matrix(1 0 0 1 -146 -152 )">
    <path d="M 5.80908203125 5.35450690954774  L 11.275390625 2.57341394472362  L 17.19091796875 5.56218592964824  L 11.724609375 8.34327889447236  L 5.80908203125 5.35450690954774  Z M 11.39501953125 0.0632066582914573  C 11.35595703125 0.0428902324120603  11.314453125 0.033860709798995  11.2705078125 0.033860709798995  C 11.22900390625 0.033860709798995  11.18505859375 0.0428902324120603  11.14599609375 0.0632066582914573  L 1.14111328125 5.15134265075377  C 0.962890625 5.24163787688442  0.96533203125 5.47640546482412  1.14111328125 5.56670069095477  L 11.60498046875 10.8534861809045  C 11.64404296875 10.8738026067839  11.685546875 10.882832129397  11.72705078125 10.882832129397  C 11.7685546875 10.882832129397  11.8125 10.8738026067839  11.8515625 10.8534861809045  L 21.85888671875 5.76309280778894  C 22.037109375 5.67279758165829  22.03466796875 5.43802999371859  21.85888671875 5.34773476758794  L 11.39501953125 0.0632066582914573  Z M 14.830078125 13.4156132223618  L 20.47705078125 10.5419676507538  L 20.45751953125 16.4405032977387  L 14.810546875 19.3141488693467  L 14.830078125 13.4156132223618  Z M 23 7.11977858040201  C 22.9306640625 6.98207836055277  22.80615234375 6.88275361180905  22.671875 6.88275361180904  C 22.63037109375 6.88275361180904  22.5888671875 6.89178313442211  22.5498046875 6.91209956030151  L 12.52294921875 12.0115224560302  C 12.4423828125 12.0521553077889  12.39111328125 12.1311636306533  12 12.2192014761307  L 12 22.7363379396985  C 12.35693359375 22.8740381595477  12.47900390625 22.9733629082915  12.61328125 22.9733629082915  C 12.65478515625 22.9733629082915  12.6962890625 22.9643333856784  12.7353515625 22.944016959799  L 22.76220703125 17.8445940640704  C 22.8427734375 17.8039612123116  22.89404296875 17.7249528894472  23 17.6369150439699  L 23 7.11977858040201  Z M 2.515625 16.2441111809045  L 2.53515625 10.3230017273869  L 8.658203125 13.4156132223618  L 8.638671875 19.3389800565327  L 2.515625 16.2441111809045  Z M 0.484375 6.71345006281407  C 0.44287109375 6.69313363693467  0.4013671875 6.68410411432161  0.3623046875 6.68410411432161  C 0.22802734375 6.68410411432161  0.10595703125 6.78342886306533  0 6.92112908291457  L 0 17.4405229271357  C 0.0717773437500002 17.5263033919598  0.123046875 17.6075690954774  0.2060546875 17.6482019472362  L 10.69189453125 22.9462743404523  C 10.73095703125 22.9665907663317  10.77490234375 22.9756202889447  10.81396484375 22.9756202889447  C 10.9482421875 22.9756202889447  11.0703125 22.876295540201  11 22.7385953203518  L 11 12.2192014761307  C 11.1044921875 12.1311636306533  11.05322265625 12.0521553077889  10.97021484375 12.0115224560301  L 0.484375 6.71345006281407  Z " fill-rule="nonzero" fill="#ffffff" stroke="none" transform="matrix(1 0 0 1 146 152 )" />
  </g>
</svg>