<?xml version="1.0" encoding="utf-8"?>
<svg version="1.1" xmlns:xlink="http://www.w3.org/1999/xlink" width="21px" height="18px" xmlns="http://www.w3.org/2000/svg">
  <g transform="matrix(1 0 0 1 -48 -154 )">
    <path d="M 20 9  C 20 4.02943725152286  15.5228474983079 0  10 0  C 4.47715250169207 0  0 4.02943725152286  0 9  C 0 13.9705627484771  4.47715250169207 18  10 18  C 13.52 18  7.84 14.4  14 14.4  C 14.0336176614905 14.400517308831  14.0672396222061 14.4007759774216  14.1008621971352 14.4007759774216  C 17.3593422211368 14.4007759774216  20.0008621971352 12.0234079990232  20.0008621971352 9.09077597742164  C 20.0008621971352 9.06051565998546  20.0005747875899 9.03025589534144  20 9  Z M 5 7.2  C 5 7.94558441227157  4.32842712474619 8.55  3.5 8.55  C 2.67157287525381 8.55  2 7.94558441227157  2 7.2  C 2 6.45441558772843  2.67157287525381 5.85  3.5 5.85  C 4.32842712474619 5.85  5 6.45441558772843  5 7.2  Z M 8.5 4.05  C 8.5 4.79558441227157  7.82842712474619 5.4  7 5.4  C 6.17157287525381 5.4  5.5 4.79558441227157  5.5 4.05  C 5.5 3.30441558772843  6.17157287525381 2.7  7 2.7  C 7.82842712474619 2.7  8.5 3.30441558772843  8.5 4.05  Z M 14.5 4.05  C 14.5 4.79558441227157  13.8284271247462 5.4  13 5.4  C 12.1715728752538 5.4  11.5 4.79558441227157  11.5 4.05  C 11.5 3.30441558772843  12.1715728752538 2.7  13 2.7  C 13.8284271247462 2.7  14.5 3.30441558772843  14.5 4.05  Z M 18 7.2  C 18 7.94558441227157  17.3284271247462 8.55  16.5 8.55  C 15.6715728752538 8.55  15 7.94558441227157  15 7.2  C 15 6.45441558772843  15.6715728752538 5.85  16.5 5.85  C 17.3284271247462 5.85  18 6.45441558772843  18 7.2  Z " fill-rule="nonzero" fill="#ffffff" stroke="none" transform="matrix(1 0 0 1 48 154 )" />
  </g>
</svg>