<?xml version="1.0" encoding="utf-8"?>
<svg version="1.1" xmlns:xlink="http://www.w3.org/1999/xlink" width="23px" height="13px" xmlns="http://www.w3.org/2000/svg">
  <g transform="matrix(1 0 0 1 -72 -429 )">
    <path d="M 14.9262447033898 1.15545742753623  C 14.9262447033898 1.76630434782609  14.4161149364407 2.25939764492754  13.7841631355932 2.25939764492754  L 9.21583686440678 2.25939764492754  C 8.58388506355932 2.25939764492754  8.07375529661017 1.76630434782609  8.07375529661017 1.15545742753623  C 8.07375529661017 0.544610507246377  8.58388506355932 0.0515172101449275  9.21583686440678 0.0515172101449275  L 13.7841631355932 0.0515172101449275  C 14.4161149364407 0.0515172101449275  14.9262447033898 0.544610507246377  14.9262447033898 1.15545742753623  Z M 6.96974311440678 11.720165307971  C 6.96974311440678 12.3310122282609  6.45961334745763 12.8241055253623  5.82766154661017 12.8241055253623  L 1.25933527542373 12.8241055253623  C 0.627383474576271 12.8241055253623  0.117253707627119 12.3310122282609  0.117253707627119 11.720165307971  C 0.117253707627119 11.1093183876812  0.627383474576271 10.6162250905797  1.25933527542373 10.6162250905797  L 5.82766154661017 10.6162250905797  C 6.45961334745763 10.6162250905797  6.96974311440678 11.1093183876812  6.96974311440678 11.720165307971  Z M 22.8827462923729 6.59420289855072  C 22.8827462923729 7.20504981884058  22.3726165254237 7.69814311594203  21.7406647245763 7.69814311594203  L 17.1723384533898 7.69814311594203  C 16.5403866525424 7.69814311594203  16.0302568855932 7.20504981884058  16.0302568855932 6.59420289855072  C 16.0302568855932 5.98335597826087  16.5403866525424 5.49026268115942  17.1723384533898 5.49026268115942  L 21.7406647245763 5.49026268115942  C 22.3726165254237 5.49026268115942  22.8827462923729 5.98335597826087  22.8827462923729 6.59420289855072  Z " fill-rule="nonzero" fill="#027db4" stroke="none" transform="matrix(1 0 0 1 72 429 )" />
  </g>
</svg>