<?xml version="1.0" encoding="utf-8"?>
<svg version="1.1" xmlns:xlink="http://www.w3.org/1999/xlink" width="19px" height="21px" xmlns="http://www.w3.org/2000/svg">
  <g transform="matrix(1 0 0 1 -74 -424 )">
    <path d="M 19 19.8501721398305  C 18.9352559840426 20.4271716101695  18.40625 20.8929422669492  17.7509142287234 20.8929422669492  C 17.0955784574468 20.8929422669492  16.5665724734043 20.4271716101695  16.5665724734043 19.8501721398305  L 16.5665724734043 1.14982786016949  C 16.5665724734043 0.572828389830508  17.0955784574468 0.107057733050847  17.7509142287234 0.107057733050847  C 18.40625 0.107057733050847  18.9352559840426 0.572828389830508  19 1.14982786016949  L 19 19.8501721398305  Z M 2.43342752659574 19.8501721398305  C 2.43342752659574 20.4271716101695  1.90442154255319 20.8929422669492  1.2490857712766 20.8929422669492  C 0.593749999999999 20.8929422669492  0.0647440159574468 20.4271716101695  0 19.8501721398305  L 0 1.14982786016949  C 0.0647440159574468 0.572828389830508  0.593749999999999 0.107057733050847  1.2490857712766 0.107057733050847  C 1.90442154255319 0.107057733050847  2.43342752659574 0.572828389830508  2.43342752659574 1.14982786016949  L 2.43342752659574 19.8501721398305  Z M 10.6843417553191 19.8501721398305  C 10.6843417553191 20.4271716101695  10.1553357712766 20.8929422669492  9.5 20.8929422669492  C 8.8446642287234 20.8929422669492  8.31565824468085 20.4271716101695  8.31565824468085 19.8501721398305  L 8.31565824468085 1.14982786016949  C 8.31565824468085 0.572828389830508  8.8446642287234 0.107057733050847  9.5 0.107057733050847  C 10.1553357712766 0.107057733050847  10.6843417553191 0.572828389830508  10.6843417553191 1.14982786016949  L 10.6843417553191 19.8501721398305  Z " fill-rule="nonzero" fill="#027db4" stroke="none" transform="matrix(1 0 0 1 74 424 )" />
  </g>
</svg>