<?xml version="1.0" encoding="utf-8"?>
<svg version="1.1" xmlns:xlink="http://www.w3.org/1999/xlink" width="35px" height="32px" xmlns="http://www.w3.org/2000/svg">
  <g transform="matrix(1 0 0 1 -18 -419 )">
    <path d="M 34.8262107431592 15.9990625  C 34.8258706467662 11.615625  32.9237115205224 7.650625  29.7955048973881 4.76  L 29.7288460043532 4.69875  C 26.5802335976368 1.7984375  22.2344818874378 0.016875  17.441843516791 0  L 17.3847073227612 0  C 12.6291394589552 0.016875  8.31229594216418 1.7725  5.17354633084577 4.6115625  L 5.09804493159204 4.69875  C 1.94093011504975 7.5803125  0 11.5809375  0 15.9990625  C 0 20.41875  1.94059001865672 24.41875  5.09804493159204 27.3190625  C 8.25549984452736 30.200625  12.5913887593284 31.99125  17.3850474191542 32  L 17.4421836131841 32  C 22.2348219838308 31.99125  26.5805736940299 30.200625  29.7291861007463 27.3190625  C 32.8866410136816 24.41875  34.8262107431592 20.4190625  34.8262107431592 15.9990625  Z M 16 2.515  L 16 29.4840625  C 12.5345926616915 29.1875  9.35877254353234 27.755  6.99068135883085 25.5715625  L 6.98013837064677 25.5715625  L 6.99068135883085 25.5715625  C 4.33724930037313 23.1265625  2.6728175528607 19.7378125  2.6728175528607 15.9990625  C 2.6728175528607 12.2621875  4.3369092039801 8.8903125  6.99034126243781 6.4275  L 7.05631996268657 6.3759375  C 9.41488844838308 4.2271875  12.5730235541045 2.8115625  16 2.515  Z M 18.7542754975124 4.5584375  L 18.7542754975124 2.515  C 19.4004586442786 2.585  20.0473219838308 2.6634375  20.6659573227612 2.7946875  L 18.7542754975124 4.5584375  Z M 18.7542754975124 8.8209375  L 18.7542754975124 6.64625  L 22.4249358675373 3.26625  C 22.9962978078358 3.45875  23.5475940609453 3.6765625  24.0699821206468 3.9296875  L 18.7542754975124 8.8209375  Z M 18.7542754975124 13.0834375  L 18.7542754975124 10.8990625  L 25.5252545864428 4.69875  C 26.0010494402985 4.9775  26.4390935945274 5.2928125  26.8665947605721 5.625  L 18.7542754975124 13.0834375  Z M 18.7542754975124 17.3446875  L 18.7542754975124 15.17875  L 28.0548915578358 6.629375  C 28.4446420242537 7.005  28.8160272854478 7.3878125  29.1486415578358 7.8078125  L 18.7542754975124 17.3446875  Z M 18.7542754975124 21.6071875  L 18.7542754975124 19.43125  L 30.0526177705224 9.048125  C 30.3757093439055 9.501875  30.6416647232587 9.9825  30.8705495957711 10.4796875  L 18.7542754975124 21.6071875  Z M 18.7542754975124 25.868125  L 18.7542754975124 23.6853125  L 31.4976873445274 12.0003125  C 31.6871210354478 12.5590625  31.8408446050995 13.153125  31.9540967039801 13.7471875  L 18.7542754975124 25.868125  Z M 31.2028237717662 20.785625  C 30.4617537313433 22.593125  29.3006646455224 24.226875  27.8277071672886 25.5715625  C 26.3714144123134 26.916875  24.5930503731343 27.9825  22.6157299440299 28.6628125  L 31.2028237717662 20.785625  Z M 31.9928676927861 17.9734375  L 19.5626846237562 29.3971875  C 19.296729244403 29.431875  19.0212511660448 29.4584375  18.7542754975124 29.484375  L 18.7542754975124 27.965  L 32.1445506840796 15.6590625  L 32.1445506840796 15.999375  C 32.1445506840796 16.6725  32.0962569962687 17.3278125  31.9928676927861 17.9734375  Z " fill-rule="nonzero" fill="#027db4" stroke="none" transform="matrix(1 0 0 1 18 419 )" />
  </g>
</svg>