<?xml version="1.0" encoding="utf-8"?>
<svg version="1.1" xmlns:xlink="http://www.w3.org/1999/xlink" width="35px" height="32px" xmlns="http://www.w3.org/2000/svg">
  <g transform="matrix(1 0 0 1 -66 -419 )">
    <path d="M 35 26.5823863636364  C 34.9005681818182 29.5191761363636  32.2865988991477 31.9090909090909  29.0744850852273 32  L 5.92551491477273 32  C 2.71340110085227 31.9090909090909  0.0994318181818182 29.5191761363636  0 26.5823863636364  L 0 5.41761363636364  C 0.0994318181818182 2.48082386363636  2.71340110085227 0.0909090909090909  5.92551491477273 0  L 29.0744850852273 0  C 32.2865988991477 0.0909090909090909  34.9005681818182 2.48082386363636  35 5.41761363636364  L 35 26.5823863636364  Z M 29.0744850852273 2.22159090909091  L 5.92551491477273 2.22159090909091  C 4.99722567471591 2.22159090909091  4.11942915482955 2.55539772727273  3.45913973721591 3.16264204545455  C 2.79496626420455 3.76633522727273  2.42986505681818 4.56889204545455  3 5.41761363636364  L 3 26.5823863636364  C 2.42986505681818 27.4311079545455  2.79496626420455 28.2336647727273  3.45913973721591 28.8373579545455  C 4.12331321022727 29.4446022727273  4.99722567471591 29.7784090909091  5.92551491477273 29.7784090909091  L 29.0744850852273 29.7784090909091  C 30.0027743252841 29.7784090909091  30.8805708451705 29.4446022727273  31.5408602627841 28.8373579545455  C 32.2050337357955 28.2301136363636  32.5701349431818 27.4311079545455  32 26.5823863636364  L 32 5.41761363636364  C 32.5701349431818 4.56889204545455  32.2050337357955 3.76633522727273  31.5408602627841 3.16264204545455  C 30.8805708451705 2.55539772727273  30.0027743252841 2.22159090909091  29.0744850852273 2.22159090909091  Z " fill-rule="nonzero" fill="#027db4" stroke="none" transform="matrix(1 0 0 1 66 419 )" />
  </g>
</svg>