<?xml version="1.0" encoding="utf-8"?>
<svg version="1.1" xmlns:xlink="http://www.w3.org/1999/xlink" width="35px" height="36px" xmlns="http://www.w3.org/2000/svg">
  <g transform="matrix(1 0 0 1 -64 -587 )">
    <path d="M 8.47020348837209 28.5817336309524  L 9.24262468204942 27.646837797619  L 7.89960142623546 30.197619047619  C 7.85067660083896 30.2904473225318  7.82522922540131 30.3925693495774  7.82522922540131 30.4960796854806  C 7.82522922540131 30.8013095945353  8.04418064531852 31.0685095683714  8.35911950399709 31.147619047619  L 10.7331770076308 31.7428571428571  C 10.9774851799974 31.8039320969058  11.2381172224096 31.740681710599  11.4199502634448 31.5761904761905  C 12.2355729923692 30.8388764880952  12.8358636900436 30.2372767857143  13.2199479923692 29.7729910714286  L 13.9932038063227 28.8380952380952  L 12.6493459302326 31.3888764880952  C 12.600424119034 31.4817024529434  12.5749783754034 31.5838212946832  12.5749783754034 31.6873283106254  C 12.5749783754034 31.9925708639921  12.7939475853266 32.2597785974133  13.1089037518169 32.3388764880952  L 16.4664618913517 33.1809523809524  C 16.7107700637183 33.242027335001  16.9714021061305 33.1787769486943  17.1532351471657 33.0142857142857  C 17.9688578760901 32.2761904761905  18.5691485737645 31.6753720238095  18.952398255814 31.2110863095238  L 19.7256540697674 30.2761904761905  L 18.3817961936773 32.8269717261905  C 18.3326900937713 32.9199387010611  18.307144565785 33.0222521196601  18.307144565785 33.1259619548421  C 18.307144565785 33.4316074950646  18.5266811059714 33.6990623107015  18.8421886355378 33.7777901785714  L 21.7079567132994 34.496837797619  C 21.952264885666 34.5579127516676  22.2128969280782 34.4946623653609  22.3947299691134 34.3301711309524  C 23.2103924418605 33.5920758928571  23.8106831395349 32.9904761904762  24.1939328215843 32.5261904761905  L 24.9671886355378 31.5912946428571  L 23.623291015625 34.1428571428571  C 23.5746679129172 34.2354535620333  23.5493838408637 34.3372562682034  23.5493838408637 34.4404338298774  C 23.5493838408637 34.7458112028247  23.7685427771241 35.0131016460561  24.0836834574855 35.0920758928571  L 27.5184241006541 35.9603050595238  L 27.6710403797238 35.9523809523809  C 28.1984011627907 35.9261904761905  28.8258368913517 35.7650669642857  29.4134095657704 35.4761904761905  C 30.5970203488372 34.8920758928571  31.3278695039971 33.8690476190476  31.4872819767442 32.5651041666667  C 31.5720555505087 31.8761904761905  31.6772177053052 31.1309523809524  31.8213288063227 30.201599702381  C 31.8866279069767 29.7841145833333  31.9383346202762 29.4571428571429  32.0689328215843 28.6452380952381  C 32.5081020621366 25.9174479166667  32.6505439226017 24.8864955357143  32.7497445039971 23.6722098214286  L 32.7870639534884 23.2119047619048  L 32.8998171784157 23.103162202381  L 33.389898255814 23.053162202381  C 33.7591324384279 23.0208953822095  34.1062274370766 22.8739505717107  34.3759424963663 22.6357142857143  C 34.8024334574855 22.2547619047619  34.9643895348837 21.6912574404762  34.8168604651163 21.0658854166667  L 33.3245991551599 14.6825520833333  C 33.2042151162791 14.1730282738095  32.8769247365552 13.6428571428571  32.4046886355378 13.20078125  C 31.9417525890262 12.7682663690476  31.3745287518169 12.451599702381  30.8191485737645 12.3119047619048  L 26.3178427053052 11.1825520833333  L 26.2279421784157 11.0364955357143  L 28.329833984375 3.69840029761904  C 28.6605025890262 2.54285714285714  27.8626453488372 1.32697172619047  26.5425145348837 0.996019345238092  L 23.3824831940407 0.20316220238095  C 22.0632267441861 -0.127790178571431  20.7227470930233 0.55159970238095  20.3912438680959 1.70714285714285  L 18.2910610465116 9.04605654761905  L 18.1350665425145 9.13013392857142  L 13.4412415970204 7.95316220238095  C 12.8850665425145 7.81350446428571  12.2237293332122 7.82302827380952  11.5929153797238 7.98095238095238  C 10.9468397983285 8.14285714285714  10.3804505813954 8.44921875  10.0048317132994 8.83411458333333  L 5.30262082122093 13.6626860119048  C 4.84135401526163 14.1357142857143  4.68027230196221 14.698400297619  4.84477198401163 15.2285714285714  C 5.01010628633721 15.7579613095238  5.47471157340116 16.1658854166667  6.1521847747093 16.3642857142857  L 6.69309820130814 16.5230282738095  L 6.77791151889535 16.6674479166667  L 6.63376067405523 17.1809523809524  C 5.79437113917151 20.1515625  4.5319086119186 22.2745907738095  3.22703942587209 22.7944196428571  C 1.3379757903343 23.5460193452381  0.328164743822673 24.6333333333333  0.110249364098836 25.9579241071429  C -0.0898210392441871 27.1738095238095  0.479072038517441 28.4547619047619  1.60421965843023 29.3635044642857  L 2.48005427870639 29.6738095238095  L 5.44760628633721 30.4182291666667  C 6.03288046760483 30.5649783882759  6.65733287775857 30.4082683264363  7.08568768168605 30.0071428571429  C 7.69273482921512 29.4388764880952  8.15400163517442 28.9642857142857  8.47024323219477 28.5825520833333  Z M 30.3841921784157 13.8285714285714  C 30.9463288063227 13.9698288690476  31.5745991551599 14.5428571428571  31.6865177598111 15.0190476190476  L 33.060064271439 20.8888764880952  C 33.066602639246 20.9167913505574  33.0699005168727 20.9452856586907  33.0699005168727 20.9738635737276  C 33.0699005168727 21.1930310375091  32.8800928201131 21.3707013713467  32.6459531604047 21.3707013713467  C 32.6088533243966 21.3707013713467  32.5719139819122 21.3661429295226  32.5360817132994 21.3571428571429  L 7.12209302325581 14.9841145833333  C 6.9367392932062 14.9376351545876  6.80784913665102 14.7804121741966  6.80784913665102 14.6007931432628  C 6.80784913665102 14.5018317687505  6.84735050824553 14.4064412197093  6.91860465116279 14.3333333333333  L 11.2427325581395 9.89285714285714  C 11.59375 9.53255208333333  12.4441883175872 9.32935267857143  13.0062852016715 9.47061011904762  L 18.6234386355378 10.8793526785714  C 18.6950811145031 10.8973420096331  18.7689357870303 10.9064533504652  18.8431111606765 10.9064533504652  C 19.2268375862089 10.9064533504652  19.5627276103353 10.6652109478344  19.6620639534884 10.3182663690476  L 21.9792877906977 2.22142857142857  C 22.0786110461888 1.87446688087899  22.4145098244973 1.63320688259744  22.7982505199537 1.63320688259744  C 22.8724224495945 1.63320688259744  22.9462737229096 1.64231737739049  23.0179131086483 1.66030505952381  L 26.0804131086483 2.42857142857143  C 26.4510771239883 2.52154340105834  26.708818546571 2.83596293776075  26.708818546571 3.1951651125553  C 26.708818546571 3.26459407526671  26.6990856778605 3.33372288620656  26.6798691860465 3.40078125  L 24.361810728561 11.497619047619  C 24.2410026407284 11.9207810035459  24.5092756519005 12.3555507176797  24.9612270621366 12.4690476190476  L 30.3841921784157 13.8293526785714  Z M 11.1350665425145 24.7135044642857  C 10.7707085053057 24.5534780494767  10.3363704048626 24.6552784045667  10.0955668604651 24.9571428571429  C 8.75763081395349 26.6364955357143  7.5282351471657 27.89921875  6.40734011627907 28.7444568452381  L 6.17245412427326 28.9222098214286  L 6.05970089934593 28.9444568452381  L 2.55803165879361 28.047619047619  L 2.44186046511628 27.9285714285714  C 1.92379973655523 27.401599702381  1.67202261991279 26.7738095238095  1.76697061228198 26.1952380952381  C 1.89752906976744 25.4015997023809  2.6436398528343 24.7317336309524  3.88154069767442 24.2388764880952  C 5.142333984375 23.7373139880952  6.25897642623547 22.4864955357143  7.17721770530523 20.5222098214286  C 7.57568927143896 19.6682663690476  7.92758107739826 18.7095238095238  8.22601744186047 17.6730282738095  L 8.38034270530524 17.1373139880952  L 8.53550258902616 17.053162202381  L 31.0370639534884 22.696837797619  L 31.1303427053052 22.8198288690476  L 31.0989450853924 23.2745907738095  C 31.0200933412064 24.4126860119048  29.8932764807413 31.8087425595238  29.8220555505087 32.3857142857143  C 29.7288165425145 33.1452380952381  29.3727118913517 33.6873139880952  28.7249273255814 34.0373139880952  C 28.4600907078879 34.1789192001581  28.1731230732121 34.2806816913025  27.8745287518169 34.3388764880952  L 27.6752532249273 34.3658854166667  L 25.2757994186046 33.7642857142857  L 25.7226392169331 33.0095238095238  C 26.0515988372093 32.452380952381  26.6230752634448 31.3785714285714  27.4353197674419 29.7873139880952  C 27.4892366486425 29.6816014185132  27.5172190889653 29.5659415644501  27.5172190889653 29.4487994244623  C 27.5172190889653 29.1459829067197  27.3313125253006 28.8701170894609  27.0393520621366 28.7396949404762  L 26.9147154342296 28.6841145833333  C 26.5498396637929 28.5214098368895  26.1129986117673 28.622402593881  25.8710029069767 28.9254092261905  C 24.5339014807413 30.601599702381  23.3062147983285 31.8611235119048  22.187863372093 32.703162202381  L 21.9529773800872 32.8801711309524  L 21.8402241551599 32.902380952381  L 19.7519247365552 32.3785714285714  L 20.1936773255814 31.6245907738095  C 20.3355191638987 31.3829015832744  20.4740115008859 31.1395032011767  20.6091195039971 30.8944568452381  C 20.888916015625 30.3920758928571  21.3204941860465 29.5626860119048  21.9046886355378 28.4087425595238  C 22.1043193392719 28.0152682351139  21.9270456231929 27.5447453570519  21.5078863099564 27.3555431547619  L 21.3874625272529 27.301599702381  C 21.021894585726 27.136332927336  20.582472966643 27.2368236685484  20.3394974109738 27.5412574404762  C 19.0041049691134 29.2158854166667  17.7772529069767 30.4738095238095  16.6589014807413 31.3166666666667  L 16.4240552325581 31.4936383928571  L 16.3113020076308 31.5158854166667  L 14.2390988372093 30.9960193452381  L 14.6808514262355 30.2420758928571  C 14.8226436744151 30.0003491089481  14.961135669587 29.7569389257834  15.0962936046512 29.5119047619048  C 15.3743811319041 29.0111235119048  15.8102118913517 28.1745907738095  16.4037063953488 27.003162202381  C 16.4567033689745 26.898633778513  16.4841977694054 26.7843795768718  16.4841977694054 26.6686767239675  C 16.4841977694054 26.3650536049648  16.2960039968885 26.0890121908735  16.0018168604651 25.9611235119048  L 15.8695494186047 25.9039806547619  C 15.5054911034149 25.746198895604  15.0731226031194 25.8488615850147  14.8334279614826 26.15  C 13.4963662790698 27.8261904761905  12.2678052325581 29.0880952380952  11.1460755813953 29.9333333333333  L 10.9111895893895 30.1103050595238  L 10.7984363644622 30.1325520833333  L 9.50119799236919 29.8071428571429  L 9.94211596111919 29.0539806547619  C 10.0828488372093 28.8119047619048  10.2219124727471 28.5690476190476  10.3575581395349 28.3238095238095  C 10.6348110465116 27.8222098214286  11.0706020621366 26.9857142857143  11.6641363099564 25.8142857142857  C 11.7172415713304 25.7094170701654  11.7447900004683 25.594813299351  11.7447900004683 25.4787596116359  C 11.7447900004683 25.1751934225759  11.5574169591284 24.898957831704  11.263916015625 24.7698288690476  L 11.1350665425145 24.7135044642857  Z " fill-rule="nonzero" fill="#027db4" stroke="none" transform="matrix(1 0 0 1 64 587 )" />
  </g>
</svg>