<?xml version="1.0" encoding="utf-8"?>
<svg version="1.1" xmlns:xlink="http://www.w3.org/1999/xlink" width="35px" height="28px" xmlns="http://www.w3.org/2000/svg">
  <g transform="matrix(1 0 0 1 -18 -635 )">
    <path d="M 25.7528372093023 4  C 25.8882790697674 3.89170578378518  26.0241550388922 3.76689871988824  26.0241550388922 3.62132344370861  L 26.0241550388922 0.417282825486341  C 26.0241550388922 0.250939337748345  25.8882790697674 0.126132273489239  25.7074728680846 0.126132273851408  L 0.452341085403796 0.126132273851408  C 0.271534883720929 0.126132273851408  0.13565891499364 0.250939337748345  0.135658914596202 0.417282825486341  L 0.135658914596202 3.62132344370861  C 0.135658914596202 3.78766693144661  0.271534883720929 3.91247399570571  0.452341085403796 4  L 11 4  L 11 27.6713084327918  C 11.0563100773869 27.7547768655836  11.1242480617505 27.8170815013452  11.2145426355264 27.817081500983  L 14.9904186046512 27.817081500983  C 15.0809302325581 27.817081500983  15.1486511627907 27.7547768652214  15.1486511627907 27.6713084327918  L 15.1486511627907 4  L 25.7528372093023 4  Z M 34.8643410854038 27.5674673731892  L 28.4660155040085 13.170745077142  L 26.2503255813953 13.170745077142  L 20.235751937852 27.5674673731892  L 22.4290852714503 27.5674673731892  L 24.1475038761015 23.1984289625931  L 30.6817054262241 23.1984289625931  L 32.5129922481945 27.5674673731892  L 34.8643410854038 27.5674673731892  Z M 24.7580775192474 21.679580397351  L 24.7580775192474 21.6590099778042  L 26.4762790697674 17.4357446357616  C 26.8381085272643 16.5201631788079  27.1094263564567 15.6047795142281  27.313023255814 14.6891980572744  C 27.5613333332009 15.4592042384106  27.9233798448288 16.4576607503104  28.4206511627907 17.6853587639176  L 30.0485581395349 21.679580397351  L 24.7580775192474 21.679580397351  Z " fill-rule="nonzero" fill="#027db4" stroke="none" transform="matrix(1 0 0 1 18 635 )" />
  </g>
</svg>