<?xml version="1.0" encoding="utf-8"?>
<svg version="1.1" xmlns:xlink="http://www.w3.org/1999/xlink" width="32px" height="35px" xmlns="http://www.w3.org/2000/svg">
  <g transform="matrix(1 0 0 1 -20 -588 )">
    <path d="M 8.71550870028409 33.692784765625  C 8.20570887784091 34.25304484375  7.49869733664773 34.906361875  6.61253451704545 34.906361875  C 5.98296136363636 34.906361875  5.38950919744318 34.5906958984375  4.79794662642045 33.9394174609375  L 1.06996509232955 29.8383580078125  C -0.776928160511364 27.807295078125  0.610494779829545 26.281649453125  1.27713373579545 25.5483866015625  C 5.77626516335227 20.8204321484375  7.91110862926136 18.579751328125  8.92841889204546 17.51351421875  L 4.80227095170455 14.589216875  C 3.38014424715909 13.741471640625  2.63653931107955 12.2247  2.81140259232955 10.5223741796875  C 3.02380404829546 8.455255703125  4.56661257102273 6.6536371875  6.64963664772727 6.0395335546875  L 26.0531719460227 0.3216103515625  C 28.1708997514205 -0.30400546875  30.0420311434659 0.2113251171875  31.0607586292614 1.6721746875  C 31.8912864346591 2.862807421875  32.0941670809659 4.5630146875  31.6323347301136 6.4587294140625  L 26.4333142045455 27.801099296875  C 25.7643132457386 30.549755703125  23.5505778053977 31.8017868359375  21.7768712713068 31.8017868359375  C 20.3248012428977 31.8017868359375  19.1198363636364 31.0167191015625  18.6194846946023 29.7485389453125  L 16.5055724786932 25.288123125  C 15.4517051846591 26.4290695703125  13.2674406605114 28.786831015625  8.71550870028409 33.692784765625  Z M 2.09010980113636 27.8266819140625  C 2.0938890625 27.8266819140625  2.13618764204545 27.984015234375  2.44597762784091 28.32478421875  L 6.17399549005682 32.425843671875  C 6.47996985085227 32.76241546875  6.61111729403409 32.765533359375  6.61253451704545 32.765533359375  C 6.63248462357954 32.765533359375  6.82112038352273 32.7488246875  7.34614623579545 32.1707766015625  C 9.68099957386364 29.6549623046875  15.7524467684659 23.1086007421875  16.0503175426136 22.775666484375  C 16.2584673295455 22.5321116015625  16.5573192471591 22.408755234375  16.8633299715909 22.4443311328125  C 17.1868924005682 22.4824652734375  17.471971875 22.6962403515625  17.6226333451705 23.0134652734375  L 20.3627755326705 28.7956649609375  C 20.3756031960227 28.8233262109375  20.3875224076705 28.85158703125  20.3983877485795 28.880327578125  C 20.6720930752841 29.60475640625  21.5226073508523 29.6611981640625  21.7768349786932 29.6611981640625  C 22.8311746803977 29.6611981640625  24.1496988991477 28.905910234375  24.5530617897727 27.246995  L 29.7525910511364 5.9046651171875  C 30.0543137428977 4.66594496093751  29.9706977272727 3.62585015625  29.5169689985795 2.975131328125  C 29.0660383522727 2.3291293359375  28.3305007102273 2.19374109375  27.7926471946023 2.19374109375  C 27.4125049360796 2.19374109375  26.9967867897727 2.2595764453125  26.5567578480114 2.3892085546875  L 7.15373121448864 8.10717171875  C 5.63229002130682 8.55562765625  4.84784005681818 9.764528046875  4.74521871448864 10.763330859375  C 4.65967670454546 11.5969656640625  5.01699808238636 12.2921343359375  5.75159094460227 12.720164140625  C 5.77630145596591 12.7342745703125  5.80003082386364 12.7499439453125  5.82332411221591 12.7661729296875  L 11.0228533735795 16.4509146875  C 11.2822774857955 16.634909921875  11.4471475142045 16.943260859375  11.467133984375 17.2824708984375  C 11.4866116832386 17.62116125  11.3592798295455 17.950418046875  11.1231490411932 18.16942953125  C 10.9392373579545 18.3570623046875  4.93341839488636 24.6661048046875  2.63704808238636 27.079228671875  C 2.17757776988636 27.5851656640625  2.10104786931818 27.7702001953125  2.09014616477273 27.8271615625  Z " fill-rule="nonzero" fill="#027db4" stroke="none" transform="matrix(1 0 0 1 20 588 )" />
  </g>
</svg>