<?xml version="1.0" encoding="utf-8"?>
<svg version="1.1" xmlns:xlink="http://www.w3.org/1999/xlink" width="35px" height="32px" xmlns="http://www.w3.org/2000/svg">
  <g transform="matrix(1 0 0 1 -156 -589 )">
    <path d="M 34.8376989072086 2.70935582822086  L 34.8376989072086 0  L 20.2272454946319 0  L 20.2272454946319 2.70897239263804  L 27.6058641679448 2.70897239263804  C 27.4813075153374 2.7760736196319  27.3642997507669 2.86311349693252  27.2397430981595 2.97699386503067  L 22.5694976993865 6.99118098159509  C 21.6913103911043 7.52070552147239  22.2767685966258 8.86081288343558  23.4405555023006 8.86081288343558  L 27 8.86081288343558  L 27 22.7653374233129  L 23.4405555023006 22.7653374233129  C 22.2767685966258 22.7653374233129  21.6913103911043 23.8374233128834  22.5694976993865 24.6414877300614  L 27.2397430981595 28.9167944785276  C 27.3642997507669 29.0306748466258  27.4959859087423 29.1246165644172  27.6205425613497 29.1848159509202  L 20.2272454946319 29.1848159509202  L 20.2272454946319 31.8585122699387  L 34.8376989072086 31.8585122699387  L 34.8376989072086 29.1848159509202  L 28.6157376342025 29.1848159509202  C 28.7402942868098 29.1246165644172  28.8719804447853 29.0306748466258  28.9965370973926 28.9167944785276  L 33.6667824961656 24.3734662576687  C 34.5449698044479 23.8374233128834  33.9595115989264 22.4973159509202  32.7885951878834 22.4973159509202  L 29 22.4973159509202  L 29 8.59279141104295  L 32.7885951878834 8.59279141104295  C 33.9599309815951 8.59279141104295  34.5453891871166 7.52070552147239  33.6667824961656 6.72315950920245  L 28.9965370973926 2.70935582822086  L 34.8376989072086 2.70935582822086  Z M 17 1.37193251533742  C 17.5570360429448 0.567484662576687  16.9770298121166 0.0364263803680982  16.0984231211656 0  L 1.48335649923313 0  C 0.639558569785276 0.0364263803680982  0.068359375 0.535276073619632  0 1.29946319018405  L 0 30.5924079754601  C 0.0687787576687124 31.3565950920245  0.639977952453988 31.8554447852761  1.48335649923313 31.8554447852761  L 16.0980037384969 31.8554447852761  C 16.9766104294479 31.8554447852761  17.5570360429448 31.3243865030675  17 30.5199386503068  L 17 1.37193251533742  Z M 2.9683905291411 10.5598159509202  C 2.96880991180982 9.83090490797546  3.61382045628834 9.24041411042945  4.40980876150307 9.24041411042945  L 8.83890912576687 9.24041411042945  C 9.6348974309816 9.24041411042945  10.2803273581288 9.83128834355828  10.2803273581288 10.5598159509202  L 10.2803273581288 10.6000766871166  C 10.2803273581288 11.3286042944785  9.6348974309816 11.9194785276074  8.83890912576687 11.9194785276074  L 4.40980876150307 11.9194785276074  C 3.61382045628834 11.9194785276074  2.9683905291411 11.3286042944785  2.9683905291411 10.6000766871166  L 2.9683905291411 10.5598159509202  Z M 2.9683905291411 15.9662576687117  C 2.96880991180982 15.2373466257669  3.61382045628834 14.6468558282209  4.40980876150307 14.6468558282209  L 7.38029620398773 14.6468558282209  C 8.17628450920245 14.6468558282209  8.82171443634969 15.2377300613497  8.82171443634969 15.9662576687117  C 8.82171443634969 16.6947852760736  8.17628450920245 17.2856595092025  7.38029620398773 17.2856595092025  L 4.40980876150307 17.2856595092025  C 3.61382045628834 17.2856595092025  2.9683905291411 16.6947852760736  2.9683905291411 15.9662576687117  Z M 2.9683905291411 21.2841257668712  C 2.96880991180982 20.5555981595092  3.61382045628834 19.9647239263804  4.40980876150307 19.9647239263804  L 8.83890912576687 19.9647239263804  C 9.6348974309816 19.9647239263804  10.2803273581288 20.5555981595092  10.2803273581288 21.2841257668712  L 10.2803273581288 21.3243865030675  C 10.2803273581288 22.0529141104294  9.6348974309816 22.6437883435583  8.83890912576687 22.6437883435583  L 4.40980876150307 22.6437883435583  C 3.61382045628834 22.6437883435583  2.9683905291411 22.0529141104294  2.9683905291411 21.3243865030675  L 2.9683905291411 21.2841257668712  Z M 13.2160060391104 26.6825153374233  C 13.2155866564417 27.4114263803681  12.5705761119632 28.0019171779141  11.7745878067485 28.0019171779141  L 4.41022814417178 28.0019171779141  C 3.61423983895706 28.0019171779141  2.96880991180982 27.4110429447853  2.96880991180982 26.6825153374233  L 2.96880991180982 26.642254601227  C 2.96880991180982 25.913726993865  3.61423983895706 25.3228527607362  4.41022814417178 25.3228527607362  L 11.7745878067485 25.3228527607362  C 12.5705761119632 25.3228527607362  13.2160060391104 25.913726993865  13.2160060391104 26.642254601227  L 13.2160060391104 26.6825153374233  Z M 13.2160060391104 5.24194785276074  C 13.2155866564417 5.9704754601227  12.5705761119632 6.56134969325154  11.7745878067485 6.56134969325154  L 4.41022814417178 6.56134969325154  C 3.61423983895706 6.56134969325154  2.96880991180982 5.9704754601227  2.96880991180982 5.24194785276074  L 2.96880991180982 5.20168711656442  C 2.96880991180982 4.47315950920246  3.61423983895706 3.88228527607362  4.41022814417178 3.88228527607362  L 11.7745878067485 3.88228527607362  C 12.5705761119632 3.88228527607362  13.2160060391104 4.47315950920246  13.2160060391104 5.20168711656442  L 13.2160060391104 5.24194785276074  Z " fill-rule="nonzero" fill="#027db4" stroke="none" transform="matrix(1 0 0 1 156 589 )" />
  </g>
</svg>