<?xml version="1.0" encoding="utf-8"?>
<svg version="1.1" xmlns:xlink="http://www.w3.org/1999/xlink" width="35px" height="29px" xmlns="http://www.w3.org/2000/svg">
  <g transform="matrix(1 0 0 1 -110 -591 )">
    <path d="M 10.7325725215157 12.9584379974724  L 20.6019892734793 21.9706466532629  L 31.1591055053058 12.5518721909467  L 20.6391622242647 3.52272329044118  L 10.7325725215157 12.9584379974724  Z M 17.72108609939 24.4778024379596  L 17.9441237675468 24.342280513557  L 8.16763935599097 15.4147730480239  L 3.83699132060495 19.4634908685662  L 9.85900832428142 24.9521292233456  C 10.2097700585078 25.2692277017971  10.6846138790422 25.4459995335926  11.1786478578292 25.4433962201287  L 15.1189799830799 25.4433962201287  C 16.0915418285127 25.4441719772134  17.0257044845692 25.0975213750074  17.72108609939 24.4778024379596  Z M 33.7054521954378 14.974326785386  L 21.9402152824198 25.511157198989  L 31.2334514068767 25.511157198989  C 32.2599539265184 25.511157198989  33.0920986354236 26.2695976622483  33.0920986354236 27.2051813872932  C 33.0920986354236 28.1407651123381  32.2599539265184 28.8992055755974  31.2334514068767 28.8992055755974  L 11.1600613824365 28.8992055755974  C 9.68172794221469 28.8980194038029  8.2644180474971 28.3618101883856  7.21972925718583 27.4084642738971  L 1.19771225350936 21.9198259191176  C -0.219108042750916 20.6024052964478  -0.219108042750916 18.4939788211992  1.19771225350936 17.1765581985294  L 17.9255372921541 1.16802967486213  C 19.3393709734196 -0.178963772360082  21.6815046364228 -0.231952464476798  23.166922439004 1.04944799517463  L 33.6682792812082 10.0785968956801  C 34.4128936620515 10.7187175019587  34.8349588228829 11.6103537315515  34.8349588228829 12.5432726003333  C 34.8349588228829 13.409825145932  34.4706569260741 14.2434397451772  33.8169710477941 14.8726853170956  L 33.7054521954378 14.974326785386  Z " fill-rule="nonzero" fill="#027db4" stroke="none" transform="matrix(1 0 0 1 110 591 )" />
  </g>
</svg>