<?xml version="1.0" encoding="utf-8"?>
<svg version="1.1" xmlns:xlink="http://www.w3.org/1999/xlink" width="35px" height="32px" xmlns="http://www.w3.org/2000/svg">
  <g transform="matrix(1 0 0 1 -18 -504 )">
    <path d="M 35 1.321875  C 34.92822265625 0.60625  34.26171875 0.0249999999999999  33.44140625 0  L 18.71337890625 0  C 18.2109375 0.025  17.7666015625 0.24375  17.49658203125 0.578125  C 17.2265625 0.246875  16.78564453125 0.028125  16.283203125 0  L 1.55859375 0  C 0.73828125 0.028125  0.07177734375 0.609375  0 1.328125  L 0 30.678125  C 0.07177734375 31.39375  0.73828125 31.978125  1.55859375 32  L 16.28662109375 32  C 16.7890625 31.978125  17.2333984375 31.759375  17.50341796875 31.425  C 17.7734375 31.75625  18.21435546875 31.975  18.716796875 32  L 33.44482421875 32  C 34.26513671875 31.975  34.931640625 31.39375  35 30.675  L 35 1.321875  Z M 14.42724609375 2.378125  L 14.42724609375 1.2875  L 15.6748046875 1.2875  L 15.6748046875 2.378125  L 14.42724609375 2.378125  Z M 12.263671875 2.378125  L 12.263671875 1.2875  L 13.51123046875 1.2875  L 13.51123046875 2.378125  L 12.263671875 2.378125  Z M 10.10009765625 1.2875  L 10.0966796875 1.2875  L 11.34765625 1.2875  L 11.34765625 2.378125  L 10.10009765625 2.378125  L 10.10009765625 1.2875  Z M 16.27978515625 3.725  L 16.27978515625 29.640625  C 16.27978515625 29.959375  15.98583984375 30.21875  15.6201171875 30  L 2.73779296875 30  C 2.3720703125 30.21875  2.078125 29.959375  2 29.640625  L 2 3.725  C 2.078125 3.40625  2.3720703125 3.146875  2.73779296875 3.146875  L 15.6201171875 3.146875  C 15.98583984375 3.146875  16.27978515625 3.40625  16.27978515625 3.725  Z M 31.06591796875 2.375  L 31.06591796875 1.284375  L 32.3134765625 1.284375  L 32.3134765625 2.375  L 31.06591796875 2.375  Z M 28.89892578125 2.375  L 28.89892578125 1.284375  L 30.146484375 1.284375  L 30.146484375 2.375  L 28.89892578125 2.375  Z M 26.7353515625 2.375  L 26.7353515625 1.284375  L 27.98291015625 1.284375  L 27.98291015625 2.375  L 26.7353515625 2.375  Z M 33 3.71875  L 33 29.634375  C 32.91845703125 29.953125  32.62451171875 30.2125  32.2587890625 30  L 19.37646484375 30  C 19.0107421875 30.2125  18.716796875 29.953125  18.716796875 29.634375  L 18.716796875 3.71875  C 18.716796875 3.4  19.0107421875 3.140625  19.37646484375 3.140625  L 32.2587890625 3.140625  C 32.62451171875 3.140625  32.91845703125 3.4  33 3.71875  Z " fill-rule="nonzero" fill="#027db4" stroke="none" transform="matrix(1 0 0 1 18 504 )" />
  </g>
</svg>