<?xml version="1.0" encoding="utf-8"?>
<svg version="1.1" xmlns:xlink="http://www.w3.org/1999/xlink" width="11px" height="7px" xmlns="http://www.w3.org/2000/svg">
  <g transform="matrix(1 0 0 1 -39 -510 )">
    <path d="M 4.98509114583333 1.30731067518248  C 4.99225260416667 1.30731067518248  4.9994140625 1.3053147810219  4.9994140625 1.30431683394161  L 4.9994140625 0.0179630474452555  C 4.9994140625 0.0159671532846715  4.99583333333333 0.0149692062043796  4.988671875 0.0149692062043796  L 0.158268229166669 0.0149692062043796  C 0.151106770833333 0.0149692062043796  0.147526041666669 0.0159671532846715  0.147526041666669 0.0179630474452555  L 0.147526041666669 1.30431683394161  C 0.147526041666669 1.30631272810219  0.151106770833339 1.30731067518248  0.158268229166669 1.30731067518248  L 4.98509114583333 1.30731067518248  Z M 10.8252604166667 1.96096601277372  C 10.8252604166667 1.95797217153285  10.8145182291667 1.95597627737226  10.8073567708333 1.95597627737226  L 3.3451171875 1.95597627737226  C 3.33437500000001 1.95597627737226  3.32721354166667 1.95797217153285  3.32721354166667 1.96096601277372  L 3.32721354166667 2.42002166970803  C 3.32721354166667 2.42301551094891  3.33437500000001 2.42501140510949  3.3451171875 2.42501140510949  L 10.8073567708333 2.42501140510949  C 10.8180989583333 2.42501140510949  10.8252604166667 2.42301551094891  10.8252604166667 2.42002166970803  L 10.8252604166667 1.96096601277372  Z M 10.8216796875 3.0946338959854  C 10.8252604166667 3.09164005474452  10.8145182291667 3.08964416058394  10.8073567708333 3  L 0.383854166666667 3  C 0.373111979166669 3.08964416058394  0.365950520833333 3.09164005474453  0.365950520833333 3.0946338959854  L 0.365950520833333 3.55368955291971  C 0.365950520833333 3.55668339416058  0.373111979166669 3.55867928832117  0.383854166666667 3.55867928832117  L 10.8037760416667 3.55867928832117  C 10.8145182291667 3.55867928832117  10.8216796875 3.55668339416058  10.8216796875 3.55368955291971  L 10.8216796875 3.0946338959854  Z M 10.8216796875 4.22929972627737  C 10.8252604166667 4.2263058850365  10.8145182291667 4.22430999087591  10.8073567708333 4.22430999087591  L 0.383854166666667 4.22430999087591  C 0.373111979166669 4.22430999087591  0.365950520833333 4.2263058850365  0.365950520833333 4.22929972627737  L 0.365950520833333 4.68835538321168  C 0.365950520833333 4.69134922445255  0.373111979166669 4.69334511861314  0.383854166666667 4.69334511861314  L 10.8037760416667 4.69334511861314  C 10.8145182291667 4.69334511861314  10.8216796875 4.69134922445255  10.8216796875 4.68835538321168  L 10.8216796875 4.22929972627737  Z M 10.8216796875 5.36296760948905  C 10.8252604166667 5.35997376824818  10.8145182291667 5.35797787408759  10.8073567708333 5.35797787408759  L 0.383854166666667 5.35797787408759  C 0.373111979166669 5.35797787408759  0.365950520833333 5.35997376824818  0.365950520833333 5.36296760948905  L 0.365950520833333 5.82202326642336  C 0.365950520833333 5.82501710766423  0.373111979166669 5.82701300182482  0.383854166666667 5.82701300182482  L 10.8037760416667 5.82701300182482  C 10.8145182291667 5.82701300182482  10.8216796875 5.82501710766423  10.8216796875 5.82202326642336  L 10.8216796875 5.36296760948905  Z M 10.8216796875 6.49763343978102  C 10.8252604166667 6.49463959854015  10.8145182291667 6.49264370437956  10.8073567708333 6.49264370437956  L 0.383854166666667 6.49264370437956  C 0.373111979166669 6.49264370437956  0.365950520833333 6.49463959854015  0.365950520833333 6.49763343978102  L 0.365950520833333 6.95668909671533  C 0.365950520833333 6.9596829379562  0.373111979166669 6.96167883211679  0.383854166666667 7  L 10.8037760416667 7  C 10.8145182291667 6.96167883211679  10.8216796875 6.9596829379562  10.8216796875 6.95668909671533  L 10.8216796875 6.49763343978102  Z " fill-rule="nonzero" fill="#027db4" stroke="none" transform="matrix(1 0 0 1 39 510 )" />
  </g>
</svg>