<?xml version="1.0" encoding="utf-8"?>
<svg version="1.1" xmlns:xlink="http://www.w3.org/1999/xlink" width="10px" height="7px" xmlns="http://www.w3.org/2000/svg">
  <g transform="matrix(1 0 0 1 -22 -510 )">
    <path d="M 4.59878177966102 1.30830862226277  C 4.60209216101695 1.30830862226277  4.60871292372881 1.30731067518248  4.60871292372881 1.3053147810219  L 4.60871292372881 0.0189609945255474  C 4.60871292372881 0.0169651003649635  4.60540254237288 0.0159671532846715  4.59878177966102 0.0159671532846715  L 0.136387711864407 0.0159671532846715  C 0.129766949152542 0.0159671532846715  0.12645656779661 0.0169651003649631  0.12645656779661 0.0189609945255474  L 0.12645656779661 1.3053147810219  C 0.12645656779661 1.30731067518248  0.129766949152542 1.30830862226277  0.136387711864407 1.30830862226277  L 4.59878177966102 1.30830862226277  Z M 9.99470338983051 1.96196395985401  C 9.99470338983051 1.95897011861314  9.98808262711864 1.95697422445255  9.97815148305085 1.95697422445255  L 3.07931673728814 1.95697422445255  C 3.06938559322034 1.95697422445255  3.06276483050847 1.95897011861314  3.06276483050847 1.96196395985401  L 3.06276483050847 2.42101961678832  C 3.06276483050847 2.4240134580292  3.06938559322034 2.42600935218978  3.07931673728814 2.42600935218978  L 9.97815148305085 2.42600935218978  C 9.98808262711864 2.42600935218978  9.99470338983051 2.4240134580292  9.99470338983051 2.42101961678832  L 9.99470338983051 1.96196395985401  Z M 9.99470338983051 3.09662979014599  C 9.99470338983051 3.09363594890511  9.98808262711864 3.09164005474453  9.97815148305085 3.09164005474453  L 0.344941737288136 3.09164005474453  C 0.335010593220339 3.09164005474453  0.328389830508475 3.09363594890511  0.328389830508475 3.09662979014599  L 0.328389830508475 3.55568544708029  C 0.328389830508475 3.55867928832117  0.335010593220339 3.56067518248175  0.344941737288136 3.56067518248175  L 9.97815148305085 3.56067518248175  C 9.98808262711864 3.56067518248175  9.99470338983051 3.55867928832117  9.99470338983051 3.55568544708029  L 9.99470338983051 3.09662979014599  Z M 9.99470338983051 4.23029767335766  C 9.99470338983051 4.22730383211679  9.98808262711864 4.2253079379562  9.97815148305085 4.2253079379562  L 0.344941737288136 4.2253079379562  C 0.335010593220339 4.2253079379562  0.328389830508475 4.22730383211679  0.328389830508475 4.23029767335766  L 0.328389830508475 4.68935333029197  C 0.328389830508475 4.69234717153285  0.335010593220339 4.69434306569343  0.344941737288136 4.69434306569343  L 9.97815148305085 4.69434306569343  C 9.98808262711864 4.69434306569343  9.99470338983051 4.69234717153285  9.99470338983051 4.68935333029197  L 9.99470338983051 4.23029767335766  Z M 9.99470338983051 5.36496350364963  C 9.99470338983051 5.36196966240876  9.98808262711864 5.35997376824818  9.97815148305085 5.35997376824818  L 0.344941737288136 5.35997376824818  C 0.335010593220339 5.35997376824818  0.328389830508475 5.36196966240876  0.328389830508475 5.36496350364963  L 0.328389830508475 5.82401916058394  C 0.328389830508475 5.82701300182482  0.335010593220339 5.8290088959854  0.344941737288136 5.8290088959854  L 9.97815148305085 5.8290088959854  C 9.98808262711864 5.8290088959854  9.99470338983051 5.82701300182482  9.99470338983051 5.82401916058394  L 9.99470338983051 5.36496350364963  Z M 9.99470338983051 6.49863138686131  C 9.99470338983051 6.49563754562044  9.98808262711864 6.49364165145985  9.97815148305085 6.49364165145985  L 0.344941737288136 6.49364165145985  C 0.335010593220339 6.49364165145985  0.328389830508475 6.49563754562044  0.328389830508475 6.49863138686131  L 0.328389830508475 6.95768704379562  C 0.328389830508475 6.9606808850365  0.335010593220339 6.96267677919708  0.344941737288136 6.96267677919708  L 9.97815148305085 6.96267677919708  C 9.98808262711864 6.96267677919708  9.99470338983051 6.9606808850365  9.99470338983051 6.95768704379562  L 9.99470338983051 6.49863138686131  Z " fill-rule="nonzero" fill="#027db4" stroke="none" transform="matrix(1 0 0 1 22 510 )" />
  </g>
</svg>