<?xml version="1.0" encoding="utf-8"?>
<svg version="1.1" xmlns:xlink="http://www.w3.org/1999/xlink" width="35px" height="32px" xmlns="http://www.w3.org/2000/svg">
  <g transform="matrix(1 0 0 1 -66 -631 )">
    <path d="M 33.5070811564626 10.8724744343682  C 35.4923541633306 9.04257577464867  35.4923541633306 6.08173394498937  33.5070811564626 4.25183528526989  L 30.4848738435374 1.45466554541414  C 29.5312447414923 0.573554251786117  28.2346803541571 0.0781421398871218  26.8823151190476 0.0781421398871218  C 25.5299498839381 0.0781421398871218  24.233385496603 0.573554251786117  23.2797563945578 1.45466554541414  L 2.3214056122449 20.6525067397239  C 1.56992779855174 21.3140701911863  1.14980208149419 22.2318379703076  1.16070282312925 23.1880706857905  L 1.16070282312925 29.667845169482  L 1.00740244897959 29.667845169482  L 0.328500782312925 30.271550873903  C 0.122307729080491 30.4610175744852  0.00646967833782282 30.7179895635437  0.00646967833782282 30.9859359381944  C 0.00646967833782282 31.5439053868373  0.498724981037099 31.9962289959221  1.10595267006803 31.9962289959221  C 1.39755369394014 31.9962289959221  1.67721149869746 31.889787708483  1.88340455782313 31.7003210024857  L 2.51850608843537 31.116738835089  L 9.87692391156463 31.116738835089  C 10.9079395071515 31.1119639108616  11.8938951811317 30.727830480567  12.6144305442177 30.0501920916536  L 33.5070811564626 10.8724744343682  Z M 11.5413279591837 24.4558526431965  L 11.6070281292517 24.3753585576083  L 8.7600212244898 24.3753585576083  L 8.7600212244898 21.698929946135  C 8.7600212244898 21.1432341953261  8.26977183773855 20.692753782518  7.66501857142857 20.692753782518  L 5.47501326530612 20.692753782518  L 22.2066538095238 5.37875257726924  L 29.2584708843537 11.9591446835734  L 12.6363306122449 27.2932694258464  L 12.6363306122449 25.4821523125833  C 12.6364766235888 25.4754453092406  12.6365496347371 25.4687371318322  12.6365496347371 25.4620287866859  C 12.6365496347371 24.906333035877  12.1463002479858 24.455852623069  11.5415469816759 24.455852623069  Z M 9.96452414965986 29.1848805934434  L 3.3507081292517 29.1848805934434  L 3.3507081292517 23.1478236117419  C 3.32481027605944 22.9944609207501  3.32481027605944 22.8383452949738  3.3507081292517 22.684982603982  L 6.57001591836735 22.684982603982  L 6.57001591836735 25.4620288068135  C 6.57001591836735 26.0177245576224  7.0602653051186 26.4682049704304  7.66501857142857 26.4682049704304  L 10.5120254761905 26.4682049704304  L 10.5120254761905 29.0842630020853  C 10.3373610632077 29.1470529973291  10.1520348291558 29.181111507112  9.96452414965986 29.1848805934434  Z M 31.9740774489796 5.68060544510698  C 33.1102410476858 6.72560739251892  33.1102410476858 8.41882586414341  31.9740774489796 9.46382781155535  L 30.8133746598639 10.5504980607606  L 23.6520572789116 3.97010595445645  L 24.834660170068 2.88343570525124  C 25.3779265269089 2.37708257729504  26.1194437762404 2.09200697524032  26.8932651530612 2.09200697524032  C 27.6670865298821 2.09200697524032  28.4086037792136 2.37708257729504  28.9518701360544 2.88343570525124  L 31.9740774489796 5.68060544510698  Z " fill-rule="nonzero" fill="#027db4" stroke="none" transform="matrix(1 0 0 1 66 631 )" />
  </g>
</svg>