<?xml version="1.0" encoding="utf-8"?>
<svg version="1.1" xmlns:xlink="http://www.w3.org/1999/xlink" width="32px" height="21px" xmlns="http://www.w3.org/2000/svg">
  <g transform="matrix(1 0 0 1 -112 -504 )">
    <path d="M 31.3875 10.5  C 31.740625 10.34619140625  31.9875 10.09189453125  31.9875 9.78837890625  L 31.9875 0.87158203125  C 31.9875 0.39375  31.40625 0.00820312499999997  30.6875 0  L 1.309375 0  C 0.59375 0.00615234375  0.0125 0.39375  0.0125 0.87158203125  L 0.0125 9.7904296875  C 0.0125 10.0939453125  0.2625 10.3482421875  0.615625 10.50205078125  C 0.259375 10.655859375  0.0125 10.91015625  0.0125 11.213671875  L 0.0125 20.13251953125  C 0.0125 20.6103515625  0.59375 20.9958984375  1.3125 21  L 30.690625 21  C 31.409375 20.9958984375  31.990625 20.60830078125  31.990625 20.13251953125  L 31.990625 11.21162109375  C 31.990625 10.90810546875  31.740625 10.65380859375  31.3875 10.5  Z M 28.609375 1.5708984375  L 28.609375 0.844921875  L 29.7 0.844921875  L 29.7 1.5708984375  L 28.609375 1.5708984375  Z M 26.71875 1.5708984375  L 26.71875 0.844921875  L 27.809375 0.844921875  L 27.809375 1.5708984375  L 26.71875 1.5708984375  Z M 24.825 1.5708984375  L 24.825 0.844921875  L 25.915625 0.844921875  L 25.915625 1.5708984375  L 24.825 1.5708984375  Z M 1.765625 9.09931640625  L 1.765625 2.4650390625  C 1.765625 2.25380859375  2.025 2.08154296875  2.34375 2  L 29.65625 2  C 29.975 2.08154296875  30.234375 2.25380859375  30.234375 2.4650390625  L 30.234375 9.09931640625  C 30.234375 9.310546875  29.975 9.4828125  29.65625 9.4828125  L 2.34375 9.4828125  C 2.025 9.4828125  1.765625 9.310546875  1.765625 9.09931640625  Z M 28.609375 11.1849609375  L 29.7 11.1849609375  L 29.7 11.9109375  L 28.609375 11.9109375  L 28.609375 11.1849609375  Z M 26.71875 11.1849609375  L 27.809375 11.1849609375  L 27.809375 11.9109375  L 26.71875 11.9109375  L 26.71875 11.1849609375  Z M 24.825 11.1849609375  L 25.915625 11.1849609375  L 25.915625 11.9109375  L 24.825 11.9109375  L 24.825 11.1849609375  Z M 30.23125 12.805078125  L 30.23125 19.43935546875  C 30.23125 19.6505859375  29.971875 19.8228515625  29.653125 19.8228515625  L 2.340625 19.8228515625  C 2.021875 19.8228515625  1.7625 19.6505859375  1.7625 19.43935546875  L 1.7625 12.805078125  C 1.7625 12.59384765625  2.021875 12.42158203125  2.340625 12.42158203125  L 29.653125 12.42158203125  C 29.971875 12.42158203125  30.23125 12.59384765625  30.23125 12.805078125  Z " fill-rule="nonzero" fill="#027db4" stroke="none" transform="matrix(1 0 0 1 112 504 )" />
  </g>
</svg>