<?xml version="1.0" encoding="utf-8"?>
<svg version="1.1" xmlns:xlink="http://www.w3.org/1999/xlink" width="22px" height="5px" xmlns="http://www.w3.org/2000/svg">
  <g transform="matrix(1 0 0 1 -116 -518 )">
    <path d="M 0.142825704225352 2.38400829081633  C 0.139799735915493 2.54544005102041  0.336487676056338 2.67498405612245  0.57856514084507 2.67498405612245  L 3.62571522887324 2.67498405612245  C 3.86476672535211 2.67498405612245  4.06145466549296 2.54344706632653  4.06145466549296 2.38400829081633  L 4.06145466549296 0.351163903061225  C 4.06145466549296 0.19172512755102  3.86476672535211 0.060188137755102  3.62571522887324 0.060188137755102  L 0.57856514084507 0.060188137755102  C 0.339513644366197 0.060188137755102  0.142825704225352 0.19172512755102  0.142825704225352 0.351163903061225  L 0.142825704225352 2.38400829081633  Z M 21.8571742957746 2.19666772959184  C 21.8602002640845 1.93957270408163  21.5424735915493 1.72831632653061  21.1551496478873 1.72831632653061  L 6.21897007042254 1.72831632653061  C 5.83164612676056 1.72831632653061  5.51694542253521 1.93957270408163  5.51694542253521 2.19666772959184  L 5.51694542253521 2.20463966836735  C 5.51694542253521 2.46173469387755  5.83467209507042 2.67299107142857  6.21897007042254 2.67299107142857  L 21.1551496478873 2.67299107142857  C 21.5424735915493 2.67299107142857  21.8571742957746 2.46173469387755  21.8571742957746 2.20463966836735  L 21.8571742957746 2.19666772959184  Z M 21.8602002640845 4.43080357142857  C 21.8602002640845 4.17370854591837  21.5424735915493 3.96245216836735  21.1551496478873 4  L 0.881161971830987 4  C 0.493838028169014 3.96245216836735  0.179137323943663 4.17370854591837  0.179137323943663 4.43080357142857  L 0.179137323943663 4.43877551020408  C 0.179137323943663 4.69587053571428  0.496863996478874 4.90712691326531  0.881161971830987 5  L 21.1581756161972 5  C 21.5454995598592 4.90712691326531  21.8602002640845 4.69587053571428  21.8602002640845 4.43877551020408  L 21.8602002640845 4.43080357142857  Z " fill-rule="nonzero" fill="#027db4" stroke="none" transform="matrix(1 0 0 1 116 518 )" />
  </g>
</svg>