<?xml version="1.0" encoding="utf-8"?>
<svg version="1.1" xmlns:xlink="http://www.w3.org/1999/xlink" width="22px" height="4px" xmlns="http://www.w3.org/2000/svg">
  <g transform="matrix(1 0 0 1 -116 -507 )">
    <path d="M 4.0584286971831 2.16145833333333  C 4.0584286971831 2.16471354166667  4.05540272887324 2.16796875  4.05237676056338 2.16796875  L 0.14887764084507 2.16796875  C 0.142825704225352 2.16796875  0.139799735915492 2.16634114583333  0.139799735915492 2.1630859375  L 0.139799735915492 0.0634765625  C 0.139799735915492 0.060221354166667  0.142825704225351 0.0585937499999997  0.14887764084507 0.0585937499999997  L 4.04935079225352 0.0585937499999997  C 4.05540272887324 0.0585937499999997  4.0584286971831 0.0602213541666664  4.0584286971831 0.0634765625  L 4.0584286971831 2.16145833333333  Z M 21.8602002640845 2.15983072916667  C 21.8602002640845 2.16471354166667  21.8541483274648 2.16796875  21.8450704225352 2.16796875  L 5.52904929577465 2.16796875  C 5.52299735915493 2.16796875  5.51391945422535 2.16471354166667  5.51391945422535 2.15983072916667  L 5.51391945422535 1.4111328125  C 5.51391945422535 1.40787760416667  5.51997139084507 1.40299479166667  5.52904929577465 1.40299479166667  L 21.8450704225352 1.40299479166667  C 21.8511223591549 1.40299479166667  21.8602002640845 1.40625  21.8602002640845 1.4111328125  L 21.8602002640845 2.15983072916667  Z M 21.8602002640845 3.9599609375  C 21.8602002640845 3.96484375  21.8541483274648 3.96809895833333  21.8450704225352 4  L 0.191241197183099 4  C 0.185189260563381 3.96809895833333  0.176111355633803 3.96484375  0.176111355633803 3.9599609375  L 0.176111355633803 3.21126302083333  C 0.176111355633803 3.2080078125  0.182163292253521 3.203125  0.191241197183099 3.203125  L 21.8450704225352 3.203125  C 21.8511223591549 3.203125  21.8602002640845 3.20638020833333  21.8602002640845 3.21126302083333  L 21.8602002640845 3.9599609375  Z " fill-rule="nonzero" fill="#027db4" stroke="none" transform="matrix(1 0 0 1 116 507 )" />
  </g>
</svg>