<?xml version="1.0" encoding="utf-8"?>
<svg version="1.1" xmlns:xlink="http://www.w3.org/1999/xlink" width="6px" height="22px" xmlns="http://www.w3.org/2000/svg">
  <g transform="matrix(1 0 0 1 -69 -508 )">
    <path d="M 2.75926906779661 4.11182709854015  C 2.76125529661017 4.11182709854015  2.76522775423729 4.10869069343066  2.76522775423729 4.10241788321168  L 2.76522775423729 0.059591697080292  C 2.76522775423729 0.0533188868613139  2.76324152542373 0.0501824817518248  2.75926906779661 0.0501824817518248  L 0.0818326271186441 0.0501824817518248  C 0.0778601694915254 0.0501824817518248  0.0758739406779661 0.0533188868613127  0.0758739406779661 0.059591697080292  L 0.0758739406779661 4.10241788321168  C 0.0758739406779661 4.10869069343066  0.0778601694915254 4.11182709854015  0.0818326271186441 4.11182709854015  L 2.75926906779661 4.11182709854015  Z M 5.9968220338983 6.16617244525547  C 5.9968220338983 6.15676322992701  5.99284957627119 6.15049041970803  5.98689088983051 6.15049041970803  L 1.84759004237288 6.15049041970803  C 1.8416313559322 6.15049041970803  1.83765889830508 6.15676322992701  1.83765889830508 6.16617244525547  L 1.83765889830508 7.60891879562044  C 1.83765889830508 7.6183280109489  1.8416313559322 7.62460082116788  1.84759004237288 7.62460082116788  L 5.98689088983051 7.62460082116788  C 5.99284957627119 7.62460082116788  5.9968220338983 7.6183280109489  5.9968220338983 7.60891879562044  L 5.9968220338983 6.16617244525547  Z M 5.9968220338983 9.73226505474453  C 5.9968220338983 9.72285583941606  5.99284957627119 9.71658302919708  5.98689088983051 9.71658302919708  L 0.206965042372882 9.71658302919708  C 0.201006355932203 9.71658302919708  0.197033898305085 9.72285583941606  0.197033898305085 9.73226505474453  L 0.197033898305085 11.1750114051095  C 0.197033898305085 11.184420620438  0.201006355932203 11.1906934306569  0.206965042372882 11.1906934306569  L 5.98689088983051 11.1906934306569  C 5.99284957627119 11.1906934306569  5.9968220338983 11.184420620438  5.9968220338983 11.1750114051095  L 5.9968220338983 9.73226505474453  Z M 5.9968220338983 13.2952212591241  C 5.9968220338983 13.2858120437956  5.99284957627119 13.2795392335766  5.98689088983051 13.2795392335766  L 0.206965042372882 13.2795392335766  C 0.201006355932203 13.2795392335766  0.197033898305085 13.2858120437956  0.197033898305085 13.2952212591241  L 0.197033898305085 14.7379676094891  C 0.197033898305085 14.7473768248175  0.201006355932203 14.7536496350365  0.206965042372882 14.7536496350365  L 5.98689088983051 14.7536496350365  C 5.99284957627119 14.7536496350365  5.9968220338983 14.7473768248175  5.9968220338983 14.7379676094891  L 5.9968220338983 13.2952212591241  Z M 5.9968220338983 16.8613138686131  C 5.9968220338983 16.8519046532847  5.99284957627119 16.8456318430657  5.98689088983051 16.8456318430657  L 0.206965042372882 16.8456318430657  C 0.201006355932203 16.8456318430657  0.197033898305085 16.8519046532847  0.197033898305085 16.8613138686131  L 0.197033898305085 18.3040602189781  C 0.197033898305085 18.3134694343066  0.201006355932203 18.3197422445255  0.206965042372882 18.3197422445255  L 5.98689088983051 18.3197422445255  C 5.99284957627119 18.3197422445255  5.9968220338983 18.3134694343066  5.9968220338983 18.3040602189781  L 5.9968220338983 16.8613138686131  Z M 5.9968220338983 20.4242700729927  C 5.9968220338983 20.4148608576642  5.99284957627119 20.4085880474453  5.98689088983051 20.4085880474453  L 0.206965042372882 20.4085880474453  C 0.201006355932203 20.4085880474453  0.197033898305085 20.4148608576642  0.197033898305085 20.4242700729927  L 0.197033898305085 21.8670164233577  C 0.197033898305085 21.8764256386861  0.201006355932203 21.8826984489051  0.206965042372882 21.8826984489051  L 5.98689088983051 21.8826984489051  C 5.99284957627119 21.8826984489051  5.9968220338983 21.8764256386861  5.9968220338983 21.8670164233577  L 5.9968220338983 20.4242700729927  Z " fill-rule="nonzero" fill="#027db4" stroke="none" transform="matrix(1 0 0 1 69 508 )" />
  </g>
</svg>