<?xml version="1.0" encoding="utf-8"?>
<svg version="1.1" xmlns:xlink="http://www.w3.org/1999/xlink" width="21px" height="32px" xmlns="http://www.w3.org/2000/svg">
  <g transform="matrix(1 0 0 1 -67 -504 )">
    <path d="M 21 1.321875  C 20.95693359375 0.60625  20.55703125 0.0249999999999999  20.06484375 0.025  L 11.22802734375 0.025  C 10.9265625 0.025  10.6599609375 0.24375  10.49794921875 0.578125  C 10.3359375 0.246875  10.07138671875 0.028125  9.769921875 0.028125  L 0.93515625 0.028125  C 0.44296875 0.028125  0.04306640625 0.609375  0 1.328125  L 0 30.678125  C 0.04306640625 31.39375  0.44296875 31.978125  0.93515625 31.978125  L 9.77197265625 31.978125  C 10.0734375 31.978125  10.3400390625 31.759375  10.50205078125 31.425  C 10.6640625 31.75625  10.92861328125 31.975  11.230078125 31.975  L 20.06689453125 31.975  C 20.55908203125 31.975  20.958984375 31.39375  21 30.675  L 21 1.321875  Z M 8.65634765625 2.378125  L 8.65634765625 1.2875  L 9.4048828125 1.2875  L 9.4048828125 2.378125  L 8.65634765625 2.378125  Z M 7.358203125 2.378125  L 7.358203125 1.2875  L 8.10673828125 1.2875  L 8.10673828125 2.378125  L 7.358203125 2.378125  Z M 6.06005859375 1.2875  L 6.0580078125 1.2875  L 6.80859375 1.2875  L 6.80859375 2.378125  L 6.06005859375 2.378125  L 6.06005859375 1.2875  Z M 10 3.725  L 10 29.640625  C 9.76787109375 29.959375  9.59150390625 30.21875  9.3720703125 30.21875  L 1.64267578125 30.21875  C 1.4232421875 30.21875  1.246875 29.959375  1.246875 29.640625  L 1.246875 3.725  C 1.246875 3.40625  1.4232421875 3.146875  1.64267578125 3.146875  L 9.3720703125 3.146875  C 9.59150390625 3.146875  9.76787109375 3.40625  10 3.725  Z M 18.63955078125 2.375  L 18.63955078125 1.284375  L 19.3880859375 1.284375  L 19.3880859375 2.375  L 18.63955078125 2.375  Z M 17.33935546875 2.375  L 17.33935546875 1.284375  L 18.087890625 1.284375  L 18.087890625 2.375  L 17.33935546875 2.375  Z M 16.0412109375 2.375  L 16.0412109375 1.284375  L 16.78974609375 1.284375  L 16.78974609375 2.375  L 16.0412109375 2.375  Z M 19.75107421875 3.71875  L 19.75107421875 29.634375  C 19.75107421875 29.953125  19.57470703125 30.2125  19.3552734375 30.2125  L 11.62587890625 30.2125  C 11.4064453125 30.2125  11.230078125 29.953125  11 29.634375  L 11 3.71875  C 11.230078125 3.4  11.4064453125 3.140625  11.62587890625 3.140625  L 19.3552734375 3.140625  C 19.57470703125 3.140625  19.75107421875 3.4  19.75107421875 3.71875  Z " fill-rule="nonzero" fill="#027db4" stroke="none" transform="matrix(1 0 0 1 67 504 )" />
  </g>
</svg>