<?xml version="1.0" encoding="utf-8"?>
<svg version="1.1" xmlns:xlink="http://www.w3.org/1999/xlink" width="34px" height="34px" xmlns="http://www.w3.org/2000/svg">
  <g transform="matrix(1 0 0 1 -111 -338 )">
    <path d="M 6.24033748786879 0.174115443872207  C 5.52395114661751 0.248704241522289  5.00675374083916 0.82666600012561  5.07884680463898 1.47206703910614  C 5.12354959568724 2.08804049403874  5.69206120307618 2.5670937458809  6.37835868731262 2.5670937458809  C 6.40863871217352 2.5670937458809  6.43890952583636 2.56614385655236  6.46911592828028 2.56424581005586  C 14.3909088748956 1.93546263716297  22.3358166903685 3.51608898475264  29.2237743133734 7.09124768461941  C 29.426960745581 7.21360209404298  29.6655959997794 7.27964468265655  29.9101097171002 7.28119181869763  C 30.3506966764458 7.27696379341753  30.7572081518608 7.06717423055566  30.9836086956522 6.72718806957053  C 31.3197697223156 6.18763618407676  31.1533276112202 5.50715932993622  30.5964451208269 5.14432031031774  C 23.2631923155302 1.21980735581154  14.7385519454462 -0.519764898121041  6.24033748786879 0.174115443872207  Z M 29.2413726708075 31.7206703910615  C 33.9317313500849 28.3462928103006  35.2328370266059 22.4213919430026  32.3210828294837 17.6964618125873  L 26.3200476052989 10.2569832402235  C 25.6579646964567 9.43589708313108  24.5985475103806 8.94987626587204  23.4708453828975 8.94987626587204  C 22.6548335631395 8.94987626587204  21.8641755426263 9.2049002334483  21.2341263077446 9.67132214778282  C 20.8231472095853 9.96832819365891  20.4871950770552 10.3406438496989  20.2486190338703 10.7635009187325  C 19.0133552514252 9.46571678186476  16.856065457779 9.28358954358158  15.3738778605396 10.3519553072626  C 14.8856534424499 10.7040497854818  14.5042800864385 11.1614137357079  14.2651822083657 11.6815642458101  C 12.9994684771267 10.9787013910362  11.3791511780289 11.0674114945959  10.2175631332492 11.9031657232018  C 9.80658405002169 12.2001717729217  9.4706319318054 12.572487428681  9.23205590062112 12.9953444941515  L 6.64509937888199 9.82960893854749  C 5.9845234593536 8.99688037888285  4.91728851422821 8.5025736000078  3.77995864597723 8.5025736000078  C 2.97101702390752 8.5025736000078  2.18676542947274 8.75320466690796  1.55917804008152 9.2122905027933  C -0.0379420463493007 10.3805004864086  -0.332400662962545 12.4714077893812  0.890440993788823 13.9608938547486  L 10.4463416149068 25.5949720670391  L 8.6865072326281 25.3891992427549  C 7.7263234846598 25.2807236415746  6.75884252829247 25.5326214427181  6.01155900621118 26.0856610924406  C 5.09496756972126 26.7528337549514  4.56241986276697 27.7566618213879  4.56241986276697 28.8172220875685  C 4.56241986276697 30.5158239014047  5.9132582960234 31.9712609831594  7.77139338848991 32.2746741030901  L 19.4390952518439 33.6992551086767  C 22.8707703901572 34.4519325197179  26.4963681508778 33.720107453463  29.2413726708075 31.7206703910615  Z M 30.1916832298137 17.9497206703911  C 33.1101291545076 21.9141555501221  32.1440667265352 27.2310969018399  27.9742919254658 30.1536312849162  C 25.7119997155325 31.7884577262783  22.7282550594046 32.3744191497725  19.914250531347 31.7364990812675  L 8.14095860588121 30.2960893854749  C 7.32815291794556 30.1808590768944  6.72941571810156 29.5507995079768  6.72941571810156 28.8107029695066  C 6.72941571810156 28.3714806397183  6.9429203641497 27.9542136301863  7.31383642517469 27.6685288516934  C 7.64316780388676 27.4249936993419  8.07048387545766 27.3160001414168  8.49292546583851 27.3677839974686  L 15.2858861146157 28.2067039106145  L 2.57988198757764 12.7579143265538  C 2.08218317297257 12.1450807239041  2.20600767004783 11.2889018147385  2.86145550029115 10.8109869522521  C 3.1204872583566 10.6245224936431  3.44237876955766 10.5229305614175  3.77415501220712 10.5229305614175  C 4.24160201227352 10.5229305614175  4.68081299354205 10.7241585959591  4.95565838509317 11.0642458100559  L 9.54882608695652 16.58845438853  L 11.3086604692352 15.3696461701292  C 10.7899262532166 14.7769243333969  10.8748070293935 13.9232452424818  11.5022422360248 13.4227187958275  C 11.7612739940903 13.2362543372185  12.0831655052914 13.134662404993  12.4149417479408 13.134662404993  C 12.8823887480072 13.134662404993  13.3215997292757 13.3358904395345  13.5964451208269 13.6759776536313  L 14.7051407730008 15.0214152823848  L 16.4649751552795 13.8026070639839  C 15.9672763406744 13.1897734613343  16.0911008377497 12.3335945521687  16.746548667993 11.8556796896823  C 17.0055804260585 11.6692152310733  17.3274719372595 11.5676232988477  17.659248179909 11.5676232988477  C 18.1266951799754 11.5676232988477  18.5659061612439 11.7688513333892  18.840751552795 12.108938547486  L 20.6005859350738 14.324953432699  L 22.3604202761064 13.1061452513966  C 21.8627214615013 12.493311648747  21.9865459585766 11.6371327395814  22.6419937888199 11.159217877095  C 22.9049348480451 10.9682730750544  23.2326766830644 10.8641257108295  23.5706207280757 10.8641257108295  C 24.0362460242002 10.8641257108295  24.4746575526719 11.0614456912806  24.7537950310559 11.3966480446927  L 30.033298136646 17.7281191929993  L 30.1916832298137 17.9497206703911  Z " fill-rule="nonzero" fill="#027db4" stroke="none" transform="matrix(1 0 0 1 111 338 )" />
  </g>
</svg>