<?xml version="1.0" encoding="utf-8"?>
<svg version="1.1" xmlns:xlink="http://www.w3.org/1999/xlink" width="6px" height="22px" xmlns="http://www.w3.org/2000/svg">
  <g transform="matrix(1 0 0 1 -80 -508 )">
    <path d="M 2.719140625 4.10869069343066  C 2.723046875 4.10869069343066  2.726953125 4.10241788321168  2.726953125 4.09928147810219  L 2.726953125 0.0564552919708029  C 2.726953125 0.0501824817518248  2.725 0.0470460766423358  2.72109375 0.0470460766423358  L 0.0863281250000014 0.0470460766423358  C 0.082421875 0.0470460766423358  0.0804687500000014 0.0501824817518248  0.0804687500000014 0.0564552919708029  L 0.0804687500000014 4.09928147810219  C 0.0804687500000014 4.10555428832117  0.0824218750000028 4.10869069343066  0.0863281250000014 4.10869069343066  L 2.719140625 4.10869069343066  Z M 5.9046875 6.16303604014599  C 5.9046875 6.15362682481752  5.898828125 6.14735401459854  5.894921875 6.14735401459854  L 1.824609375 6.14735401459854  C 1.81875 6.14735401459854  1.81484375 6.15362682481752  1.81484375 6.16303604014599  L 1.81484375 7.60578239051095  C 1.81484375 7.61519160583942  1.81875 7.62146441605839  1.824609375 7.62146441605839  L 5.894921875 7.62146441605839  C 5.90078125 7.62146441605839  5.9046875 7.61519160583942  5.9046875 7.60578239051095  L 5.9046875 6.16303604014599  Z M 5.902734375 9.72599224452555  C 5.9046875 9.71658302919708  5.898828125 9.7103102189781  5.894921875 9.7103102189781  L 0.209375 9.7103102189781  C 0.203515625000001 9.7103102189781  0.199609375 9.71658302919708  0.199609375 9.72599224452555  L 0.199609375 11.1687385948905  C 0.199609375 11.178147810219  0.203515625000001 11.184420620438  0.209375 11.184420620438  L 5.89296875 11.184420620438  C 5.898828125 11.184420620438  5.902734375 11.178147810219  5.902734375 11.1687385948905  L 5.902734375 9.72599224452555  Z M 5.902734375 13.2920848540146  C 5.9046875 13.2826756386861  5.898828125 13.2764028284672  5.894921875 13.2764028284672  L 0.209375 13.2764028284672  C 0.203515625000001 13.2764028284672  0.199609375 13.2826756386861  0.199609375 13.2920848540146  L 0.199609375 14.7348312043796  C 0.199609375 14.744240419708  0.203515625000001 14.750513229927  0.209375 14.750513229927  L 5.89296875 14.750513229927  C 5.898828125 14.750513229927  5.902734375 14.744240419708  5.902734375 14.7348312043796  L 5.902734375 13.2920848540146  Z M 5.902734375 16.8550410583942  C 5.9046875 16.8456318430657  5.898828125 16.8393590328467  5.894921875 16.8393590328467  L 0.209375 16.8393590328467  C 0.203515625000001 16.8393590328467  0.199609375 16.8456318430657  0.199609375 16.8550410583942  L 0.199609375 18.2977874087591  C 0.199609375 18.3071966240876  0.203515625000001 18.3134694343066  0.209375 18.3134694343066  L 5.89296875 18.3134694343066  C 5.898828125 18.3134694343066  5.902734375 18.3071966240876  5.902734375 18.2977874087591  L 5.902734375 16.8550410583942  Z M 5.902734375 20.4211336678832  C 5.9046875 20.4117244525547  5.898828125 20.4054516423358  5.894921875 20.4054516423358  L 0.209375 20.4054516423358  C 0.203515625000001 20.4054516423358  0.199609375 20.4117244525547  0.199609375 20.4211336678832  L 0.199609375 21.8638800182482  C 0.199609375 21.8732892335766  0.203515625000001 21.8795620437956  0.209375 21.8795620437956  L 5.89296875 21.8795620437956  C 5.898828125 21.8795620437956  5.902734375 21.8732892335766  5.902734375 21.8638800182482  L 5.902734375 20.4211336678832  Z " fill-rule="nonzero" fill="#027db4" stroke="none" transform="matrix(1 0 0 1 80 508 )" />
  </g>
</svg>