<?xml version="1.0" encoding="utf-8"?>
<svg version="1.1" xmlns:xlink="http://www.w3.org/1999/xlink" width="9px" height="11px" xmlns="http://www.w3.org/2000/svg">
  <g transform="matrix(1 0 0 1 -110 -334 )">
    <path d="M 6.94769318181818 10.6522988382274  C 7.1473697337131 10.7830623776331  7.38507471904573 10.8546926376131  7.62951137695312 10.8577586206897  C 8.31947898653932 10.8491719013658  8.87394625003479 10.3281214446315  8.87394625003479 9.6883237384431  C 8.87394625003479 9.68302023929816  8.87390734316908 9.67771680149912  8.87382953213778 9.67241379310345  C 8.87958657421198 9.27756086260036  8.67566058127149 8.90530801726087  8.328375 8.67672413793104  L 3.53860228604403 5.57902297615841  L 8.26019316850142 2.14942529970366  C 8.81308154304678 1.7415717034194  8.91855821564446 1.00109898217054  8.4988295587713 0.474137931034483  C 8.27105345797027 0.184123292830366  7.90744804493882 0.0125768793604062  7.52051649795893 0.0125768793604062  C 7.25861829034939 0.0125768793604062  7.00378706594344 0.0913500002366615  6.79428409090909 0.237068965517241  L 0.623829558771307 4.74137931034483  C 0.130840126811907 5.13955711381637  0.0290891002780541 5.81344178446169  0.385193168501421 6.32183909280711  C 0.470466858679302 6.42673917786015  0.574191058050308 6.51756960284993  0.692011350319602 6.59051724137931  L 6.94769318181818 10.6522988382274  Z " fill-rule="nonzero" fill="#027db4" stroke="none" transform="matrix(1 0 0 1 110 334 )" />
  </g>
</svg>