<?xml version="1.0" encoding="utf-8"?>
<svg version="1.1" xmlns:xlink="http://www.w3.org/1999/xlink" width="34px" height="34px" xmlns="http://www.w3.org/2000/svg">
  <g transform="matrix(1 0 0 1 -563 -20 )">
    <path d="M 7.08774504051543 26.927026991735  C 6.77868148289232 26.616523837027  6.35836798054977 26.4423764424807  5.9202679673447 26.4433092682927  C 5.13350243902439 26.4436188619236  4.45664260149104 26.9994718697837  4.30321691070408 27.7710230892959  C 4.14983544728944 28.5426185365854  4.56287739850896 29.3150543088081  5.28953756097561 29.6162003253382  C 6.01637463414634 29.9173905692407  6.85462113807641 29.6632585365854  7.2918556097561 29.0093528453935  C 7.72909008143578 28.3552702439024  7.64368650393007 27.4835434146341  7.08774504051543 26.927026991735  Z M 2.99230959363091 6.50955707317073  L 5.4383635771008 7.78817821124714  L 11.153282601491 13.5050432521675  L 13.484477398509 11.1719466668016  L 7.77146016246665 5.45702764241139  L 6.49093723563739 3.01092943075934  L 2.41049495948457 0.0960182112471418  L 0.0773983741187115 2.42721300826505  L 2.99230959363091 6.50955707317073  Z M 32.810409105826 28.1666835771008  L 24.5623076424114 19.9148669917349  C 24.240330406774 19.5932435771008  23.7187980487805 19.5932435771008  23.3967765853658 19.9148669917349  L 19.8944338210032 23.4134946341463  C 19.5728104063691 23.7354718697837  19.5728104063691 24.2571811380764  19.8944338210032 24.5790256911919  L 28.1462946341463 32.8310191868569  C 28.975105337562 33.6856891145699  30.200142498686 34.0274487057006  31.3516930082651 33.7252578863138  C 32.801749794777 33.3445982157495  33.8127335259227 32.0339626325141  33.8127335259227 30.5347740290011  C 33.8127335259227 29.6423202668751  33.4511112801885 28.7879519903491  32.810409105826 28.1666835771008  Z " fill-rule="nonzero" fill="#39bbdb" stroke="none" transform="matrix(1 0 0 1 563 20 )" />
  </g>
</svg>