<?xml version="1.0" encoding="utf-8"?>
<svg version="1.1" xmlns:xlink="http://www.w3.org/1999/xlink" width="36px" height="36px" xmlns="http://www.w3.org/2000/svg">
  <g transform="matrix(1 0 0 1 -564 -19 )">
    <path d="M 19.6557777779134 8.53102435143385  L 19.6632 8.53294690605118  C 20.1831555554199 11.9877780437757  22.8744 14.702067864135  26.3076 15.2337213574219  C 26.1288 15.2486994011976  25.9487111112467 15.2562107784431  25.7676 15.2562107784431  C 25.3395685924122 15.255995090708  24.9126963036082 15.2114521186961  24.4937333333333 15.1232862275449  L 22.9165777779134 14.7917125748503  L 21.7769333333333 15.9381812376614  L 6.52373333333334 31.2845061874883  C 5.74626666666668 32.0682379240153  4.48431111124675 32.0695345306652  3.70537777791342 31.2873229539554  C 2.92626666666667 30.5052007982667  2.9250222224935 29.235867464797  3.70257777791342 28.4520910179641  L 18.9537777779134 13.1075992017333  L 20.0935555554199 11.9611752496374  L 19.7639555554199 10.3743520958084  C 19.6375355281883 9.76866471910002  19.6010799248465 9.14746851201626  19.6557777779134 8.53102435143385  Z M 24.8605333333333 0.00359920173325316  L 24.8643111112468 0.00534291430810111  C 24.6915555558268 0.00587944125420869  24.5191111112468 0.0196502994011964  24.3486222220866 0.0466554891584009  C 19.921540509053 0.740647819571146  16.6571515033143 4.57594341050645  16.6571515033143 9.083281848228  C 16.6571515033143 9.72121247254915  16.7234992182689 10.3573924931831  16.8551111112467 10.9814323353293  L 1.60377777791341 26.3257453095177  C -0.28137777750651 28.287332535203  -0.255288888753256 31.4073708585563  1.66257777791341 33.3367217563506  C 3.58053333333333 35.2659832335329  6.68182222249349 35.2924071856287  8.63177777791341 33.395873852159  L 23.8848888887533 18.0513373252129  C 24.5049775582196 18.1786937112969  25.136459702756 18.2414409620524  25.7693333333333 18.2385852294045  C 30.2534666666667 18.2483768461709  34.0727555554199 14.9630882234164  34.7599111112468 10.5054435131105  C 34.9461777779134 9.25971736526946  34.4583555558268 8.54975808383234  33.8065777779134 8.54975808383233  C 33.4402577344716 8.57307220514143  33.0980416938802 8.74144288984182  32.8548444445801 9.01801197604791  L 31.0356444445801 10.8483736526946  C 29.0753333333333 12.6536526946108  26.0504444445801 12.588777644847  24.1681777779134 10.7014994011976  C 22.2860444445801 8.81399760479042  22.212 5.77112974065541  24.0003111112467 3.79344670658683  C 25.7884888891602 1.81558483047577  24.8158222224935 2.97662914185301  25.8195555554199 1.96308502994012  C 26.7208444441732 1.05639920173325  26.2720444441732 0.00359920173325316  24.8605333333333 0.00359920173325316  Z " fill-rule="nonzero" fill="#39bbdb" stroke="none" transform="matrix(1 0 0 1 564 19 )" />
  </g>
</svg>