<?xml version="1.0" encoding="utf-8"?>
<svg version="1.1" xmlns:xlink="http://www.w3.org/1999/xlink" width="32px" height="35px" xmlns="http://www.w3.org/2000/svg">
  <g transform="matrix(1 0 0 1 -711 -19 )">
    <path d="M 31.8111876129032 32.888  L 31.8111876129032 14.0173333333333  C 31.8111876129032 12.932  30.9392681290323 12.0521333333333  29.8637378064516 12.0521333333333  L 21.1002797419355 12.0521333333333  C 20.0247494193548 12.0521333333333  19.1528299354839 12.932  19.1528299354839 14.0173333333333  L 19.1528299354839 17.3965777779134  L 11.1764204729839 17.3965777779134  L 11.0669735915323 17.1781333333333  C 9.40016584959677 13.6199111112467  9.61729789274194 8.87213333333334  17.1396239141129 9.04235555541992  L 17.1396239141129 13.4741333333333  L 24.0827843439516 6.77013333333333  L 17.1396239141129 0.0654666666666666  L 17.1396239141129 4.40191111124674  C 7.9201004733871 4.16968888916016  6.50852197862903 11.8692444445801  10.7914845592742 17.1790222220866  L 10.9805612044355 17.3965777779134  L 7.4133856342742 17.3965777779134  C 6.33785531169355 17.3965777779134  5.46593582782258 18.2764444445801  5.46593582782258 19.3617777779134  L 5.46593582782258 22.0794222220866  L 1.49673565604839 22.0794222220866  C 0.421205333467744 22.0794222220866  -0.133340214919353 22.9592888887533  0.258114064516131 24.0446222220866  L 3.44775294637097 32.888  C 3.83920722580645 33.9733333333333  5.02845660241936 34.8532  6.10398692459678 34.8532  L 30.4469993979839 34.8532  C 31.4050229677419 34.8532  31.9490422366935 34.1548888887532  31.7799611181452 33.2352888887533  C 31.8000447310484 33.1225333333333  31.8111876129032 33.0066222220866  31.8111876129032 32.888  Z M 29 26.4869333333333  L 29.3768863657258 26.4869333333333  L 28.4959821076613 24.0446222220866  C 28.1045278282258 22.9592888887533  26.9152784516129 22.0794222220866  25.8397481290323 22  L 7.90028111814516 22  L 7.90028111814516 20.8356444445801  C 7.90028111814516 20.2929777779134  8.33621883870968 19.8530666666667  8.873984 19.8530666666667  L 21.5871311826613 19.8530666666667  L 21.5871311826613 15.4912  C 21.5871311826613 14.9485333333333  22.0230689032258 14.5086222220866  22.5608340645161 14.5086222220866  L 28.4031394407258 14.5086222220866  C 28.9409046020161 14.5086222220866  29.3768423225806 14.9485333333333  29 15.4912  L 29 26.4869333333333  Z " fill-rule="nonzero" fill="#39bbdb" stroke="none" transform="matrix(1 0 0 1 711 19 )" />
  </g>
</svg>