<?xml version="1.0" encoding="utf-8"?>
<svg version="1.1" xmlns:xlink="http://www.w3.org/1999/xlink" width="14px" height="4px" xmlns="http://www.w3.org/2000/svg">
  <g transform="matrix(1 0 0 1 -168 -519 )">
    <path d="M 1.74146340992647 0.136099282357949  C 0.798438952502903 0.136099282357949  0.0283334688007729 0.968109351264574  0.00803443014705933 2.00886917613637  C 0.028333468800815 3.04962900100813  0.798438952502931 3.8816390699147  1.74146340992647 3.8816390699147  C 2.68448786735001 3.8816390699147  3.45459335105212 3.04962900100813  3.47489238970588 2.00886917613637  C 3.45459335105216 0.968109351264574  2.68448786735003 0.136099282357949  1.74146340992647 0.136099282357949  Z M 6.93090388786764 0.136099282357949  C 5.98787943044408 0.136099282357949  5.21777394674195 0.968109351264574  5.19747490808823 2.00886917613637  C 5.21777394674195 3.04962900100816  5.98787943044408 3.88163906991478  6.93090388786764 3.88163906991478  C 7.87392834529121 3.88163906991478  8.64403382899334 3.04962900100816  8.66433286764706 2.00886917613637  C 8.64403382899334 0.968109351264574  7.87392834529121 0.136099282357949  6.93090388786764 0.136099282357949  Z M 12.1203443336397 0.136099282357949  C 11.1773198762161 0.136099282357949  10.407214392514 0.968109351264574  10.3869153538603 2.00886917613637  C 10.407214392514 3.04962900100816  11.1773198762161 3.88163906991478  12.1203443336397 3.88163906991478  C 13.0633687910633 3.88163906991478  13.8334742747654 3.04962900100816  13.8537733134191 2.00886917613637  C 13.8334742747654 0.968109351264574  13.0633687910633 0.136099282357949  12.1203443336397 0.136099282357949  Z " fill-rule="nonzero" fill="#ffffff" stroke="none" transform="matrix(1 0 0 1 168 519 )" />
  </g>
</svg>