<?xml version="1.0" encoding="utf-8"?>
<svg version="1.1" xmlns:xlink="http://www.w3.org/1999/xlink" width="26px" height="35px" xmlns="http://www.w3.org/2000/svg">
  <g transform="matrix(1 0 0 1 -616 -19 )">
    <path d="M 6.12143140495868 13.626652173913  L 6.12143140495868 10.8362173913044  C 6.12143140495868 7.16995652173913  9.47543140495868 3.76365217391304  13.0857355371901 3.76365217391304  C 16.6960396694215 3.76365217391304  20.0502545454546 7.16991304347826  20.0502545454546 10.8362173913044  L 20.0502545454546 13.626652173913  L 23.7892694214876 13.626652173913  L 23.7892694214876 10.8918695652174  C 23.7892694214876 4.88865217391304  18.996932231405 0.0217391304347845  13.0857355371901 0.0217391304347845  C 7.17475371900827 0.0217391304347845  2.38263140495868 4.8884347826087  2.38263140495868 10.8918695652174  L 2.38263140495868 13.626652173913  L 6.12143140495868 13.626652173913  Z M 26 18.0650869565217  C 25.978426446281 16.381  24.6337752066116 15.015347826087  22.9753619834711 15  L 3.19636694214876 15  C 1.53773884297521 15.015347826087  0.193474380165287 16.3807826086957  0.193474380165287 18.0651304347826  L 0.193474380165287 31.754347826087  C 0.193474380165287 33.4386956521739  1.53795371900826 34.804347826087  3.19636694214876 34.804347826087  L 22.9753619834711 34.804347826087  C 24.6339900826446 34.804347826087  25.9784694214876 33.4386956521739  26 31.754347826087  L 26 18.0650869565217  Z M 14.1590842975207 25.2133043478261  L 14.9977024793388 28.4043913043478  L 11.1796132231405 28.4043913043478  L 12.0176297520661 25.2159130434783  C 11.1985223140496 24.812652173913  10.6333983471074 23.9600434782609  10.6333983471074 22.9733043478261  C 10.6333983471074 21.597652173913  11.7314148760331 20.4822173913043  13.0857785123967 20.4822173913043  C 14.4403570247934 20.4822173913043  15.538373553719 21.5974347826087  15.538373553719 22.9733043478261  C 15.538373553719 23.9580869565217  14.9758280991735 24.8089565217391  14.1590842975207 25.2133043478261  Z " fill-rule="nonzero" fill="#39bbdb" stroke="none" transform="matrix(1 0 0 1 616 19 )" />
  </g>
</svg>