<?xml version="1.0" encoding="utf-8"?>
<svg version="1.1" xmlns:xlink="http://www.w3.org/1999/xlink" width="25px" height="21px" xmlns="http://www.w3.org/2000/svg">
  <g transform="matrix(1 0 0 1 -28 -87 )">
    <path d="M 24.8885340404326 12.1839618825469  C 24.8885340404326 11.0067334930411  24.6536484929023 9.86349333010038  24.1916550799178 8.78127745017215  C 23.7488441353901 7.744555435651  23.1083975585076 6.80263765588044  22.3055708678372 6.00737511759857  C 20.6572291908142 4.36684753157548  18.4201004607711 3.44403499246743  16.0865484203057 3.44203687018088  L 6.34113181003474 3.44203687018088  L 6.34113181003474 0.0717957422045489  L 0 5.17620862130838  L 6.34113181003474 10.2821664022113  L 6.34113181003474 6.91038035206828  L 16.0865484203057 6.91038035206828  C 19.0154042662754 6.91886724059724  21.3874676859908 9.27508995853503  21.3955838285899 12.1839618825469  C 21.3874676747324 15.092833798605  19.0154042582983 17.4490565041832  16.0865484203057 17.457543392658  L 6.33335414846624 17.457543392658  L 6.33335414846624 20.9274317967121  L 16.0842151156829 20.9274317967121  C 18.4176554398241 20.9256384432514  20.6547684322725 20.0031102663553  22.3032375632144 18.3628660103778  C 23.9564638281202 16.7255842810181  24.8865227273215 14.50272712632  24.8885340404326 12.1839618825469  Z " fill-rule="nonzero" fill="#ffffff" stroke="none" transform="matrix(1 0 0 1 28 87 )" />
  </g>
</svg>