<?xml version="1.0" encoding="utf-8"?>
<svg version="1.1" xmlns:xlink="http://www.w3.org/1999/xlink" width="35px" height="35px" xmlns="http://www.w3.org/2000/svg">
  <g transform="matrix(1 0 0 1 -659 -19 )">
    <path d="M 34.8847875970317 4.52367131796194  C 34.883311627907 2.11897054290062  32.9257860465116 0.16022945749682  30.5211720930233 0.157364341217751  L 4.5222387598224 0.157364341217751  C 2.11606201563636 0.160403101040152  0.1585798452262 2.12035969005496  0.158579844828761 4.52636279069768  L 0.158579844828761 30.5195224807526  C 0.160099224541243 32.9243968993573  2.11758139534884 34.8829643412178  4.52262945749682 34.8860465116279  L 30.5211286820381 34.8860465116279  C 32.9257860465116 34.8830077518055  34.8832682169218 32.924440309945  34.8847875970317 30.5193488372093  L 34.8847875970317 4.52367131796194  Z M 25.7560496122706 15.1462201551712  L 9.2873612401776 15.1462201551712  L 9.2873612401776 4  L 25.7560496122706 4  L 25.7560496122706 15.1462201551712  Z M 30.52 31  L 6.93188837209302 31  L 4.52284651162791 31.5592992249387  C 3.95208062028752 31.5592992249387  3.48780155052008 31.0938914731332  4 30.521823255814  L 4 4.52636279069767  C 3.48780155052008 3.95442480633403  3.95316589173783 3.48906046511628  4.52510387610147 3.48906046511628  L 6 3.48906046511628  L 6 16.6829643412177  C 5.95835658901481 17.6008434109852  6.70515348837209 18.5210666667991  7.6228589145962 18  L 27.4205953488372 18  C 28.3397767441861 18.5210666667991  29.0875286820381 17.6008434109852  29 16.6829643412177  L 29 3.48906046511628  L 30.52 3.48906046511628  C 31.0911565890148 3.48997209302326  31.5558263564567 3.95537984482876  31 4.52636279069767  L 31 30.5193488372093  C 31.5558263564567 31.0905054262241  31.0912 31.5558697674419  30.52 31  Z " fill-rule="nonzero" fill="#39bbdb" stroke="none" transform="matrix(1 0 0 1 659 19 )" />
  </g>
</svg>