<?xml version="1.0" encoding="utf-8"?>
<svg version="1.1" xmlns:xlink="http://www.w3.org/1999/xlink" width="16px" height="12px" xmlns="http://www.w3.org/2000/svg">
  <g transform="matrix(1 0 0 1 -380 -340 )">
    <path d="M 10.2117028061225 6.294390625  C 9.68925382653061 6.098140625  9.31482780612245 5.611734375  9.31482780612245 5.0229375  C 9.31482780612245 4.442671875  9.68925382653061 3.947734375  10.2117028061224 3.75146875  C 10.0897959183673 3.27359375  9.89824617346939 2.821328125  9.64571109693877 2.4031875  C 9.1319674744898 2.6250625  8.51374362244898 2.531203125  8.09577487244898 2.12159375  C 7.67782206632653 1.712  7.58204719387755 1.106125  7.80843431122449 0.602671875  C 7.37607332616429 0.360600565671506  6.91366730045727 0.174172950605368  6.43265306122449 0.0480000000000007  C 6.23238201530612 0.560000000000001  5.72734375 0.926937500000001  5.13523596938775 0.926937500000001  C 4.54312818877551 0.926937500000001  4.03808992346939 0.560000000000001  3.83781887755102 0.0480000000000007  C 3.35020727040816 0.16746875  2.88871173469388 0.3551875  2.46203762755102 0.602671875  C 2.68844068877551 1.106140625  2.59264987244898 1.712  2.17469706632653 2.12159375  C 1.75674426020408 2.5311875  1.13850446428571 2.6250625  0.624760841836735 2.403203125  C 0.372241709183673 2.821328125  0.180676020408163 3.27359375  0.0587691326530611 3.75146875  C 0.581218112244898 3.94771875  0.955644132653061 4.442671875  0.955644132653061 5.0229375  C 0.955644132653061 5.603203125  0.581218112244898 6.098140625  0.0587691326530611 6.29440625  C 0.180676020408163 6.772265625  0.372241709183673 7.22453125  0.624776785714286 7.642671875  C 1.13848852040816 7.420796875  1.75672831632653 7.514671875  2.17468112244898 7.924265625  C 2.59264987244898 8.333859375  2.68844068877551 8.939734375  2.46203762755102 9.443203125  C 2.88869579081633 9.690671875  3.35020727040816 9.87840625  3.83783482142857 9.997859375  C 4.03808992346939 9.485859375  4.54312818877551 9.1189375  5.13523596938775 9.1189375  C 5.72734375 9.1189375  6.23238201530612 9.485859375  6.43265306122449 9.997859375  C 6.92026466836735 9.87840625  7.38177614795918 9.690671875  7.80845025510204 9.443203125  C 7.58204719387755 8.939734375  7.67782206632653 8.333859375  8.09577487244898 7.924265625  C 8.51374362244898 7.514671875  9.1319674744898 7.420796875  9.64571109693878 7.642671875  C 9.89823022959184 7.224546875  10.0897959183673 6.772265625  10.2117028061225 6.294390625  Z M 5.13523596938775 6.388265625  C 4.36897321428571 6.388265625  3.74204400510204 5.773859375  3.74204400510204 5.0229375  C 3.74204400510204 4.272015625  4.36897321428571 3.65759375  5.13523596938775 3.65759375  C 5.9014987244898 3.65759375  6.52842793367347 4.272  6.52842793367347 5.0229375  C 6.52842793367347 5.773875  5.9014987244898 6.388265625  5.13525191326531 6.388265625  Z M 10.8647640306122 1.86559375  L 10.8647640306122 0.611203125  L 15.9412308673469 0.611203125  L 15.9412308673469 1.86559375  L 10.8647640306122 1.86559375  Z M 10.8647640306122 6.917328125  L 10.8647640306122 5.662921875  L 15.9412308673469 5.662921875  L 15.9412308673469 6.917328125  L 10.8647640306122 6.917328125  Z M 2.63619260204082 12  L 2.63619260204082 10.7146875  L 15.9412308673469 10.7146875  L 15.9412308673469 12  L 2.63619260204082 12  Z " fill-rule="nonzero" fill="#7f7f7f" stroke="none" transform="matrix(1 0 0 1 380 340 )" />
  </g>
</svg>