<?xml version="1.0" encoding="utf-8"?>
<svg version="1.1" xmlns:xlink="http://www.w3.org/1999/xlink" width="16px" height="11px" xmlns="http://www.w3.org/2000/svg">
  <g transform="matrix(1 0 0 1 -380 -52 )">
    <path d="M 10.2117028061225 5.76985807291667  C 9.68925382653061 5.58996223958334  9.31482780612245 5.14408984375  9.31482780612245 4.604359375  C 9.31482780612245 4.07244921875  9.68925382653061 3.61875651041667  10.2117028061224 3.43884635416667  C 10.0897959183673 3.00079427083333  9.89824617346939 2.58621744791667  9.64571109693877 2.202921875  C 9.1319674744898 2.40630729166667  8.51374362244898 2.32026953125  8.09577487244898 1.94479427083333  C 7.67782206632653 1.56933333333333  7.58204719387755 1.01394791666667  7.80843431122449 0.55244921875  C 7.37607332616429 0.330550518532213  6.91366730045727 0.159658538054921  6.43265306122449 0.0440000000000006  C 6.23238201530612 0.513333333333334  5.72734375 0.849692708333334  5.13523596938775 0.849692708333334  C 4.54312818877551 0.849692708333334  4.03808992346939 0.513333333333334  3.83781887755102 0.0440000000000006  C 3.35020727040816 0.153513020833334  2.88871173469388 0.325588541666667  2.46203762755102 0.55244921875  C 2.68844068877551 1.01396223958333  2.59264987244898 1.56933333333333  2.17469706632653 1.94479427083333  C 1.75674426020408 2.32025520833333  1.13850446428571 2.40630729166667  0.624760841836735 2.20293619791667  C 0.372241709183673 2.58621744791667  0.180676020408163 3.00079427083333  0.0587691326530611 3.43884635416667  C 0.581218112244898 3.6187421875  0.955644132653061 4.07244921875  0.955644132653061 4.604359375  C 0.955644132653061 5.13626953125  0.581218112244898 5.58996223958333  0.0587691326530611 5.76987239583334  C 0.180676020408163 6.20791015625  0.372241709183673 6.62248697916667  0.624776785714286 7.00578255208333  C 1.13848852040816 6.80239713541667  1.75672831632653 6.88844921875  2.17468112244898 7.26391015625  C 2.59264987244898 7.63937109375  2.68844068877551 8.19475651041667  2.46203762755102 8.65626953125  C 2.88869579081633 8.88311588541667  3.35020727040816 9.05520572916667  3.83783482142857 9.16470442708334  C 4.03808992346939 8.69537109375  4.54312818877551 8.35902604166667  5.13523596938775 8.35902604166667  C 5.72734375 8.35902604166667  6.23238201530612 8.69537109375  6.43265306122449 9.16470442708334  C 6.92026466836735 9.05520572916667  7.38177614795918 8.88311588541667  7.80845025510204 8.65626953125  C 7.58204719387755 8.19475651041667  7.67782206632653 7.63937109375  8.09577487244898 7.26391015625  C 8.51374362244898 6.88844921875  9.1319674744898 6.80239713541667  9.64571109693878 7.00578255208333  C 9.89823022959184 6.62250130208334  10.0897959183673 6.20791015625  10.2117028061225 5.76985807291667  Z M 5.13523596938775 5.85591015625  C 4.36897321428571 5.85591015625  3.74204400510204 5.29270442708333  3.74204400510204 4.604359375  C 3.74204400510204 3.91601432291667  4.36897321428571 3.35279427083333  5.13523596938775 3.35279427083333  C 5.9014987244898 3.35279427083333  6.52842793367347 3.916  6.52842793367347 4.604359375  C 6.52842793367347 5.29271875  5.9014987244898 5.85591015625  5.13525191326531 5.85591015625  Z M 10.8647640306122 1.71012760416667  L 10.8647640306122 0.56026953125  L 15.9412308673469 0.56026953125  L 15.9412308673469 1.71012760416667  L 10.8647640306122 1.71012760416667  Z M 10.8647640306122 6.34088411458333  L 10.8647640306122 5.19101171875  L 15.9412308673469 5.19101171875  L 15.9412308673469 6.34088411458333  L 10.8647640306122 6.34088411458333  Z M 2.63619260204082 11  L 2.63619260204082 9.821796875  L 15.9412308673469 9.821796875  L 15.9412308673469 11  L 2.63619260204082 11  Z " fill-rule="nonzero" fill="#7f7f7f" stroke="none" transform="matrix(1 0 0 1 380 52 )" />
  </g>
</svg>