<?xml version="1.0" encoding="utf-8"?>
<svg version="1.1" xmlns:xlink="http://www.w3.org/1999/xlink" width="30px" height="24px" xmlns="http://www.w3.org/2000/svg">
  <g transform="matrix(1 0 0 1 -764 -17 )">
    <path d="M 29.9247602982955 20.4476902173913  C 29.9280894886364 21.6535326086957  29.7749467329545 22.8322010869565  29.4952947443182 23.9565217391304  C 27.6908735795455 18.3077445652174  22.4640447443182 14.2724184782609  16.2983842329545 14.1569293478261  C 15.5293412642045 14.1433423913043  14.8035777698864 14.1603260869565  14.1144353693182 14.2078804347826  L 14.1144353693182 19.788722826087  C 14.1177645596591 19.8057065217391  14.12109375 19.8226902173913  14.12109375 19.8396739130435  C 14.12109375 19.9755434782609  14.01123046875 20.0876358695652  13.8780628551136 20.0876358695652  C 13.7881747159091 20.0876358695652  13.7116033380682 20.0400815217391  13.6716530539773 19.96875  L 13.6716530539773 19.992527173913  L 0.245028409090909 10.4171195652174  L 0.31494140625 10.4171195652174  C 0.181773792613636 10.4171195652174  0.0719105113636361 10.305027173913  0.0719105113636361 10.1691576086957  C 0.0719105113636361 10.070652173913  0.128506747159091 9.98573369565217  0.208407315340909 9.94497282608695  L 13.6683238636364 0.349184782608696  L 13.6683238636364 0.372961956521739  C 13.7116033380682 0.301630434782609  13.7881747159091 0.254076086956522  13.8747336647727 0.254076086956522  C 14.0079012784091 0.254076086956522  14.1177645596591 0.36616847826087  14.1177645596591 0.502038043478261  C 14.1177645596591 0.519021739130435  14.1144353693182 0.536005434782609  14.1111061789773 0.552989130434783  L 14.1111061789773 5.96739130434783  C 14.7270063920455 5.93682065217391  15.3728693181818 5.92663043478261  16.0520241477273 5.94021739130435  C 23.7124911221591 6.0726902173913  29.9247602982955 12.6283967391304  29.9247602982955 20.4476902173913  Z M 14.1011186079545 0.0366847826086963  L 14.1144353693182 0.0298913043478267  L 14.1144353693182 0.0366847826086963  L 14.1011186079545 0.0366847826086963  Z M 14.1144353693182 20.2982336956522  L 14.1144353693182 20.305027173913  L 14.1044477982955 20.2982336956522  L 14.1144353693182 20.2982336956522  Z " fill-rule="nonzero" fill="#39bbdb" stroke="none" transform="matrix(1 0 0 1 764 17 )" />
  </g>
</svg>