<?xml version="1.0" encoding="utf-8"?>
<svg version="1.1" xmlns:xlink="http://www.w3.org/1999/xlink" width="20px" height="15px" xmlns="http://www.w3.org/2000/svg">
  <g transform="matrix(1 0 0 1 -276 -410 )">
    <path d="M 12.7646285076531 7.86798828125  C 12.1115672831633 7.62267578125  11.6435347576531 7.01466796875  11.6435347576531 6.278671875  C 11.6435347576531 5.55333984375  12.1115672831633 4.93466796875  12.7646285076531 4.6893359375  C 12.6122448979592 4.0919921875  12.3728077168367 3.52666015625  12.0571388711735 3.003984375  C 11.4149593431122 3.281328125  10.6421795280612 3.16400390625  10.1197185905612 2.6519921875  C 9.59727758290816 2.14  9.47755899234694 1.38265625  9.76054288903061 0.75333984375  C 9.22009165770536 0.450750707089382  8.64208412557159 0.21771618825671  8.04081632653061 0.0600000000000008  C 7.79047751913265 0.700000000000001  7.1591796875 1.158671875  6.41904496173469 1.158671875  C 5.67891023596939 1.158671875  5.04761240433674 0.700000000000001  4.79727359693878 0.0600000000000008  C 4.1877590880102 0.209335937500001  3.61088966836735 0.443984375  3.07754703443878 0.75333984375  C 3.36055086096939 1.38267578125  3.24081234056122 2.14  2.71837133290816 2.6519921875  C 2.1959303252551 3.163984375  1.42313058035714 3.281328125  0.780951052295918 3.00400390625  C 0.465302136479592 3.52666015625  0.225845025510204 4.0919921875  0.0734614158163264 4.6893359375  C 0.726522640306122 4.9346484375  1.19455516581633 5.55333984375  1.19455516581633 6.278671875  C 1.19455516581633 7.00400390625  0.726522640306122 7.62267578125  0.0734614158163264 7.8680078125  C 0.225845025510204 8.46533203125  0.465302136479592 9.0306640625  0.780970982142857 9.55333984375  C 1.4231106505102 9.27599609375  2.19591039540816 9.39333984375  2.71835140306122 9.90533203125  C 3.24081234056122 10.41732421875  3.36055086096939 11.17466796875  3.07754703443878 11.80400390625  C 3.61086973852041 12.11333984375  4.1877590880102 12.3480078125  4.79729352678571 12.49732421875  C 5.04761240433674 11.85732421875  5.67891023596939 11.398671875  6.41904496173469 11.398671875  C 7.1591796875 11.398671875  7.79047751913265 11.85732421875  8.04081632653061 12.49732421875  C 8.65033083545918 12.3480078125  9.22722018494898 12.11333984375  9.76056281887755 11.80400390625  C 9.47755899234694 11.17466796875  9.59727758290816 10.41732421875  10.1197185905612 9.90533203125  C 10.6421795280612 9.39333984375  11.4149593431122 9.27599609375  12.0571388711735 9.55333984375  C 12.3727877869898 9.03068359375  12.6122448979592 8.46533203125  12.7646285076531 7.86798828125  Z M 6.41904496173469 7.98533203125  C 5.46121651785714 7.98533203125  4.67755500637755 7.21732421875  4.67755500637755 6.278671875  C 4.67755500637755 5.34001953125  5.46121651785714 4.5719921875  6.41904496173469 4.5719921875  C 7.37687340561224 4.5719921875  8.16053491709184 5.34  8.16053491709184 6.278671875  C 8.16053491709184 7.21734375  7.37687340561224 7.98533203125  6.41906489158163 7.98533203125  Z M 13.5809550382653 2.3319921875  L 13.5809550382653 0.76400390625  L 19.9265385841837 0.76400390625  L 19.9265385841837 2.3319921875  L 13.5809550382653 2.3319921875  Z M 13.5809550382653 8.64666015625  L 13.5809550382653 7.07865234375  L 19.9265385841837 7.07865234375  L 19.9265385841837 8.64666015625  L 13.5809550382653 8.64666015625  Z M 3.29524075255102 15  L 3.29524075255102 13.393359375  L 19.9265385841837 13.393359375  L 19.9265385841837 15  L 3.29524075255102 15  Z " fill-rule="nonzero" fill="#7f7f7f" stroke="none" transform="matrix(1 0 0 1 276 410 )" />
  </g>
</svg>