<?xml version="1.0" encoding="utf-8"?>
<svg version="1.1" xmlns:xlink="http://www.w3.org/1999/xlink" width="20px" height="13px" xmlns="http://www.w3.org/2000/svg">
  <g transform="matrix(1 0 0 1 -276 -63 )">
    <path d="M 12.7646285076531 6.81892317708334  C 12.1115672831633 6.60631901041667  11.6435347576531 6.07937890625  11.6435347576531 5.441515625  C 11.6435347576531 4.81289453125  12.1115672831633 4.27671223958333  12.7646285076531 4.06409114583334  C 12.6122448979592 3.54639322916667  12.3728077168367 3.05643880208333  12.0571388711735 2.603453125  C 11.4149593431122 2.84381770833333  10.6421795280612 2.74213671875  10.1197185905612 2.29839322916667  C 9.59727758290816 1.85466666666667  9.47755899234694 1.19830208333333  9.76054288903061 0.65289453125  C 9.22009165770536 0.390650612810798  8.64208412557159 0.188687363155815  8.04081632653061 0.0520000000000007  C 7.79047751913265 0.606666666666667  7.1591796875 1.00418229166667  6.41904496173469 1.00418229166667  C 5.67891023596939 1.00418229166667  5.04761240433674 0.606666666666667  4.79727359693878 0.0520000000000007  C 4.1877590880102 0.181424479166667  3.61088966836735 0.384786458333334  3.07754703443878 0.65289453125  C 3.36055086096939 1.19831901041667  3.24081234056122 1.85466666666667  2.71837133290816 2.29839322916667  C 2.1959303252551 2.74211979166667  1.42313058035714 2.84381770833333  0.780951052295918 2.60347005208333  C 0.465302136479592 3.05643880208333  0.225845025510204 3.54639322916667  0.0734614158163264 4.06409114583334  C 0.726522640306122 4.2766953125  1.19455516581633 4.81289453125  1.19455516581633 5.441515625  C 1.19455516581633 6.07013671875  0.726522640306122 6.60631901041667  0.0734614158163264 6.81894010416667  C 0.225845025510204 7.33662109375  0.465302136479592 7.82657552083334  0.780970982142857 8.27956119791667  C 1.4231106505102 8.03919661458333  2.19591039540816 8.14089453125  2.71835140306122 8.58462109375  C 3.24081234056122 9.02834765625  3.36055086096939 9.68471223958334  3.07754703443878 10.23013671875  C 3.61086973852041 10.4982278645833  4.1877590880102 10.7016067708333  4.79729352678571 10.8310143229167  C 5.04761240433674 10.27634765625  5.67891023596939 9.87884895833334  6.41904496173469 9.87884895833334  C 7.1591796875 9.87884895833334  7.79047751913265 10.27634765625  8.04081632653061 10.8310143229167  C 8.65033083545918 10.7016067708333  9.22722018494898 10.4982278645833  9.76056281887755 10.23013671875  C 9.47755899234694 9.68471223958334  9.59727758290816 9.02834765625  10.1197185905612 8.58462109375  C 10.6421795280612 8.14089453125  11.4149593431122 8.03919661458334  12.0571388711735 8.27956119791667  C 12.3727877869898 7.82659244791667  12.6122448979592 7.33662109375  12.7646285076531 6.81892317708334  Z M 6.41904496173469 6.92062109375  C 5.46121651785714 6.92062109375  4.67755500637755 6.25501432291667  4.67755500637755 5.441515625  C 4.67755500637755 4.62801692708334  5.46121651785714 3.96239322916667  6.41904496173469 3.96239322916667  C 7.37687340561224 3.96239322916667  8.16053491709184 4.628  8.16053491709184 5.441515625  C 8.16053491709184 6.25503125  7.37687340561224 6.92062109375  6.41906489158163 6.92062109375  Z M 13.5809550382653 2.02105989583333  L 13.5809550382653 0.66213671875  L 19.9265385841837 0.66213671875  L 19.9265385841837 2.02105989583333  L 13.5809550382653 2.02105989583333  Z M 13.5809550382653 7.49377213541667  L 13.5809550382653 6.13483203125  L 19.9265385841837 6.13483203125  L 19.9265385841837 7.49377213541667  L 13.5809550382653 7.49377213541667  Z M 3.29524075255102 13  L 3.29524075255102 11.607578125  L 19.9265385841837 11.607578125  L 19.9265385841837 13  L 3.29524075255102 13  Z " fill-rule="nonzero" fill="#8080ff" stroke="none" transform="matrix(1 0 0 1 276 63 )" />
  </g>
</svg>