<?xml version="1.0" encoding="utf-8"?>
<svg version="1.1" xmlns:xlink="http://www.w3.org/1999/xlink" width="102px" height="38px" xmlns="http://www.w3.org/2000/svg">
  <defs>
    <mask fill="white" id="clip8">
      <path d="M 0 34.695652173913  L 0 3.30434782608696  C 0 1.45391304347825  1.49599999999999 0  3.4 0  L 54.8047619047607 0  L 98.6 0  C 100.504 0  102 1.45391304347825  102 3.30434782608696  L 102 34.695652173913  C 102 36.5460869565217  100.504 38  98.6 38  L 3.4 38  C 1.49599999999999 38  0 36.5460869565217  0 34.695652173913  Z " fill-rule="evenodd" />
    </mask>
  </defs>
  <g transform="matrix(1 0 0 1 -168 -99 )">
    <path d="M 0 34.695652173913  L 0 3.30434782608696  C 0 1.45391304347825  1.49599999999999 0  3.4 0  L 54.8047619047607 0  L 98.6 0  C 100.504 0  102 1.45391304347825  102 3.30434782608696  L 102 34.695652173913  C 102 36.5460869565217  100.504 38  98.6 38  L 3.4 38  C 1.49599999999999 38  0 36.5460869565217  0 34.695652173913  Z " fill-rule="nonzero" fill="#ffffff" stroke="none" transform="matrix(1 0 0 1 168 99 )" />
    <path d="M 0 34.695652173913  L 0 3.30434782608696  C 0 1.45391304347825  1.49599999999999 0  3.4 0  L 54.8047619047607 0  L 98.6 0  C 100.504 0  102 1.45391304347825  102 3.30434782608696  L 102 34.695652173913  C 102 36.5460869565217  100.504 38  98.6 38  L 3.4 38  C 1.49599999999999 38  0 36.5460869565217  0 34.695652173913  Z " stroke-width="2" stroke="#797979" fill="none" transform="matrix(1 0 0 1 168 99 )" mask="url(#clip8)" />
  </g>
</svg>