<?xml version="1.0" encoding="utf-8"?>
<svg version="1.1" xmlns:xlink="http://www.w3.org/1999/xlink" width="5px" height="11px" xmlns="http://www.w3.org/2000/svg">
  <g transform="matrix(1 0 0 1 -93 -432 )">
    <path d="M 5 1.04820833333333  C 5 0.485283333333333  4.720725 0.0283402777777777  4.3755625 0.0283402777777777  C 4.251475 0.0283402777777777  4.13655 0.0896194444444443  4.039175 0.190972222222222  C 4.025425 0.205104166666667  4.0129625 0.221543055555556  4 0.237141666666667  L 2.2934625 2.27418888888889  L 0.307525 4.64284027777778  L 0.260475 4.69936805555556  C 0.1130625 4.88575694444444  0.0164874999999998 5.17470555555556  0.0164874999999998 5.50313194444444  C 0.0169874999999999 5.83216944444444  0.1134625 6.12185138888889  0.261675 6.30811805555556  L 0.307525 6.36244583333333  L 2.29385 8.73268611111111  L 3.9300375 10.6854305555556  L 4.0820375 10.8669458333333  C 4.16985 10.9438083333333  4.268625 10.9920555555556  4.3755625 10.9920555555556  C 4.720725 10.9920555555556  5 10.5357236111111  5 9.9721875  L 5 1.04820833333333  Z " fill-rule="nonzero" fill="#006569" stroke="none" transform="matrix(1 0 0 1 93 432 )" />
  </g>
</svg>