<?xml version="1.0" encoding="utf-8"?>
<svg version="1.1" xmlns:xlink="http://www.w3.org/1999/xlink" width="5px" height="11px" xmlns="http://www.w3.org/2000/svg">
  <g transform="matrix(1 0 0 1 -98 -432 )">
    <path d="M 4.9835125 1.04820833333333  C 4.9835125 0.485283333333333  4.7042375 0.0283402777777777  4.359075 0.0283402777777777  C 4.2349875 0.0283402777777777  4.1200625 0.0896194444444443  4.0226875 0.190972222222222  C 4.0089375 0.205104166666667  3.996475 0.221543055555556  3.9835125 0.237141666666667  L 2.2769625 2.27418888888889  L 0.291037500000001 4.64284027777778  L 0.243987500000001 4.69936805555556  C 0.0965749999999996 4.88575694444444  0 5.17470555555556  0 5.50313194444444  C 0.000500000000000611 5.83216944444444  0.0969750000000005 6.12185138888889  0.2451875 6.30811805555556  L 0.291037500000001 6.36244583333333  L 2.2773625 8.73268611111111  L 3.91355 10.6854305555556  L 4.06555 10.8669458333333  C 4.1533625 10.9438083333333  4.2521375 10.9920555555556  4.359075 10.9920555555556  C 4.7042375 10.9920555555556  4.9835125 10.5357236111111  4.9835125 9.9721875  L 4.9835125 1.04820833333333  Z " fill-rule="nonzero" fill="#006569" stroke="none" transform="matrix(1 0 0 1 98 432 )" />
  </g>
</svg>