<?xml version="1.0" encoding="utf-8"?>
<svg version="1.1" xmlns:xlink="http://www.w3.org/1999/xlink" width="30px" height="23px" xmlns="http://www.w3.org/2000/svg">
  <g transform="matrix(1 0 0 1 -208 -157 )">
    <path d="M 19.1469427614796 12.0642486979167  C 18.1673509247449 11.6881028645833  17.4653021364796 10.75582421875  17.4653021364796 9.627296875  C 17.4653021364796 8.51512109375  18.1673509247449 7.56649088541667  19.1469427614796 7.19031510416667  C 18.9183673469388 6.27438802083334  18.5592115752551 5.40754557291667  18.0857083067602 4.606109375  C 17.1224390146684 5.03136979166667  15.9632692920918 4.85147265625  15.1795778858418 4.06638802083333  C 14.3959163743622 3.28133333333333  14.2163384885204 2.12007291666667  14.6408143335459 1.15512109375  C 13.830137486558 0.691151084203719  12.9631261883574 0.333831488660288  12.0612244897959 0.0920000000000013  C 11.685716278699 1.07333333333333  10.73876953125 1.77663020833333  9.62856744260204 1.77663020833333  C 8.51836535395408 1.77663020833333  7.5714186065051 1.07333333333333  7.19591039540816 0.0920000000000013  C 6.28163863201531 0.320981770833334  5.41633450255102 0.680776041666667  4.61632055165816 1.15512109375  C 5.04082629145408 2.12010286458333  4.86121851084184 3.28133333333333  4.07755699936224 4.06638802083333  C 3.29389548788265 4.85144270833333  2.13469587053571 5.03136979166667  1.17142657844388 4.60613932291667  C 0.697953204719388 5.40754557291667  0.338767538265306 6.27438802083334  0.11019212372449 7.19031510416667  C 1.08978396045918 7.5664609375  1.79183274872449 8.51512109375  1.79183274872449 9.627296875  C 1.79183274872449 10.73947265625  1.08978396045918 11.6881028645833  0.11019212372449 12.0642786458333  C 0.338767538265306 12.98017578125  0.697953204719388 13.8470182291667  1.17145647321429 14.6484544270833  C 2.13466597576531 14.2231940104167  3.29386559311224 14.40312109375  4.07752710459184 15.18817578125  C 4.86121851084184 15.97323046875  5.04082629145408 17.1344908854167  4.61632055165816 18.09947265625  C 5.41630460778061 18.5737877604167  6.28163863201531 18.9336119791667  7.19594029017857 19.1625638020833  C 7.5714186065051 18.18123046875  8.51836535395408 17.4779635416667  9.62856744260204 17.4779635416667  C 10.73876953125 17.4779635416667  11.685716278699 18.18123046875  12.0612244897959 19.1625638020833  C 12.9754962531888 18.9336119791667  13.8408302774235 18.5737877604167  14.6408442283163 18.09947265625  C 14.2163384885204 17.1344908854167  14.3959163743622 15.97323046875  15.1795778858418 15.18817578125  C 15.9632692920918 14.40312109375  17.1224390146684 14.2231940104167  18.0857083067602 14.6484544270833  C 18.5591816804847 13.8470481770833  18.9183673469388 12.98017578125  19.1469427614796 12.0642486979167  Z M 9.62856744260204 12.24417578125  C 8.19182477678571 12.24417578125  7.01633250956633 11.0665638020833  7.01633250956633 9.627296875  C 7.01633250956633 8.18802994791667  8.19182477678571 7.01038802083333  9.62856744260204 7.01038802083333  C 11.0653101084184 7.01038802083333  12.2408023756378 8.188  12.2408023756378 9.627296875  C 12.2408023756378 11.06659375  11.0653101084184 12.24417578125  9.62859733737245 12.24417578125  Z M 20.371432557398 3.57572135416667  L 20.371432557398 1.17147265625  L 29.8898078762755 1.17147265625  L 29.8898078762755 3.57572135416667  L 20.371432557398 3.57572135416667  Z M 20.371432557398 13.2582122395833  L 20.371432557398 10.85393359375  L 29.8898078762755 10.85393359375  L 29.8898078762755 13.2582122395833  L 20.371432557398 13.2582122395833  Z M 4.94286112882653 23  L 4.94286112882653 20.536484375  L 29.8898078762755 20.536484375  L 29.8898078762755 23  L 4.94286112882653 23  Z " fill-rule="nonzero" fill="#7f7f7f" stroke="none" transform="matrix(1 0 0 1 208 157 )" />
  </g>
</svg>