<?xml version="1.0" encoding="utf-8"?>
<svg version="1.1" xmlns:xlink="http://www.w3.org/1999/xlink" width="11px" height="20px" xmlns="http://www.w3.org/2000/svg">
  <g transform="matrix(1 0 0 1 -273 -81 )">
    <path d="M 11 1.90583333333333  C 11 0.882333333333334  10.385595 0.0515277777777776  9.6262375 0.0515277777777776  C 9.353245 0.0515277777777776  9.10041 0.162944444444444  8.886185 0.347222222222222  C 8.855935 0.372916666666666  8.8285175 0.402805555555556  8.8 0.431166666666666  L 5.0456175 4.13488888888889  L 0.676555 8.44152777777778  L 0.573045 8.54430555555556  C 0.2487375 8.88319444444445  0.0362724999999995 9.40855555555556  0.0362724999999995 10.0056944444444  C 0.0373724999999999 10.6039444444444  0.2496175 11.1306388888889  0.575685 11.4693055555556  L 0.676555 11.5680833333333  L 5.04647 15.8776111111111  L 8.6460825 19.4280555555556  L 8.9804825 19.7580833333333  C 9.17367 19.8978333333333  9.390975 19.9855555555556  9.6262375 19.9855555555556  C 10.385595 19.9855555555556  11 19.1558611111111  11 18.13125  L 11 1.90583333333333  Z " fill-rule="nonzero" fill="#006569" stroke="none" transform="matrix(1 0 0 1 273 81 )" />
  </g>
</svg>