<?xml version="1.0" encoding="utf-8"?>
<svg version="1.1" xmlns:xlink="http://www.w3.org/1999/xlink" width="11px" height="20px" xmlns="http://www.w3.org/2000/svg">
  <g transform="matrix(1 0 0 1 -284 -81 )">
    <path d="M 11 1.90583333333333  C 10.9637275 0.882333333333334  10.3493225 0.0515277777777776  9.589965 0.0515277777777776  C 9.3169725 0.0515277777777776  9.0641375 0.162944444444444  8.8499125 0.347222222222222  C 8.8196625 0.372916666666666  8.792245 0.402805555555556  8.7637275 0.431166666666666  L 5.0093175 4.13488888888889  L 0.640282500000002 8.44152777777778  L 0.536772500000003 8.54430555555556  C 0.212464999999999 8.88319444444445  0 9.40855555555556  0 10.0056944444444  C 0.00110000000000134 10.6039444444444  0.213345000000001 11.1306388888889  0.5394125 11.4693055555556  L 0.640282500000002 11.5680833333333  L 5.0101975 15.8776111111111  L 8.60981 19.4280555555556  L 8.94421 19.7580833333333  C 9.1373975 19.8978333333333  9.3547025 19.9855555555556  9.589965 19.9855555555556  C 10.3493225 19.9855555555556  10.9637275 19.1558611111111  11 18.13125  L 11 1.90583333333333  Z " fill-rule="nonzero" fill="#006569" stroke="none" transform="matrix(1 0 0 1 284 81 )" />
  </g>
</svg>