<?xml version="1.0" encoding="utf-8"?>
<svg version="1.1" xmlns:xlink="http://www.w3.org/1999/xlink" width="14px" height="8px" xmlns="http://www.w3.org/2000/svg">
  <g transform="matrix(1 0 0 1 -363 -329 )">
    <path d="M 13.8597194388778 6.54295532646048  C 13.9532398129593 6.63459335624284  14 6.73997709049255  14 6.85910652920962  C 14 6.97823596792669  13.9532398129593 7.0836197021764  13.8597194388778 7.17525773195876  L 13.1583166332665 7.86254295532646  C 13.064796259185 7.95418098510882  12.9572478289913 8  12.8356713426854 8  C 12.7140948563794 8  12.6065464261857 7.95418098510882  12.5130260521042 7.86254295532646  L 7 2.46048109965636  L 1.48697394789579 7.86254295532646  C 1.3934535738143 7.95418098510882  1.28590514362057 8  1.16432865731463 8  C 1.04275217100868 8  0.935203740814964 7.95418098510882  0.841683366733467 7.86254295532646  L 0.140280561122244 7.17525773195876  C 0.0467601870407483 7.0836197021764  0 6.97823596792669  0 6.85910652920962  C 0 6.73997709049255  0.0467601870407483 6.63459335624284  0.140280561122244 6.54295532646048  L 6.67735470941884 0.13745704467354  C 6.77087508350033 0.0458190148911788  6.87842351369406 0  7 0  C 7.12157648630595 0  7.22912491649967 0.0458190148911788  7.32264529058116 0.13745704467354  L 13.8597194388778 6.54295532646048  Z " fill-rule="nonzero" fill="#333333" stroke="none" transform="matrix(1 0 0 1 363 329 )" />
  </g>
</svg>