<?xml version="1.0" encoding="utf-8"?>
<svg version="1.1" xmlns:xlink="http://www.w3.org/1999/xlink" width="18px" height="10px" xmlns="http://www.w3.org/2000/svg">
  <g transform="matrix(1 0 0 1 -255 -396 )">
    <path d="M 17.8196392785571 8.1786941580756  C 17.939879759519 8.29324169530355  18 8.42497136311569  18 8.57388316151203  C 18 8.72279495990836  17.939879759519 8.8545246277205  17.8196392785571 8.96907216494845  L 16.9178356713427 9.82817869415807  C 16.7975951903808 9.94272623138602  16.6593186372746 10  16.503006012024 10  C 16.3466933867735 10  16.2084168336673 9.94272623138602  16.0881763527054 9.82817869415807  L 9 3.07560137457045  L 1.91182364729459 9.82817869415807  C 1.79158316633267 9.94272623138602  1.65330661322645 10  1.49699398797595 10  C 1.34068136272545 10  1.20240480961924 9.94272623138602  1.08216432865731 9.82817869415807  L 0.180360721442886 8.96907216494845  C 0.0601202404809621 8.8545246277205  0 8.72279495990836  0 8.57388316151203  C 0 8.42497136311569  0.0601202404809621 8.29324169530355  0.180360721442886 8.1786941580756  L 8.58517034068136 0.171821305841925  C 8.70541082164329 0.0572737686139735  8.8436873747495 0  9 0  C 9.1563126252505 0  9.29458917835671 0.0572737686139735  9.41482965931864 0.171821305841925  L 17.8196392785571 8.1786941580756  Z " fill-rule="nonzero" fill="#333333" stroke="none" transform="matrix(1 0 0 1 255 396 )" />
  </g>
</svg>