<?xml version="1.0" encoding="utf-8"?>
<svg version="1.1" xmlns:xlink="http://www.w3.org/1999/xlink" width="30px" height="14px" xmlns="http://www.w3.org/2000/svg">
  <g transform="matrix(1 0 0 1 -928 -113 )">
    <path d="M 27.5 2.26492538770989  C 27.5 1.49213889074517  28.0596440627115 0.865671656366615  28.75 0.865671656366601  C 29.4403559372885 0.865671656366601  30 1.49213889074515  30 2.26492538770989  L 30 12.5261193884095  C 29.9999736714433 13.2253465977865  29.5388393147419 13.8172185474727  28.92 13.9123134474114  L 28.75 14  L 1.25 14  C 0.559644062711527 13.9253731197528  0 13.2989058853742  0 12.5261193884095  L 0 2.26492538770989  C 0 1.49213889074516  0.559644062711527 0.865671656366608  1.25 0.865671656366608  C 1.94035593728847 0.865671656366608  2.5 1.49213889074516  2.5 2.26492538770989  L 2.5 11  L 27.5 11  L 27.5 2.26492538770989  Z " fill-rule="nonzero" fill="#39bbdb" stroke="none" transform="matrix(1 0 0 1 928 113 )" />
  </g>
</svg>