<?xml version="1.0" encoding="utf-8"?>
<svg version="1.1" xmlns:xlink="http://www.w3.org/1999/xlink" width="18px" height="20px" xmlns="http://www.w3.org/2000/svg">
  <g transform="matrix(1 0 0 1 -934 -97 )">
    <path d="M 8.44333332031249 0.358208955223883  C 8.71666664062502 0.0223880597014947  9.13999999999999 -0.0149253585587665  9.44833332031249 0.246268656716417  L 9.55666667968751 0.35820895522388  L 17.1033333203125 9.61940297049907  C 17.2529780243917 9.80722158357294  17.3349479627013 10.0505781492878  17.3333333203125 10.3022387913946  C 17.3333333203125 10.776119373834  17.055 11.1716417910448  16.6883333203125 11.253731328708  L 16.5466666796875 11.2686567309935  L 11.5 11.2686567309935  L 11.5 18.7313432690065  C 11.5 19.2465343026598  11.1269039640219 19.6641791190532  10.6666666796875 19.6641791190532  L 7.33333332031248 19.6641791190532  C 6.87309603597805 19.6641791190532  6.5 19.2465343026598  6.5 18.7313433127332  L 6.5 11.2686567309935  L 1.45333332031248 11.2686567309935  C 1.28518973401356 11.2674517803647  1.12240227530162 11.2023245133182  0.991666679687455 11.0839552384562  L 0.896666679687542 10.9850746122901  C 0.632555603382457 10.6475922995285  0.592206782978337 10.1582875803599  0.796666679687519 9.7723880597015  L 0.896666679687542 9.61940297049907  L 8.44333332031249 0.358208955223883  Z " fill-rule="nonzero" fill="#39bbdb" stroke="none" transform="matrix(1 0 0 1 934 97 )" />
  </g>
</svg>