<?xml version="1.0" encoding="utf-8"?>
<svg version="1.1" xmlns:xlink="http://www.w3.org/1999/xlink" width="21px" height="21px" xmlns="http://www.w3.org/2000/svg">
  <g transform="matrix(1 0 0 1 -31 -110 )">
    <path d="M 6.3930388083262 9.09895414169521  L 13.6082839311323 9.09895414169521  C 13.8574868683112 9.09895414169521  14.069388729131 9.1870481734268  14.2462381533604 9.36350077803938  C 14.422161677012 9.53982112157534  14.5105202490903 9.75198752274187  14.5105202493579 10  C 14.5105202493579 10.2480124772581  14.422161677012 10.4629566181507  14.2462381533604 10.6392769616866  C 14.069388729131 10.8157295657641  13.8573545887735 10.9038235980308  13.6082839311323 10.9038235977633  L 6.3930388083262 10.9038235977633  C 6.14423269103168 10.9038235977633  5.93140491063784 10.8157295660317  5.75561366679152 10.6392769616866  C 5.5783674224101 10.4629566181507  5.49080247110445 10.2480124772581  5.49080247110445 10  C 5.49080247110445 9.75198752274187  5.57849968295163 9.53968884203767  5.75561366679152 9.36336849823416  C 5.93153719044307 9.1870481546982  6.14423269103168 9.09882186188998  6.39317106913528 9.09882186215753  Z M 17.2156419429581 1.88450263966181  L 17.2153774026113 2  L 2.7858130573095 2  C 2.53700694001498 1.88450263966181  2.32510507946276 1.97259667139341  2.14825565496575 2.14904929500214  C 1.97206759096747 2.32259189881207  1.8838412791631 2.53753603970462  2 2.78554851696276  L 2 17.2144514830372  C 1.88384127943065 17.4624639602954  1.97206759123502 17.6774081011879  2.14812337542808 17.8537284447239  C 2.32510507919521 18.0300487882598  2.53700694001498 18.1182750810681  2.7858130573095 18  L 17.2155096824165 18  C 17.4647126195955 18.1182751000642  17.6771435801049 18.0300487882598  17.853199364298 17.8537284447239  C 18.0301810680651 17.6774081011879  18.118010559985 17.4624639602954  18 17.2144514830372  L 18 2.78554851696276  C 18.1180105407213 2.53753603970462  18.0301810490689 2.32259189881207  17.853199364298 2.14904929500214  C 17.6771435801049 1.97259669092466  17.4647126195955 1.88450265865796  17.2156419429581 1.88450263966181  Z M 2.78515169707834 0.0795009037885271  L 2.78501941727312 0  L 17.2149805824593 0  C 17.9612666548052 0.0795009037885276  18.5992208960295 0.344047540132706  19.1275205286815 0.873140831549658  C 19.6562170004816 1.39958864404966  19.9204990962115 2.03886560546875  20 2.78554851696276  L 20 17.2144514830372  C 19.9204990962115 17.9611343752675  19.6562170004816 18.5977658770334  19.1276528082192 19.1268591684503  C 18.5993531565711 19.6559524598673  17.9613989343429 19.9204990962115  17.2151128625321 20  L 2.78515169707834 20  C 2.03807198469606 19.9204990962115  1.40064684316139 19.6559524598673  0.872347191513271 19.1268591684503  C 0.343782999518408 18.5977658770334  0.0795009037885276 17.9611343945313  0 17.2144514830372  L 0 2.78554851696276  C 0.0795009037885276 2.03886560546875  0.343782999518408 1.39958864404966  0.872347191513271 0.873140831549657  C 1.40064684316139 0.344047540132705  2.03807196543236 0.0795009037885271  2.78515169707834 0.0795009037885271  Z " fill-rule="nonzero" fill="#6c96af" stroke="none" transform="matrix(1 0 0 1 31 110 )" />
  </g>
</svg>