<?xml version="1.0" encoding="utf-8"?>
<svg version="1.1" xmlns:xlink="http://www.w3.org/1999/xlink" width="30px" height="30px" xmlns="http://www.w3.org/2000/svg">
  <g transform="matrix(1 0 0 1 -754 -97 )">
    <path d="M 29.2397959283323 1.45431472081218  C 29.7157519086538 1.62979241888857  30.0223982827121 2.09204968173601  29.9974489895568 2.59644670050761  L 29.9974489895568 11.2664974718433  C 29.9905397211815 11.9476778858575  29.4372068448639 12.4982019526284  28.7525510204082 12.5050761322176  L 20.0382652961575 12.5050761322176  C 19.5288364783999 12.5304638165063  19.0626859224307 12.2212742768448  18.8903061124841 11.7436548124207  C 18.6590516135844 11.290009513983  18.7709105080613 10.7377538081411  19.1607142956792 10.4086294416244  L 21.8469387854751 7.72588833478744  C 18.9784056235329 5.06657556846531  14.8060296105546 4.33477182980578  11.1964285714286 5.85786801039023  C 8.79459526971288 6.85308236497201  6.8854960604725 8.75249071528223  5.88520408163265 11.1421319697811  C 4.83431522464099 13.5972087896931  4.83431522464099 16.372334357515  5.88520408163265 18.827411177427  C 6.88675408670561 21.215625245109  8.79554884395072 23.1138185273475  11.1964285714286 24.1091370459232  C 12.4154811901156 24.6306322303091  13.7291668419343 24.8975643617257  15.0561224390147 24.8934010053141  C 18.134307173839 24.9008853081756  21.0390981909652 23.4765189712501  22.9081632553412 21.0431472180362  C 23.0171361033911 20.9047288731836  23.1807076003273 20.819659615785  23.3571428571429 20.8096446700508  C 23.5345501541689 20.8085212293278  23.7064959275127 20.8706477237576  23.841836724729 20.9847715736041  L 26.5153061324139 23.6548223449397  C 26.6311404262144 23.7552904293814  26.6980324393757 23.9004117617125  26.6989796018017 24.0532994923858  C 26.7074464458214 24.2110626178515  26.6554857373748 24.3661534633671  26.5535714385364 24.4873096446701  C 25.162031345374 26.1736506933408  23.4069528824768 27.5268669471213  21.4183673569037 28.4467005076142  C 19.4279787576839 29.3764434477111  17.2549536794621 29.8549602708817  15.0561224390147 29.8477157360406  C 13.0632746679346 29.8536279901696  11.0904767065135 29.4519138839615  9.26020408163266 28.6675126903553  C 5.66304350519614 27.1804074794242  2.80287886035395 24.3384108778108  1.30357141860651 20.7614213297113  C -0.278199096736676 17.0772675272195  -0.278199096736675 12.9100421372792  1.30357141860651 9.22588833478744  C 2.800555947025 5.64264268439938  5.66059811694977 2.79346922102559  9.26020408163266 1.29949239570114  C 12.8723456293064 -0.23638837879045  16.9511513004506 -0.274758537491693  20.5918367446588 1.19289341092957  C 22.3546496127959 1.89589527704675  23.9680072295895 2.92409837639024  25.3469387755102 4.22335026372145  L 27.8775510303731 1.72588833478744  C 28.2140027575896 1.3330525215796  28.7771943586221 1.22077610294001  29.2397959283323 1.45431472081218  Z " fill-rule="nonzero" fill="#58d0ef" stroke="none" transform="matrix(1 0 0 1 754 97 )" />
  </g>
</svg>