<?xml version="1.0" encoding="utf-8"?>
<svg version="1.1" xmlns:xlink="http://www.w3.org/1999/xlink" width="30px" height="30px" xmlns="http://www.w3.org/2000/svg">
  <g transform="matrix(1 0 0 1 -795 -97 )">
    <path d="M 19.2857142773438 20.6357142773438  L 19.2857142773438 15.9428571386719  L 30 22.5  L 19.2857142773438 29.0571428613281  L 19.2857142773438 24.3642857226562  L 10.5 24.3642857226562  L 10.5 20.6357142773438  L 19.2857142773438 20.6357142773438  Z M 1.07142858398438 0  L 13.7142857226562 0  L 24.4285714160156 9.36428572265625  L 24.4285714160156 15  L 20.1428571386719 15  L 20.1428571386719 11.25  L 11.5714285839844 11.25  L 11.5714285839844 3.75  L 4.28571427734375 3.75  L 4.28571427734375 26.25  L 8.57142858398438 26.25  L 8.57142858398438 30  L 1.07142858398438 30  C 0.471428583984375 30  0 29.5714285839844  0 29.0571428613281  L 0 0.942857138671875  C 0 0.428571416015625  0.471428583984375 0  1.07142858398438 0  Z " fill-rule="nonzero" fill="#58d0ef" stroke="none" transform="matrix(1 0 0 1 795 97 )" />
  </g>
</svg>