<?xml version="1.0" encoding="utf-8"?>
<svg version="1.1" xmlns:xlink="http://www.w3.org/1999/xlink" width="20px" height="22px" xmlns="http://www.w3.org/2000/svg">
  <g transform="matrix(1 0 0 1 -571 -73 )">
    <path d="M 17.0583333333333 3.18708609271523  L 20 0  L 20 9.55033112582781  L 19.9216666666667 9.55033112582781  L 19.9216666666667 9.5612582781457  L 17.335 9.5612582781457  L 17.3333333333333 9.55033112582781  L 11.1883333333333 9.55033112582781  L 15.255 5.14486754966887  C 13.847608461867 3.60070730193507  11.9353220718124 2.73267706039829  9.94090053419708 2.73267706039829  C 5.79876491046613 2.73267706039829  2.44090053419708 6.40186661062606  2.44090053419708 10.9280412988089  C 2.44090053419708 15.4542159869917  5.79876491046613 19.1234055372195  9.94090053419708 19.1234055372195  C 13.1189408907989 19.1234055372195  15.9519583835239 16.9347083620119  17.0116666666667 13.660761589404  L 19.6833333333333 13.658940397351  C 18.5437148840848 18.484040940653  14.5609902925242 21.8554500426607  10.0006043788738 21.8554500426607  C 4.47775688056586 21.8554500426607  0.000604378873797865 16.9631973090237  0.000604378873797865 10.9282977247799  C 0.000604378873797865 4.89339814053616  4.47775688056586 0.00114540689913355  10.0006043788738 0.00114540689913355  C 12.6462392493896 0.00114540689913355  15.1840646457523 1.14674921740821  17.0583333333333 3.18708609271523  Z " fill-rule="nonzero" fill="#169bd5" stroke="none" transform="matrix(1 0 0 1 571 73 )" />
  </g>
</svg>