<?xml version="1.0" encoding="utf-8"?>
<svg version="1.1" xmlns:xlink="http://www.w3.org/1999/xlink" width="21px" height="22px" xmlns="http://www.w3.org/2000/svg">
  <g transform="matrix(1 0 0 1 -612 -73 )">
    <path d="M 12.2870860927152 2.83897058823529  C 12.2818708609271 0.0242647058823527  11.4526490066225 -0.13952205882353  10.6216887417219 0.333639705882353  L 10.3956953642384 0.477205882352942  L 10.173178807947 0.643014705882353  L 9.95761589403973 0.82297794117647  L 0.916142384105961 8.88492647058824  C 0.391825599710837 9.41391227087843  0.105358937368878 10.1936340669056  0.139072847682119 11  C 0.156456953642384 11.8512867647059  0.417218543046358 12.5044117647059  0.92135761589404 12.9553308823529  L 10.5556291390728 21.4681985294118  L 10.7468543046358 21.6016544117647  C 11.4074503311258 22.0262867647059  12.2766556291391 22.1880514705882  12.3079470198675 20.2064338235294  L 12.3009933774834 15.3332720588235  L 19.2476821192053 21.4681985294118  L 19.4389072847682 21.6016544117647  C 20.0995033112583 22.0262867647059  20.9687086092715 22.1880514705882  21 20.2064338235294  L 20.9774006622517 2.83897058823529  C 20.9739238410596 0.0242647058823539  20.1429635761589 -0.139522058823528  19.3137417218543 0.333639705882354  L 19.0877483443709 0.477205882352943  L 18.8652317880795 0.643014705882354  L 18.6496688741722 0.822977941176471  L 12.2870860927152 6.496875  L 12.2870860927152 2.83897058823529  Z " fill-rule="nonzero" fill="#169bd5" stroke="none" transform="matrix(1 0 0 1 612 73 )" />
  </g>
</svg>