<?xml version="1.0" encoding="utf-8"?>
<svg version="1.1" xmlns:xlink="http://www.w3.org/1999/xlink" width="20px" height="22px" xmlns="http://www.w3.org/2000/svg">
  <g transform="matrix(1 0 0 1 -654 -73 )">
    <path d="M 20 19.430298013245  C 19.9194630872483 21.3971854304636  18.3842281879195 21.0220198675497  17.4110738255034 20.5685430463576  L 3.3506711409396 12.9013245033113  L 3.36577181208054 20.4355960264901  C 3.36577181208054 21.2988410596026  2.6241610738255 21.998178807947  1.70805369127517 22  C 0.790268456375839 22  0.0453020134228191 21.3043046357616  0.0436241610738259 20.441059602649  L 0.0234899328859066 11.087417218543  L 0 11.0728476821192  L 0.0234899328859057 11.0600993377483  L 0.0050335570469791 1.71009933774834  C 0.00335570469798639 0.846854304635761  0.743288590604027 0.145695364238411  1.66107382550336 0.145695364238411  C 2.57885906040269 0.14387417218543  3.3238255033557 0.841390728476821  3.3255033557047 1.70281456953642  L 3.34228187919463 9.23526490066225  L 16.239932885906 2.13807947019867  C 17.6778523489933 1.31672185430463  19.9278523489933 0.329635761589404  20 3.78990066225165  L 20 19.430298013245  Z " fill-rule="nonzero" fill="#169bd5" stroke="none" transform="matrix(1 0 0 1 654 73 )" />
  </g>
</svg>