<?xml version="1.0" encoding="utf-8"?>
<svg version="1.1" xmlns:xlink="http://www.w3.org/1999/xlink" width="36px" height="17px" xmlns="http://www.w3.org/2000/svg">
  <g transform="matrix(1 0 0 1 -345 -100 )">
    <path d="M 33 2.75026654221916  C 33 1.81188293876199  33.6715728752538 1.05117272558803  34.5 1.05117272558802  C 35.3284271247462 1.05117272558802  36 1.81188293876197  36 2.75026654221915  L 36 15.210287828783  C 35.9999684057319 16.0593494401694  35.4466071776903 16.7780510933598  34.704 16.8935234718567  L 34.5 17  L 1.5 17  C 0.671572875253832 16.9093816454141  0 16.1486714322402  0 15.210287828783  L 0 2.75026654221916  C 0 1.81188293876198  0.671572875253832 1.05117272558802  1.5 1.05117272558802  C 2.32842712474617 1.05117272558802  3 1.81188293876198  3 2.75026654221916  L 3 13.5089285891275  L 33 13.5111940121519  L 33 2.75026654221916  Z " fill-rule="nonzero" fill="#39bbdb" stroke="none" transform="matrix(1 0 0 1 345 100 )" />
  </g>
</svg>