<?xml version="1.0" encoding="utf-8"?>
<svg version="1.1" xmlns:xlink="http://www.w3.org/1999/xlink" width="9px" height="20px" xmlns="http://www.w3.org/2000/svg">
  <g transform="matrix(1 0 0 1 -650 -288 )">
    <path d="M 9 1.90583333333333  C 8.9703225 0.882333333333334  8.4676275 0.0515277777777776  7.846335 0.0515277777777776  C 7.6229775 0.0515277777777776  7.4161125 0.162944444444444  7.2408375 0.347222222222222  C 7.2160875 0.372916666666666  7.193655 0.402805555555556  7.1703225 0.431166666666666  L 4.0985325 4.13488888888889  L 0.523867500000001 8.44152777777778  L 0.439177500000002 8.54430555555556  C 0.173834999999999 8.88319444444445  0 9.40855555555556  0 10.0056944444444  C 0.0009000000000011 10.6039444444444  0.174555000000001 11.1306388888889  0.4413375 11.4693055555556  L 0.523867500000001 11.5680833333333  L 4.0992525 15.8776111111111  L 7.04439 19.4280555555556  L 7.31799 19.7580833333333  C 7.4760525 19.8978333333333  7.6538475 19.9855555555556  7.846335 19.9855555555556  C 8.4676275 19.9855555555556  8.9703225 19.1558611111111  9 18.13125  L 9 1.90583333333333  Z " fill-rule="nonzero" fill="#006569" stroke="none" transform="matrix(1 0 0 1 650 288 )" />
  </g>
</svg>