<?xml version="1.0" encoding="utf-8"?>
<svg version="1.1" xmlns:xlink="http://www.w3.org/1999/xlink" width="9px" height="20px" xmlns="http://www.w3.org/2000/svg">
  <g transform="matrix(1 0 0 1 -650 -278 )">
    <path d="M 9 1.90583333333333  C 9 0.882333333333334  8.497305 0.0515277777777776  7.8760125 0.0515277777777776  C 7.652655 0.0515277777777776  7.44579 0.162944444444444  7.270515 0.347222222222222  C 7.245765 0.372916666666666  7.2233325 0.402805555555556  7.2 0.431166666666666  L 4.1282325 4.13488888888889  L 0.553545 8.44152777777778  L 0.468855 8.54430555555556  C 0.2035125 8.88319444444445  0.0296774999999996 9.40855555555556  0.0296774999999996 10.0056944444444  C 0.0305774999999999 10.6039444444444  0.2042325 11.1306388888889  0.471015 11.4693055555556  L 0.553545 11.5680833333333  L 4.12893 15.8776111111111  L 7.0740675 19.4280555555556  L 7.3476675 19.7580833333333  C 7.50573 19.8978333333333  7.683525 19.9855555555556  7.8760125 19.9855555555556  C 8.497305 19.9855555555556  9 19.1558611111111  9 18.13125  L 9 1.90583333333333  Z " fill-rule="nonzero" fill="#006569" stroke="none" transform="matrix(1 0 0 1 650 278 )" />
  </g>
</svg>