<?xml version="1.0" encoding="utf-8"?>
<svg version="1.1" xmlns:xlink="http://www.w3.org/1999/xlink" width="22px" height="15px" xmlns="http://www.w3.org/2000/svg">
  <g transform="matrix(1 0 0 1 -623 -537 )">
    <path d="M 14.0410913584184 7.86798828125  C 13.3227240114796 7.62267578125  12.8078882334184 7.01466796875  12.8078882334184 6.278671875  C 12.8078882334184 5.55333984375  13.3227240114796 4.93466796875  14.0410913584184 4.6893359375  C 13.8734693877551 4.0919921875  13.6100884885204 3.52666015625  13.2628527582908 3.003984375  C 12.5564552774235 3.281328125  11.7063974808673 3.16400390625  11.1316904496173 2.6519921875  C 10.557005341199 2.14  10.4253148915816 1.38265625  10.7365971779337 0.75333984375  C 10.1421008234759 0.450750707089382  9.50629253812875 0.21771618825671  8.84489795918367 0.0600000000000008  C 8.56952527104592 0.700000000000001  7.87509765625 1.158671875  7.06094945790816 1.158671875  C 6.24680125956633 1.158671875  5.55237364477041 0.700000000000001  5.27700095663265 0.0600000000000008  C 4.60653499681122 0.209335937500001  3.97197863520408 0.443984375  3.38530173788265 0.75333984375  C 3.69660594706633 1.38267578125  3.56489357461735 2.14  2.99020846619898 2.6519921875  C 2.41552335778061 3.163984375  1.56544363839286 3.281328125  0.85904615752551 3.00400390625  C 0.511832350127551 3.52666015625  0.248429528061224 4.0919921875  0.0808075573979591 4.6893359375  C 0.799174904336735 4.9346484375  1.31401068239796 5.55333984375  1.31401068239796 6.278671875  C 1.31401068239796 7.00400390625  0.799174904336735 7.62267578125  0.0808075573979591 7.8680078125  C 0.248429528061224 8.46533203125  0.511832350127551 9.0306640625  0.859068080357143 9.55333984375  C 1.56542171556122 9.27599609375  2.41550143494898 9.39333984375  2.99018654336735 9.90533203125  C 3.56489357461735 10.41732421875  3.69660594706633 11.17466796875  3.38530173788265 11.80400390625  C 3.97195671237245 12.11333984375  4.60653499681122 12.3480078125  5.27702287946429 12.49732421875  C 5.55237364477041 11.85732421875  6.24680125956633 11.398671875  7.06094945790816 11.398671875  C 7.87509765625 11.398671875  8.56952527104592 11.85732421875  8.84489795918367 12.49732421875  C 9.5153639190051 12.3480078125  10.1499422034439 12.11333984375  10.7366191007653 11.80400390625  C 10.4253148915816 11.17466796875  10.557005341199 10.41732421875  11.1316904496173 9.90533203125  C 11.7063974808673 9.39333984375  12.5564552774235 9.27599609375  13.2628527582908 9.55333984375  C 13.6100665656888 9.03068359375  13.8734693877551 8.46533203125  14.0410913584184 7.86798828125  Z M 7.06094945790816 7.98533203125  C 6.00733816964286 7.98533203125  5.14531050701531 7.21732421875  5.14531050701531 6.278671875  C 5.14531050701531 5.34001953125  6.00733816964286 4.5719921875  7.06094945790816 4.5719921875  C 8.11456074617347 4.5719921875  8.97658840880102 5.34  8.97658840880102 6.278671875  C 8.97658840880102 7.21734375  8.11456074617347 7.98533203125  7.06097138073979 7.98533203125  Z M 14.9390505420918 2.3319921875  L 14.9390505420918 0.76400390625  L 21.919192442602 0.76400390625  L 21.919192442602 2.3319921875  L 14.9390505420918 2.3319921875  Z M 14.9390505420918 8.64666015625  L 14.9390505420918 7.07865234375  L 21.919192442602 7.07865234375  L 21.919192442602 8.64666015625  L 14.9390505420918 8.64666015625  Z M 3.62476482780612 15  L 3.62476482780612 13.393359375  L 21.919192442602 13.393359375  L 21.919192442602 15  L 3.62476482780612 15  Z " fill-rule="nonzero" fill="#7f7f7f" stroke="none" transform="matrix(1 0 0 1 623 537 )" />
  </g>
</svg>