<?xml version="1.0" encoding="utf-8"?>
<svg version="1.1" xmlns:xlink="http://www.w3.org/1999/xlink" width="19px" height="15px" xmlns="http://www.w3.org/2000/svg">
  <g transform="matrix(1 0 0 1 -1275 -111 )">
    <path d="M 18.05 8.4375  L 5.7 8.4375  C 5.17532948766075 8.4375  4.75 8.01776695296637  4.75 7.5  C 4.75 6.98223304703363  5.17532948766075 6.5625  5.7 6.5625  L 18.05 6.5625  C 18.5746705123393 6.5625  19 6.98223304703363  19 7.5  C 19 8.01776695296637  18.5746705123393 8.4375  18.05 8.4375  Z M 18.05 1.875  C 18.05 1.875  18.05 1.875  18.05 2  L 5.7 2  C 5.7 1.875  5.7 1.875  5.7 1.875  C 5.17532948766075 1.875  4.75 1.45526695296637  4.75 0.9375  C 4.75 0.419733047033631  5.17532948766075 0  5.7 0  L 18.05 0  C 18.5746705123393 0  19 0.419733047033631  19 0.9375  C 19 1.45526695296637  18.5746705123393 1.875  18.05 1.875  Z M 1.9 15  L 0.95 15  C 0.425329487660746 15  0 14.5802669529664  0 14.0625  C 0 13.5447330470336  0.425329487660746 13.125  0.95 13.125  L 1.9 13.125  C 2.42467051233925 13.125  2.85 13.5447330470336  2.85 14.0625  C 2.85 14.5802669529664  2.42467051233925 15  1.9 15  Z M 1.9 8.4375  L 0.95 8.4375  C 0.425329487660746 8.4375  0 8.01776695296637  0 7.5  C 0 6.98223304703363  0.425329487660746 6.5625  0.95 6.5625  L 1.9 6.5625  C 2.42467051233925 6.5625  2.85 6.98223304703363  2.85 7.5  C 2.85 8.01776695296637  2.42467051233925 8.4375  1.9 8.4375  Z M 1.9 1.875  L 0.95 1.875  C 0.425329487660746 1.875  0 1.45526695296637  0 0.9375  C 0 0.419733047033631  0.425329487660746 0  0.95 0  L 1.9 0  C 2.42467051233925 0  2.85 0.419733047033631  2.85 0.9375  C 2.85 1.45526695296637  2.42467051233925 1.875  1.9 1.875  Z M 5.7 13.125  C 5.7 13.125  5.7 13.125  5.7 13  L 18.05 13  C 18.05 13.125  18.05 13.125  18.05 13.125  C 18.5746705123393 13.125  19 13.5447330470336  19 14.0625  C 19 14.5802669529664  18.5746705123393 15  18.05 15  L 5.7 15  C 5.17532948766075 15  4.75 14.5802669529664  4.75 14.0625  C 4.75 13.5447330470336  5.17532948766075 13.125  5.7 13.125  Z " fill-rule="nonzero" fill="#ffffff" stroke="none" transform="matrix(1 0 0 1 1275 111 )" />
  </g>
</svg>