<?xml version="1.0" encoding="utf-8"?>
<svg version="1.1" xmlns:xlink="http://www.w3.org/1999/xlink" width="38px" height="36px" xmlns="http://www.w3.org/2000/svg">
  <g transform="matrix(1 0 0 1 -12 -334 )">
    <path d="M 36.3791166841594 12.2315337386642  C 38.5345559487589 10.1728977464798  38.5345559487589 6.84195068811304  36.3791166841594 4.78331469592862  L 33.0978630301263 1.63649873859091  C 32.062494290763 0.645248533259382  30.6547958130849 0.087909907373012  29.1865135578231 0.087909907373012  C 27.7182313025614 0.087909907373012  26.3105328248832 0.645248533259382  25.2751640855199 1.63649873859091  L 2.5203832361516 23.2340700821894  C 1.70449303842761 23.9783289650846  1.24835654562226 25.010817716596  1.26019163654033 26.0865795215143  L 1.26019163654033 33.3763258156673  L 1.0937512303207 33.3763258156673  L 0.356657992225462 34.0554947331409  C 0.132791248715961 34.2686447712958  0.0070242221953505 34.5577382589866  0.0070242221953505 34.8591779304687  C 0.0070242221953505 35.486893560192  0.541472836554565 35.9957576204123  1.20074861321672 35.9957576204123  C 1.51734401056358 35.9957576204123  1.8209724843001 35.8760111720434  2.04483923420797 35.6628611277964  L 2.73437803887269 35.0063311894751  L 10.7235173896987 35.0063311894751  C 11.8429057506217 35.0009593997193  12.913371910943 34.5688092906379  13.6956674480078 33.8064661031103  L 36.3791166841594 12.2315337386642  Z M 12.5305846413994 27.5128342235961  L 12.6019162546161 27.4222783773093  L 9.51088018658892 27.4222783773093  L 9.51088018658892 24.4112961894018  C 9.51088018658892 23.7861384697418  8.97860942383042 23.2793480053328  8.32202016326531 23.2793480053328  L 5.94430011661808 23.2793480053328  L 24.1100812789116 6.0510966494279  L 31.7663398172983 13.45403776902  L 13.719444664723 30.7049281040772  L 13.719444664723 28.6674213516562  C 13.7196031913249 28.6598759728956  13.7196824605717 28.6523292733113  13.7196824605717 28.6447823850216  C 13.7196824605717 28.0196246653617  13.1874116978132 27.5128342009526  12.5308224372481 27.5128342009526  Z M 10.8186262196307 32.8329906676238  L 3.63791168318756 32.8329906676238  L 3.63791168318756 26.0413015632096  C 3.60979401400739 25.8687685358439  3.60979401400739 25.6931384568455  3.63791168318756 25.5206054294798  L 7.13316013994169 25.5206054294798  L 7.13316013994169 28.6447824076652  C 7.13316013994169 29.2699401273251  7.66543090270019 29.7767305917342  8.32202016326531 29.7767305917342  L 11.4130562312925 29.7767305917342  L 11.4130562312925 32.7197958773459  C 11.2234205829112 32.7904346219952  11.0222092430834 32.828750445501  10.8186262196307 32.8329906676238  Z M 34.7147126588921 6.39068112574535  C 35.948261708916 7.56630831658378  35.948261708916 9.47117909716134  34.7147126588921 10.6468062879998  L 33.4545210592809 11.8693103183556  L 25.6793764742468 4.4663691987635  L 26.9633453275024 3.24386516840764  C 27.5531773720725 2.67421789945693  28.3582532427753 2.35350784714535  29.1984021661808 2.35350784714535  C 30.0385510895862 2.35350784714535  30.843626960289 2.67421789945693  31.4334590048591 3.24386516840764  L 34.7147126588921 6.39068112574535  Z " fill-rule="nonzero" fill="#0075a7" stroke="none" transform="matrix(1 0 0 1 12 334 )" />
  </g>
</svg>