<?xml version="1.0" encoding="utf-8"?>
<svg version="1.1" xmlns:xlink="http://www.w3.org/1999/xlink" width="28px" height="26px" xmlns="http://www.w3.org/2000/svg">
  <g transform="matrix(1 0 0 1 -66 -687 )">
    <path d="M 28 1.0740234375  C 27.942578125 0.492578125  27.409375 0.0203124999999999  26.753125 0  L 14.970703125 0  C 14.56875 0.0203125  14.21328125 0.198046875  13.997265625 0.4697265625  C 13.78125 0.2005859375  13.428515625 0.0228515625  13.0265625 0  L 1.246875 0  C 0.590625 0.0228515625  0.057421875 0.4951171875  0 1.0791015625  L 0 24.9259765625  C 0.057421875 25.507421875  0.590625 25.9822265625  1.246875 26  L 13.029296875 26  C 13.43125 25.9822265625  13.78671875 25.8044921875  14.002734375 25.5328125  C 14.21875 25.801953125  14.571484375 25.9796875  14.9734375 26  L 26.755859375 26  C 27.412109375 25.9796875  27.9453125 25.507421875  28 24.9234375  L 28 1.0740234375  Z M 11.541796875 1.9322265625  L 11.541796875 1.04609375  L 12.53984375 1.04609375  L 12.53984375 1.9322265625  L 11.541796875 1.9322265625  Z M 9.8109375 1.9322265625  L 9.8109375 1.04609375  L 10.808984375 1.04609375  L 10.808984375 1.9322265625  L 9.8109375 1.9322265625  Z M 8.080078125 1.04609375  L 8.07734375 1.04609375  L 9.078125 1.04609375  L 9.078125 1.9322265625  L 8.080078125 1.9322265625  L 8.080078125 1.04609375  Z M 13 3.0265625  L 13 24.0830078125  C 13.023828125 24.3419921875  12.788671875 24.552734375  12.49609375 24.552734375  L 2.190234375 24.552734375  C 1.89765625 24.552734375  1.6625 24.3419921875  2 24.0830078125  L 2 3.0265625  C 1.6625 2.767578125  1.89765625 2.5568359375  2.190234375 3  L 12.49609375 3  C 12.788671875 2.5568359375  13.023828125 2.767578125  13 3.0265625  Z M 24.852734375 1.9296875  L 24.852734375 1.0435546875  L 25.85078125 1.0435546875  L 25.85078125 1.9296875  L 24.852734375 1.9296875  Z M 23.119140625 1.9296875  L 23.119140625 1.0435546875  L 24.1171875 1.0435546875  L 24.1171875 1.9296875  L 23.119140625 1.9296875  Z M 21.38828125 1.9296875  L 21.38828125 1.0435546875  L 22.386328125 1.0435546875  L 22.386328125 1.9296875  L 21.38828125 1.9296875  Z M 26 3.021484375  L 26 24.0779296875  C 26.334765625 24.3369140625  26.099609375 24.54765625  25.80703125 24.54765625  L 15.501171875 24.54765625  C 15.20859375 24.54765625  14.9734375 24.3369140625  15 24.0779296875  L 15 3.021484375  C 14.9734375 2.7625  15.20859375 2.5517578125  15.501171875 3  L 25.80703125 3  C 26.099609375 2.5517578125  26.334765625 2.7625  26 3.021484375  Z " fill-rule="nonzero" fill="#000080" stroke="none" transform="matrix(1 0 0 1 66 687 )" />
  </g>
</svg>