<?xml version="1.0" encoding="utf-8"?>
<svg version="1.1" xmlns:xlink="http://www.w3.org/1999/xlink" width="19px" height="4px" xmlns="http://www.w3.org/2000/svg">
  <g transform="matrix(1 0 0 1 -70 -765 )">
    <path d="M 3.50500660211268 2.16145833333333  C 3.50500660211268 2.16471354166667  3.50239326584507 2.16796875  3.49977992957746 2.16796875  L 0.128576144366197 2.16796875  C 0.123349471830985 2.16796875  0.120736135563379 2.16634114583333  0.120736135563379 2.1630859375  L 0.120736135563379 0.0634765625  C 0.120736135563379 0.060221354166667  0.123349471830985 0.0585937499999997  0.128576144366197 0.0585937499999997  L 3.49716659330986 0.0585937499999997  C 3.50239326584507 0.0585937499999997  3.50500660211268 0.0602213541666664  3.50500660211268 0.0634765625  L 3.50500660211268 2.16145833333333  Z M 18.8792638644366 2.15983072916667  C 18.8792638644366 2.16471354166667  18.8740371919014 2.16796875  18.8661971830986 2.16796875  L 4.77508802816901 2.16796875  C 4.7698613556338 2.16796875  4.76202134683099 2.16471354166667  4.76202134683099 2.15983072916667  L 4.76202134683099 1.4111328125  C 4.76202134683099 1.40787760416667  4.7672480193662 1.40299479166667  4.77508802816901 1.40299479166667  L 18.8661971830986 1.40299479166667  C 18.8714238556338 1.40299479166667  18.8792638644366 1.40625  18.8792638644366 1.4111328125  L 18.8792638644366 2.15983072916667  Z M 18.8792638644366 3.9599609375  C 18.8792638644366 3.96484375  18.8740371919014 3.96809895833333  18.8661971830986 4  L 0.165162852112677 4  C 0.159936179577465 3.96809895833333  0.152096170774648 3.96484375  0.152096170774648 3.9599609375  L 0.152096170774648 3.21126302083333  C 0.152096170774648 3.2080078125  0.157322843309859 3.203125  0.165162852112677 3.203125  L 18.8661971830986 3.203125  C 18.8714238556338 3.203125  18.8792638644366 3.20638020833333  18.8792638644366 3.21126302083333  L 18.8792638644366 3.9599609375  Z " fill-rule="nonzero" fill="#000080" stroke="none" transform="matrix(1 0 0 1 70 765 )" />
  </g>
</svg>