<?xml version="1.0" encoding="utf-8"?>
<svg version="1.1" xmlns:xlink="http://www.w3.org/1999/xlink" width="28px" height="28px" xmlns="http://www.w3.org/2000/svg">
  <g transform="matrix(1 0 0 1 -66 -800 )">
    <path d="M 14 28  C 21.731818171875 28  28 21.731818171875  28 14  C 28 6.268181828125  21.731818171875 0  14 0  C 6.268181828125 0  0 6.268181828125  0 14  C 0 21.731818171875  6.268181828125 28  14 28  Z M 19.0909090859375 14  C 19.0909090859375 12.5936363710937  20.23 11.4545454570312  21.6363636289063 11.4545454570312  C 23.0414545429688 11.4545454570312  24.181818171875 12.5949090859375  24.181818171875 14  C 24.181818171875 15.4050909140625  23.0414545429688 16.5454545429687  21.6363636289063 16.5454545429687  C 20.23 16.5454545429687  19.0909090859375 15.4063636289063  19.0909090859375 14  Z M 8.9090909140625 14  C 8.9090909140625 15.4050909140625  7.76872728515625 16.5454545429687  6.36363637109375 16.5454545429687  C 4.9572727421875 16.5454545429687  3.818181828125 15.4063636289063  3.818181828125 14  C 3.818181828125 12.5936363710937  4.9572727421875 11.4545454570312  6.36363637109375 11.4545454570312  C 7.76872728515625 11.4545454570312  8.9090909140625 12.5949090859375  8.9090909140625 14  Z M 14 16.5454545429687  C 12.5936363710937 16.5454545429687  11.4545454570312 15.4063636289063  11.4545454570312 14  C 11.4545454570312 12.5936363710937  12.5936363710937 11.4545454570312  14 11.4545454570312  C 15.4050909140625 11.4545454570312  16.5454545429687 12.5949090859375  16.5454545429687 14  C 16.5454545429687 15.4050909140625  15.4050909140625 16.5454545429687  14 16.5454545429687  Z " fill-rule="nonzero" fill="#000080" stroke="none" transform="matrix(1 0 0 1 66 800 )" />
  </g>
</svg>