<?xml version="1.0" encoding="utf-8"?>
<svg version="1.1" xmlns:xlink="http://www.w3.org/1999/xlink" width="28px" height="26px" xmlns="http://www.w3.org/2000/svg">
  <g transform="matrix(1 0 0 1 -67 -522 )">
    <path d="M 3.11111109895833 11.5555555442708  L 3.11111109895833 14.4444444557292  L 0 14.4444444557292  L 0 11.5555555442708  L 3.11111109895833 11.5555555442708  Z M 24.6213333333333 0  C 25.480442950893 0  26.1768889010417 0.646699810852306  26.1768889010417 1.44444445572916  C 26.1771147949481 1.91630146423787  25.9291268379428 2.35851483374895  25.5126666666667 2.62888887760417  L 14.8913333333333 9.53188887760416  C 14.3560399079709 9.879411870685  13.6439600920291 9.879411870685  13.1086666666667 9.53188887760416  L 2.48733333333334 2.62744445572917  C 2.0717911302746 2.35710981891443  1.82434478144651 1.91558010888236  1.82434478144651 1.4444440014669  C 1.82434478144651 0.647146689814929  2.52003906260917 0.000632321822295883  3.37866666666667 0  L 24.6213333333333 0  Z M 25.5126666666667 23.3725555442708  C 25.9286764421081 23.6426371434602  26.1766069347174 24.0842088909535  26.1768889010417 24.5555555442708  C 26.1766922230915 25.2883427900549  25.5856058687817 25.9048855836003  24.801777765625 25.9898888776042  L 24.6213333333333 26  L 3.37866666666667 26  C 2.52053329333539 25.9987206915225  1.82560851064007 25.3523965651761  1.82560851064007 24.555557405845  C 1.82560851064007 24.1485466755647  2.01053209858637 23.7604243085214  2.33488890104167 23.4866666666667  L 2.48733333333333 23.3711111223958  L 13.1086666666667 16.4681111223958  C 13.5802458510692 16.161910628352  14.1953427222291 16.1224627030229  14.707777765625 16.3655555442708  L 14.8913333333333 16.4681111223958  L 25.5126666666667 23.3725555442708  Z M 9.33333333333333 11.5555555442708  L 9.33333333333333 14.4444444557292  L 6.222222234375 14.4444444557292  L 6.222222234375 11.5555555442708  L 9.33333333333333 11.5555555442708  Z M 21.0326666666667 2.314  L 21.0326666666667 2.31111112239583  L 6.53333333333333 2.31111112239583  L 14 7.0402222109375  L 21.0326666666667 2.314  Z M 15.5555555677083 11.5555555442708  L 15.5555555677083 14.4444444557292  L 12.4444444322917 14.4444444557292  L 12.4444444322917 11.5555555442708  L 15.5555555677083 11.5555555442708  Z M 21.777777765625 11.5555555442708  L 21.777777765625 14.4444444557292  L 18.6666666666667 14.4444444557292  L 18.6666666666667 11.5555555442708  L 21.777777765625 11.5555555442708  Z M 28 11.5555555442708  L 28 14.4444444557292  L 24.8888889010417 14.4444444557292  L 24.8888889010417 11.5555555442708  L 28 11.5555555442708  Z " fill-rule="nonzero" fill="#000080" stroke="none" transform="matrix(1 0 0 1 67 522 )" />
  </g>
</svg>