<?xml version="1.0" encoding="utf-8"?>
<svg version="1.1" xmlns:xlink="http://www.w3.org/1999/xlink" width="28px" height="26px" xmlns="http://www.w3.org/2000/svg">
  <g transform="matrix(1 0 0 1 -67 -565 )">
    <path d="M 12.4444444322917 23.1111111223958  L 15.5555555677083 23.1111111223958  L 15.5555555677083 26  L 12.4444444322917 26  L 12.4444444322917 23.1111111223958  Z M 0 3.13733333333334  C 0 2.33958868845648  0.696445950148638 1.69288887760417  1.55555556770833 1.69288887760417  C 2.06370926917925 1.69267911897678  2.53993905172964 1.92295365048174  2.83111109895833 2.30966666666667  L 10.2651110989583 12.1723333333333  C 10.6393666299685 12.669391514027  10.6393666299685 13.330608485973  10.2651110989583 13.8276666666667  L 2.82955556770833 23.6903333333333  C 2.53842595883092 24.0761939504593  2.06293242495024 24.3059655600854  1.55555507850282 24.3059655600854  C 0.696927204416077 24.3059655600854  0.00068096196247249 23.6599637275772  0 22.8626666666667  L 0 3.13733333333334  Z M 25.1704444322917 2.30966666666667  C 25.4613015391109 1.92337187518536  25.9368403441038 1.69315070347666  26.4444444322917 1.69288887760417  C 27.2335999277514 1.69307150712931  27.8975690900311 2.24193740755989  27.9891110989583 2.9697777890625  L 28 3.13733333333334  L 28 22.8626666666667  C 27.9986222831781 23.6595047990457  27.3025809163435 24.3047920972628  26.4444464370639 24.3047920972628  C 26.0061271890697 24.3047920972628  25.5881492553307 24.1330773370269  25.2933333333333 23.8318888776042  L 25.1688889010417 23.6903333333333  L 17.7348889010417 13.8276666666667  C 17.4051345228406 13.3897717097214  17.3626521417169 12.8186103293587  17.6244444322917 12.3427777890625  L 17.7348889010417 12.1723333333333  L 25.1704444322917 2.30966666666667  Z M 12.4444444322917 17.3333333333333  L 15.5555555677083 17.3333333333333  L 15.5555555677083 20.2222222109375  L 12.4444444322917 20.2222222109375  L 12.4444444322917 17.3333333333333  Z M 2.49044443229167 6.46966666666667  L 3 6.46966666666667  L 3 19.9333333333333  L 7.581777765625 13  L 2.49044443229167 6.46966666666667  Z M 12.4444444322917 11.5555555442708  L 15.5555555677083 11.5555555442708  L 15.5555555677083 14.4444444557292  L 12.4444444322917 14.4444444557292  L 12.4444444322917 11.5555555442708  Z M 12.4444444322917 5.7777777890625  L 15.5555555677083 5.7777777890625  L 15.5555555677083 8.66666666666666  L 12.4444444322917 8.66666666666666  L 12.4444444322917 5.7777777890625  Z M 12.4444444322917 0  L 15.5555555677083 0  L 15.5555555677083 2.88888887760417  L 12.4444444322917 2.88888887760417  L 12.4444444322917 0  Z " fill-rule="nonzero" fill="#000080" stroke="none" transform="matrix(1 0 0 1 67 565 )" />
  </g>
</svg>