<?xml version="1.0" encoding="utf-8"?>
<svg version="1.1" xmlns:xlink="http://www.w3.org/1999/xlink" width="28px" height="26px" xmlns="http://www.w3.org/2000/svg">
  <g transform="matrix(1 0 0 1 -65 -457 )">
    <path d="M 27.4176694572584 25.4120533332349  C 28.052336123819 24.8222040309093  28.0486896121911 23.8648880618187  27.4108973642351 23.2711689923465  L 23.4539113177235 19.5984372093023  C 25.1780862014444 17.5441389146303  26.2161612400981 14.9701631006768  26.2161612404161 12.1704508528116  C 26.2161612404161 5.48774945746275  20.3597941087391 0.0516291474836485  13.1623441860465 0.0516291471884086  C 5.96402604651163 0.0516291471884086  0.108527131676961 5.48774945716751  0.108527131676961 12.1704508528116  C 0.108527131676961 18.8523460465116  5.96402604651163 24.2889500777162  13.1623441860465 24.288950077421  C 16.1741196898165 24.288950077421  18.9433500776254 23.3282480618187  21.1537265116279 21.7307758139535  L 25.1115807752998 25.40512  C 25.7504496125091 25.997871627907  26.7829680622275 26.0007739534884  27.4176694572584 25.4120533332349  Z M 13.1623441860465 21.9807305425372  C 7.33532279069768 21.9807305425372  2.5948576744186 17.5798052714162  2.5948576744186 12.1702896123047  C 2.5948576744186 6.76077395348837  7.33535751948583 2.35988093023256  13.1623441860465 2.35988093023256  C 18.9893308526072 2.35988093023256  23.7296570543696 6.7608062016488  23.7296570543696 12.1702896123047  C 23.7296570543696 17.5797730229606  18.9893655813953 21.9807305425372  13.1623441860465 21.9807305425372  Z M 18.7568570543696 12.1709345737418  C 18.7568570543696 11.5331968993232  18.2209587599019 11.0162604651163  17.5609054264626 11.0162604651163  L 8.76326201539789 11.0162604651163  C 8.10303503865371 11.0162604651163  7.56786604651163 11.5332291471884  7.56786604651163 12.1709345737418  C 7.56786604651163 12.8085110079488  8.10237519390443 13.3249637209302  8.76326201539789 13.3249637209302  L 17.5609401549328 13.3249637209302  C 18.2209934883721 13.3249637209302  18.7568570540516 12.8083175192814  18.7568570543696 12.1709345737418  Z " fill-rule="nonzero" fill="#000080" stroke="none" transform="matrix(1 0 0 1 65 457 )" />
  </g>
</svg>