<?xml version="1.0" encoding="utf-8"?>
<svg version="1.1" xmlns:xlink="http://www.w3.org/1999/xlink" width="10px" height="10px" xmlns="http://www.w3.org/2000/svg">
  <g transform="matrix(1 0 0 1 -83 -394 )">
    <path d="M 8.19709141954147 9.95943390269491  C 8.18196478843022 9.95943390269491  8.16683884372332 9.9592244526742  8.15171770309745 9.95880560965055  C 7.71226256095929 9.96151888598848  7.28918089175234 9.78758530310494  6.9727754151425 9.47412931407552  L 0.55596094634069 3.034858812074  C 0.22317174651074 2.70697857023082  0.0350104562066844 2.25369960337878  0.0350104562066844 1.77989345991561  C 0.0350104562066844 0.819770118735445  0.792308161527586 0.0414363660445203  1.7264822232164 0.0414363660445203  C 2.16272007254092 0.0414363660445203  2.58209012769284 0.214660007846873  2.89700350009211 0.52492810775722  L 9.34750201321087 6.96419860975874  C 9.68802373812758 7.29151191680125  9.88129468804854 7.74925991416986  9.88129468804854 8.22844721006265  C 9.88129468804854 9.18444476256349  9.1272512003531 9.95943390269491  8.19709141954147 9.95943390269491  Z " fill-rule="nonzero" fill="#000080" stroke="none" transform="matrix(1 0 0 1 83 394 )" />
  </g>
</svg>