<?xml version="1.0" encoding="utf-8"?>
<svg version="1.1" xmlns:xlink="http://www.w3.org/1999/xlink" width="38px" height="38px" xmlns="http://www.w3.org/2000/svg">
  <g transform="matrix(1 0 0 1 -12 -655 )">
    <path d="M 37.8113145211443 18.99888671875  C 37.8109452736318 13.7935546875  35.7457439365672 9.0851171875  32.3494053171642 5.6525  L 32.2770328047264 5.579765625  C 28.8585393345771 2.13564453125  24.1402946206468 0.0200390625  18.9368586753731 0  L 18.8748250932836 0  C 13.7116371268657 0.0200390625  9.02477845149254 2.10484375  5.61699315920398 5.47623046875  L 5.53502021144279 5.579765625  C 2.10729555348259 9.00162109375  0 13.75236328125  0 18.99888671875  C 0 24.247265625  2.10692630597015 28.997265625  5.53502021144279 32.44138671875  C 8.96311411691542 35.8632421875  13.6706506529851 37.989609375  18.875194340796 38  L 18.9372279228856 38  C 24.1406638681592 37.989609375  28.8589085820896 35.8632421875  32.2774020522388 32.44138671875  C 35.7054959577114 28.997265625  37.8113145211443 24.24763671875  37.8113145211443 18.99888671875  Z M 18 2.9865625  L 18 35.01232421875  C 13.608986318408 34.66015625  10.1609530472637 32.9590625  7.5898826181592 30.36623046875  L 7.57843594527363 30.36623046875  L 7.5898826181592 30.36623046875  C 4.7090135261194 27.46279296875  2.90191620024876 23.43865234375  2.90191620024876 18.99888671875  C 2.90191620024876 14.56134765625  4.70864427860697 10.55724609375  7.58951337064677 7.63265625  L 7.6611473880597 7.57142578125  C 10.2218788868159 5.01978515625  13.6507112873134 3.33873046875  18 2.9865625  Z M 20.3617848258706 5.41314453125  L 20.3617848258706 2.9865625  C 21.0633550995025 3.0696875  21.7656638681592 3.16283203125  22.4373250932836 3.31869140625  L 20.3617848258706 5.41314453125  Z M 20.3617848258706 10.47486328125  L 20.3617848258706 7.892421875  L 24.3470732276119 3.878671875  C 24.9674090485075 4.107265625  25.5659592661692 4.36591796875  26.1331234452736 4.66650390625  L 20.3617848258706 10.47486328125  Z M 20.3617848258706 15.53658203125  L 20.3617848258706 12.94263671875  L 27.713133550995 5.579765625  C 28.2297108208955 5.91078125  28.7053016169154 6.28521484375  29.1694457400497 6.6796875  L 20.3617848258706 15.53658203125  Z M 20.3617848258706 20.59681640625  L 20.3617848258706 18.024765625  L 30.4595965485075 7.8723828125  C 30.8827541977612 8.3184375  31.2859724813433 8.77302734375  31.6470965485075 9.27177734375  L 20.3617848258706 20.59681640625  Z M 20.3617848258706 25.65853515625  L 20.3617848258706 23.074609375  L 32.6285564365672 10.7446484375  C 32.9793415733831 11.2834765625  33.2680931281095 11.85421875  33.5165967039801 12.44462890625  L 20.3617848258706 25.65853515625  Z M 20.3617848258706 30.7183984375  L 20.3617848258706 28.12630859375  L 34.1974891169154 14.25037109375  C 34.4031599813433 14.91388671875  34.5700598569652 15.6193359375  34.693019278607 16.32478515625  L 20.3617848258706 30.7183984375  Z M 33.8773515236318 24.6829296875  C 33.0727611940299 26.8293359375  31.8121501865672 28.7694140625  30.212939210199 30.36623046875  C 28.6318213619403 31.9637890625  26.701026119403 33.22921875  24.5542210820896 34.03708984375  L 33.8773515236318 24.6829296875  Z M 34.7351134950249 21.34345703125  L 21.2394861629353 34.90916015625  C 20.950734608209 34.9503515625  20.6516441231343 34.98189453125  20.3617848258706 35.0126953125  L 20.3617848258706 33.2084375  L 34.8997978855721 18.59513671875  L 34.8997978855721 18.9992578125  C 34.8997978855721 19.79859375  34.847364738806 20.57677734375  34.7351134950249 21.34345703125  Z " fill-rule="nonzero" fill="#0075a7" stroke="none" transform="matrix(1 0 0 1 12 655 )" />
  </g>
</svg>