<?xml version="1.0" encoding="utf-8"?>
<svg version="1.1" xmlns:xlink="http://www.w3.org/1999/xlink" width="38px" height="40px" xmlns="http://www.w3.org/2000/svg">
  <g transform="matrix(1 0 0 1 -12 -573 )">
    <path d="M 9.7326151434776 38.1731843444483  L 22.307260218899 39.6815642327165  C 26.0056832146022 40.4785167855838  29.9131026500007 39.7036431860197  32.8714793700088 37.586592178771  C 37.9264247533478 34.0137217991417  39.3286667954807 27.7402973514145  36.1905787637083 22.7374301545042  L 29.7230765157948 14.8603351955308  C 29.0095291791645 13.9909498527271  27.8677623378682 13.4763395756292  26.6524026920723 13.4763395756292  C 25.7729613821231 13.4763395756292  24.9208446499312 13.7463649530629  24.2418209997331 14.2402234505936  C 23.7988960473052 14.5547004403447  23.436829988507 14.9489170173283  23.1797091688561 15.3966480315991  C 21.8484269831536 14.0225236513863  19.5234486971442 13.8296830461453  17.9260490387748 14.9608938547487  C 17.3998744033127 15.3336997728631  16.988856479712 15.8179674848672  16.7311732623773 16.3687150837989  C 15.3670742200966 15.6245073552148  13.6208078872454 15.7184357001603  12.3689283347833 16.6033519422137  C 11.9260033984478 16.9178289360348  11.563937355076 17.3120455127209  11.3068165483585 17.7597765232193  L 8.51877307009762 14.4078212290503  C 7.80684986270675 13.5261086364643  6.6566575794098 13.0027249882435  5.43092181803848 13.0027249882435  C 4.55910027996756 13.0027249882435  3.71388795235191 13.268099059079  3.03751750958364 13.7541899441341  C 1.3162515340815 14.9911181620796  0.998904327521428 17.2050200122859  2.31679880212957 18.7821229050279  L 12.6154900177462 31.1005586592179  L 10.7188617864248 30.8826815511522  C 9.68404190678673 30.7678250322554  8.64135759876896 31.0345403511133  7.83598691215613 31.6201117449371  C 6.8481478219895 32.3265298581838  6.27420459999889 33.3894066344107  6.27420459999889 34.5123527986019  C 6.27420459999889 36.3108723661932  7.73004518037813 37.8519233939336  9.7326151434776 38.1731843444483  Z M 34.7491413043478 11.1229050148393  C 35.1114324948485 10.5516147831401  34.9320526566302 9.83110987875595  34.3318830818995 9.44692738739529  C 26.4286085249307 5.29156072968287  17.2413385462477 3.44966069610715  8.08254859511913 4.18435752880593  C 7.31047676095546 4.26333390278827  6.75307703582037 4.87529341189778  6.83077397222649 5.55865921787715  C 6.87895156005791 6.21086640545279  7.49165419575231 6.71809926034454  8.23129833317513 6.71809926034454  C 16.7688608995903 6.05232884198737  25.4291469793257 7.72291774856164  32.8525130730265 11.5083799013617  C 33.0714934085778 11.6379316289867  33.3286780417791 11.707859075754  33.592198077463 11.7094972197974  C 34.067032342472 11.705020487148  34.5051423989593 11.4828903617648  34.7491413043478 11.1229050148393  Z M 0.406592788973752 6.89655173760775  C 0.496603906383744 7.01098819402932  0.606090561275303 7.11007593038175  0.730456425337325 7.1896551724138  L 7.33367613636364 11.6206896417026  C 7.54444583003052 11.7633407755998  7.79535664788164 11.8414828773962  8.05337312011717 11.8448275862068  C 8.78167226356931 11.8354602560354  9.36694326392559 11.2670415759615  9.36694326392559 10.5690804419379  C 9.37302014167057 10.13833179048  9.15764172467544 9.7148814733755  8.79106249999998 9.46551724137938  L 3.73519130193534 6.08620688308186  L 8.71909278897375 2.34482759967674  C 9.30269718432715 1.89989640373021  9.41403367206918 1.09210798054967  8.97098675648082 0.517241379310387  C 8.73055642785747 0.200861773996773  8.34675071410206 0.0137202320296031  7.93832297006777 0.0137202320296031  C 7.66187486203548 0.0137202320296031  7.39288634738477 0.0996545457126861  7.17174431818181 0.258620689655193  L 0.65848675648082 5.17241379310341  C 0.138109022745925 5.60678957870884  0.0307051614046178 6.34193649213997  0.406592788973752 6.89655173760775  Z M 28.0350774179237 16.0670391061452  L 33.7249620674356 22.770949733764  L 33.895658606921 23.0055865921787  C 37.0409585215597 27.2032235236587  35.9998030056986 32.8329261313599  31.505907054126 35.9273743016759  C 29.0677643993029 37.6583670042946  25.8520900115012 38.278796746818  22.8193498373551 37.6033519684009  L 10.1309070689434 36.0782122905028  C 9.25492110694555 35.9562037284763  8.60964341047502 35.2890818319753  8.60964341047502 34.5054502030069  C 8.60964341047502 34.0403912655841  8.83974400590085 33.5985791378442  9.23949177755169 33.2960893723813  C 9.59442244410486 33.0382286228326  10.0549542607348 32.9228236791472  10.5102326974268 32.9776536443784  L 17.8312175983148 33.8659217877095  L 4.13756188997336 17.5083798751746  C 3.6011764028045 16.8594972370749  3.73462591330785 15.9529548626644  4.4410224194314 15.4469273612081  C 4.72018899902718 15.2494944050339  5.06710148904011 15.1419264767951  5.42466706147535 15.1419264767951  C 5.92844922751326 15.1419264767951  6.40180055816613 15.3549914545448  6.69800998225376 15.7150837988826  L 11.6482096273292 21.5642458231494  L 13.5448378586506 20.2737430036662  C 12.9857818653364 19.646155176538  13.0772605169724 18.7422596685101  13.7534669476486 18.2122904896998  C 14.0326335272444 18.0148575335255  14.3795460172573 17.9072896052867  14.7371115896926 17.9072896052867  C 15.2408937557305 17.9072896052867  15.7142450863833 18.1203545830366  16.010454510471 18.4804469273743  L 17.2053302868685 19.9050279460545  L 19.1019585181899 18.6145251265712  C 18.565573031021 17.9656424884715  18.6990225415244 17.059100114061  19.4054190476479 16.5530726126047  C 19.6845856272437 16.3556396564306  20.0314981172566 16.2480717281916  20.3890636896918 16.2480717281916  C 20.8928458557298 16.2480717281916  21.3661971863826 16.4611367059415  21.6624066104703 16.8212290502793  L 23.5590348417916 19.1675977522696  L 25.4556630286608 17.877094972067  C 24.919277541492 17.2282123339673  25.0527270519953 16.3216699595569  25.7591235581189 15.8156424581005  C 26.0425033131243 15.6134656088811  26.395720879017 15.5031919291137  26.7599336838295 15.5031919291137  C 27.261752542888 15.5031919291137  27.7342422784048 15.7121189672383  28.0350774179237 16.0670391061452  Z " fill-rule="nonzero" fill="#39bbdb" stroke="none" transform="matrix(1 0 0 1 12 573 )" />
  </g>
</svg>