<?xml version="1.0" encoding="utf-8"?>
<svg version="1.1" xmlns:xlink="http://www.w3.org/1999/xlink" width="10px" height="10px" xmlns="http://www.w3.org/2000/svg">
  <g transform="matrix(1 0 0 1 -1360 -112 )">
    <path d="M 4.62811021874997 7.59365079687495  C 6.59178933021836 7.59365079687495  8.18366577604166 6.11547981146759  8.18366577604166 4.29206349367558  C 8.18366577604166 2.46864717588358  6.59178933021836 0.990476190476159  4.62811021874997 0.990476190476159  C 2.66443110728163 0.990476190476159  1.07255466145836 2.46864717588358  1.07255466145836 4.29206349367558  C 1.07255466145836 6.11547981146759  2.66443110728163 7.59365079687495  4.62811021874997 7.59365079687495  Z M 8.22135466666667 6.99144127306545  L 9.89033244791664 8.54120634598212  C 10.0291349214244 8.67013328107714  10.0291349214244 8.87912386177999  9.89033244791664 9.00805079687501  L 9.63859911458327 9.24114285714285  C 9.49975472294256 9.37003086825712  9.27468794372418 9.37003086825712  9.1358435520833 9.24114285714285  L 7.4597546666667 7.68477460639883  C 6.64945742394435 8.26794166151001  5.65336569458901 8.58441914216075  4.62818358745545 8.58441914216075  C 2.07540074571079 8.58441914216075  0.00596136870547702 6.66279686351294  0.00596136870547702 4.29235565332147  C 0.00596136870547702 1.92191444312999  2.07540074571079 0.000292164482175394  4.62818358745545 0.000292164482175394  C 7.18096642920017 0.000292164482175394  9.25040580620545 1.92191444312999  9.25040580620545 4.29235565332147  C 9.25040580620545 5.27482237033558  8.88742021302347 6.22755120608645  8.22206578125007 6.99144127306545  Z " fill-rule="nonzero" fill="#d7d7d7" stroke="none" transform="matrix(1 0 0 1 1360 112 )" />
  </g>
</svg>