<?xml version="1.0" encoding="utf-8"?>
<svg version="1.1" xmlns:xlink="http://www.w3.org/1999/xlink" width="30px" height="30px" xmlns="http://www.w3.org/2000/svg">
  <g transform="matrix(1 0 0 1 -969 -97 )">
    <path d="M 27.2659117623731 15.0058570847874  L 27.2635689046637 15.0058570847874  C 27.265309310529 13.3163984740342  28.3089746536565 11.8030837330058  29.887543930441 11.201093313769  C 29.528003928568 9.78507101859003  28.9670293379698 8.42800168286295  28.2217883684962 7.17141740363261  C 27.6976953652018 7.4066734727609  27.1297318892189 7.52830193175108  26.5552591795417 7.52830193175108  C 24.3077341232322 7.52830193175108  22.4857550750049 5.70632288352377  22.4857550750049 3.45879782721428  C 22.4857550750049 2.88432512512171  22.6073835307842 2.31636165646382  22.8426395939086 1.79226865878807  C 21.5850373151454 1.04684477882436  20.227283270377 0.485124329721765  18.8106208558058 0.124170239133883  C 18.2075317880995 1.70187644206131  16.6948993686222 2.74507121859981  15.0058570847874 2.74814526491117  C 13.3163984740342 2.74640485904591  11.8030837330058 1.70273951591836  11.201093313769 0.124170239133883  C 9.78507101859003 0.48371024100686  8.42800168286295 1.04468483160504  7.17141740363261 1.78992580107868  C 7.86245773693059 3.33097152358112  7.53168903446746 5.13855260049751  6.3397110366434 6.33502538071066  C 5.1097227553934 7.56501366196066  3.29402575745558 7.83678250912119  1.79461148675444 7.17141740363261  C 1.04645298050722 8.42709346104942  0.48381643214847 9.78436534853012  0.124170239133884 11.201093313769  C 1.65404139236992 11.793830514356  2.74814523516815 13.267473647684  2.74814526491117 15.0058570847874  C 2.74640485904591 16.6953156955406  1.70273951591836 18.2086304365691  0.124170239133884 18.8106208558058  C 0.487309644670051 20.2444357649905  1.05427567814086 21.5985943151174  1.78992580107868 22.8402967659423  C 2.31437973430648 22.6046547676549  2.88281387298288 22.4828199026987  3.45777394067016 22.4828199026987  C 5.70529899697966 22.4828199026987  7.52727804520696 24.304798950926  7.52727804520696 26.5523240072355  C 7.52727804520696 27.1278813944927  7.4051899649627 27.6968923512092  7.16907457566624 28.2217883684962  C 8.42667685609314 28.9672122381052  9.78443090078911 29.5289326771621  11.201093313769 29.8898867584074  C 11.8041823911201 28.3121805671819  13.3168148084309 27.2689858039622  15.0058570847874 27.2659117623731  C 16.6953156880527 27.267652163528  18.2086304269075 28.3113174933264  18.8106208558058 29.8898867584074  C 20.2267689657006 29.5296110459739  21.583844047568 28.967845085253  22.8402967659423 28.2217883684962  C 22.1492564326443 26.6807426459937  22.4800251351074 24.8731615690774  23.6720031329315 23.6766887888642  C 24.9019914141815 22.4467005076142  26.7176884121193 22.1749316604537  28.2171026828204 22.8402967659423  C 28.957438491434 21.5985943151174  29.5244045249048 20.2444357649905  29.8898867584074 18.8106208558058  C 28.3113174933264 18.2086304269075  27.267652163528 16.6953156880527  27.2659117623731 15.0058570847874  Z M 15.0070284987706 19.0917612123987  C 15.0066380274303 19.0917612123987  15.0062475561117 19.0917611564574  15.0058570847874 19.0917610445749  C 12.7484381823975 19.0911142215709  10.918781543193 17.2609332518788  10.918781543193 15.0035142568211  C 10.918781543193 12.7456378097134  12.7491520516629 10.9152673012434  15.0070284987706 10.9152673012434  C 15.0074189701025 10.9152673012434  15.007809441438 10.9152673571847  15.0081999127538 10.9152674690673  C 17.2656188151438 10.9159142920712  19.0952754543483 12.7460952617633  19.0952754543483 15.0035142568211  C 19.0952754543483 17.2613907039288  17.2649049458783 19.0917612123987  15.0070284987706 19.0917612123987  Z " fill-rule="nonzero" fill="#58d0ef" stroke="none" transform="matrix(1 0 0 1 969 97 )" />
  </g>
</svg>