<?xml version="1.0" encoding="utf-8"?>
<svg version="1.1" xmlns:xlink="http://www.w3.org/1999/xlink" width="38px" height="30px" xmlns="http://www.w3.org/2000/svg">
  <g transform="matrix(1 0 0 1 -837 -97 )">
    <path d="M 12 22.3073962264151  C 11.538548 23.4349433962264  10.727552 24.2403018867924  9.754296 24.2402264150943  L 6.51016 24.2402264150943  C 5.536904 24.2402264150943  4.563724 23.4347924528302  5 22.3073962264151  L 5 7.32701886792452  C 4.563724 6.36052830188679  5.37472 5.39411320754717  6.51016 5.39411320754717  L 9.754296 5.39411320754717  C 10.727476 5.39411320754717  11.700732 6.19947169811321  12 7.32701886792452  L 12 22.3073962264151  Z M 22.0818 22.3073962264151  C 22.081876 23.4349433962264  21.27088 24.2403018867924  20.135364 24.2402264150943  L 16.891304 24.2402264150943  C 15.918124 24.2402264150943  14.944792 23.4347924528302  14.944792 22.3073962264151  L 14.944792 12.9647547169811  C 14.944792 11.9983396226415  15.755864 11.0318490566038  16.891304 11.0318490566038  L 20.13544 11.0318490566038  C 21.108696 11.0318490566038  22.0818 11.8372075471698  22.0818 12.9647547169811  L 22.0818 22.3073962264151  Z M 32.787388 22.307320754717  C 32.787388 23.4349433962264  31.814208 24.2403018867925  30.841028 24.2402264150943  L 27.596892 24.2402264150943  C 26.623636 24.2402264150943  25.65038 23.4347924528302  25 22.3073962264151  L 25 2.01139622641509  C 25.65038 1.04498113207547  26.461452 0.0784905660377359  27.596892 0.0784905660377359  L 30.841028 0.0784905660377359  C 31.814284 0.0784905660377359  32.787388 0.883849056603774  32.787388 2.01139622641509  L 32.787388 22.307320754717  Z M 36.355892 29.8780377358491  L 1.644032 29.8780377358491  C 0.83296 29.8780377358491  0.184148 29.0725283018868  0.184148 28.4283018867925  L 0.184148 28.2671698113208  C 0.184148 27.4617358490566  0.99522 26.8174339622642  1.644032 26.8174339622642  L 36.356044 26.8174339622642  C 37.16704 26.8174339622642  37.815852 27.6228679245283  37.815852 28.2671698113208  L 37.815852 28.4283018867925  C 37.815852 29.0725283018868  37.16704 29.8780377358491  36.356044 29.8780377358491  Z " fill-rule="nonzero" fill="#58d0ef" stroke="none" transform="matrix(1 0 0 1 837 97 )" />
  </g>
</svg>