<?xml version="1.0" encoding="utf-8"?>
<svg version="1.1" xmlns:xlink="http://www.w3.org/1999/xlink" width="7px" height="12px" xmlns="http://www.w3.org/2000/svg">
  <g transform="matrix(1 0 0 1 -778 -582 )">
    <path d="M 7 1.1435  C 7 0.5294  6.609015 0.0309166666666666  6.1257875 0.0309166666666666  C 5.952065 0.0309166666666666  5.79117 0.0977666666666665  5.654845 0.208333333333333  C 5.635595 0.22375  5.6181475 0.241683333333333  5.6 0.2587  L 3.2108475 2.48093333333333  L 0.430535 5.06491666666667  L 0.364665 5.12658333333333  C 0.1582875 5.32991666666667  0.0230824999999997 5.64513333333333  0.0230824999999997 6.00341666666667  C 0.0237824999999999 6.36236666666667  0.1588475 6.67838333333333  0.366345 6.88158333333333  L 0.430535 6.94085  L 3.21139 9.52656666666667  L 5.5020525 11.6568333333333  L 5.7148525 11.85485  C 5.83779 11.9387  5.976075 11.9913333333333  6.1257875 11.9913333333333  C 6.609015 11.9913333333333  7 11.4935166666667  7 10.87875  L 7 1.1435  Z " fill-rule="nonzero" fill="#006569" stroke="none" transform="matrix(1 0 0 1 778 582 )" />
  </g>
</svg>