<?xml version="1.0" encoding="utf-8"?>
<svg version="1.1" xmlns:xlink="http://www.w3.org/1999/xlink" width="7px" height="12px" xmlns="http://www.w3.org/2000/svg">
  <g transform="matrix(1 0 0 1 -785 -582 )">
    <path d="M 6.9769175 1.1435  C 6.9769175 0.5294  6.5859325 0.0309166666666666  6.102705 0.0309166666666666  C 5.9289825 0.0309166666666666  5.7680875 0.0977666666666665  5.6317625 0.208333333333333  C 5.6125125 0.22375  5.595065 0.241683333333333  5.5769175 0.2587  L 3.1877475 2.48093333333333  L 0.407452500000001 5.06491666666667  L 0.341582500000002 5.12658333333333  C 0.135204999999999 5.32991666666667  0 5.64513333333333  0 6.00341666666667  C 0.000700000000000855 6.36236666666667  0.135765000000001 6.67838333333333  0.3432625 6.88158333333333  L 0.407452500000001 6.94085  L 3.1883075 9.52656666666667  L 5.47897 11.6568333333333  L 5.69177 11.85485  C 5.8147075 11.9387  5.9529925 11.9913333333333  6.102705 11.9913333333333  C 6.5859325 11.9913333333333  6.9769175 11.4935166666667  6.9769175 10.87875  L 6.9769175 1.1435  Z " fill-rule="nonzero" fill="#006569" stroke="none" transform="matrix(1 0 0 1 785 582 )" />
  </g>
</svg>