<?xml version="1.0" encoding="utf-8"?>
<svg version="1.1" xmlns:xlink="http://www.w3.org/1999/xlink" width="16px" height="15px" xmlns="http://www.w3.org/2000/svg">
  <g transform="matrix(1 0 0 1 -45 -222 )">
    <path d="M 0.548936170212766 6.20192307692308  L 15.3872340425532 6.20192307692308  C 15.6807506973565 6.20226741842364  15.9185045581578 6.43278891669527  15.9185045581578 6.7170325890544  C 15.9185045581578 6.84694292928658  15.8678168570579 6.97205594588809  15.7765957446809 7.06730769230769  L 8.35744680851064 14.793956043956  C 8.256822656373 14.898651952949  8.11577844000089 14.9581191805441  7.96808510638298 14.9581191805441  C 7.82039177276507 14.9581191805441  7.67934755639296 14.898651952949  7.57872340425532 14.793956043956  L 0.159574468085106 7.06730769230769  C 0.0683533557080696 6.97205594588809  0.0176656546081677 6.84694292928658  0.0176656546081677 6.7170325890544  C 0.0176656546081677 6.43278891669527  0.255419515409504 6.20226741842364  0.548936170212766 6.20192307692308  Z M 7.96808510638298 13.6875  L 14.1659574468085 7  L 1.77021276595745 7  L 7.96808510638298 13.6875  Z M 15.3872340425532 3.11126373626374  L 0.548936170212767 3.11126373626374  L 15.3872340425532 3.11126373626374  C 15.6819817280433 3.1112628634328  15.9201281377078 3.34188541674798  15.9201281377078 3.62637275354269  C 15.9201281377078 3.87546163937342  15.736078906113 4.08886430624581  15.4829787234043 4.13324175824176  L 15.3872340425532 4.14148351648352  L 0.548936170212766 4.14148351648352  C 0.254188484722676 4.14148438931446  0.0160420750582043 3.91086183599927  0.0160420750582043 3.62637449920457  C 0.0160420750582043 3.37728561337384  0.200091306652976 3.16388294650145  0.453191489361702 3.11950549450549  L 0.548936170212766 3.11126373626374  L 15.3872340425532 3.11126373626374  Z M 15.3872340425532 0  L 0.548936170212767 0  L 15.3872340425532 0.0206043956043956  C 15.6819817280433 0.0206035227734556  15.9201281377078 0.251226076088637  15.9201281377078 0.535713412883346  C 15.9201281377078 0.784802298714074  15.736078906113 0.998204965586466  15.4829787234043 1.04258241758242  L 15.3872340425532 1  L 0.548936170212766 1  C 0.548609770045977 1.05082475771135  0.548283369395087 1.05082504865512  0.547956968675226 1.05082504865512  C 0.254188484722676 1.05082504865512  0.0160420750582043 0.820202495339934  0.0160420750582043 0.535715158545226  C 0.0160420750582043 0.286626272714497  0.200091306652976 0.0732236058421046  0.453191489361702 0.0288461538461538  L 0.548936170212766 0  L 15.3872340425532 0  Z " fill-rule="nonzero" fill="#8080ff" stroke="none" transform="matrix(1 0 0 1 45 222 )" />
  </g>
</svg>