<?xml version="1.0" encoding="utf-8"?>
<svg version="1.1" xmlns:xlink="http://www.w3.org/1999/xlink" width="34px" height="33px" xmlns="http://www.w3.org/2000/svg">
  <g transform="matrix(1 0 0 1 -758 -18 )">
    <path d="M 26.88125 4.78125  L 29.75 4.78125  L 29.75 7.4765625  L 31.875 9.46875  L 31.875 3.609375  C 31.875 2.90625  31.45 2.4375  30.8125 2.4375  L 24.4375 2.4375  L 26.88125 4.78125  Z M 34 15.328125  L 18.0625 0.09375  L 15.9375 0.09375  L 0 15.328125  L 0 16.5  C 0 17.203125  0.425 17.671875  1.0625 17.671875  L 4.25 17.671875  L 4.25 31.734375  C 4.25 32.4375  4.675 32.90625  5.3125 32.90625  L 13.8125 32.90625  C 14.45 32.90625  14.875 32.4375  15 31.734375  L 15 21.1875  L 19 21.1875  L 19 31.734375  C 19.125 32.4375  19.55 32.90625  20.1875 32.90625  L 28.6875 32.90625  C 29.325 32.90625  29.75 32.4375  29.75 31.734375  L 29.75 17.671875  L 32.9375 17.671875  C 33.575 17.671875  34 17.203125  34 16.5  L 34 15.328125  Z M 30.6 15.328125  L 28.6875 15.328125  C 28.05 15.328125  27.625 15.796875  27 16.5  L 27 30.5625  L 21 30.5625  L 21 20.015625  C 21.25 19.3125  20.825 18.84375  20.1875 18.84375  L 13.8125 18.84375  C 13.175 18.84375  12.75 19.3125  13 20.015625  L 13 30.5625  L 7 30.5625  L 7 16.5  C 6.375 15.796875  5.95 15.328125  5.3125 15.328125  L 3.4 15.328125  L 17 2.4375  L 30.6 15.328125  Z " fill-rule="nonzero" fill="#39bbdb" stroke="none" transform="matrix(1 0 0 1 758 18 )" />
  </g>
</svg>